  0
SECTION
  2
HEADER
  9
$ANGBASE
  50
0.0
  9
$ANGDIR
  70
1
  9
$MEASUREMENT
  70
0
  0
ENDSEC
  0
SECTION
  2
TABLES
  0
TABLE
  2
LTYPE
  70
4
  0
LTYPE
  5
40F
  2
CONTINUOUS
  70
0
  3
Solid line
  72
65
  73
0
  40
0.0
  0
LTYPE
  5
410
  2
DASHDOT
 70
0
  3
Dash Dot ____ _ ____ _
 72
65
 73
4
 40
2.0
 49
1.25
 49
-0.25
 49
0.25
 49
-0.25
  0
LTYPE
  5
411
  2
DASHED
 70
0
  3
Dashed __ __ __ __ __
 72
65
 73
2
 40
0.75
 49
0.5
 49
-0.25
  0
LTYPE
  5
43B
  2
DOTTED
 70
0
  3
Dotted .  .  .  .
 72
65
 73
2
 40
0.2
 49
0.0
 49
-0.2
  0
ENDTAB
  0
TABLE
  2
STYLE
  70
4
  0
STYLE
  2
KICAD
  70
0
  40
0
  41
1
  42
1
  50
0
  71
0
  3
isocp.shx
  0
STYLE
  2
KICADB
  70
0
  40
0
  41
1
  42
1
  50
0
  71
0
  3
isocp.shx
  0
STYLE
  2
KICADI
  70
0
  40
0
  41
1
  42
1
  50
15
  71
0
  3
isocp.shx
  0
STYLE
  2
KICADBI
  70
0
  40
0
  41
1
  42
1
  50
15
  71
0
  3
isocp.shx
  0
ENDTAB
  0
TABLE
  2
LAYER
  70
1
  0
LAYER
  2
BLACK
  70
0
  62
7
  6
CONTINUOUS
  0
ENDTAB
  0
ENDSEC
  0
SECTION
  2
ENTITIES
0
LINE
8
BLACK
6
CONTINUOUS
10
6.11492
20
-4.9749
11
6.12877
21
-4.97734
0
LINE
8
BLACK
6
CONTINUOUS
10
6.12877
20
-4.97734
11
6.14226
21
-4.98132
0
LINE
8
BLACK
6
CONTINUOUS
10
6.14226
20
-4.98132
11
6.15523
21
-4.98677
0
LINE
8
BLACK
6
CONTINUOUS
10
6.15523
20
-4.98677
11
6.16751
21
-4.99363
0
LINE
8
BLACK
6
CONTINUOUS
10
6.16751
20
-4.99363
11
6.17894
21
-5.00182
0
LINE
8
BLACK
6
CONTINUOUS
10
6.17894
20
-5.00182
11
6.18939
21
-5.01123
0
LINE
8
BLACK
6
CONTINUOUS
10
6.18939
20
-5.01123
11
6.19873
21
-5.02175
0
LINE
8
BLACK
6
CONTINUOUS
10
6.19873
20
-5.02175
11
6.20684
21
-5.03324
0
LINE
8
BLACK
6
CONTINUOUS
10
6.20684
20
-5.03324
11
6.21362
21
-5.04556
0
LINE
8
BLACK
6
CONTINUOUS
10
6.21362
20
-5.04556
11
6.21898
21
-5.05857
0
LINE
8
BLACK
6
CONTINUOUS
10
6.21898
20
-5.05857
11
6.22285
21
-5.07209
0
LINE
8
BLACK
6
CONTINUOUS
10
6.22285
20
-5.07209
11
6.2252
21
-5.08596
0
LINE
8
BLACK
6
CONTINUOUS
10
6.2252
20
-5.08596
11
6.22598
21
-5.1
0
LINE
8
BLACK
6
CONTINUOUS
10
6.22598
20
-5.1
11
6.22594
21
-5.10352
0
LINE
8
BLACK
6
CONTINUOUS
10
6.22594
20
-5.10352
11
6.22476
21
-5.11753
0
LINE
8
BLACK
6
CONTINUOUS
10
6.22476
20
-5.11753
11
6.22203
21
-5.13133
0
LINE
8
BLACK
6
CONTINUOUS
10
6.22203
20
-5.13133
11
6.21777
21
-5.14474
0
LINE
8
BLACK
6
CONTINUOUS
10
6.21777
20
-5.14474
11
6.21205
21
-5.15759
0
LINE
8
BLACK
6
CONTINUOUS
10
6.21205
20
-5.15759
11
6.20493
21
-5.16972
0
LINE
8
BLACK
6
CONTINUOUS
10
6.20493
20
-5.16972
11
6.19651
21
-5.18098
0
LINE
8
BLACK
6
CONTINUOUS
10
6.19651
20
-5.18098
11
6.18688
21
-5.19123
0
LINE
8
BLACK
6
CONTINUOUS
10
6.18688
20
-5.19123
11
6.17617
21
-5.20035
0
LINE
8
BLACK
6
CONTINUOUS
10
6.17617
20
-5.20035
11
6.16451
21
-5.20822
0
LINE
8
BLACK
6
CONTINUOUS
10
6.16451
20
-5.20822
11
6.15204
21
-5.21473
0
LINE
8
BLACK
6
CONTINUOUS
10
6.15204
20
-5.21473
11
6.13893
21
-5.21982
0
LINE
8
BLACK
6
CONTINUOUS
10
6.13893
20
-5.21982
11
6.12533
21
-5.22341
0
LINE
8
BLACK
6
CONTINUOUS
10
6.12533
20
-5.22341
11
6.11142
21
-5.22547
0
LINE
8
BLACK
6
CONTINUOUS
10
6.11142
20
-5.22547
11
6.09736
21
-5.22596
0
LINE
8
BLACK
6
CONTINUOUS
10
6.09736
20
-5.22596
11
6.08334
21
-5.22488
0
LINE
8
BLACK
6
CONTINUOUS
10
6.08334
20
-5.22488
11
6.06952
21
-5.22224
0
LINE
8
BLACK
6
CONTINUOUS
10
6.06952
20
-5.22224
11
6.05609
21
-5.21808
0
LINE
8
BLACK
6
CONTINUOUS
10
6.05609
20
-5.21808
11
6.0432
21
-5.21245
0
LINE
8
BLACK
6
CONTINUOUS
10
6.0432
20
-5.21245
11
6.03102
21
-5.20542
0
LINE
8
BLACK
6
CONTINUOUS
10
6.03102
20
-5.20542
11
6.01969
21
-5.19707
0
LINE
8
BLACK
6
CONTINUOUS
10
6.01969
20
-5.19707
11
6.00937
21
-5.18752
0
LINE
8
BLACK
6
CONTINUOUS
10
6.00937
20
-5.18752
11
6.00018
21
-5.17687
0
LINE
8
BLACK
6
CONTINUOUS
10
6.00018
20
-5.17687
11
5.99224
21
-5.16526
0
LINE
8
BLACK
6
CONTINUOUS
10
5.99224
20
-5.16526
11
5.98563
21
-5.15284
0
LINE
8
BLACK
6
CONTINUOUS
10
5.98563
20
-5.15284
11
5.98046
21
-5.13977
0
LINE
8
BLACK
6
CONTINUOUS
10
5.98046
20
-5.13977
11
5.97677
21
-5.12619
0
LINE
8
BLACK
6
CONTINUOUS
10
5.97677
20
-5.12619
11
5.97462
21
-5.11229
0
LINE
8
BLACK
6
CONTINUOUS
10
5.97462
20
-5.11229
11
5.97403
21
-5.09824
0
LINE
8
BLACK
6
CONTINUOUS
10
5.97403
20
-5.09824
11
5.97501
21
-5.08421
0
LINE
8
BLACK
6
CONTINUOUS
10
5.97501
20
-5.08421
11
5.97755
21
-5.07038
0
LINE
8
BLACK
6
CONTINUOUS
10
5.97755
20
-5.07038
11
5.98161
21
-5.05691
0
LINE
8
BLACK
6
CONTINUOUS
10
5.98161
20
-5.05691
11
5.98715
21
-5.04398
0
LINE
8
BLACK
6
CONTINUOUS
10
5.98715
20
-5.04398
11
5.9941
21
-5.03175
0
LINE
8
BLACK
6
CONTINUOUS
10
5.9941
20
-5.03175
11
6.00237
21
-5.02037
0
LINE
8
BLACK
6
CONTINUOUS
10
6.00237
20
-5.02037
11
6.01185
21
-5.00999
0
LINE
8
BLACK
6
CONTINUOUS
10
6.01185
20
-5.00999
11
6.02244
21
-5.00072
0
LINE
8
BLACK
6
CONTINUOUS
10
6.02244
20
-5.00072
11
6.03399
21
-4.9927
0
LINE
8
BLACK
6
CONTINUOUS
10
6.03399
20
-4.9927
11
6.04636
21
-4.98601
0
LINE
8
BLACK
6
CONTINUOUS
10
6.04636
20
-4.98601
11
6.0594
21
-4.98074
0
LINE
8
BLACK
6
CONTINUOUS
10
6.0594
20
-4.98074
11
6.07295
21
-4.97695
0
LINE
8
BLACK
6
CONTINUOUS
10
6.07295
20
-4.97695
11
6.08683
21
-4.97471
0
LINE
8
BLACK
6
CONTINUOUS
10
6.08683
20
-4.97471
11
6.10088
21
-4.97402
0
LINE
8
BLACK
6
CONTINUOUS
10
6.10088
20
-4.97402
11
6.11492
21
-4.9749
0
LINE
8
BLACK
6
CONTINUOUS
10
2.86492
20
-4.9749
11
2.87877
21
-4.97734
0
LINE
8
BLACK
6
CONTINUOUS
10
2.87877
20
-4.97734
11
2.89226
21
-4.98132
0
LINE
8
BLACK
6
CONTINUOUS
10
2.89226
20
-4.98132
11
2.90523
21
-4.98677
0
LINE
8
BLACK
6
CONTINUOUS
10
2.90523
20
-4.98677
11
2.91751
21
-4.99363
0
LINE
8
BLACK
6
CONTINUOUS
10
2.91751
20
-4.99363
11
2.92894
21
-5.00182
0
LINE
8
BLACK
6
CONTINUOUS
10
2.92894
20
-5.00182
11
2.93939
21
-5.01123
0
LINE
8
BLACK
6
CONTINUOUS
10
2.93939
20
-5.01123
11
2.94873
21
-5.02175
0
LINE
8
BLACK
6
CONTINUOUS
10
2.94873
20
-5.02175
11
2.95684
21
-5.03324
0
LINE
8
BLACK
6
CONTINUOUS
10
2.95684
20
-5.03324
11
2.96362
21
-5.04556
0
LINE
8
BLACK
6
CONTINUOUS
10
2.96362
20
-5.04556
11
2.96898
21
-5.05857
0
LINE
8
BLACK
6
CONTINUOUS
10
2.96898
20
-5.05857
11
2.97285
21
-5.07209
0
LINE
8
BLACK
6
CONTINUOUS
10
2.97285
20
-5.07209
11
2.9752
21
-5.08596
0
LINE
8
BLACK
6
CONTINUOUS
10
2.9752
20
-5.08596
11
2.97598
21
-5.1
0
LINE
8
BLACK
6
CONTINUOUS
10
2.97598
20
-5.1
11
2.97594
21
-5.10352
0
LINE
8
BLACK
6
CONTINUOUS
10
2.97594
20
-5.10352
11
2.97476
21
-5.11753
0
LINE
8
BLACK
6
CONTINUOUS
10
2.97476
20
-5.11753
11
2.97203
21
-5.13133
0
LINE
8
BLACK
6
CONTINUOUS
10
2.97203
20
-5.13133
11
2.96777
21
-5.14474
0
LINE
8
BLACK
6
CONTINUOUS
10
2.96777
20
-5.14474
11
2.96205
21
-5.15759
0
LINE
8
BLACK
6
CONTINUOUS
10
2.96205
20
-5.15759
11
2.95493
21
-5.16972
0
LINE
8
BLACK
6
CONTINUOUS
10
2.95493
20
-5.16972
11
2.94651
21
-5.18098
0
LINE
8
BLACK
6
CONTINUOUS
10
2.94651
20
-5.18098
11
2.93688
21
-5.19123
0
LINE
8
BLACK
6
CONTINUOUS
10
2.93688
20
-5.19123
11
2.92617
21
-5.20035
0
LINE
8
BLACK
6
CONTINUOUS
10
2.92617
20
-5.20035
11
2.91451
21
-5.20822
0
LINE
8
BLACK
6
CONTINUOUS
10
2.91451
20
-5.20822
11
2.90204
21
-5.21473
0
LINE
8
BLACK
6
CONTINUOUS
10
2.90204
20
-5.21473
11
2.88893
21
-5.21982
0
LINE
8
BLACK
6
CONTINUOUS
10
2.88893
20
-5.21982
11
2.87533
21
-5.22341
0
LINE
8
BLACK
6
CONTINUOUS
10
2.87533
20
-5.22341
11
2.86142
21
-5.22547
0
LINE
8
BLACK
6
CONTINUOUS
10
2.86142
20
-5.22547
11
2.84736
21
-5.22596
0
LINE
8
BLACK
6
CONTINUOUS
10
2.84736
20
-5.22596
11
2.83334
21
-5.22488
0
LINE
8
BLACK
6
CONTINUOUS
10
2.83334
20
-5.22488
11
2.81952
21
-5.22224
0
LINE
8
BLACK
6
CONTINUOUS
10
2.81952
20
-5.22224
11
2.80609
21
-5.21808
0
LINE
8
BLACK
6
CONTINUOUS
10
2.80609
20
-5.21808
11
2.7932
21
-5.21245
0
LINE
8
BLACK
6
CONTINUOUS
10
2.7932
20
-5.21245
11
2.78102
21
-5.20542
0
LINE
8
BLACK
6
CONTINUOUS
10
2.78102
20
-5.20542
11
2.76969
21
-5.19707
0
LINE
8
BLACK
6
CONTINUOUS
10
2.76969
20
-5.19707
11
2.75937
21
-5.18752
0
LINE
8
BLACK
6
CONTINUOUS
10
2.75937
20
-5.18752
11
2.75018
21
-5.17687
0
LINE
8
BLACK
6
CONTINUOUS
10
2.75018
20
-5.17687
11
2.74224
21
-5.16526
0
LINE
8
BLACK
6
CONTINUOUS
10
2.74224
20
-5.16526
11
2.73563
21
-5.15284
0
LINE
8
BLACK
6
CONTINUOUS
10
2.73563
20
-5.15284
11
2.73046
21
-5.13977
0
LINE
8
BLACK
6
CONTINUOUS
10
2.73046
20
-5.13977
11
2.72677
21
-5.12619
0
LINE
8
BLACK
6
CONTINUOUS
10
2.72677
20
-5.12619
11
2.72462
21
-5.11229
0
LINE
8
BLACK
6
CONTINUOUS
10
2.72462
20
-5.11229
11
2.72403
21
-5.09824
0
LINE
8
BLACK
6
CONTINUOUS
10
2.72403
20
-5.09824
11
2.72501
21
-5.08421
0
LINE
8
BLACK
6
CONTINUOUS
10
2.72501
20
-5.08421
11
2.72755
21
-5.07038
0
LINE
8
BLACK
6
CONTINUOUS
10
2.72755
20
-5.07038
11
2.73161
21
-5.05691
0
LINE
8
BLACK
6
CONTINUOUS
10
2.73161
20
-5.05691
11
2.73715
21
-5.04398
0
LINE
8
BLACK
6
CONTINUOUS
10
2.73715
20
-5.04398
11
2.7441
21
-5.03175
0
LINE
8
BLACK
6
CONTINUOUS
10
2.7441
20
-5.03175
11
2.75237
21
-5.02037
0
LINE
8
BLACK
6
CONTINUOUS
10
2.75237
20
-5.02037
11
2.76185
21
-5.00999
0
LINE
8
BLACK
6
CONTINUOUS
10
2.76185
20
-5.00999
11
2.77244
21
-5.00072
0
LINE
8
BLACK
6
CONTINUOUS
10
2.77244
20
-5.00072
11
2.78399
21
-4.9927
0
LINE
8
BLACK
6
CONTINUOUS
10
2.78399
20
-4.9927
11
2.79636
21
-4.98601
0
LINE
8
BLACK
6
CONTINUOUS
10
2.79636
20
-4.98601
11
2.8094
21
-4.98074
0
LINE
8
BLACK
6
CONTINUOUS
10
2.8094
20
-4.98074
11
2.82295
21
-4.97695
0
LINE
8
BLACK
6
CONTINUOUS
10
2.82295
20
-4.97695
11
2.83683
21
-4.97471
0
LINE
8
BLACK
6
CONTINUOUS
10
2.83683
20
-4.97471
11
2.85088
21
-4.97402
0
LINE
8
BLACK
6
CONTINUOUS
10
2.85088
20
-4.97402
11
2.86492
21
-4.9749
0
LINE
8
BLACK
6
CONTINUOUS
10
5.64846
20
-5.16346
11
5.58154
21
-5.16346
0
LINE
8
BLACK
6
CONTINUOUS
10
5.58154
20
-5.16346
11
5.58154
21
-5.09654
0
LINE
8
BLACK
6
CONTINUOUS
10
5.58154
20
-5.09654
11
5.64846
21
-5.09654
0
LINE
8
BLACK
6
CONTINUOUS
10
5.64846
20
-5.09654
11
5.64846
21
-5.16346
0
LINE
8
BLACK
6
CONTINUOUS
10
5.72534
20
-5.09817
11
5.73173
21
-5.10102
0
LINE
8
BLACK
6
CONTINUOUS
10
5.73173
20
-5.10102
11
5.73739
21
-5.10513
0
LINE
8
BLACK
6
CONTINUOUS
10
5.73739
20
-5.10513
11
5.74207
21
-5.11033
0
LINE
8
BLACK
6
CONTINUOUS
10
5.74207
20
-5.11033
11
5.74557
21
-5.11639
0
LINE
8
BLACK
6
CONTINUOUS
10
5.74557
20
-5.11639
11
5.74773
21
-5.12304
0
LINE
8
BLACK
6
CONTINUOUS
10
5.74773
20
-5.12304
11
5.74846
21
-5.13
0
LINE
8
BLACK
6
CONTINUOUS
10
5.74846
20
-5.13
11
5.74773
21
-5.13696
0
LINE
8
BLACK
6
CONTINUOUS
10
5.74773
20
-5.13696
11
5.74557
21
-5.14361
0
LINE
8
BLACK
6
CONTINUOUS
10
5.74557
20
-5.14361
11
5.74207
21
-5.14967
0
LINE
8
BLACK
6
CONTINUOUS
10
5.74207
20
-5.14967
11
5.73739
21
-5.15487
0
LINE
8
BLACK
6
CONTINUOUS
10
5.73739
20
-5.15487
11
5.73173
21
-5.15898
0
LINE
8
BLACK
6
CONTINUOUS
10
5.73173
20
-5.15898
11
5.72534
21
-5.16183
0
LINE
8
BLACK
6
CONTINUOUS
10
5.72534
20
-5.16183
11
5.7185
21
-5.16328
0
LINE
8
BLACK
6
CONTINUOUS
10
5.7185
20
-5.16328
11
5.7115
21
-5.16328
0
LINE
8
BLACK
6
CONTINUOUS
10
5.7115
20
-5.16328
11
5.70466
21
-5.16183
0
LINE
8
BLACK
6
CONTINUOUS
10
5.70466
20
-5.16183
11
5.69827
21
-5.15898
0
LINE
8
BLACK
6
CONTINUOUS
10
5.69827
20
-5.15898
11
5.69261
21
-5.15487
0
LINE
8
BLACK
6
CONTINUOUS
10
5.69261
20
-5.15487
11
5.68793
21
-5.14967
0
LINE
8
BLACK
6
CONTINUOUS
10
5.68793
20
-5.14967
11
5.68443
21
-5.14361
0
LINE
8
BLACK
6
CONTINUOUS
10
5.68443
20
-5.14361
11
5.68227
21
-5.13696
0
LINE
8
BLACK
6
CONTINUOUS
10
5.68227
20
-5.13696
11
5.68154
21
-5.13
0
LINE
8
BLACK
6
CONTINUOUS
10
5.68154
20
-5.13
11
5.68227
21
-5.12304
0
LINE
8
BLACK
6
CONTINUOUS
10
5.68227
20
-5.12304
11
5.68443
21
-5.11639
0
LINE
8
BLACK
6
CONTINUOUS
10
5.68443
20
-5.11639
11
5.68793
21
-5.11033
0
LINE
8
BLACK
6
CONTINUOUS
10
5.68793
20
-5.11033
11
5.69261
21
-5.10513
0
LINE
8
BLACK
6
CONTINUOUS
10
5.69261
20
-5.10513
11
5.69827
21
-5.10102
0
LINE
8
BLACK
6
CONTINUOUS
10
5.69827
20
-5.10102
11
5.70466
21
-5.09817
0
LINE
8
BLACK
6
CONTINUOUS
10
5.70466
20
-5.09817
11
5.7115
21
-5.09672
0
LINE
8
BLACK
6
CONTINUOUS
10
5.7115
20
-5.09672
11
5.7185
21
-5.09672
0
LINE
8
BLACK
6
CONTINUOUS
10
5.7185
20
-5.09672
11
5.72534
21
-5.09817
0
LINE
8
BLACK
6
CONTINUOUS
10
5.82534
20
-5.09817
11
5.83173
21
-5.10102
0
LINE
8
BLACK
6
CONTINUOUS
10
5.83173
20
-5.10102
11
5.83739
21
-5.10513
0
LINE
8
BLACK
6
CONTINUOUS
10
5.83739
20
-5.10513
11
5.84207
21
-5.11033
0
LINE
8
BLACK
6
CONTINUOUS
10
5.84207
20
-5.11033
11
5.84557
21
-5.11639
0
LINE
8
BLACK
6
CONTINUOUS
10
5.84557
20
-5.11639
11
5.84773
21
-5.12304
0
LINE
8
BLACK
6
CONTINUOUS
10
5.84773
20
-5.12304
11
5.84846
21
-5.13
0
LINE
8
BLACK
6
CONTINUOUS
10
5.84846
20
-5.13
11
5.84773
21
-5.13696
0
LINE
8
BLACK
6
CONTINUOUS
10
5.84773
20
-5.13696
11
5.84557
21
-5.14361
0
LINE
8
BLACK
6
CONTINUOUS
10
5.84557
20
-5.14361
11
5.84207
21
-5.14967
0
LINE
8
BLACK
6
CONTINUOUS
10
5.84207
20
-5.14967
11
5.83739
21
-5.15487
0
LINE
8
BLACK
6
CONTINUOUS
10
5.83739
20
-5.15487
11
5.83173
21
-5.15898
0
LINE
8
BLACK
6
CONTINUOUS
10
5.83173
20
-5.15898
11
5.82534
21
-5.16183
0
LINE
8
BLACK
6
CONTINUOUS
10
5.82534
20
-5.16183
11
5.8185
21
-5.16328
0
LINE
8
BLACK
6
CONTINUOUS
10
5.8185
20
-5.16328
11
5.8115
21
-5.16328
0
LINE
8
BLACK
6
CONTINUOUS
10
5.8115
20
-5.16328
11
5.80466
21
-5.16183
0
LINE
8
BLACK
6
CONTINUOUS
10
5.80466
20
-5.16183
11
5.79827
21
-5.15898
0
LINE
8
BLACK
6
CONTINUOUS
10
5.79827
20
-5.15898
11
5.79261
21
-5.15487
0
LINE
8
BLACK
6
CONTINUOUS
10
5.79261
20
-5.15487
11
5.78793
21
-5.14967
0
LINE
8
BLACK
6
CONTINUOUS
10
5.78793
20
-5.14967
11
5.78443
21
-5.14361
0
LINE
8
BLACK
6
CONTINUOUS
10
5.78443
20
-5.14361
11
5.78227
21
-5.13696
0
LINE
8
BLACK
6
CONTINUOUS
10
5.78227
20
-5.13696
11
5.78154
21
-5.13
0
LINE
8
BLACK
6
CONTINUOUS
10
5.78154
20
-5.13
11
5.78227
21
-5.12304
0
LINE
8
BLACK
6
CONTINUOUS
10
5.78227
20
-5.12304
11
5.78443
21
-5.11639
0
LINE
8
BLACK
6
CONTINUOUS
10
5.78443
20
-5.11639
11
5.78793
21
-5.11033
0
LINE
8
BLACK
6
CONTINUOUS
10
5.78793
20
-5.11033
11
5.79261
21
-5.10513
0
LINE
8
BLACK
6
CONTINUOUS
10
5.79261
20
-5.10513
11
5.79827
21
-5.10102
0
LINE
8
BLACK
6
CONTINUOUS
10
5.79827
20
-5.10102
11
5.80466
21
-5.09817
0
LINE
8
BLACK
6
CONTINUOUS
10
5.80466
20
-5.09817
11
5.8115
21
-5.09672
0
LINE
8
BLACK
6
CONTINUOUS
10
5.8115
20
-5.09672
11
5.8185
21
-5.09672
0
LINE
8
BLACK
6
CONTINUOUS
10
5.8185
20
-5.09672
11
5.82534
21
-5.09817
0
LINE
8
BLACK
6
CONTINUOUS
10
4.98346
20
-5.13346
11
4.91654
21
-5.13346
0
LINE
8
BLACK
6
CONTINUOUS
10
4.91654
20
-5.13346
11
4.91654
21
-5.06654
0
LINE
8
BLACK
6
CONTINUOUS
10
4.91654
20
-5.06654
11
4.98346
21
-5.06654
0
LINE
8
BLACK
6
CONTINUOUS
10
4.98346
20
-5.06654
11
4.98346
21
-5.13346
0
LINE
8
BLACK
6
CONTINUOUS
10
4.86034
20
-5.06817
11
4.86673
21
-5.07102
0
LINE
8
BLACK
6
CONTINUOUS
10
4.86673
20
-5.07102
11
4.87239
21
-5.07513
0
LINE
8
BLACK
6
CONTINUOUS
10
4.87239
20
-5.07513
11
4.87707
21
-5.08033
0
LINE
8
BLACK
6
CONTINUOUS
10
4.87707
20
-5.08033
11
4.88057
21
-5.08639
0
LINE
8
BLACK
6
CONTINUOUS
10
4.88057
20
-5.08639
11
4.88273
21
-5.09304
0
LINE
8
BLACK
6
CONTINUOUS
10
4.88273
20
-5.09304
11
4.88346
21
-5.1
0
LINE
8
BLACK
6
CONTINUOUS
10
4.88346
20
-5.1
11
4.88273
21
-5.10696
0
LINE
8
BLACK
6
CONTINUOUS
10
4.88273
20
-5.10696
11
4.88057
21
-5.11361
0
LINE
8
BLACK
6
CONTINUOUS
10
4.88057
20
-5.11361
11
4.87707
21
-5.11967
0
LINE
8
BLACK
6
CONTINUOUS
10
4.87707
20
-5.11967
11
4.87239
21
-5.12487
0
LINE
8
BLACK
6
CONTINUOUS
10
4.87239
20
-5.12487
11
4.86673
21
-5.12898
0
LINE
8
BLACK
6
CONTINUOUS
10
4.86673
20
-5.12898
11
4.86034
21
-5.13183
0
LINE
8
BLACK
6
CONTINUOUS
10
4.86034
20
-5.13183
11
4.8535
21
-5.13328
0
LINE
8
BLACK
6
CONTINUOUS
10
4.8535
20
-5.13328
11
4.8465
21
-5.13328
0
LINE
8
BLACK
6
CONTINUOUS
10
4.8465
20
-5.13328
11
4.83966
21
-5.13183
0
LINE
8
BLACK
6
CONTINUOUS
10
4.83966
20
-5.13183
11
4.83327
21
-5.12898
0
LINE
8
BLACK
6
CONTINUOUS
10
4.83327
20
-5.12898
11
4.82761
21
-5.12487
0
LINE
8
BLACK
6
CONTINUOUS
10
4.82761
20
-5.12487
11
4.82293
21
-5.11967
0
LINE
8
BLACK
6
CONTINUOUS
10
4.82293
20
-5.11967
11
4.81943
21
-5.11361
0
LINE
8
BLACK
6
CONTINUOUS
10
4.81943
20
-5.11361
11
4.81727
21
-5.10696
0
LINE
8
BLACK
6
CONTINUOUS
10
4.81727
20
-5.10696
11
4.81654
21
-5.1
0
LINE
8
BLACK
6
CONTINUOUS
10
4.81654
20
-5.1
11
4.81727
21
-5.09304
0
LINE
8
BLACK
6
CONTINUOUS
10
4.81727
20
-5.09304
11
4.81943
21
-5.08639
0
LINE
8
BLACK
6
CONTINUOUS
10
4.81943
20
-5.08639
11
4.82293
21
-5.08033
0
LINE
8
BLACK
6
CONTINUOUS
10
4.82293
20
-5.08033
11
4.82761
21
-5.07513
0
LINE
8
BLACK
6
CONTINUOUS
10
4.82761
20
-5.07513
11
4.83327
21
-5.07102
0
LINE
8
BLACK
6
CONTINUOUS
10
4.83327
20
-5.07102
11
4.83966
21
-5.06817
0
LINE
8
BLACK
6
CONTINUOUS
10
4.83966
20
-5.06817
11
4.8465
21
-5.06672
0
LINE
8
BLACK
6
CONTINUOUS
10
4.8465
20
-5.06672
11
4.8535
21
-5.06672
0
LINE
8
BLACK
6
CONTINUOUS
10
4.8535
20
-5.06672
11
4.86034
21
-5.06817
0
LINE
8
BLACK
6
CONTINUOUS
10
4.76034
20
-5.06817
11
4.76673
21
-5.07102
0
LINE
8
BLACK
6
CONTINUOUS
10
4.76673
20
-5.07102
11
4.77239
21
-5.07513
0
LINE
8
BLACK
6
CONTINUOUS
10
4.77239
20
-5.07513
11
4.77707
21
-5.08033
0
LINE
8
BLACK
6
CONTINUOUS
10
4.77707
20
-5.08033
11
4.78057
21
-5.08639
0
LINE
8
BLACK
6
CONTINUOUS
10
4.78057
20
-5.08639
11
4.78273
21
-5.09304
0
LINE
8
BLACK
6
CONTINUOUS
10
4.78273
20
-5.09304
11
4.78346
21
-5.1
0
LINE
8
BLACK
6
CONTINUOUS
10
4.78346
20
-5.1
11
4.78273
21
-5.10696
0
LINE
8
BLACK
6
CONTINUOUS
10
4.78273
20
-5.10696
11
4.78057
21
-5.11361
0
LINE
8
BLACK
6
CONTINUOUS
10
4.78057
20
-5.11361
11
4.77707
21
-5.11967
0
LINE
8
BLACK
6
CONTINUOUS
10
4.77707
20
-5.11967
11
4.77239
21
-5.12487
0
LINE
8
BLACK
6
CONTINUOUS
10
4.77239
20
-5.12487
11
4.76673
21
-5.12898
0
LINE
8
BLACK
6
CONTINUOUS
10
4.76673
20
-5.12898
11
4.76034
21
-5.13183
0
LINE
8
BLACK
6
CONTINUOUS
10
4.76034
20
-5.13183
11
4.7535
21
-5.13328
0
LINE
8
BLACK
6
CONTINUOUS
10
4.7535
20
-5.13328
11
4.7465
21
-5.13328
0
LINE
8
BLACK
6
CONTINUOUS
10
4.7465
20
-5.13328
11
4.73966
21
-5.13183
0
LINE
8
BLACK
6
CONTINUOUS
10
4.73966
20
-5.13183
11
4.73327
21
-5.12898
0
LINE
8
BLACK
6
CONTINUOUS
10
4.73327
20
-5.12898
11
4.72761
21
-5.12487
0
LINE
8
BLACK
6
CONTINUOUS
10
4.72761
20
-5.12487
11
4.72293
21
-5.11967
0
LINE
8
BLACK
6
CONTINUOUS
10
4.72293
20
-5.11967
11
4.71943
21
-5.11361
0
LINE
8
BLACK
6
CONTINUOUS
10
4.71943
20
-5.11361
11
4.71727
21
-5.10696
0
LINE
8
BLACK
6
CONTINUOUS
10
4.71727
20
-5.10696
11
4.71654
21
-5.1
0
LINE
8
BLACK
6
CONTINUOUS
10
4.71654
20
-5.1
11
4.71727
21
-5.09304
0
LINE
8
BLACK
6
CONTINUOUS
10
4.71727
20
-5.09304
11
4.71943
21
-5.08639
0
LINE
8
BLACK
6
CONTINUOUS
10
4.71943
20
-5.08639
11
4.72293
21
-5.08033
0
LINE
8
BLACK
6
CONTINUOUS
10
4.72293
20
-5.08033
11
4.72761
21
-5.07513
0
LINE
8
BLACK
6
CONTINUOUS
10
4.72761
20
-5.07513
11
4.73327
21
-5.07102
0
LINE
8
BLACK
6
CONTINUOUS
10
4.73327
20
-5.07102
11
4.73966
21
-5.06817
0
LINE
8
BLACK
6
CONTINUOUS
10
4.73966
20
-5.06817
11
4.7465
21
-5.06672
0
LINE
8
BLACK
6
CONTINUOUS
10
4.7465
20
-5.06672
11
4.7535
21
-5.06672
0
LINE
8
BLACK
6
CONTINUOUS
10
4.7535
20
-5.06672
11
4.76034
21
-5.06817
0
LINE
8
BLACK
6
CONTINUOUS
10
4.66034
20
-5.06817
11
4.66673
21
-5.07102
0
LINE
8
BLACK
6
CONTINUOUS
10
4.66673
20
-5.07102
11
4.67239
21
-5.07513
0
LINE
8
BLACK
6
CONTINUOUS
10
4.67239
20
-5.07513
11
4.67707
21
-5.08033
0
LINE
8
BLACK
6
CONTINUOUS
10
4.67707
20
-5.08033
11
4.68057
21
-5.08639
0
LINE
8
BLACK
6
CONTINUOUS
10
4.68057
20
-5.08639
11
4.68273
21
-5.09304
0
LINE
8
BLACK
6
CONTINUOUS
10
4.68273
20
-5.09304
11
4.68346
21
-5.1
0
LINE
8
BLACK
6
CONTINUOUS
10
4.68346
20
-5.1
11
4.68273
21
-5.10696
0
LINE
8
BLACK
6
CONTINUOUS
10
4.68273
20
-5.10696
11
4.68057
21
-5.11361
0
LINE
8
BLACK
6
CONTINUOUS
10
4.68057
20
-5.11361
11
4.67707
21
-5.11967
0
LINE
8
BLACK
6
CONTINUOUS
10
4.67707
20
-5.11967
11
4.67239
21
-5.12487
0
LINE
8
BLACK
6
CONTINUOUS
10
4.67239
20
-5.12487
11
4.66673
21
-5.12898
0
LINE
8
BLACK
6
CONTINUOUS
10
4.66673
20
-5.12898
11
4.66034
21
-5.13183
0
LINE
8
BLACK
6
CONTINUOUS
10
4.66034
20
-5.13183
11
4.6535
21
-5.13328
0
LINE
8
BLACK
6
CONTINUOUS
10
4.6535
20
-5.13328
11
4.6465
21
-5.13328
0
LINE
8
BLACK
6
CONTINUOUS
10
4.6465
20
-5.13328
11
4.63966
21
-5.13183
0
LINE
8
BLACK
6
CONTINUOUS
10
4.63966
20
-5.13183
11
4.63327
21
-5.12898
0
LINE
8
BLACK
6
CONTINUOUS
10
4.63327
20
-5.12898
11
4.62761
21
-5.12487
0
LINE
8
BLACK
6
CONTINUOUS
10
4.62761
20
-5.12487
11
4.62293
21
-5.11967
0
LINE
8
BLACK
6
CONTINUOUS
10
4.62293
20
-5.11967
11
4.61943
21
-5.11361
0
LINE
8
BLACK
6
CONTINUOUS
10
4.61943
20
-5.11361
11
4.61727
21
-5.10696
0
LINE
8
BLACK
6
CONTINUOUS
10
4.61727
20
-5.10696
11
4.61654
21
-5.1
0
LINE
8
BLACK
6
CONTINUOUS
10
4.61654
20
-5.1
11
4.61727
21
-5.09304
0
LINE
8
BLACK
6
CONTINUOUS
10
4.61727
20
-5.09304
11
4.61943
21
-5.08639
0
LINE
8
BLACK
6
CONTINUOUS
10
4.61943
20
-5.08639
11
4.62293
21
-5.08033
0
LINE
8
BLACK
6
CONTINUOUS
10
4.62293
20
-5.08033
11
4.62761
21
-5.07513
0
LINE
8
BLACK
6
CONTINUOUS
10
4.62761
20
-5.07513
11
4.63327
21
-5.07102
0
LINE
8
BLACK
6
CONTINUOUS
10
4.63327
20
-5.07102
11
4.63966
21
-5.06817
0
LINE
8
BLACK
6
CONTINUOUS
10
4.63966
20
-5.06817
11
4.6465
21
-5.06672
0
LINE
8
BLACK
6
CONTINUOUS
10
4.6465
20
-5.06672
11
4.6535
21
-5.06672
0
LINE
8
BLACK
6
CONTINUOUS
10
4.6535
20
-5.06672
11
4.66034
21
-5.06817
0
LINE
8
BLACK
6
CONTINUOUS
10
4.56034
20
-5.06817
11
4.56673
21
-5.07102
0
LINE
8
BLACK
6
CONTINUOUS
10
4.56673
20
-5.07102
11
4.57239
21
-5.07513
0
LINE
8
BLACK
6
CONTINUOUS
10
4.57239
20
-5.07513
11
4.57707
21
-5.08033
0
LINE
8
BLACK
6
CONTINUOUS
10
4.57707
20
-5.08033
11
4.58057
21
-5.08639
0
LINE
8
BLACK
6
CONTINUOUS
10
4.58057
20
-5.08639
11
4.58273
21
-5.09304
0
LINE
8
BLACK
6
CONTINUOUS
10
4.58273
20
-5.09304
11
4.58346
21
-5.1
0
LINE
8
BLACK
6
CONTINUOUS
10
4.58346
20
-5.1
11
4.58273
21
-5.10696
0
LINE
8
BLACK
6
CONTINUOUS
10
4.58273
20
-5.10696
11
4.58057
21
-5.11361
0
LINE
8
BLACK
6
CONTINUOUS
10
4.58057
20
-5.11361
11
4.57707
21
-5.11967
0
LINE
8
BLACK
6
CONTINUOUS
10
4.57707
20
-5.11967
11
4.57239
21
-5.12487
0
LINE
8
BLACK
6
CONTINUOUS
10
4.57239
20
-5.12487
11
4.56673
21
-5.12898
0
LINE
8
BLACK
6
CONTINUOUS
10
4.56673
20
-5.12898
11
4.56034
21
-5.13183
0
LINE
8
BLACK
6
CONTINUOUS
10
4.56034
20
-5.13183
11
4.5535
21
-5.13328
0
LINE
8
BLACK
6
CONTINUOUS
10
4.5535
20
-5.13328
11
4.5465
21
-5.13328
0
LINE
8
BLACK
6
CONTINUOUS
10
4.5465
20
-5.13328
11
4.53966
21
-5.13183
0
LINE
8
BLACK
6
CONTINUOUS
10
4.53966
20
-5.13183
11
4.53327
21
-5.12898
0
LINE
8
BLACK
6
CONTINUOUS
10
4.53327
20
-5.12898
11
4.52761
21
-5.12487
0
LINE
8
BLACK
6
CONTINUOUS
10
4.52761
20
-5.12487
11
4.52293
21
-5.11967
0
LINE
8
BLACK
6
CONTINUOUS
10
4.52293
20
-5.11967
11
4.51943
21
-5.11361
0
LINE
8
BLACK
6
CONTINUOUS
10
4.51943
20
-5.11361
11
4.51727
21
-5.10696
0
LINE
8
BLACK
6
CONTINUOUS
10
4.51727
20
-5.10696
11
4.51654
21
-5.1
0
LINE
8
BLACK
6
CONTINUOUS
10
4.51654
20
-5.1
11
4.51727
21
-5.09304
0
LINE
8
BLACK
6
CONTINUOUS
10
4.51727
20
-5.09304
11
4.51943
21
-5.08639
0
LINE
8
BLACK
6
CONTINUOUS
10
4.51943
20
-5.08639
11
4.52293
21
-5.08033
0
LINE
8
BLACK
6
CONTINUOUS
10
4.52293
20
-5.08033
11
4.52761
21
-5.07513
0
LINE
8
BLACK
6
CONTINUOUS
10
4.52761
20
-5.07513
11
4.53327
21
-5.07102
0
LINE
8
BLACK
6
CONTINUOUS
10
4.53327
20
-5.07102
11
4.53966
21
-5.06817
0
LINE
8
BLACK
6
CONTINUOUS
10
4.53966
20
-5.06817
11
4.5465
21
-5.06672
0
LINE
8
BLACK
6
CONTINUOUS
10
4.5465
20
-5.06672
11
4.5535
21
-5.06672
0
LINE
8
BLACK
6
CONTINUOUS
10
4.5535
20
-5.06672
11
4.56034
21
-5.06817
0
LINE
8
BLACK
6
CONTINUOUS
10
4.46034
20
-5.06817
11
4.46673
21
-5.07102
0
LINE
8
BLACK
6
CONTINUOUS
10
4.46673
20
-5.07102
11
4.47239
21
-5.07513
0
LINE
8
BLACK
6
CONTINUOUS
10
4.47239
20
-5.07513
11
4.47707
21
-5.08033
0
LINE
8
BLACK
6
CONTINUOUS
10
4.47707
20
-5.08033
11
4.48057
21
-5.08639
0
LINE
8
BLACK
6
CONTINUOUS
10
4.48057
20
-5.08639
11
4.48273
21
-5.09304
0
LINE
8
BLACK
6
CONTINUOUS
10
4.48273
20
-5.09304
11
4.48346
21
-5.1
0
LINE
8
BLACK
6
CONTINUOUS
10
4.48346
20
-5.1
11
4.48273
21
-5.10696
0
LINE
8
BLACK
6
CONTINUOUS
10
4.48273
20
-5.10696
11
4.48057
21
-5.11361
0
LINE
8
BLACK
6
CONTINUOUS
10
4.48057
20
-5.11361
11
4.47707
21
-5.11967
0
LINE
8
BLACK
6
CONTINUOUS
10
4.47707
20
-5.11967
11
4.47239
21
-5.12487
0
LINE
8
BLACK
6
CONTINUOUS
10
4.47239
20
-5.12487
11
4.46673
21
-5.12898
0
LINE
8
BLACK
6
CONTINUOUS
10
4.46673
20
-5.12898
11
4.46034
21
-5.13183
0
LINE
8
BLACK
6
CONTINUOUS
10
4.46034
20
-5.13183
11
4.4535
21
-5.13328
0
LINE
8
BLACK
6
CONTINUOUS
10
4.4535
20
-5.13328
11
4.4465
21
-5.13328
0
LINE
8
BLACK
6
CONTINUOUS
10
4.4465
20
-5.13328
11
4.43966
21
-5.13183
0
LINE
8
BLACK
6
CONTINUOUS
10
4.43966
20
-5.13183
11
4.43327
21
-5.12898
0
LINE
8
BLACK
6
CONTINUOUS
10
4.43327
20
-5.12898
11
4.42761
21
-5.12487
0
LINE
8
BLACK
6
CONTINUOUS
10
4.42761
20
-5.12487
11
4.42293
21
-5.11967
0
LINE
8
BLACK
6
CONTINUOUS
10
4.42293
20
-5.11967
11
4.41943
21
-5.11361
0
LINE
8
BLACK
6
CONTINUOUS
10
4.41943
20
-5.11361
11
4.41727
21
-5.10696
0
LINE
8
BLACK
6
CONTINUOUS
10
4.41727
20
-5.10696
11
4.41654
21
-5.1
0
LINE
8
BLACK
6
CONTINUOUS
10
4.41654
20
-5.1
11
4.41727
21
-5.09304
0
LINE
8
BLACK
6
CONTINUOUS
10
4.41727
20
-5.09304
11
4.41943
21
-5.08639
0
LINE
8
BLACK
6
CONTINUOUS
10
4.41943
20
-5.08639
11
4.42293
21
-5.08033
0
LINE
8
BLACK
6
CONTINUOUS
10
4.42293
20
-5.08033
11
4.42761
21
-5.07513
0
LINE
8
BLACK
6
CONTINUOUS
10
4.42761
20
-5.07513
11
4.43327
21
-5.07102
0
LINE
8
BLACK
6
CONTINUOUS
10
4.43327
20
-5.07102
11
4.43966
21
-5.06817
0
LINE
8
BLACK
6
CONTINUOUS
10
4.43966
20
-5.06817
11
4.4465
21
-5.06672
0
LINE
8
BLACK
6
CONTINUOUS
10
4.4465
20
-5.06672
11
4.4535
21
-5.06672
0
LINE
8
BLACK
6
CONTINUOUS
10
4.4535
20
-5.06672
11
4.46034
21
-5.06817
0
LINE
8
BLACK
6
CONTINUOUS
10
5.64346
20
-5.01346
11
5.57654
21
-5.01346
0
LINE
8
BLACK
6
CONTINUOUS
10
5.57654
20
-5.01346
11
5.57654
21
-4.94654
0
LINE
8
BLACK
6
CONTINUOUS
10
5.57654
20
-4.94654
11
5.64346
21
-4.94654
0
LINE
8
BLACK
6
CONTINUOUS
10
5.64346
20
-4.94654
11
5.64346
21
-5.01346
0
LINE
8
BLACK
6
CONTINUOUS
10
5.82034
20
-4.94817
11
5.82673
21
-4.95102
0
LINE
8
BLACK
6
CONTINUOUS
10
5.82673
20
-4.95102
11
5.83239
21
-4.95513
0
LINE
8
BLACK
6
CONTINUOUS
10
5.83239
20
-4.95513
11
5.83707
21
-4.96033
0
LINE
8
BLACK
6
CONTINUOUS
10
5.83707
20
-4.96033
11
5.84057
21
-4.96639
0
LINE
8
BLACK
6
CONTINUOUS
10
5.84057
20
-4.96639
11
5.84273
21
-4.97304
0
LINE
8
BLACK
6
CONTINUOUS
10
5.84273
20
-4.97304
11
5.84346
21
-4.98
0
LINE
8
BLACK
6
CONTINUOUS
10
5.84346
20
-4.98
11
5.84273
21
-4.98696
0
LINE
8
BLACK
6
CONTINUOUS
10
5.84273
20
-4.98696
11
5.84057
21
-4.99361
0
LINE
8
BLACK
6
CONTINUOUS
10
5.84057
20
-4.99361
11
5.83707
21
-4.99967
0
LINE
8
BLACK
6
CONTINUOUS
10
5.83707
20
-4.99967
11
5.83239
21
-5.00487
0
LINE
8
BLACK
6
CONTINUOUS
10
5.83239
20
-5.00487
11
5.82673
21
-5.00898
0
LINE
8
BLACK
6
CONTINUOUS
10
5.82673
20
-5.00898
11
5.82034
21
-5.01183
0
LINE
8
BLACK
6
CONTINUOUS
10
5.82034
20
-5.01183
11
5.8135
21
-5.01328
0
LINE
8
BLACK
6
CONTINUOUS
10
5.8135
20
-5.01328
11
5.8065
21
-5.01328
0
LINE
8
BLACK
6
CONTINUOUS
10
5.8065
20
-5.01328
11
5.79966
21
-5.01183
0
LINE
8
BLACK
6
CONTINUOUS
10
5.79966
20
-5.01183
11
5.79327
21
-5.00898
0
LINE
8
BLACK
6
CONTINUOUS
10
5.79327
20
-5.00898
11
5.78761
21
-5.00487
0
LINE
8
BLACK
6
CONTINUOUS
10
5.78761
20
-5.00487
11
5.78293
21
-4.99967
0
LINE
8
BLACK
6
CONTINUOUS
10
5.78293
20
-4.99967
11
5.77943
21
-4.99361
0
LINE
8
BLACK
6
CONTINUOUS
10
5.77943
20
-4.99361
11
5.77727
21
-4.98696
0
LINE
8
BLACK
6
CONTINUOUS
10
5.77727
20
-4.98696
11
5.77654
21
-4.98
0
LINE
8
BLACK
6
CONTINUOUS
10
5.77654
20
-4.98
11
5.77727
21
-4.97304
0
LINE
8
BLACK
6
CONTINUOUS
10
5.77727
20
-4.97304
11
5.77943
21
-4.96639
0
LINE
8
BLACK
6
CONTINUOUS
10
5.77943
20
-4.96639
11
5.78293
21
-4.96033
0
LINE
8
BLACK
6
CONTINUOUS
10
5.78293
20
-4.96033
11
5.78761
21
-4.95513
0
LINE
8
BLACK
6
CONTINUOUS
10
5.78761
20
-4.95513
11
5.79327
21
-4.95102
0
LINE
8
BLACK
6
CONTINUOUS
10
5.79327
20
-4.95102
11
5.79966
21
-4.94817
0
LINE
8
BLACK
6
CONTINUOUS
10
5.79966
20
-4.94817
11
5.8065
21
-4.94672
0
LINE
8
BLACK
6
CONTINUOUS
10
5.8065
20
-4.94672
11
5.8135
21
-4.94672
0
LINE
8
BLACK
6
CONTINUOUS
10
5.8135
20
-4.94672
11
5.82034
21
-4.94817
0
LINE
8
BLACK
6
CONTINUOUS
10
5.72034
20
-4.94817
11
5.72673
21
-4.95102
0
LINE
8
BLACK
6
CONTINUOUS
10
5.72673
20
-4.95102
11
5.73239
21
-4.95513
0
LINE
8
BLACK
6
CONTINUOUS
10
5.73239
20
-4.95513
11
5.73707
21
-4.96033
0
LINE
8
BLACK
6
CONTINUOUS
10
5.73707
20
-4.96033
11
5.74057
21
-4.96639
0
LINE
8
BLACK
6
CONTINUOUS
10
5.74057
20
-4.96639
11
5.74273
21
-4.97304
0
LINE
8
BLACK
6
CONTINUOUS
10
5.74273
20
-4.97304
11
5.74346
21
-4.98
0
LINE
8
BLACK
6
CONTINUOUS
10
5.74346
20
-4.98
11
5.74273
21
-4.98696
0
LINE
8
BLACK
6
CONTINUOUS
10
5.74273
20
-4.98696
11
5.74057
21
-4.99361
0
LINE
8
BLACK
6
CONTINUOUS
10
5.74057
20
-4.99361
11
5.73707
21
-4.99967
0
LINE
8
BLACK
6
CONTINUOUS
10
5.73707
20
-4.99967
11
5.73239
21
-5.00487
0
LINE
8
BLACK
6
CONTINUOUS
10
5.73239
20
-5.00487
11
5.72673
21
-5.00898
0
LINE
8
BLACK
6
CONTINUOUS
10
5.72673
20
-5.00898
11
5.72034
21
-5.01183
0
LINE
8
BLACK
6
CONTINUOUS
10
5.72034
20
-5.01183
11
5.7135
21
-5.01328
0
LINE
8
BLACK
6
CONTINUOUS
10
5.7135
20
-5.01328
11
5.7065
21
-5.01328
0
LINE
8
BLACK
6
CONTINUOUS
10
5.7065
20
-5.01328
11
5.69966
21
-5.01183
0
LINE
8
BLACK
6
CONTINUOUS
10
5.69966
20
-5.01183
11
5.69327
21
-5.00898
0
LINE
8
BLACK
6
CONTINUOUS
10
5.69327
20
-5.00898
11
5.68761
21
-5.00487
0
LINE
8
BLACK
6
CONTINUOUS
10
5.68761
20
-5.00487
11
5.68293
21
-4.99967
0
LINE
8
BLACK
6
CONTINUOUS
10
5.68293
20
-4.99967
11
5.67943
21
-4.99361
0
LINE
8
BLACK
6
CONTINUOUS
10
5.67943
20
-4.99361
11
5.67727
21
-4.98696
0
LINE
8
BLACK
6
CONTINUOUS
10
5.67727
20
-4.98696
11
5.67654
21
-4.98
0
LINE
8
BLACK
6
CONTINUOUS
10
5.67654
20
-4.98
11
5.67727
21
-4.97304
0
LINE
8
BLACK
6
CONTINUOUS
10
5.67727
20
-4.97304
11
5.67943
21
-4.96639
0
LINE
8
BLACK
6
CONTINUOUS
10
5.67943
20
-4.96639
11
5.68293
21
-4.96033
0
LINE
8
BLACK
6
CONTINUOUS
10
5.68293
20
-4.96033
11
5.68761
21
-4.95513
0
LINE
8
BLACK
6
CONTINUOUS
10
5.68761
20
-4.95513
11
5.69327
21
-4.95102
0
LINE
8
BLACK
6
CONTINUOUS
10
5.69327
20
-4.95102
11
5.69966
21
-4.94817
0
LINE
8
BLACK
6
CONTINUOUS
10
5.69966
20
-4.94817
11
5.7065
21
-4.94672
0
LINE
8
BLACK
6
CONTINUOUS
10
5.7065
20
-4.94672
11
5.7135
21
-4.94672
0
LINE
8
BLACK
6
CONTINUOUS
10
5.7135
20
-4.94672
11
5.72034
21
-4.94817
0
LINE
8
BLACK
6
CONTINUOUS
10
3.21555
20
-4.92697
11
3.14665
21
-4.92697
0
LINE
8
BLACK
6
CONTINUOUS
10
3.14665
20
-4.92697
11
3.14665
21
-4.85807
0
LINE
8
BLACK
6
CONTINUOUS
10
3.14665
20
-4.85807
11
3.21555
21
-4.85807
0
LINE
8
BLACK
6
CONTINUOUS
10
3.21555
20
-4.85807
11
3.21555
21
-4.92697
0
LINE
8
BLACK
6
CONTINUOUS
10
4.61555
20
-4.92697
11
4.54665
21
-4.92697
0
LINE
8
BLACK
6
CONTINUOUS
10
4.54665
20
-4.92697
11
4.54665
21
-4.85807
0
LINE
8
BLACK
6
CONTINUOUS
10
4.54665
20
-4.85807
11
4.61555
21
-4.85807
0
LINE
8
BLACK
6
CONTINUOUS
10
4.61555
20
-4.85807
11
4.61555
21
-4.92697
0
LINE
8
BLACK
6
CONTINUOUS
10
3.91555
20
-4.92697
11
3.84665
21
-4.92697
0
LINE
8
BLACK
6
CONTINUOUS
10
3.84665
20
-4.92697
11
3.84665
21
-4.85807
0
LINE
8
BLACK
6
CONTINUOUS
10
3.84665
20
-4.85807
11
3.91555
21
-4.85807
0
LINE
8
BLACK
6
CONTINUOUS
10
3.91555
20
-4.85807
11
3.91555
21
-4.92697
0
LINE
8
BLACK
6
CONTINUOUS
10
4.72954
20
-4.85976
11
4.73612
21
-4.86269
0
LINE
8
BLACK
6
CONTINUOUS
10
4.73612
20
-4.86269
11
4.74195
21
-4.86692
0
LINE
8
BLACK
6
CONTINUOUS
10
4.74195
20
-4.86692
11
4.74677
21
-4.87227
0
LINE
8
BLACK
6
CONTINUOUS
10
4.74677
20
-4.87227
11
4.75037
21
-4.87851
0
LINE
8
BLACK
6
CONTINUOUS
10
4.75037
20
-4.87851
11
4.75259
21
-4.88536
0
LINE
8
BLACK
6
CONTINUOUS
10
4.75259
20
-4.88536
11
4.75335
21
-4.89252
0
LINE
8
BLACK
6
CONTINUOUS
10
4.75335
20
-4.89252
11
4.75259
21
-4.89968
0
LINE
8
BLACK
6
CONTINUOUS
10
4.75259
20
-4.89968
11
4.75037
21
-4.90653
0
LINE
8
BLACK
6
CONTINUOUS
10
4.75037
20
-4.90653
11
4.74677
21
-4.91277
0
LINE
8
BLACK
6
CONTINUOUS
10
4.74677
20
-4.91277
11
4.74195
21
-4.91812
0
LINE
8
BLACK
6
CONTINUOUS
10
4.74195
20
-4.91812
11
4.73612
21
-4.92235
0
LINE
8
BLACK
6
CONTINUOUS
10
4.73612
20
-4.92235
11
4.72954
21
-4.92528
0
LINE
8
BLACK
6
CONTINUOUS
10
4.72954
20
-4.92528
11
4.7225
21
-4.92678
0
LINE
8
BLACK
6
CONTINUOUS
10
4.7225
20
-4.92678
11
4.7153
21
-4.92678
0
LINE
8
BLACK
6
CONTINUOUS
10
4.7153
20
-4.92678
11
4.70825
21
-4.92528
0
LINE
8
BLACK
6
CONTINUOUS
10
4.70825
20
-4.92528
11
4.70167
21
-4.92235
0
LINE
8
BLACK
6
CONTINUOUS
10
4.70167
20
-4.92235
11
4.69585
21
-4.91812
0
LINE
8
BLACK
6
CONTINUOUS
10
4.69585
20
-4.91812
11
4.69103
21
-4.91277
0
LINE
8
BLACK
6
CONTINUOUS
10
4.69103
20
-4.91277
11
4.68743
21
-4.90653
0
LINE
8
BLACK
6
CONTINUOUS
10
4.68743
20
-4.90653
11
4.6852
21
-4.89968
0
LINE
8
BLACK
6
CONTINUOUS
10
4.6852
20
-4.89968
11
4.68445
21
-4.89252
0
LINE
8
BLACK
6
CONTINUOUS
10
4.68445
20
-4.89252
11
4.6852
21
-4.88536
0
LINE
8
BLACK
6
CONTINUOUS
10
4.6852
20
-4.88536
11
4.68743
21
-4.87851
0
LINE
8
BLACK
6
CONTINUOUS
10
4.68743
20
-4.87851
11
4.69103
21
-4.87227
0
LINE
8
BLACK
6
CONTINUOUS
10
4.69103
20
-4.87227
11
4.69585
21
-4.86692
0
LINE
8
BLACK
6
CONTINUOUS
10
4.69585
20
-4.86692
11
4.70167
21
-4.86269
0
LINE
8
BLACK
6
CONTINUOUS
10
4.70167
20
-4.86269
11
4.70825
21
-4.85976
0
LINE
8
BLACK
6
CONTINUOUS
10
4.70825
20
-4.85976
11
4.7153
21
-4.85826
0
LINE
8
BLACK
6
CONTINUOUS
10
4.7153
20
-4.85826
11
4.7225
21
-4.85826
0
LINE
8
BLACK
6
CONTINUOUS
10
4.7225
20
-4.85826
11
4.72954
21
-4.85976
0
LINE
8
BLACK
6
CONTINUOUS
10
3.32954
20
-4.85976
11
3.33612
21
-4.86269
0
LINE
8
BLACK
6
CONTINUOUS
10
3.33612
20
-4.86269
11
3.34195
21
-4.86692
0
LINE
8
BLACK
6
CONTINUOUS
10
3.34195
20
-4.86692
11
3.34677
21
-4.87227
0
LINE
8
BLACK
6
CONTINUOUS
10
3.34677
20
-4.87227
11
3.35037
21
-4.87851
0
LINE
8
BLACK
6
CONTINUOUS
10
3.35037
20
-4.87851
11
3.35259
21
-4.88536
0
LINE
8
BLACK
6
CONTINUOUS
10
3.35259
20
-4.88536
11
3.35335
21
-4.89252
0
LINE
8
BLACK
6
CONTINUOUS
10
3.35335
20
-4.89252
11
3.35259
21
-4.89968
0
LINE
8
BLACK
6
CONTINUOUS
10
3.35259
20
-4.89968
11
3.35037
21
-4.90653
0
LINE
8
BLACK
6
CONTINUOUS
10
3.35037
20
-4.90653
11
3.34677
21
-4.91277
0
LINE
8
BLACK
6
CONTINUOUS
10
3.34677
20
-4.91277
11
3.34195
21
-4.91812
0
LINE
8
BLACK
6
CONTINUOUS
10
3.34195
20
-4.91812
11
3.33612
21
-4.92235
0
LINE
8
BLACK
6
CONTINUOUS
10
3.33612
20
-4.92235
11
3.32954
21
-4.92528
0
LINE
8
BLACK
6
CONTINUOUS
10
3.32954
20
-4.92528
11
3.3225
21
-4.92678
0
LINE
8
BLACK
6
CONTINUOUS
10
3.3225
20
-4.92678
11
3.3153
21
-4.92678
0
LINE
8
BLACK
6
CONTINUOUS
10
3.3153
20
-4.92678
11
3.30825
21
-4.92528
0
LINE
8
BLACK
6
CONTINUOUS
10
3.30825
20
-4.92528
11
3.30167
21
-4.92235
0
LINE
8
BLACK
6
CONTINUOUS
10
3.30167
20
-4.92235
11
3.29585
21
-4.91812
0
LINE
8
BLACK
6
CONTINUOUS
10
3.29585
20
-4.91812
11
3.29103
21
-4.91277
0
LINE
8
BLACK
6
CONTINUOUS
10
3.29103
20
-4.91277
11
3.28743
21
-4.90653
0
LINE
8
BLACK
6
CONTINUOUS
10
3.28743
20
-4.90653
11
3.2852
21
-4.89968
0
LINE
8
BLACK
6
CONTINUOUS
10
3.2852
20
-4.89968
11
3.28445
21
-4.89252
0
LINE
8
BLACK
6
CONTINUOUS
10
3.28445
20
-4.89252
11
3.2852
21
-4.88536
0
LINE
8
BLACK
6
CONTINUOUS
10
3.2852
20
-4.88536
11
3.28743
21
-4.87851
0
LINE
8
BLACK
6
CONTINUOUS
10
3.28743
20
-4.87851
11
3.29103
21
-4.87227
0
LINE
8
BLACK
6
CONTINUOUS
10
3.29103
20
-4.87227
11
3.29585
21
-4.86692
0
LINE
8
BLACK
6
CONTINUOUS
10
3.29585
20
-4.86692
11
3.30167
21
-4.86269
0
LINE
8
BLACK
6
CONTINUOUS
10
3.30167
20
-4.86269
11
3.30825
21
-4.85976
0
LINE
8
BLACK
6
CONTINUOUS
10
3.30825
20
-4.85976
11
3.3153
21
-4.85826
0
LINE
8
BLACK
6
CONTINUOUS
10
3.3153
20
-4.85826
11
3.3225
21
-4.85826
0
LINE
8
BLACK
6
CONTINUOUS
10
3.3225
20
-4.85826
11
3.32954
21
-4.85976
0
LINE
8
BLACK
6
CONTINUOUS
10
4.02954
20
-4.85976
11
4.03612
21
-4.86269
0
LINE
8
BLACK
6
CONTINUOUS
10
4.03612
20
-4.86269
11
4.04195
21
-4.86692
0
LINE
8
BLACK
6
CONTINUOUS
10
4.04195
20
-4.86692
11
4.04677
21
-4.87227
0
LINE
8
BLACK
6
CONTINUOUS
10
4.04677
20
-4.87227
11
4.05037
21
-4.87851
0
LINE
8
BLACK
6
CONTINUOUS
10
4.05037
20
-4.87851
11
4.05259
21
-4.88536
0
LINE
8
BLACK
6
CONTINUOUS
10
4.05259
20
-4.88536
11
4.05335
21
-4.89252
0
LINE
8
BLACK
6
CONTINUOUS
10
4.05335
20
-4.89252
11
4.05259
21
-4.89968
0
LINE
8
BLACK
6
CONTINUOUS
10
4.05259
20
-4.89968
11
4.05037
21
-4.90653
0
LINE
8
BLACK
6
CONTINUOUS
10
4.05037
20
-4.90653
11
4.04677
21
-4.91277
0
LINE
8
BLACK
6
CONTINUOUS
10
4.04677
20
-4.91277
11
4.04195
21
-4.91812
0
LINE
8
BLACK
6
CONTINUOUS
10
4.04195
20
-4.91812
11
4.03612
21
-4.92235
0
LINE
8
BLACK
6
CONTINUOUS
10
4.03612
20
-4.92235
11
4.02954
21
-4.92528
0
LINE
8
BLACK
6
CONTINUOUS
10
4.02954
20
-4.92528
11
4.0225
21
-4.92678
0
LINE
8
BLACK
6
CONTINUOUS
10
4.0225
20
-4.92678
11
4.0153
21
-4.92678
0
LINE
8
BLACK
6
CONTINUOUS
10
4.0153
20
-4.92678
11
4.00825
21
-4.92528
0
LINE
8
BLACK
6
CONTINUOUS
10
4.00825
20
-4.92528
11
4.00167
21
-4.92235
0
LINE
8
BLACK
6
CONTINUOUS
10
4.00167
20
-4.92235
11
3.99585
21
-4.91812
0
LINE
8
BLACK
6
CONTINUOUS
10
3.99585
20
-4.91812
11
3.99103
21
-4.91277
0
LINE
8
BLACK
6
CONTINUOUS
10
3.99103
20
-4.91277
11
3.98743
21
-4.90653
0
LINE
8
BLACK
6
CONTINUOUS
10
3.98743
20
-4.90653
11
3.9852
21
-4.89968
0
LINE
8
BLACK
6
CONTINUOUS
10
3.9852
20
-4.89968
11
3.98445
21
-4.89252
0
LINE
8
BLACK
6
CONTINUOUS
10
3.98445
20
-4.89252
11
3.9852
21
-4.88536
0
LINE
8
BLACK
6
CONTINUOUS
10
3.9852
20
-4.88536
11
3.98743
21
-4.87851
0
LINE
8
BLACK
6
CONTINUOUS
10
3.98743
20
-4.87851
11
3.99103
21
-4.87227
0
LINE
8
BLACK
6
CONTINUOUS
10
3.99103
20
-4.87227
11
3.99585
21
-4.86692
0
LINE
8
BLACK
6
CONTINUOUS
10
3.99585
20
-4.86692
11
4.00167
21
-4.86269
0
LINE
8
BLACK
6
CONTINUOUS
10
4.00167
20
-4.86269
11
4.00825
21
-4.85976
0
LINE
8
BLACK
6
CONTINUOUS
10
4.00825
20
-4.85976
11
4.0153
21
-4.85826
0
LINE
8
BLACK
6
CONTINUOUS
10
4.0153
20
-4.85826
11
4.0225
21
-4.85826
0
LINE
8
BLACK
6
CONTINUOUS
10
4.0225
20
-4.85826
11
4.02954
21
-4.85976
0
LINE
8
BLACK
6
CONTINUOUS
10
6.21671
20
-4.83778
11
6.22173
21
-4.83937
0
LINE
8
BLACK
6
CONTINUOUS
10
6.22173
20
-4.83937
11
6.22606
21
-4.84236
0
LINE
8
BLACK
6
CONTINUOUS
10
6.22606
20
-4.84236
11
6.22933
21
-4.8465
0
LINE
8
BLACK
6
CONTINUOUS
10
6.22933
20
-4.8465
11
6.23123
21
-4.85141
0
LINE
8
BLACK
6
CONTINUOUS
10
6.23123
20
-4.85141
11
6.2316
21
-4.85667
0
LINE
8
BLACK
6
CONTINUOUS
10
6.2316
20
-4.85667
11
6.23041
21
-4.8618
0
LINE
8
BLACK
6
CONTINUOUS
10
6.23041
20
-4.8618
11
6.22776
21
-4.86635
0
LINE
8
BLACK
6
CONTINUOUS
10
6.22776
20
-4.86635
11
6.2239
21
-4.86993
0
LINE
8
BLACK
6
CONTINUOUS
10
6.2239
20
-4.86993
11
6.21915
21
-4.87221
0
LINE
8
BLACK
6
CONTINUOUS
10
6.21915
20
-4.87221
11
6.21394
21
-4.87299
0
LINE
8
BLACK
6
CONTINUOUS
10
6.21394
20
-4.87299
11
6.18244
21
-4.87299
0
LINE
8
BLACK
6
CONTINUOUS
10
6.18244
20
-4.87299
11
6.17967
21
-4.87277
0
LINE
8
BLACK
6
CONTINUOUS
10
6.17967
20
-4.87277
11
6.17465
21
-4.87119
0
LINE
8
BLACK
6
CONTINUOUS
10
6.17465
20
-4.87119
11
6.17031
21
-4.86819
0
LINE
8
BLACK
6
CONTINUOUS
10
6.17031
20
-4.86819
11
6.16705
21
-4.86405
0
LINE
8
BLACK
6
CONTINUOUS
10
6.16705
20
-4.86405
11
6.16515
21
-4.85914
0
LINE
8
BLACK
6
CONTINUOUS
10
6.16515
20
-4.85914
11
6.16478
21
-4.85389
0
LINE
8
BLACK
6
CONTINUOUS
10
6.16478
20
-4.85389
11
6.16597
21
-4.84875
0
LINE
8
BLACK
6
CONTINUOUS
10
6.16597
20
-4.84875
11
6.16861
21
-4.8442
0
LINE
8
BLACK
6
CONTINUOUS
10
6.16861
20
-4.8442
11
6.17248
21
-4.84062
0
LINE
8
BLACK
6
CONTINUOUS
10
6.17248
20
-4.84062
11
6.17723
21
-4.83834
0
LINE
8
BLACK
6
CONTINUOUS
10
6.17723
20
-4.83834
11
6.18244
21
-4.83756
0
LINE
8
BLACK
6
CONTINUOUS
10
6.18244
20
-4.83756
11
6.21394
21
-4.83756
0
LINE
8
BLACK
6
CONTINUOUS
10
6.21394
20
-4.83756
11
6.21671
21
-4.83778
0
LINE
8
BLACK
6
CONTINUOUS
10
6.09742
20
-4.83778
11
6.10244
21
-4.83937
0
LINE
8
BLACK
6
CONTINUOUS
10
6.10244
20
-4.83937
11
6.10677
21
-4.84236
0
LINE
8
BLACK
6
CONTINUOUS
10
6.10677
20
-4.84236
11
6.11003
21
-4.8465
0
LINE
8
BLACK
6
CONTINUOUS
10
6.11003
20
-4.8465
11
6.11194
21
-4.85141
0
LINE
8
BLACK
6
CONTINUOUS
10
6.11194
20
-4.85141
11
6.11231
21
-4.85667
0
LINE
8
BLACK
6
CONTINUOUS
10
6.11231
20
-4.85667
11
6.11112
21
-4.8618
0
LINE
8
BLACK
6
CONTINUOUS
10
6.11112
20
-4.8618
11
6.10847
21
-4.86635
0
LINE
8
BLACK
6
CONTINUOUS
10
6.10847
20
-4.86635
11
6.1046
21
-4.86993
0
LINE
8
BLACK
6
CONTINUOUS
10
6.1046
20
-4.86993
11
6.09986
21
-4.87221
0
LINE
8
BLACK
6
CONTINUOUS
10
6.09986
20
-4.87221
11
6.09465
21
-4.87299
0
LINE
8
BLACK
6
CONTINUOUS
10
6.09465
20
-4.87299
11
6.03559
21
-4.87299
0
LINE
8
BLACK
6
CONTINUOUS
10
6.03559
20
-4.87299
11
6.03282
21
-4.87277
0
LINE
8
BLACK
6
CONTINUOUS
10
6.03282
20
-4.87277
11
6.0278
21
-4.87119
0
LINE
8
BLACK
6
CONTINUOUS
10
6.0278
20
-4.87119
11
6.02346
21
-4.86819
0
LINE
8
BLACK
6
CONTINUOUS
10
6.02346
20
-4.86819
11
6.0202
21
-4.86405
0
LINE
8
BLACK
6
CONTINUOUS
10
6.0202
20
-4.86405
11
6.0183
21
-4.85914
0
LINE
8
BLACK
6
CONTINUOUS
10
6.0183
20
-4.85914
11
6.01793
21
-4.85389
0
LINE
8
BLACK
6
CONTINUOUS
10
6.01793
20
-4.85389
11
6.01912
21
-4.84875
0
LINE
8
BLACK
6
CONTINUOUS
10
6.01912
20
-4.84875
11
6.02176
21
-4.8442
0
LINE
8
BLACK
6
CONTINUOUS
10
6.02176
20
-4.8442
11
6.02563
21
-4.84062
0
LINE
8
BLACK
6
CONTINUOUS
10
6.02563
20
-4.84062
11
6.03038
21
-4.83834
0
LINE
8
BLACK
6
CONTINUOUS
10
6.03038
20
-4.83834
11
6.03559
21
-4.83756
0
LINE
8
BLACK
6
CONTINUOUS
10
6.03559
20
-4.83756
11
6.09465
21
-4.83756
0
LINE
8
BLACK
6
CONTINUOUS
10
6.09465
20
-4.83756
11
6.09742
21
-4.83778
0
LINE
8
BLACK
6
CONTINUOUS
10
6.03079
20
-4.78902
11
6.03463
21
-4.79098
0
LINE
8
BLACK
6
CONTINUOUS
10
6.03463
20
-4.79098
11
6.03768
21
-4.79403
0
LINE
8
BLACK
6
CONTINUOUS
10
6.03768
20
-4.79403
11
6.03964
21
-4.79787
0
LINE
8
BLACK
6
CONTINUOUS
10
6.03964
20
-4.79787
11
6.04031
21
-4.80213
0
LINE
8
BLACK
6
CONTINUOUS
10
6.04031
20
-4.80213
11
6.03964
21
-4.80638
0
LINE
8
BLACK
6
CONTINUOUS
10
6.03964
20
-4.80638
11
6.03768
21
-4.81023
0
LINE
8
BLACK
6
CONTINUOUS
10
6.03768
20
-4.81023
11
6.03463
21
-4.81327
0
LINE
8
BLACK
6
CONTINUOUS
10
6.03463
20
-4.81327
11
6.03079
21
-4.81523
0
LINE
8
BLACK
6
CONTINUOUS
10
6.03079
20
-4.81523
11
6.02654
21
-4.81591
0
LINE
8
BLACK
6
CONTINUOUS
10
6.02654
20
-4.81591
11
6.02228
21
-4.81523
0
LINE
8
BLACK
6
CONTINUOUS
10
6.02228
20
-4.81523
11
6.01844
21
-4.81327
0
LINE
8
BLACK
6
CONTINUOUS
10
6.01844
20
-4.81327
11
6.01539
21
-4.81023
0
LINE
8
BLACK
6
CONTINUOUS
10
6.01539
20
-4.81023
11
6.01343
21
-4.80638
0
LINE
8
BLACK
6
CONTINUOUS
10
6.01343
20
-4.80638
11
6.01276
21
-4.80213
0
LINE
8
BLACK
6
CONTINUOUS
10
6.01276
20
-4.80213
11
6.01343
21
-4.79787
0
LINE
8
BLACK
6
CONTINUOUS
10
6.01343
20
-4.79787
11
6.01539
21
-4.79403
0
LINE
8
BLACK
6
CONTINUOUS
10
6.01539
20
-4.79403
11
6.01844
21
-4.79098
0
LINE
8
BLACK
6
CONTINUOUS
10
6.01844
20
-4.79098
11
6.02228
21
-4.78902
0
LINE
8
BLACK
6
CONTINUOUS
10
6.02228
20
-4.78902
11
6.02654
21
-4.78835
0
LINE
8
BLACK
6
CONTINUOUS
10
6.02654
20
-4.78835
11
6.03079
21
-4.78902
0
LINE
8
BLACK
6
CONTINUOUS
10
6.08394
20
-4.78902
11
6.08778
21
-4.79098
0
LINE
8
BLACK
6
CONTINUOUS
10
6.08778
20
-4.79098
11
6.09083
21
-4.79403
0
LINE
8
BLACK
6
CONTINUOUS
10
6.09083
20
-4.79403
11
6.09279
21
-4.79787
0
LINE
8
BLACK
6
CONTINUOUS
10
6.09279
20
-4.79787
11
6.09346
21
-4.80213
0
LINE
8
BLACK
6
CONTINUOUS
10
6.09346
20
-4.80213
11
6.09279
21
-4.80638
0
LINE
8
BLACK
6
CONTINUOUS
10
6.09279
20
-4.80638
11
6.09083
21
-4.81023
0
LINE
8
BLACK
6
CONTINUOUS
10
6.09083
20
-4.81023
11
6.08778
21
-4.81327
0
LINE
8
BLACK
6
CONTINUOUS
10
6.08778
20
-4.81327
11
6.08394
21
-4.81523
0
LINE
8
BLACK
6
CONTINUOUS
10
6.08394
20
-4.81523
11
6.07969
21
-4.81591
0
LINE
8
BLACK
6
CONTINUOUS
10
6.07969
20
-4.81591
11
6.07543
21
-4.81523
0
LINE
8
BLACK
6
CONTINUOUS
10
6.07543
20
-4.81523
11
6.07159
21
-4.81327
0
LINE
8
BLACK
6
CONTINUOUS
10
6.07159
20
-4.81327
11
6.06854
21
-4.81023
0
LINE
8
BLACK
6
CONTINUOUS
10
6.06854
20
-4.81023
11
6.06658
21
-4.80638
0
LINE
8
BLACK
6
CONTINUOUS
10
6.06658
20
-4.80638
11
6.06591
21
-4.80213
0
LINE
8
BLACK
6
CONTINUOUS
10
6.06591
20
-4.80213
11
6.06658
21
-4.79787
0
LINE
8
BLACK
6
CONTINUOUS
10
6.06658
20
-4.79787
11
6.06854
21
-4.79403
0
LINE
8
BLACK
6
CONTINUOUS
10
6.06854
20
-4.79403
11
6.07159
21
-4.79098
0
LINE
8
BLACK
6
CONTINUOUS
10
6.07159
20
-4.79098
11
6.07543
21
-4.78902
0
LINE
8
BLACK
6
CONTINUOUS
10
6.07543
20
-4.78902
11
6.07969
21
-4.78835
0
LINE
8
BLACK
6
CONTINUOUS
10
6.07969
20
-4.78835
11
6.08394
21
-4.78902
0
LINE
8
BLACK
6
CONTINUOUS
10
6.03079
20
-4.75556
11
6.03463
21
-4.75751
0
LINE
8
BLACK
6
CONTINUOUS
10
6.03463
20
-4.75751
11
6.03768
21
-4.76056
0
LINE
8
BLACK
6
CONTINUOUS
10
6.03768
20
-4.76056
11
6.03964
21
-4.7644
0
LINE
8
BLACK
6
CONTINUOUS
10
6.03964
20
-4.7644
11
6.04031
21
-4.76866
0
LINE
8
BLACK
6
CONTINUOUS
10
6.04031
20
-4.76866
11
6.03964
21
-4.77292
0
LINE
8
BLACK
6
CONTINUOUS
10
6.03964
20
-4.77292
11
6.03768
21
-4.77676
0
LINE
8
BLACK
6
CONTINUOUS
10
6.03768
20
-4.77676
11
6.03463
21
-4.77981
0
LINE
8
BLACK
6
CONTINUOUS
10
6.03463
20
-4.77981
11
6.03079
21
-4.78177
0
LINE
8
BLACK
6
CONTINUOUS
10
6.03079
20
-4.78177
11
6.02654
21
-4.78244
0
LINE
8
BLACK
6
CONTINUOUS
10
6.02654
20
-4.78244
11
6.02228
21
-4.78177
0
LINE
8
BLACK
6
CONTINUOUS
10
6.02228
20
-4.78177
11
6.01844
21
-4.77981
0
LINE
8
BLACK
6
CONTINUOUS
10
6.01844
20
-4.77981
11
6.01539
21
-4.77676
0
LINE
8
BLACK
6
CONTINUOUS
10
6.01539
20
-4.77676
11
6.01343
21
-4.77292
0
LINE
8
BLACK
6
CONTINUOUS
10
6.01343
20
-4.77292
11
6.01276
21
-4.76866
0
LINE
8
BLACK
6
CONTINUOUS
10
6.01276
20
-4.76866
11
6.01343
21
-4.7644
0
LINE
8
BLACK
6
CONTINUOUS
10
6.01343
20
-4.7644
11
6.01539
21
-4.76056
0
LINE
8
BLACK
6
CONTINUOUS
10
6.01539
20
-4.76056
11
6.01844
21
-4.75751
0
LINE
8
BLACK
6
CONTINUOUS
10
6.01844
20
-4.75751
11
6.02228
21
-4.75556
0
LINE
8
BLACK
6
CONTINUOUS
10
6.02228
20
-4.75556
11
6.02654
21
-4.75488
0
LINE
8
BLACK
6
CONTINUOUS
10
6.02654
20
-4.75488
11
6.03079
21
-4.75556
0
LINE
8
BLACK
6
CONTINUOUS
10
6.08394
20
-4.75556
11
6.08778
21
-4.75751
0
LINE
8
BLACK
6
CONTINUOUS
10
6.08778
20
-4.75751
11
6.09083
21
-4.76056
0
LINE
8
BLACK
6
CONTINUOUS
10
6.09083
20
-4.76056
11
6.09279
21
-4.7644
0
LINE
8
BLACK
6
CONTINUOUS
10
6.09279
20
-4.7644
11
6.09346
21
-4.76866
0
LINE
8
BLACK
6
CONTINUOUS
10
6.09346
20
-4.76866
11
6.09279
21
-4.77292
0
LINE
8
BLACK
6
CONTINUOUS
10
6.09279
20
-4.77292
11
6.09083
21
-4.77676
0
LINE
8
BLACK
6
CONTINUOUS
10
6.09083
20
-4.77676
11
6.08778
21
-4.77981
0
LINE
8
BLACK
6
CONTINUOUS
10
6.08778
20
-4.77981
11
6.08394
21
-4.78177
0
LINE
8
BLACK
6
CONTINUOUS
10
6.08394
20
-4.78177
11
6.07969
21
-4.78244
0
LINE
8
BLACK
6
CONTINUOUS
10
6.07969
20
-4.78244
11
6.07543
21
-4.78177
0
LINE
8
BLACK
6
CONTINUOUS
10
6.07543
20
-4.78177
11
6.07159
21
-4.77981
0
LINE
8
BLACK
6
CONTINUOUS
10
6.07159
20
-4.77981
11
6.06854
21
-4.77676
0
LINE
8
BLACK
6
CONTINUOUS
10
6.06854
20
-4.77676
11
6.06658
21
-4.77292
0
LINE
8
BLACK
6
CONTINUOUS
10
6.06658
20
-4.77292
11
6.06591
21
-4.76866
0
LINE
8
BLACK
6
CONTINUOUS
10
6.06591
20
-4.76866
11
6.06658
21
-4.7644
0
LINE
8
BLACK
6
CONTINUOUS
10
6.06658
20
-4.7644
11
6.06854
21
-4.76056
0
LINE
8
BLACK
6
CONTINUOUS
10
6.06854
20
-4.76056
11
6.07159
21
-4.75751
0
LINE
8
BLACK
6
CONTINUOUS
10
6.07159
20
-4.75751
11
6.07543
21
-4.75556
0
LINE
8
BLACK
6
CONTINUOUS
10
6.07543
20
-4.75556
11
6.07969
21
-4.75488
0
LINE
8
BLACK
6
CONTINUOUS
10
6.07969
20
-4.75488
11
6.08394
21
-4.75556
0
LINE
8
BLACK
6
CONTINUOUS
10
4.12458
20
-4.67679
11
4.13353
21
-4.67919
0
LINE
8
BLACK
6
CONTINUOUS
10
4.13353
20
-4.67919
11
4.14193
21
-4.6831
0
LINE
8
BLACK
6
CONTINUOUS
10
4.14193
20
-4.6831
11
4.14952
21
-4.68842
0
LINE
8
BLACK
6
CONTINUOUS
10
4.14952
20
-4.68842
11
4.15607
21
-4.69497
0
LINE
8
BLACK
6
CONTINUOUS
10
4.15607
20
-4.69497
11
4.16138
21
-4.70256
0
LINE
8
BLACK
6
CONTINUOUS
10
4.16138
20
-4.70256
11
4.1653
21
-4.71096
0
LINE
8
BLACK
6
CONTINUOUS
10
4.1653
20
-4.71096
11
4.1677
21
-4.7199
0
LINE
8
BLACK
6
CONTINUOUS
10
4.1677
20
-4.7199
11
4.1685
21
-4.72913
0
LINE
8
BLACK
6
CONTINUOUS
10
4.1685
20
-4.72913
11
4.1677
21
-4.73836
0
LINE
8
BLACK
6
CONTINUOUS
10
4.1677
20
-4.73836
11
4.1653
21
-4.74731
0
LINE
8
BLACK
6
CONTINUOUS
10
4.1653
20
-4.74731
11
4.16138
21
-4.75571
0
LINE
8
BLACK
6
CONTINUOUS
10
4.16138
20
-4.75571
11
4.15607
21
-4.7633
0
LINE
8
BLACK
6
CONTINUOUS
10
4.15607
20
-4.7633
11
4.14952
21
-4.76985
0
LINE
8
BLACK
6
CONTINUOUS
10
4.14952
20
-4.76985
11
4.14193
21
-4.77516
0
LINE
8
BLACK
6
CONTINUOUS
10
4.14193
20
-4.77516
11
4.13353
21
-4.77908
0
LINE
8
BLACK
6
CONTINUOUS
10
4.13353
20
-4.77908
11
4.12458
21
-4.78148
0
LINE
8
BLACK
6
CONTINUOUS
10
4.12458
20
-4.78148
11
4.11535
21
-4.78228
0
LINE
8
BLACK
6
CONTINUOUS
10
4.11535
20
-4.78228
11
4.10612
21
-4.78148
0
LINE
8
BLACK
6
CONTINUOUS
10
4.10612
20
-4.78148
11
4.09718
21
-4.77908
0
LINE
8
BLACK
6
CONTINUOUS
10
4.09718
20
-4.77908
11
4.08878
21
-4.77516
0
LINE
8
BLACK
6
CONTINUOUS
10
4.08878
20
-4.77516
11
4.08119
21
-4.76985
0
LINE
8
BLACK
6
CONTINUOUS
10
4.08119
20
-4.76985
11
4.07464
21
-4.7633
0
LINE
8
BLACK
6
CONTINUOUS
10
4.07464
20
-4.7633
11
4.06933
21
-4.75571
0
LINE
8
BLACK
6
CONTINUOUS
10
4.06933
20
-4.75571
11
4.06541
21
-4.74731
0
LINE
8
BLACK
6
CONTINUOUS
10
4.06541
20
-4.74731
11
4.06301
21
-4.73836
0
LINE
8
BLACK
6
CONTINUOUS
10
4.06301
20
-4.73836
11
4.0622
21
-4.72913
0
LINE
8
BLACK
6
CONTINUOUS
10
4.0622
20
-4.72913
11
4.06301
21
-4.7199
0
LINE
8
BLACK
6
CONTINUOUS
10
4.06301
20
-4.7199
11
4.06541
21
-4.71096
0
LINE
8
BLACK
6
CONTINUOUS
10
4.06541
20
-4.71096
11
4.06933
21
-4.70256
0
LINE
8
BLACK
6
CONTINUOUS
10
4.06933
20
-4.70256
11
4.07464
21
-4.69497
0
LINE
8
BLACK
6
CONTINUOUS
10
4.07464
20
-4.69497
11
4.08119
21
-4.68842
0
LINE
8
BLACK
6
CONTINUOUS
10
4.08119
20
-4.68842
11
4.08878
21
-4.6831
0
LINE
8
BLACK
6
CONTINUOUS
10
4.08878
20
-4.6831
11
4.09718
21
-4.67919
0
LINE
8
BLACK
6
CONTINUOUS
10
4.09718
20
-4.67919
11
4.10612
21
-4.67679
0
LINE
8
BLACK
6
CONTINUOUS
10
4.10612
20
-4.67679
11
4.11535
21
-4.67598
0
LINE
8
BLACK
6
CONTINUOUS
10
4.11535
20
-4.67598
11
4.12458
21
-4.67679
0
LINE
8
BLACK
6
CONTINUOUS
10
4.82458
20
-4.67679
11
4.83353
21
-4.67919
0
LINE
8
BLACK
6
CONTINUOUS
10
4.83353
20
-4.67919
11
4.84193
21
-4.6831
0
LINE
8
BLACK
6
CONTINUOUS
10
4.84193
20
-4.6831
11
4.84952
21
-4.68842
0
LINE
8
BLACK
6
CONTINUOUS
10
4.84952
20
-4.68842
11
4.85607
21
-4.69497
0
LINE
8
BLACK
6
CONTINUOUS
10
4.85607
20
-4.69497
11
4.86138
21
-4.70256
0
LINE
8
BLACK
6
CONTINUOUS
10
4.86138
20
-4.70256
11
4.8653
21
-4.71096
0
LINE
8
BLACK
6
CONTINUOUS
10
4.8653
20
-4.71096
11
4.8677
21
-4.7199
0
LINE
8
BLACK
6
CONTINUOUS
10
4.8677
20
-4.7199
11
4.8685
21
-4.72913
0
LINE
8
BLACK
6
CONTINUOUS
10
4.8685
20
-4.72913
11
4.8677
21
-4.73836
0
LINE
8
BLACK
6
CONTINUOUS
10
4.8677
20
-4.73836
11
4.8653
21
-4.74731
0
LINE
8
BLACK
6
CONTINUOUS
10
4.8653
20
-4.74731
11
4.86138
21
-4.75571
0
LINE
8
BLACK
6
CONTINUOUS
10
4.86138
20
-4.75571
11
4.85607
21
-4.7633
0
LINE
8
BLACK
6
CONTINUOUS
10
4.85607
20
-4.7633
11
4.84952
21
-4.76985
0
LINE
8
BLACK
6
CONTINUOUS
10
4.84952
20
-4.76985
11
4.84193
21
-4.77516
0
LINE
8
BLACK
6
CONTINUOUS
10
4.84193
20
-4.77516
11
4.83353
21
-4.77908
0
LINE
8
BLACK
6
CONTINUOUS
10
4.83353
20
-4.77908
11
4.82458
21
-4.78148
0
LINE
8
BLACK
6
CONTINUOUS
10
4.82458
20
-4.78148
11
4.81535
21
-4.78228
0
LINE
8
BLACK
6
CONTINUOUS
10
4.81535
20
-4.78228
11
4.80612
21
-4.78148
0
LINE
8
BLACK
6
CONTINUOUS
10
4.80612
20
-4.78148
11
4.79718
21
-4.77908
0
LINE
8
BLACK
6
CONTINUOUS
10
4.79718
20
-4.77908
11
4.78878
21
-4.77516
0
LINE
8
BLACK
6
CONTINUOUS
10
4.78878
20
-4.77516
11
4.78119
21
-4.76985
0
LINE
8
BLACK
6
CONTINUOUS
10
4.78119
20
-4.76985
11
4.77464
21
-4.7633
0
LINE
8
BLACK
6
CONTINUOUS
10
4.77464
20
-4.7633
11
4.76933
21
-4.75571
0
LINE
8
BLACK
6
CONTINUOUS
10
4.76933
20
-4.75571
11
4.76541
21
-4.74731
0
LINE
8
BLACK
6
CONTINUOUS
10
4.76541
20
-4.74731
11
4.76301
21
-4.73836
0
LINE
8
BLACK
6
CONTINUOUS
10
4.76301
20
-4.73836
11
4.7622
21
-4.72913
0
LINE
8
BLACK
6
CONTINUOUS
10
4.7622
20
-4.72913
11
4.76301
21
-4.7199
0
LINE
8
BLACK
6
CONTINUOUS
10
4.76301
20
-4.7199
11
4.76541
21
-4.71096
0
LINE
8
BLACK
6
CONTINUOUS
10
4.76541
20
-4.71096
11
4.76933
21
-4.70256
0
LINE
8
BLACK
6
CONTINUOUS
10
4.76933
20
-4.70256
11
4.77464
21
-4.69497
0
LINE
8
BLACK
6
CONTINUOUS
10
4.77464
20
-4.69497
11
4.78119
21
-4.68842
0
LINE
8
BLACK
6
CONTINUOUS
10
4.78119
20
-4.68842
11
4.78878
21
-4.6831
0
LINE
8
BLACK
6
CONTINUOUS
10
4.78878
20
-4.6831
11
4.79718
21
-4.67919
0
LINE
8
BLACK
6
CONTINUOUS
10
4.79718
20
-4.67919
11
4.80612
21
-4.67679
0
LINE
8
BLACK
6
CONTINUOUS
10
4.80612
20
-4.67679
11
4.81535
21
-4.67598
0
LINE
8
BLACK
6
CONTINUOUS
10
4.81535
20
-4.67598
11
4.82458
21
-4.67679
0
LINE
8
BLACK
6
CONTINUOUS
10
3.42458
20
-4.67679
11
3.43353
21
-4.67919
0
LINE
8
BLACK
6
CONTINUOUS
10
3.43353
20
-4.67919
11
3.44193
21
-4.6831
0
LINE
8
BLACK
6
CONTINUOUS
10
3.44193
20
-4.6831
11
3.44952
21
-4.68842
0
LINE
8
BLACK
6
CONTINUOUS
10
3.44952
20
-4.68842
11
3.45607
21
-4.69497
0
LINE
8
BLACK
6
CONTINUOUS
10
3.45607
20
-4.69497
11
3.46138
21
-4.70256
0
LINE
8
BLACK
6
CONTINUOUS
10
3.46138
20
-4.70256
11
3.4653
21
-4.71096
0
LINE
8
BLACK
6
CONTINUOUS
10
3.4653
20
-4.71096
11
3.4677
21
-4.7199
0
LINE
8
BLACK
6
CONTINUOUS
10
3.4677
20
-4.7199
11
3.4685
21
-4.72913
0
LINE
8
BLACK
6
CONTINUOUS
10
3.4685
20
-4.72913
11
3.4677
21
-4.73836
0
LINE
8
BLACK
6
CONTINUOUS
10
3.4677
20
-4.73836
11
3.4653
21
-4.74731
0
LINE
8
BLACK
6
CONTINUOUS
10
3.4653
20
-4.74731
11
3.46138
21
-4.75571
0
LINE
8
BLACK
6
CONTINUOUS
10
3.46138
20
-4.75571
11
3.45607
21
-4.7633
0
LINE
8
BLACK
6
CONTINUOUS
10
3.45607
20
-4.7633
11
3.44952
21
-4.76985
0
LINE
8
BLACK
6
CONTINUOUS
10
3.44952
20
-4.76985
11
3.44193
21
-4.77516
0
LINE
8
BLACK
6
CONTINUOUS
10
3.44193
20
-4.77516
11
3.43353
21
-4.77908
0
LINE
8
BLACK
6
CONTINUOUS
10
3.43353
20
-4.77908
11
3.42458
21
-4.78148
0
LINE
8
BLACK
6
CONTINUOUS
10
3.42458
20
-4.78148
11
3.41535
21
-4.78228
0
LINE
8
BLACK
6
CONTINUOUS
10
3.41535
20
-4.78228
11
3.40612
21
-4.78148
0
LINE
8
BLACK
6
CONTINUOUS
10
3.40612
20
-4.78148
11
3.39718
21
-4.77908
0
LINE
8
BLACK
6
CONTINUOUS
10
3.39718
20
-4.77908
11
3.38878
21
-4.77516
0
LINE
8
BLACK
6
CONTINUOUS
10
3.38878
20
-4.77516
11
3.38119
21
-4.76985
0
LINE
8
BLACK
6
CONTINUOUS
10
3.38119
20
-4.76985
11
3.37464
21
-4.7633
0
LINE
8
BLACK
6
CONTINUOUS
10
3.37464
20
-4.7633
11
3.36933
21
-4.75571
0
LINE
8
BLACK
6
CONTINUOUS
10
3.36933
20
-4.75571
11
3.36541
21
-4.74731
0
LINE
8
BLACK
6
CONTINUOUS
10
3.36541
20
-4.74731
11
3.36301
21
-4.73836
0
LINE
8
BLACK
6
CONTINUOUS
10
3.36301
20
-4.73836
11
3.3622
21
-4.72913
0
LINE
8
BLACK
6
CONTINUOUS
10
3.3622
20
-4.72913
11
3.36301
21
-4.7199
0
LINE
8
BLACK
6
CONTINUOUS
10
3.36301
20
-4.7199
11
3.36541
21
-4.71096
0
LINE
8
BLACK
6
CONTINUOUS
10
3.36541
20
-4.71096
11
3.36933
21
-4.70256
0
LINE
8
BLACK
6
CONTINUOUS
10
3.36933
20
-4.70256
11
3.37464
21
-4.69497
0
LINE
8
BLACK
6
CONTINUOUS
10
3.37464
20
-4.69497
11
3.38119
21
-4.68842
0
LINE
8
BLACK
6
CONTINUOUS
10
3.38119
20
-4.68842
11
3.38878
21
-4.6831
0
LINE
8
BLACK
6
CONTINUOUS
10
3.38878
20
-4.6831
11
3.39718
21
-4.67919
0
LINE
8
BLACK
6
CONTINUOUS
10
3.39718
20
-4.67919
11
3.40612
21
-4.67679
0
LINE
8
BLACK
6
CONTINUOUS
10
3.40612
20
-4.67679
11
3.41535
21
-4.67598
0
LINE
8
BLACK
6
CONTINUOUS
10
3.41535
20
-4.67598
11
3.42458
21
-4.67679
0
LINE
8
BLACK
6
CONTINUOUS
10
6.03079
20
-4.72209
11
6.03463
21
-4.72405
0
LINE
8
BLACK
6
CONTINUOUS
10
6.03463
20
-4.72405
11
6.03768
21
-4.7271
0
LINE
8
BLACK
6
CONTINUOUS
10
6.03768
20
-4.7271
11
6.03964
21
-4.73094
0
LINE
8
BLACK
6
CONTINUOUS
10
6.03964
20
-4.73094
11
6.04031
21
-4.7352
0
LINE
8
BLACK
6
CONTINUOUS
10
6.04031
20
-4.7352
11
6.03964
21
-4.73945
0
LINE
8
BLACK
6
CONTINUOUS
10
6.03964
20
-4.73945
11
6.03768
21
-4.7433
0
LINE
8
BLACK
6
CONTINUOUS
10
6.03768
20
-4.7433
11
6.03463
21
-4.74634
0
LINE
8
BLACK
6
CONTINUOUS
10
6.03463
20
-4.74634
11
6.03079
21
-4.7483
0
LINE
8
BLACK
6
CONTINUOUS
10
6.03079
20
-4.7483
11
6.02654
21
-4.74898
0
LINE
8
BLACK
6
CONTINUOUS
10
6.02654
20
-4.74898
11
6.02228
21
-4.7483
0
LINE
8
BLACK
6
CONTINUOUS
10
6.02228
20
-4.7483
11
6.01844
21
-4.74634
0
LINE
8
BLACK
6
CONTINUOUS
10
6.01844
20
-4.74634
11
6.01539
21
-4.7433
0
LINE
8
BLACK
6
CONTINUOUS
10
6.01539
20
-4.7433
11
6.01343
21
-4.73945
0
LINE
8
BLACK
6
CONTINUOUS
10
6.01343
20
-4.73945
11
6.01276
21
-4.7352
0
LINE
8
BLACK
6
CONTINUOUS
10
6.01276
20
-4.7352
11
6.01343
21
-4.73094
0
LINE
8
BLACK
6
CONTINUOUS
10
6.01343
20
-4.73094
11
6.01539
21
-4.7271
0
LINE
8
BLACK
6
CONTINUOUS
10
6.01539
20
-4.7271
11
6.01844
21
-4.72405
0
LINE
8
BLACK
6
CONTINUOUS
10
6.01844
20
-4.72405
11
6.02228
21
-4.72209
0
LINE
8
BLACK
6
CONTINUOUS
10
6.02228
20
-4.72209
11
6.02654
21
-4.72142
0
LINE
8
BLACK
6
CONTINUOUS
10
6.02654
20
-4.72142
11
6.03079
21
-4.72209
0
LINE
8
BLACK
6
CONTINUOUS
10
6.08394
20
-4.72209
11
6.08778
21
-4.72405
0
LINE
8
BLACK
6
CONTINUOUS
10
6.08778
20
-4.72405
11
6.09083
21
-4.7271
0
LINE
8
BLACK
6
CONTINUOUS
10
6.09083
20
-4.7271
11
6.09279
21
-4.73094
0
LINE
8
BLACK
6
CONTINUOUS
10
6.09279
20
-4.73094
11
6.09346
21
-4.7352
0
LINE
8
BLACK
6
CONTINUOUS
10
6.09346
20
-4.7352
11
6.09279
21
-4.73945
0
LINE
8
BLACK
6
CONTINUOUS
10
6.09279
20
-4.73945
11
6.09083
21
-4.7433
0
LINE
8
BLACK
6
CONTINUOUS
10
6.09083
20
-4.7433
11
6.08778
21
-4.74634
0
LINE
8
BLACK
6
CONTINUOUS
10
6.08778
20
-4.74634
11
6.08394
21
-4.7483
0
LINE
8
BLACK
6
CONTINUOUS
10
6.08394
20
-4.7483
11
6.07969
21
-4.74898
0
LINE
8
BLACK
6
CONTINUOUS
10
6.07969
20
-4.74898
11
6.07543
21
-4.7483
0
LINE
8
BLACK
6
CONTINUOUS
10
6.07543
20
-4.7483
11
6.07159
21
-4.74634
0
LINE
8
BLACK
6
CONTINUOUS
10
6.07159
20
-4.74634
11
6.06854
21
-4.7433
0
LINE
8
BLACK
6
CONTINUOUS
10
6.06854
20
-4.7433
11
6.06658
21
-4.73945
0
LINE
8
BLACK
6
CONTINUOUS
10
6.06658
20
-4.73945
11
6.06591
21
-4.7352
0
LINE
8
BLACK
6
CONTINUOUS
10
6.06591
20
-4.7352
11
6.06658
21
-4.73094
0
LINE
8
BLACK
6
CONTINUOUS
10
6.06658
20
-4.73094
11
6.06854
21
-4.7271
0
LINE
8
BLACK
6
CONTINUOUS
10
6.06854
20
-4.7271
11
6.07159
21
-4.72405
0
LINE
8
BLACK
6
CONTINUOUS
10
6.07159
20
-4.72405
11
6.07543
21
-4.72209
0
LINE
8
BLACK
6
CONTINUOUS
10
6.07543
20
-4.72209
11
6.07969
21
-4.72142
0
LINE
8
BLACK
6
CONTINUOUS
10
6.07969
20
-4.72142
11
6.08394
21
-4.72209
0
LINE
8
BLACK
6
CONTINUOUS
10
4.49388
20
-4.62955
11
4.50282
21
-4.63195
0
LINE
8
BLACK
6
CONTINUOUS
10
4.50282
20
-4.63195
11
4.51122
21
-4.63586
0
LINE
8
BLACK
6
CONTINUOUS
10
4.51122
20
-4.63586
11
4.51881
21
-4.64117
0
LINE
8
BLACK
6
CONTINUOUS
10
4.51881
20
-4.64117
11
4.52536
21
-4.64773
0
LINE
8
BLACK
6
CONTINUOUS
10
4.52536
20
-4.64773
11
4.53067
21
-4.65531
0
LINE
8
BLACK
6
CONTINUOUS
10
4.53067
20
-4.65531
11
4.53459
21
-4.66371
0
LINE
8
BLACK
6
CONTINUOUS
10
4.53459
20
-4.66371
11
4.53699
21
-4.67266
0
LINE
8
BLACK
6
CONTINUOUS
10
4.53699
20
-4.67266
11
4.5378
21
-4.68189
0
LINE
8
BLACK
6
CONTINUOUS
10
4.5378
20
-4.68189
11
4.53699
21
-4.69112
0
LINE
8
BLACK
6
CONTINUOUS
10
4.53699
20
-4.69112
11
4.53459
21
-4.70007
0
LINE
8
BLACK
6
CONTINUOUS
10
4.53459
20
-4.70007
11
4.53067
21
-4.70846
0
LINE
8
BLACK
6
CONTINUOUS
10
4.53067
20
-4.70846
11
4.52536
21
-4.71605
0
LINE
8
BLACK
6
CONTINUOUS
10
4.52536
20
-4.71605
11
4.51881
21
-4.7226
0
LINE
8
BLACK
6
CONTINUOUS
10
4.51881
20
-4.7226
11
4.51122
21
-4.72792
0
LINE
8
BLACK
6
CONTINUOUS
10
4.51122
20
-4.72792
11
4.50282
21
-4.73183
0
LINE
8
BLACK
6
CONTINUOUS
10
4.50282
20
-4.73183
11
4.49388
21
-4.73423
0
LINE
8
BLACK
6
CONTINUOUS
10
4.49388
20
-4.73423
11
4.48465
21
-4.73504
0
LINE
8
BLACK
6
CONTINUOUS
10
4.48465
20
-4.73504
11
4.47542
21
-4.73423
0
LINE
8
BLACK
6
CONTINUOUS
10
4.47542
20
-4.73423
11
4.46647
21
-4.73183
0
LINE
8
BLACK
6
CONTINUOUS
10
4.46647
20
-4.73183
11
4.45807
21
-4.72792
0
LINE
8
BLACK
6
CONTINUOUS
10
4.45807
20
-4.72792
11
4.45048
21
-4.7226
0
LINE
8
BLACK
6
CONTINUOUS
10
4.45048
20
-4.7226
11
4.44393
21
-4.71605
0
LINE
8
BLACK
6
CONTINUOUS
10
4.44393
20
-4.71605
11
4.43862
21
-4.70846
0
LINE
8
BLACK
6
CONTINUOUS
10
4.43862
20
-4.70846
11
4.4347
21
-4.70007
0
LINE
8
BLACK
6
CONTINUOUS
10
4.4347
20
-4.70007
11
4.4323
21
-4.69112
0
LINE
8
BLACK
6
CONTINUOUS
10
4.4323
20
-4.69112
11
4.4315
21
-4.68189
0
LINE
8
BLACK
6
CONTINUOUS
10
4.4315
20
-4.68189
11
4.4323
21
-4.67266
0
LINE
8
BLACK
6
CONTINUOUS
10
4.4323
20
-4.67266
11
4.4347
21
-4.66371
0
LINE
8
BLACK
6
CONTINUOUS
10
4.4347
20
-4.66371
11
4.43862
21
-4.65531
0
LINE
8
BLACK
6
CONTINUOUS
10
4.43862
20
-4.65531
11
4.44393
21
-4.64773
0
LINE
8
BLACK
6
CONTINUOUS
10
4.44393
20
-4.64773
11
4.45048
21
-4.64117
0
LINE
8
BLACK
6
CONTINUOUS
10
4.45048
20
-4.64117
11
4.45807
21
-4.63586
0
LINE
8
BLACK
6
CONTINUOUS
10
4.45807
20
-4.63586
11
4.46647
21
-4.63195
0
LINE
8
BLACK
6
CONTINUOUS
10
4.46647
20
-4.63195
11
4.47542
21
-4.62955
0
LINE
8
BLACK
6
CONTINUOUS
10
4.47542
20
-4.62955
11
4.48465
21
-4.62874
0
LINE
8
BLACK
6
CONTINUOUS
10
4.48465
20
-4.62874
11
4.49388
21
-4.62955
0
LINE
8
BLACK
6
CONTINUOUS
10
3.09387
20
-4.62955
11
3.10282
21
-4.63195
0
LINE
8
BLACK
6
CONTINUOUS
10
3.10282
20
-4.63195
11
3.11122
21
-4.63586
0
LINE
8
BLACK
6
CONTINUOUS
10
3.11122
20
-4.63586
11
3.11881
21
-4.64117
0
LINE
8
BLACK
6
CONTINUOUS
10
3.11881
20
-4.64117
11
3.12536
21
-4.64773
0
LINE
8
BLACK
6
CONTINUOUS
10
3.12536
20
-4.64773
11
3.13067
21
-4.65531
0
LINE
8
BLACK
6
CONTINUOUS
10
3.13067
20
-4.65531
11
3.13459
21
-4.66371
0
LINE
8
BLACK
6
CONTINUOUS
10
3.13459
20
-4.66371
11
3.13699
21
-4.67266
0
LINE
8
BLACK
6
CONTINUOUS
10
3.13699
20
-4.67266
11
3.1378
21
-4.68189
0
LINE
8
BLACK
6
CONTINUOUS
10
3.1378
20
-4.68189
11
3.13699
21
-4.69112
0
LINE
8
BLACK
6
CONTINUOUS
10
3.13699
20
-4.69112
11
3.13459
21
-4.70007
0
LINE
8
BLACK
6
CONTINUOUS
10
3.13459
20
-4.70007
11
3.13067
21
-4.70846
0
LINE
8
BLACK
6
CONTINUOUS
10
3.13067
20
-4.70846
11
3.12536
21
-4.71605
0
LINE
8
BLACK
6
CONTINUOUS
10
3.12536
20
-4.71605
11
3.11881
21
-4.7226
0
LINE
8
BLACK
6
CONTINUOUS
10
3.11881
20
-4.7226
11
3.11122
21
-4.72792
0
LINE
8
BLACK
6
CONTINUOUS
10
3.11122
20
-4.72792
11
3.10282
21
-4.73183
0
LINE
8
BLACK
6
CONTINUOUS
10
3.10282
20
-4.73183
11
3.09387
21
-4.73423
0
LINE
8
BLACK
6
CONTINUOUS
10
3.09387
20
-4.73423
11
3.08465
21
-4.73504
0
LINE
8
BLACK
6
CONTINUOUS
10
3.08465
20
-4.73504
11
3.07542
21
-4.73423
0
LINE
8
BLACK
6
CONTINUOUS
10
3.07542
20
-4.73423
11
3.06647
21
-4.73183
0
LINE
8
BLACK
6
CONTINUOUS
10
3.06647
20
-4.73183
11
3.05807
21
-4.72792
0
LINE
8
BLACK
6
CONTINUOUS
10
3.05807
20
-4.72792
11
3.05048
21
-4.7226
0
LINE
8
BLACK
6
CONTINUOUS
10
3.05048
20
-4.7226
11
3.04393
21
-4.71605
0
LINE
8
BLACK
6
CONTINUOUS
10
3.04393
20
-4.71605
11
3.03862
21
-4.70846
0
LINE
8
BLACK
6
CONTINUOUS
10
3.03862
20
-4.70846
11
3.0347
21
-4.70007
0
LINE
8
BLACK
6
CONTINUOUS
10
3.0347
20
-4.70007
11
3.0323
21
-4.69112
0
LINE
8
BLACK
6
CONTINUOUS
10
3.0323
20
-4.69112
11
3.0315
21
-4.68189
0
LINE
8
BLACK
6
CONTINUOUS
10
3.0315
20
-4.68189
11
3.0323
21
-4.67266
0
LINE
8
BLACK
6
CONTINUOUS
10
3.0323
20
-4.67266
11
3.0347
21
-4.66371
0
LINE
8
BLACK
6
CONTINUOUS
10
3.0347
20
-4.66371
11
3.03862
21
-4.65531
0
LINE
8
BLACK
6
CONTINUOUS
10
3.03862
20
-4.65531
11
3.04393
21
-4.64773
0
LINE
8
BLACK
6
CONTINUOUS
10
3.04393
20
-4.64773
11
3.05048
21
-4.64117
0
LINE
8
BLACK
6
CONTINUOUS
10
3.05048
20
-4.64117
11
3.05807
21
-4.63586
0
LINE
8
BLACK
6
CONTINUOUS
10
3.05807
20
-4.63586
11
3.06647
21
-4.63195
0
LINE
8
BLACK
6
CONTINUOUS
10
3.06647
20
-4.63195
11
3.07542
21
-4.62955
0
LINE
8
BLACK
6
CONTINUOUS
10
3.07542
20
-4.62955
11
3.08465
21
-4.62874
0
LINE
8
BLACK
6
CONTINUOUS
10
3.08465
20
-4.62874
11
3.09387
21
-4.62955
0
LINE
8
BLACK
6
CONTINUOUS
10
3.79387
20
-4.62955
11
3.80282
21
-4.63195
0
LINE
8
BLACK
6
CONTINUOUS
10
3.80282
20
-4.63195
11
3.81122
21
-4.63586
0
LINE
8
BLACK
6
CONTINUOUS
10
3.81122
20
-4.63586
11
3.81881
21
-4.64117
0
LINE
8
BLACK
6
CONTINUOUS
10
3.81881
20
-4.64117
11
3.82536
21
-4.64773
0
LINE
8
BLACK
6
CONTINUOUS
10
3.82536
20
-4.64773
11
3.83067
21
-4.65531
0
LINE
8
BLACK
6
CONTINUOUS
10
3.83067
20
-4.65531
11
3.83459
21
-4.66371
0
LINE
8
BLACK
6
CONTINUOUS
10
3.83459
20
-4.66371
11
3.83699
21
-4.67266
0
LINE
8
BLACK
6
CONTINUOUS
10
3.83699
20
-4.67266
11
3.8378
21
-4.68189
0
LINE
8
BLACK
6
CONTINUOUS
10
3.8378
20
-4.68189
11
3.83699
21
-4.69112
0
LINE
8
BLACK
6
CONTINUOUS
10
3.83699
20
-4.69112
11
3.83459
21
-4.70007
0
LINE
8
BLACK
6
CONTINUOUS
10
3.83459
20
-4.70007
11
3.83067
21
-4.70846
0
LINE
8
BLACK
6
CONTINUOUS
10
3.83067
20
-4.70846
11
3.82536
21
-4.71605
0
LINE
8
BLACK
6
CONTINUOUS
10
3.82536
20
-4.71605
11
3.81881
21
-4.7226
0
LINE
8
BLACK
6
CONTINUOUS
10
3.81881
20
-4.7226
11
3.81122
21
-4.72792
0
LINE
8
BLACK
6
CONTINUOUS
10
3.81122
20
-4.72792
11
3.80282
21
-4.73183
0
LINE
8
BLACK
6
CONTINUOUS
10
3.80282
20
-4.73183
11
3.79387
21
-4.73423
0
LINE
8
BLACK
6
CONTINUOUS
10
3.79387
20
-4.73423
11
3.78465
21
-4.73504
0
LINE
8
BLACK
6
CONTINUOUS
10
3.78465
20
-4.73504
11
3.77542
21
-4.73423
0
LINE
8
BLACK
6
CONTINUOUS
10
3.77542
20
-4.73423
11
3.76647
21
-4.73183
0
LINE
8
BLACK
6
CONTINUOUS
10
3.76647
20
-4.73183
11
3.75807
21
-4.72792
0
LINE
8
BLACK
6
CONTINUOUS
10
3.75807
20
-4.72792
11
3.75048
21
-4.7226
0
LINE
8
BLACK
6
CONTINUOUS
10
3.75048
20
-4.7226
11
3.74393
21
-4.71605
0
LINE
8
BLACK
6
CONTINUOUS
10
3.74393
20
-4.71605
11
3.73862
21
-4.70846
0
LINE
8
BLACK
6
CONTINUOUS
10
3.73862
20
-4.70846
11
3.7347
21
-4.70007
0
LINE
8
BLACK
6
CONTINUOUS
10
3.7347
20
-4.70007
11
3.7323
21
-4.69112
0
LINE
8
BLACK
6
CONTINUOUS
10
3.7323
20
-4.69112
11
3.7315
21
-4.68189
0
LINE
8
BLACK
6
CONTINUOUS
10
3.7315
20
-4.68189
11
3.7323
21
-4.67266
0
LINE
8
BLACK
6
CONTINUOUS
10
3.7323
20
-4.67266
11
3.7347
21
-4.66371
0
LINE
8
BLACK
6
CONTINUOUS
10
3.7347
20
-4.66371
11
3.73862
21
-4.65531
0
LINE
8
BLACK
6
CONTINUOUS
10
3.73862
20
-4.65531
11
3.74393
21
-4.64773
0
LINE
8
BLACK
6
CONTINUOUS
10
3.74393
20
-4.64773
11
3.75048
21
-4.64117
0
LINE
8
BLACK
6
CONTINUOUS
10
3.75048
20
-4.64117
11
3.75807
21
-4.63586
0
LINE
8
BLACK
6
CONTINUOUS
10
3.75807
20
-4.63586
11
3.76647
21
-4.63195
0
LINE
8
BLACK
6
CONTINUOUS
10
3.76647
20
-4.63195
11
3.77542
21
-4.62955
0
LINE
8
BLACK
6
CONTINUOUS
10
3.77542
20
-4.62955
11
3.78465
21
-4.62874
0
LINE
8
BLACK
6
CONTINUOUS
10
3.78465
20
-4.62874
11
3.79387
21
-4.62955
0
LINE
8
BLACK
6
CONTINUOUS
10
6.03079
20
-4.68863
11
6.03463
21
-4.69058
0
LINE
8
BLACK
6
CONTINUOUS
10
6.03463
20
-4.69058
11
6.03768
21
-4.69363
0
LINE
8
BLACK
6
CONTINUOUS
10
6.03768
20
-4.69363
11
6.03964
21
-4.69747
0
LINE
8
BLACK
6
CONTINUOUS
10
6.03964
20
-4.69747
11
6.04031
21
-4.70173
0
LINE
8
BLACK
6
CONTINUOUS
10
6.04031
20
-4.70173
11
6.03964
21
-4.70599
0
LINE
8
BLACK
6
CONTINUOUS
10
6.03964
20
-4.70599
11
6.03768
21
-4.70983
0
LINE
8
BLACK
6
CONTINUOUS
10
6.03768
20
-4.70983
11
6.03463
21
-4.71288
0
LINE
8
BLACK
6
CONTINUOUS
10
6.03463
20
-4.71288
11
6.03079
21
-4.71484
0
LINE
8
BLACK
6
CONTINUOUS
10
6.03079
20
-4.71484
11
6.02654
21
-4.71551
0
LINE
8
BLACK
6
CONTINUOUS
10
6.02654
20
-4.71551
11
6.02228
21
-4.71484
0
LINE
8
BLACK
6
CONTINUOUS
10
6.02228
20
-4.71484
11
6.01844
21
-4.71288
0
LINE
8
BLACK
6
CONTINUOUS
10
6.01844
20
-4.71288
11
6.01539
21
-4.70983
0
LINE
8
BLACK
6
CONTINUOUS
10
6.01539
20
-4.70983
11
6.01343
21
-4.70599
0
LINE
8
BLACK
6
CONTINUOUS
10
6.01343
20
-4.70599
11
6.01276
21
-4.70173
0
LINE
8
BLACK
6
CONTINUOUS
10
6.01276
20
-4.70173
11
6.01343
21
-4.69747
0
LINE
8
BLACK
6
CONTINUOUS
10
6.01343
20
-4.69747
11
6.01539
21
-4.69363
0
LINE
8
BLACK
6
CONTINUOUS
10
6.01539
20
-4.69363
11
6.01844
21
-4.69058
0
LINE
8
BLACK
6
CONTINUOUS
10
6.01844
20
-4.69058
11
6.02228
21
-4.68863
0
LINE
8
BLACK
6
CONTINUOUS
10
6.02228
20
-4.68863
11
6.02654
21
-4.68795
0
LINE
8
BLACK
6
CONTINUOUS
10
6.02654
20
-4.68795
11
6.03079
21
-4.68863
0
LINE
8
BLACK
6
CONTINUOUS
10
6.08394
20
-4.68863
11
6.08778
21
-4.69058
0
LINE
8
BLACK
6
CONTINUOUS
10
6.08778
20
-4.69058
11
6.09083
21
-4.69363
0
LINE
8
BLACK
6
CONTINUOUS
10
6.09083
20
-4.69363
11
6.09279
21
-4.69747
0
LINE
8
BLACK
6
CONTINUOUS
10
6.09279
20
-4.69747
11
6.09346
21
-4.70173
0
LINE
8
BLACK
6
CONTINUOUS
10
6.09346
20
-4.70173
11
6.09279
21
-4.70599
0
LINE
8
BLACK
6
CONTINUOUS
10
6.09279
20
-4.70599
11
6.09083
21
-4.70983
0
LINE
8
BLACK
6
CONTINUOUS
10
6.09083
20
-4.70983
11
6.08778
21
-4.71288
0
LINE
8
BLACK
6
CONTINUOUS
10
6.08778
20
-4.71288
11
6.08394
21
-4.71484
0
LINE
8
BLACK
6
CONTINUOUS
10
6.08394
20
-4.71484
11
6.07969
21
-4.71551
0
LINE
8
BLACK
6
CONTINUOUS
10
6.07969
20
-4.71551
11
6.07543
21
-4.71484
0
LINE
8
BLACK
6
CONTINUOUS
10
6.07543
20
-4.71484
11
6.07159
21
-4.71288
0
LINE
8
BLACK
6
CONTINUOUS
10
6.07159
20
-4.71288
11
6.06854
21
-4.70983
0
LINE
8
BLACK
6
CONTINUOUS
10
6.06854
20
-4.70983
11
6.06658
21
-4.70599
0
LINE
8
BLACK
6
CONTINUOUS
10
6.06658
20
-4.70599
11
6.06591
21
-4.70173
0
LINE
8
BLACK
6
CONTINUOUS
10
6.06591
20
-4.70173
11
6.06658
21
-4.69747
0
LINE
8
BLACK
6
CONTINUOUS
10
6.06658
20
-4.69747
11
6.06854
21
-4.69363
0
LINE
8
BLACK
6
CONTINUOUS
10
6.06854
20
-4.69363
11
6.07159
21
-4.69058
0
LINE
8
BLACK
6
CONTINUOUS
10
6.07159
20
-4.69058
11
6.07543
21
-4.68863
0
LINE
8
BLACK
6
CONTINUOUS
10
6.07543
20
-4.68863
11
6.07969
21
-4.68795
0
LINE
8
BLACK
6
CONTINUOUS
10
6.07969
20
-4.68795
11
6.08394
21
-4.68863
0
LINE
8
BLACK
6
CONTINUOUS
10
6.08394
20
-4.65516
11
6.08778
21
-4.65712
0
LINE
8
BLACK
6
CONTINUOUS
10
6.08778
20
-4.65712
11
6.09083
21
-4.66017
0
LINE
8
BLACK
6
CONTINUOUS
10
6.09083
20
-4.66017
11
6.09279
21
-4.66401
0
LINE
8
BLACK
6
CONTINUOUS
10
6.09279
20
-4.66401
11
6.09346
21
-4.66827
0
LINE
8
BLACK
6
CONTINUOUS
10
6.09346
20
-4.66827
11
6.09279
21
-4.67253
0
LINE
8
BLACK
6
CONTINUOUS
10
6.09279
20
-4.67253
11
6.09083
21
-4.67637
0
LINE
8
BLACK
6
CONTINUOUS
10
6.09083
20
-4.67637
11
6.08778
21
-4.67942
0
LINE
8
BLACK
6
CONTINUOUS
10
6.08778
20
-4.67942
11
6.08394
21
-4.68137
0
LINE
8
BLACK
6
CONTINUOUS
10
6.08394
20
-4.68137
11
6.07969
21
-4.68205
0
LINE
8
BLACK
6
CONTINUOUS
10
6.07969
20
-4.68205
11
6.07543
21
-4.68137
0
LINE
8
BLACK
6
CONTINUOUS
10
6.07543
20
-4.68137
11
6.07159
21
-4.67942
0
LINE
8
BLACK
6
CONTINUOUS
10
6.07159
20
-4.67942
11
6.06854
21
-4.67637
0
LINE
8
BLACK
6
CONTINUOUS
10
6.06854
20
-4.67637
11
6.06658
21
-4.67253
0
LINE
8
BLACK
6
CONTINUOUS
10
6.06658
20
-4.67253
11
6.06591
21
-4.66827
0
LINE
8
BLACK
6
CONTINUOUS
10
6.06591
20
-4.66827
11
6.06658
21
-4.66401
0
LINE
8
BLACK
6
CONTINUOUS
10
6.06658
20
-4.66401
11
6.06854
21
-4.66017
0
LINE
8
BLACK
6
CONTINUOUS
10
6.06854
20
-4.66017
11
6.07159
21
-4.65712
0
LINE
8
BLACK
6
CONTINUOUS
10
6.07159
20
-4.65712
11
6.07543
21
-4.65516
0
LINE
8
BLACK
6
CONTINUOUS
10
6.07543
20
-4.65516
11
6.07969
21
-4.65449
0
LINE
8
BLACK
6
CONTINUOUS
10
6.07969
20
-4.65449
11
6.08394
21
-4.65516
0
LINE
8
BLACK
6
CONTINUOUS
10
6.03079
20
-4.65516
11
6.03463
21
-4.65712
0
LINE
8
BLACK
6
CONTINUOUS
10
6.03463
20
-4.65712
11
6.03768
21
-4.66017
0
LINE
8
BLACK
6
CONTINUOUS
10
6.03768
20
-4.66017
11
6.03964
21
-4.66401
0
LINE
8
BLACK
6
CONTINUOUS
10
6.03964
20
-4.66401
11
6.04031
21
-4.66827
0
LINE
8
BLACK
6
CONTINUOUS
10
6.04031
20
-4.66827
11
6.03964
21
-4.67253
0
LINE
8
BLACK
6
CONTINUOUS
10
6.03964
20
-4.67253
11
6.03768
21
-4.67637
0
LINE
8
BLACK
6
CONTINUOUS
10
6.03768
20
-4.67637
11
6.03463
21
-4.67942
0
LINE
8
BLACK
6
CONTINUOUS
10
6.03463
20
-4.67942
11
6.03079
21
-4.68137
0
LINE
8
BLACK
6
CONTINUOUS
10
6.03079
20
-4.68137
11
6.02654
21
-4.68205
0
LINE
8
BLACK
6
CONTINUOUS
10
6.02654
20
-4.68205
11
6.02228
21
-4.68137
0
LINE
8
BLACK
6
CONTINUOUS
10
6.02228
20
-4.68137
11
6.01844
21
-4.67942
0
LINE
8
BLACK
6
CONTINUOUS
10
6.01844
20
-4.67942
11
6.01539
21
-4.67637
0
LINE
8
BLACK
6
CONTINUOUS
10
6.01539
20
-4.67637
11
6.01343
21
-4.67253
0
LINE
8
BLACK
6
CONTINUOUS
10
6.01343
20
-4.67253
11
6.01276
21
-4.66827
0
LINE
8
BLACK
6
CONTINUOUS
10
6.01276
20
-4.66827
11
6.01343
21
-4.66401
0
LINE
8
BLACK
6
CONTINUOUS
10
6.01343
20
-4.66401
11
6.01539
21
-4.66017
0
LINE
8
BLACK
6
CONTINUOUS
10
6.01539
20
-4.66017
11
6.01844
21
-4.65712
0
LINE
8
BLACK
6
CONTINUOUS
10
6.01844
20
-4.65712
11
6.02228
21
-4.65516
0
LINE
8
BLACK
6
CONTINUOUS
10
6.02228
20
-4.65516
11
6.02654
21
-4.65449
0
LINE
8
BLACK
6
CONTINUOUS
10
6.02654
20
-4.65449
11
6.03079
21
-4.65516
0
LINE
8
BLACK
6
CONTINUOUS
10
6.08394
20
-4.6217
11
6.08778
21
-4.62366
0
LINE
8
BLACK
6
CONTINUOUS
10
6.08778
20
-4.62366
11
6.09083
21
-4.6267
0
LINE
8
BLACK
6
CONTINUOUS
10
6.09083
20
-4.6267
11
6.09279
21
-4.63055
0
LINE
8
BLACK
6
CONTINUOUS
10
6.09279
20
-4.63055
11
6.09346
21
-4.6348
0
LINE
8
BLACK
6
CONTINUOUS
10
6.09346
20
-4.6348
11
6.09279
21
-4.63906
0
LINE
8
BLACK
6
CONTINUOUS
10
6.09279
20
-4.63906
11
6.09083
21
-4.6429
0
LINE
8
BLACK
6
CONTINUOUS
10
6.09083
20
-4.6429
11
6.08778
21
-4.64595
0
LINE
8
BLACK
6
CONTINUOUS
10
6.08778
20
-4.64595
11
6.08394
21
-4.64791
0
LINE
8
BLACK
6
CONTINUOUS
10
6.08394
20
-4.64791
11
6.07969
21
-4.64858
0
LINE
8
BLACK
6
CONTINUOUS
10
6.07969
20
-4.64858
11
6.07543
21
-4.64791
0
LINE
8
BLACK
6
CONTINUOUS
10
6.07543
20
-4.64791
11
6.07159
21
-4.64595
0
LINE
8
BLACK
6
CONTINUOUS
10
6.07159
20
-4.64595
11
6.06854
21
-4.6429
0
LINE
8
BLACK
6
CONTINUOUS
10
6.06854
20
-4.6429
11
6.06658
21
-4.63906
0
LINE
8
BLACK
6
CONTINUOUS
10
6.06658
20
-4.63906
11
6.06591
21
-4.6348
0
LINE
8
BLACK
6
CONTINUOUS
10
6.06591
20
-4.6348
11
6.06658
21
-4.63055
0
LINE
8
BLACK
6
CONTINUOUS
10
6.06658
20
-4.63055
11
6.06854
21
-4.6267
0
LINE
8
BLACK
6
CONTINUOUS
10
6.06854
20
-4.6267
11
6.07159
21
-4.62366
0
LINE
8
BLACK
6
CONTINUOUS
10
6.07159
20
-4.62366
11
6.07543
21
-4.6217
0
LINE
8
BLACK
6
CONTINUOUS
10
6.07543
20
-4.6217
11
6.07969
21
-4.62102
0
LINE
8
BLACK
6
CONTINUOUS
10
6.07969
20
-4.62102
11
6.08394
21
-4.6217
0
LINE
8
BLACK
6
CONTINUOUS
10
6.03079
20
-4.6217
11
6.03463
21
-4.62366
0
LINE
8
BLACK
6
CONTINUOUS
10
6.03463
20
-4.62366
11
6.03768
21
-4.6267
0
LINE
8
BLACK
6
CONTINUOUS
10
6.03768
20
-4.6267
11
6.03964
21
-4.63055
0
LINE
8
BLACK
6
CONTINUOUS
10
6.03964
20
-4.63055
11
6.04031
21
-4.6348
0
LINE
8
BLACK
6
CONTINUOUS
10
6.04031
20
-4.6348
11
6.03964
21
-4.63906
0
LINE
8
BLACK
6
CONTINUOUS
10
6.03964
20
-4.63906
11
6.03768
21
-4.6429
0
LINE
8
BLACK
6
CONTINUOUS
10
6.03768
20
-4.6429
11
6.03463
21
-4.64595
0
LINE
8
BLACK
6
CONTINUOUS
10
6.03463
20
-4.64595
11
6.03079
21
-4.64791
0
LINE
8
BLACK
6
CONTINUOUS
10
6.03079
20
-4.64791
11
6.02654
21
-4.64858
0
LINE
8
BLACK
6
CONTINUOUS
10
6.02654
20
-4.64858
11
6.02228
21
-4.64791
0
LINE
8
BLACK
6
CONTINUOUS
10
6.02228
20
-4.64791
11
6.01844
21
-4.64595
0
LINE
8
BLACK
6
CONTINUOUS
10
6.01844
20
-4.64595
11
6.01539
21
-4.6429
0
LINE
8
BLACK
6
CONTINUOUS
10
6.01539
20
-4.6429
11
6.01343
21
-4.63906
0
LINE
8
BLACK
6
CONTINUOUS
10
6.01343
20
-4.63906
11
6.01276
21
-4.6348
0
LINE
8
BLACK
6
CONTINUOUS
10
6.01276
20
-4.6348
11
6.01343
21
-4.63055
0
LINE
8
BLACK
6
CONTINUOUS
10
6.01343
20
-4.63055
11
6.01539
21
-4.6267
0
LINE
8
BLACK
6
CONTINUOUS
10
6.01539
20
-4.6267
11
6.01844
21
-4.62366
0
LINE
8
BLACK
6
CONTINUOUS
10
6.01844
20
-4.62366
11
6.02228
21
-4.6217
0
LINE
8
BLACK
6
CONTINUOUS
10
6.02228
20
-4.6217
11
6.02654
21
-4.62102
0
LINE
8
BLACK
6
CONTINUOUS
10
6.02654
20
-4.62102
11
6.03079
21
-4.6217
0
LINE
8
BLACK
6
CONTINUOUS
10
6.03079
20
-4.58823
11
6.03463
21
-4.59019
0
LINE
8
BLACK
6
CONTINUOUS
10
6.03463
20
-4.59019
11
6.03768
21
-4.59324
0
LINE
8
BLACK
6
CONTINUOUS
10
6.03768
20
-4.59324
11
6.03964
21
-4.59708
0
LINE
8
BLACK
6
CONTINUOUS
10
6.03964
20
-4.59708
11
6.04031
21
-4.60134
0
LINE
8
BLACK
6
CONTINUOUS
10
6.04031
20
-4.60134
11
6.03964
21
-4.6056
0
LINE
8
BLACK
6
CONTINUOUS
10
6.03964
20
-4.6056
11
6.03768
21
-4.60944
0
LINE
8
BLACK
6
CONTINUOUS
10
6.03768
20
-4.60944
11
6.03463
21
-4.61249
0
LINE
8
BLACK
6
CONTINUOUS
10
6.03463
20
-4.61249
11
6.03079
21
-4.61444
0
LINE
8
BLACK
6
CONTINUOUS
10
6.03079
20
-4.61444
11
6.02654
21
-4.61512
0
LINE
8
BLACK
6
CONTINUOUS
10
6.02654
20
-4.61512
11
6.02228
21
-4.61444
0
LINE
8
BLACK
6
CONTINUOUS
10
6.02228
20
-4.61444
11
6.01844
21
-4.61249
0
LINE
8
BLACK
6
CONTINUOUS
10
6.01844
20
-4.61249
11
6.01539
21
-4.60944
0
LINE
8
BLACK
6
CONTINUOUS
10
6.01539
20
-4.60944
11
6.01343
21
-4.6056
0
LINE
8
BLACK
6
CONTINUOUS
10
6.01343
20
-4.6056
11
6.01276
21
-4.60134
0
LINE
8
BLACK
6
CONTINUOUS
10
6.01276
20
-4.60134
11
6.01343
21
-4.59708
0
LINE
8
BLACK
6
CONTINUOUS
10
6.01343
20
-4.59708
11
6.01539
21
-4.59324
0
LINE
8
BLACK
6
CONTINUOUS
10
6.01539
20
-4.59324
11
6.01844
21
-4.59019
0
LINE
8
BLACK
6
CONTINUOUS
10
6.01844
20
-4.59019
11
6.02228
21
-4.58823
0
LINE
8
BLACK
6
CONTINUOUS
10
6.02228
20
-4.58823
11
6.02654
21
-4.58756
0
LINE
8
BLACK
6
CONTINUOUS
10
6.02654
20
-4.58756
11
6.03079
21
-4.58823
0
LINE
8
BLACK
6
CONTINUOUS
10
6.08394
20
-4.58823
11
6.08778
21
-4.59019
0
LINE
8
BLACK
6
CONTINUOUS
10
6.08778
20
-4.59019
11
6.09083
21
-4.59324
0
LINE
8
BLACK
6
CONTINUOUS
10
6.09083
20
-4.59324
11
6.09279
21
-4.59708
0
LINE
8
BLACK
6
CONTINUOUS
10
6.09279
20
-4.59708
11
6.09346
21
-4.60134
0
LINE
8
BLACK
6
CONTINUOUS
10
6.09346
20
-4.60134
11
6.09279
21
-4.6056
0
LINE
8
BLACK
6
CONTINUOUS
10
6.09279
20
-4.6056
11
6.09083
21
-4.60944
0
LINE
8
BLACK
6
CONTINUOUS
10
6.09083
20
-4.60944
11
6.08778
21
-4.61249
0
LINE
8
BLACK
6
CONTINUOUS
10
6.08778
20
-4.61249
11
6.08394
21
-4.61444
0
LINE
8
BLACK
6
CONTINUOUS
10
6.08394
20
-4.61444
11
6.07969
21
-4.61512
0
LINE
8
BLACK
6
CONTINUOUS
10
6.07969
20
-4.61512
11
6.07543
21
-4.61444
0
LINE
8
BLACK
6
CONTINUOUS
10
6.07543
20
-4.61444
11
6.07159
21
-4.61249
0
LINE
8
BLACK
6
CONTINUOUS
10
6.07159
20
-4.61249
11
6.06854
21
-4.60944
0
LINE
8
BLACK
6
CONTINUOUS
10
6.06854
20
-4.60944
11
6.06658
21
-4.6056
0
LINE
8
BLACK
6
CONTINUOUS
10
6.06658
20
-4.6056
11
6.06591
21
-4.60134
0
LINE
8
BLACK
6
CONTINUOUS
10
6.06591
20
-4.60134
11
6.06658
21
-4.59708
0
LINE
8
BLACK
6
CONTINUOUS
10
6.06658
20
-4.59708
11
6.06854
21
-4.59324
0
LINE
8
BLACK
6
CONTINUOUS
10
6.06854
20
-4.59324
11
6.07159
21
-4.59019
0
LINE
8
BLACK
6
CONTINUOUS
10
6.07159
20
-4.59019
11
6.07543
21
-4.58823
0
LINE
8
BLACK
6
CONTINUOUS
10
6.07543
20
-4.58823
11
6.07969
21
-4.58756
0
LINE
8
BLACK
6
CONTINUOUS
10
6.07969
20
-4.58756
11
6.08394
21
-4.58823
0
LINE
8
BLACK
6
CONTINUOUS
10
6.03079
20
-4.55477
11
6.03463
21
-4.55673
0
LINE
8
BLACK
6
CONTINUOUS
10
6.03463
20
-4.55673
11
6.03768
21
-4.55977
0
LINE
8
BLACK
6
CONTINUOUS
10
6.03768
20
-4.55977
11
6.03964
21
-4.56362
0
LINE
8
BLACK
6
CONTINUOUS
10
6.03964
20
-4.56362
11
6.04031
21
-4.56787
0
LINE
8
BLACK
6
CONTINUOUS
10
6.04031
20
-4.56787
11
6.03964
21
-4.57213
0
LINE
8
BLACK
6
CONTINUOUS
10
6.03964
20
-4.57213
11
6.03768
21
-4.57597
0
LINE
8
BLACK
6
CONTINUOUS
10
6.03768
20
-4.57597
11
6.03463
21
-4.57902
0
LINE
8
BLACK
6
CONTINUOUS
10
6.03463
20
-4.57902
11
6.03079
21
-4.58098
0
LINE
8
BLACK
6
CONTINUOUS
10
6.03079
20
-4.58098
11
6.02654
21
-4.58165
0
LINE
8
BLACK
6
CONTINUOUS
10
6.02654
20
-4.58165
11
6.02228
21
-4.58098
0
LINE
8
BLACK
6
CONTINUOUS
10
6.02228
20
-4.58098
11
6.01844
21
-4.57902
0
LINE
8
BLACK
6
CONTINUOUS
10
6.01844
20
-4.57902
11
6.01539
21
-4.57597
0
LINE
8
BLACK
6
CONTINUOUS
10
6.01539
20
-4.57597
11
6.01343
21
-4.57213
0
LINE
8
BLACK
6
CONTINUOUS
10
6.01343
20
-4.57213
11
6.01276
21
-4.56787
0
LINE
8
BLACK
6
CONTINUOUS
10
6.01276
20
-4.56787
11
6.01343
21
-4.56362
0
LINE
8
BLACK
6
CONTINUOUS
10
6.01343
20
-4.56362
11
6.01539
21
-4.55977
0
LINE
8
BLACK
6
CONTINUOUS
10
6.01539
20
-4.55977
11
6.01844
21
-4.55673
0
LINE
8
BLACK
6
CONTINUOUS
10
6.01844
20
-4.55673
11
6.02228
21
-4.55477
0
LINE
8
BLACK
6
CONTINUOUS
10
6.02228
20
-4.55477
11
6.02654
21
-4.55409
0
LINE
8
BLACK
6
CONTINUOUS
10
6.02654
20
-4.55409
11
6.03079
21
-4.55477
0
LINE
8
BLACK
6
CONTINUOUS
10
6.08394
20
-4.55477
11
6.08778
21
-4.55673
0
LINE
8
BLACK
6
CONTINUOUS
10
6.08778
20
-4.55673
11
6.09083
21
-4.55977
0
LINE
8
BLACK
6
CONTINUOUS
10
6.09083
20
-4.55977
11
6.09279
21
-4.56362
0
LINE
8
BLACK
6
CONTINUOUS
10
6.09279
20
-4.56362
11
6.09346
21
-4.56787
0
LINE
8
BLACK
6
CONTINUOUS
10
6.09346
20
-4.56787
11
6.09279
21
-4.57213
0
LINE
8
BLACK
6
CONTINUOUS
10
6.09279
20
-4.57213
11
6.09083
21
-4.57597
0
LINE
8
BLACK
6
CONTINUOUS
10
6.09083
20
-4.57597
11
6.08778
21
-4.57902
0
LINE
8
BLACK
6
CONTINUOUS
10
6.08778
20
-4.57902
11
6.08394
21
-4.58098
0
LINE
8
BLACK
6
CONTINUOUS
10
6.08394
20
-4.58098
11
6.07969
21
-4.58165
0
LINE
8
BLACK
6
CONTINUOUS
10
6.07969
20
-4.58165
11
6.07543
21
-4.58098
0
LINE
8
BLACK
6
CONTINUOUS
10
6.07543
20
-4.58098
11
6.07159
21
-4.57902
0
LINE
8
BLACK
6
CONTINUOUS
10
6.07159
20
-4.57902
11
6.06854
21
-4.57597
0
LINE
8
BLACK
6
CONTINUOUS
10
6.06854
20
-4.57597
11
6.06658
21
-4.57213
0
LINE
8
BLACK
6
CONTINUOUS
10
6.06658
20
-4.57213
11
6.06591
21
-4.56787
0
LINE
8
BLACK
6
CONTINUOUS
10
6.06591
20
-4.56787
11
6.06658
21
-4.56362
0
LINE
8
BLACK
6
CONTINUOUS
10
6.06658
20
-4.56362
11
6.06854
21
-4.55977
0
LINE
8
BLACK
6
CONTINUOUS
10
6.06854
20
-4.55977
11
6.07159
21
-4.55673
0
LINE
8
BLACK
6
CONTINUOUS
10
6.07159
20
-4.55673
11
6.07543
21
-4.55477
0
LINE
8
BLACK
6
CONTINUOUS
10
6.07543
20
-4.55477
11
6.07969
21
-4.55409
0
LINE
8
BLACK
6
CONTINUOUS
10
6.07969
20
-4.55409
11
6.08394
21
-4.55477
0
LINE
8
BLACK
6
CONTINUOUS
10
6.21671
20
-4.49723
11
6.22173
21
-4.49881
0
LINE
8
BLACK
6
CONTINUOUS
10
6.22173
20
-4.49881
11
6.22606
21
-4.50181
0
LINE
8
BLACK
6
CONTINUOUS
10
6.22606
20
-4.50181
11
6.22933
21
-4.50595
0
LINE
8
BLACK
6
CONTINUOUS
10
6.22933
20
-4.50595
11
6.23123
21
-4.51086
0
LINE
8
BLACK
6
CONTINUOUS
10
6.23123
20
-4.51086
11
6.2316
21
-4.51611
0
LINE
8
BLACK
6
CONTINUOUS
10
6.2316
20
-4.51611
11
6.23041
21
-4.52125
0
LINE
8
BLACK
6
CONTINUOUS
10
6.23041
20
-4.52125
11
6.22776
21
-4.5258
0
LINE
8
BLACK
6
CONTINUOUS
10
6.22776
20
-4.5258
11
6.2239
21
-4.52938
0
LINE
8
BLACK
6
CONTINUOUS
10
6.2239
20
-4.52938
11
6.21915
21
-4.53166
0
LINE
8
BLACK
6
CONTINUOUS
10
6.21915
20
-4.53166
11
6.21394
21
-4.53244
0
LINE
8
BLACK
6
CONTINUOUS
10
6.21394
20
-4.53244
11
6.18244
21
-4.53244
0
LINE
8
BLACK
6
CONTINUOUS
10
6.18244
20
-4.53244
11
6.17967
21
-4.53222
0
LINE
8
BLACK
6
CONTINUOUS
10
6.17967
20
-4.53222
11
6.17465
21
-4.53063
0
LINE
8
BLACK
6
CONTINUOUS
10
6.17465
20
-4.53063
11
6.17031
21
-4.52764
0
LINE
8
BLACK
6
CONTINUOUS
10
6.17031
20
-4.52764
11
6.16705
21
-4.5235
0
LINE
8
BLACK
6
CONTINUOUS
10
6.16705
20
-4.5235
11
6.16515
21
-4.51859
0
LINE
8
BLACK
6
CONTINUOUS
10
6.16515
20
-4.51859
11
6.16478
21
-4.51333
0
LINE
8
BLACK
6
CONTINUOUS
10
6.16478
20
-4.51333
11
6.16597
21
-4.5082
0
LINE
8
BLACK
6
CONTINUOUS
10
6.16597
20
-4.5082
11
6.16861
21
-4.50365
0
LINE
8
BLACK
6
CONTINUOUS
10
6.16861
20
-4.50365
11
6.17248
21
-4.50007
0
LINE
8
BLACK
6
CONTINUOUS
10
6.17248
20
-4.50007
11
6.17723
21
-4.49779
0
LINE
8
BLACK
6
CONTINUOUS
10
6.17723
20
-4.49779
11
6.18244
21
-4.49701
0
LINE
8
BLACK
6
CONTINUOUS
10
6.18244
20
-4.49701
11
6.21394
21
-4.49701
0
LINE
8
BLACK
6
CONTINUOUS
10
6.21394
20
-4.49701
11
6.21671
21
-4.49723
0
LINE
8
BLACK
6
CONTINUOUS
10
6.09742
20
-4.49723
11
6.10244
21
-4.49881
0
LINE
8
BLACK
6
CONTINUOUS
10
6.10244
20
-4.49881
11
6.10677
21
-4.50181
0
LINE
8
BLACK
6
CONTINUOUS
10
6.10677
20
-4.50181
11
6.11003
21
-4.50595
0
LINE
8
BLACK
6
CONTINUOUS
10
6.11003
20
-4.50595
11
6.11194
21
-4.51086
0
LINE
8
BLACK
6
CONTINUOUS
10
6.11194
20
-4.51086
11
6.11231
21
-4.51611
0
LINE
8
BLACK
6
CONTINUOUS
10
6.11231
20
-4.51611
11
6.11112
21
-4.52125
0
LINE
8
BLACK
6
CONTINUOUS
10
6.11112
20
-4.52125
11
6.10847
21
-4.5258
0
LINE
8
BLACK
6
CONTINUOUS
10
6.10847
20
-4.5258
11
6.1046
21
-4.52938
0
LINE
8
BLACK
6
CONTINUOUS
10
6.1046
20
-4.52938
11
6.09986
21
-4.53166
0
LINE
8
BLACK
6
CONTINUOUS
10
6.09986
20
-4.53166
11
6.09465
21
-4.53244
0
LINE
8
BLACK
6
CONTINUOUS
10
6.09465
20
-4.53244
11
6.03559
21
-4.53244
0
LINE
8
BLACK
6
CONTINUOUS
10
6.03559
20
-4.53244
11
6.03282
21
-4.53222
0
LINE
8
BLACK
6
CONTINUOUS
10
6.03282
20
-4.53222
11
6.0278
21
-4.53063
0
LINE
8
BLACK
6
CONTINUOUS
10
6.0278
20
-4.53063
11
6.02346
21
-4.52764
0
LINE
8
BLACK
6
CONTINUOUS
10
6.02346
20
-4.52764
11
6.0202
21
-4.5235
0
LINE
8
BLACK
6
CONTINUOUS
10
6.0202
20
-4.5235
11
6.0183
21
-4.51859
0
LINE
8
BLACK
6
CONTINUOUS
10
6.0183
20
-4.51859
11
6.01793
21
-4.51333
0
LINE
8
BLACK
6
CONTINUOUS
10
6.01793
20
-4.51333
11
6.01912
21
-4.5082
0
LINE
8
BLACK
6
CONTINUOUS
10
6.01912
20
-4.5082
11
6.02176
21
-4.50365
0
LINE
8
BLACK
6
CONTINUOUS
10
6.02176
20
-4.50365
11
6.02563
21
-4.50007
0
LINE
8
BLACK
6
CONTINUOUS
10
6.02563
20
-4.50007
11
6.03038
21
-4.49779
0
LINE
8
BLACK
6
CONTINUOUS
10
6.03038
20
-4.49779
11
6.03559
21
-4.49701
0
LINE
8
BLACK
6
CONTINUOUS
10
6.03559
20
-4.49701
11
6.09465
21
-4.49701
0
LINE
8
BLACK
6
CONTINUOUS
10
6.09465
20
-4.49701
11
6.09742
21
-4.49723
0
LINE
8
BLACK
6
CONTINUOUS
10
5.8765
20
-4.2065
11
5.8135
21
-4.2065
0
LINE
8
BLACK
6
CONTINUOUS
10
5.8135
20
-4.2065
11
5.8135
21
-4.1435
0
LINE
8
BLACK
6
CONTINUOUS
10
5.8135
20
-4.1435
11
5.8765
21
-4.1435
0
LINE
8
BLACK
6
CONTINUOUS
10
5.8765
20
-4.1435
11
5.8765
21
-4.2065
0
LINE
8
BLACK
6
CONTINUOUS
10
5.93093
20
-4.14434
11
5.93755
21
-4.14669
0
LINE
8
BLACK
6
CONTINUOUS
10
5.93755
20
-4.14669
11
5.94348
21
-4.15045
0
LINE
8
BLACK
6
CONTINUOUS
10
5.94348
20
-4.15045
11
5.94842
21
-4.15544
0
LINE
8
BLACK
6
CONTINUOUS
10
5.94842
20
-4.15544
11
5.95214
21
-4.16139
0
LINE
8
BLACK
6
CONTINUOUS
10
5.95214
20
-4.16139
11
5.95445
21
-4.16802
0
LINE
8
BLACK
6
CONTINUOUS
10
5.95445
20
-4.16802
11
5.95524
21
-4.175
0
LINE
8
BLACK
6
CONTINUOUS
10
5.95524
20
-4.175
11
5.95522
21
-4.17588
0
LINE
8
BLACK
6
CONTINUOUS
10
5.95522
20
-4.17588
11
5.95425
21
-4.18283
0
LINE
8
BLACK
6
CONTINUOUS
10
5.95425
20
-4.18283
11
5.95175
21
-4.1894
0
LINE
8
BLACK
6
CONTINUOUS
10
5.95175
20
-4.1894
11
5.94787
21
-4.19525
0
LINE
8
BLACK
6
CONTINUOUS
10
5.94787
20
-4.19525
11
5.94278
21
-4.20009
0
LINE
8
BLACK
6
CONTINUOUS
10
5.94278
20
-4.20009
11
5.93675
21
-4.20368
0
LINE
8
BLACK
6
CONTINUOUS
10
5.93675
20
-4.20368
11
5.93007
21
-4.20585
0
LINE
8
BLACK
6
CONTINUOUS
10
5.93007
20
-4.20585
11
5.92308
21
-4.20649
0
LINE
8
BLACK
6
CONTINUOUS
10
5.92308
20
-4.20649
11
5.91612
21
-4.20556
0
LINE
8
BLACK
6
CONTINUOUS
10
5.91612
20
-4.20556
11
5.90954
21
-4.20311
0
LINE
8
BLACK
6
CONTINUOUS
10
5.90954
20
-4.20311
11
5.90366
21
-4.19927
0
LINE
8
BLACK
6
CONTINUOUS
10
5.90366
20
-4.19927
11
5.89879
21
-4.19422
0
LINE
8
BLACK
6
CONTINUOUS
10
5.89879
20
-4.19422
11
5.89515
21
-4.18821
0
LINE
8
BLACK
6
CONTINUOUS
10
5.89515
20
-4.18821
11
5.89293
21
-4.18155
0
LINE
8
BLACK
6
CONTINUOUS
10
5.89293
20
-4.18155
11
5.89225
21
-4.17456
0
LINE
8
BLACK
6
CONTINUOUS
10
5.89225
20
-4.17456
11
5.89313
21
-4.16759
0
LINE
8
BLACK
6
CONTINUOUS
10
5.89313
20
-4.16759
11
5.89553
21
-4.161
0
LINE
8
BLACK
6
CONTINUOUS
10
5.89553
20
-4.161
11
5.89933
21
-4.15509
0
LINE
8
BLACK
6
CONTINUOUS
10
5.89933
20
-4.15509
11
5.90435
21
-4.15018
0
LINE
8
BLACK
6
CONTINUOUS
10
5.90435
20
-4.15018
11
5.91033
21
-4.1465
0
LINE
8
BLACK
6
CONTINUOUS
10
5.91033
20
-4.1465
11
5.91698
21
-4.14424
0
LINE
8
BLACK
6
CONTINUOUS
10
5.91698
20
-4.14424
11
5.92396
21
-4.1435
0
LINE
8
BLACK
6
CONTINUOUS
10
5.92396
20
-4.1435
11
5.93093
21
-4.14434
0
LINE
8
BLACK
6
CONTINUOUS
10
5.67185
20
-3.05579
11
5.67815
21
-3.05804
0
LINE
8
BLACK
6
CONTINUOUS
10
5.67815
20
-3.05804
11
5.6838
21
-3.06162
0
LINE
8
BLACK
6
CONTINUOUS
10
5.6838
20
-3.06162
11
5.68851
21
-3.06637
0
LINE
8
BLACK
6
CONTINUOUS
10
5.68851
20
-3.06637
11
5.69205
21
-3.07204
0
LINE
8
BLACK
6
CONTINUOUS
10
5.69205
20
-3.07204
11
5.69425
21
-3.07835
0
LINE
8
BLACK
6
CONTINUOUS
10
5.69425
20
-3.07835
11
5.695
21
-3.085
0
LINE
8
BLACK
6
CONTINUOUS
10
5.695
20
-3.085
11
5.69499
21
-3.08584
0
LINE
8
BLACK
6
CONTINUOUS
10
5.69499
20
-3.08584
11
5.69406
21
-3.09246
0
LINE
8
BLACK
6
CONTINUOUS
10
5.69406
20
-3.09246
11
5.69168
21
-3.09871
0
LINE
8
BLACK
6
CONTINUOUS
10
5.69168
20
-3.09871
11
5.68798
21
-3.10428
0
LINE
8
BLACK
6
CONTINUOUS
10
5.68798
20
-3.10428
11
5.68314
21
-3.1089
0
LINE
8
BLACK
6
CONTINUOUS
10
5.68314
20
-3.1089
11
5.67739
21
-3.11232
0
LINE
8
BLACK
6
CONTINUOUS
10
5.67739
20
-3.11232
11
5.67103
21
-3.11439
0
LINE
8
BLACK
6
CONTINUOUS
10
5.67103
20
-3.11439
11
5.66437
21
-3.11499
0
LINE
8
BLACK
6
CONTINUOUS
10
5.66437
20
-3.11499
11
5.65774
21
-3.11411
0
LINE
8
BLACK
6
CONTINUOUS
10
5.65774
20
-3.11411
11
5.65147
21
-3.11178
0
LINE
8
BLACK
6
CONTINUOUS
10
5.65147
20
-3.11178
11
5.64588
21
-3.10812
0
LINE
8
BLACK
6
CONTINUOUS
10
5.64588
20
-3.10812
11
5.64123
21
-3.1033
0
LINE
8
BLACK
6
CONTINUOUS
10
5.64123
20
-3.1033
11
5.63777
21
-3.09758
0
LINE
8
BLACK
6
CONTINUOUS
10
5.63777
20
-3.09758
11
5.63566
21
-3.09124
0
LINE
8
BLACK
6
CONTINUOUS
10
5.63566
20
-3.09124
11
5.635
21
-3.08458
0
LINE
8
BLACK
6
CONTINUOUS
10
5.635
20
-3.08458
11
5.63584
21
-3.07795
0
LINE
8
BLACK
6
CONTINUOUS
10
5.63584
20
-3.07795
11
5.63813
21
-3.07166
0
LINE
8
BLACK
6
CONTINUOUS
10
5.63813
20
-3.07166
11
5.64175
21
-3.06604
0
LINE
8
BLACK
6
CONTINUOUS
10
5.64175
20
-3.06604
11
5.64653
21
-3.06136
0
LINE
8
BLACK
6
CONTINUOUS
10
5.64653
20
-3.06136
11
5.65223
21
-3.05786
0
LINE
8
BLACK
6
CONTINUOUS
10
5.65223
20
-3.05786
11
5.65856
21
-3.0557
0
LINE
8
BLACK
6
CONTINUOUS
10
5.65856
20
-3.0557
11
5.66521
21
-3.055
0
LINE
8
BLACK
6
CONTINUOUS
10
5.66521
20
-3.055
11
5.67185
21
-3.05579
0
LINE
8
BLACK
6
CONTINUOUS
10
5.17185
20
-3.05579
11
5.17815
21
-3.05804
0
LINE
8
BLACK
6
CONTINUOUS
10
5.17815
20
-3.05804
11
5.1838
21
-3.06162
0
LINE
8
BLACK
6
CONTINUOUS
10
5.1838
20
-3.06162
11
5.18851
21
-3.06637
0
LINE
8
BLACK
6
CONTINUOUS
10
5.18851
20
-3.06637
11
5.19205
21
-3.07204
0
LINE
8
BLACK
6
CONTINUOUS
10
5.19205
20
-3.07204
11
5.19425
21
-3.07835
0
LINE
8
BLACK
6
CONTINUOUS
10
5.19425
20
-3.07835
11
5.195
21
-3.085
0
LINE
8
BLACK
6
CONTINUOUS
10
5.195
20
-3.085
11
5.19499
21
-3.08584
0
LINE
8
BLACK
6
CONTINUOUS
10
5.19499
20
-3.08584
11
5.19406
21
-3.09246
0
LINE
8
BLACK
6
CONTINUOUS
10
5.19406
20
-3.09246
11
5.19168
21
-3.09871
0
LINE
8
BLACK
6
CONTINUOUS
10
5.19168
20
-3.09871
11
5.18798
21
-3.10428
0
LINE
8
BLACK
6
CONTINUOUS
10
5.18798
20
-3.10428
11
5.18314
21
-3.1089
0
LINE
8
BLACK
6
CONTINUOUS
10
5.18314
20
-3.1089
11
5.17739
21
-3.11232
0
LINE
8
BLACK
6
CONTINUOUS
10
5.17739
20
-3.11232
11
5.17103
21
-3.11439
0
LINE
8
BLACK
6
CONTINUOUS
10
5.17103
20
-3.11439
11
5.16437
21
-3.11499
0
LINE
8
BLACK
6
CONTINUOUS
10
5.16437
20
-3.11499
11
5.15774
21
-3.11411
0
LINE
8
BLACK
6
CONTINUOUS
10
5.15774
20
-3.11411
11
5.15147
21
-3.11178
0
LINE
8
BLACK
6
CONTINUOUS
10
5.15147
20
-3.11178
11
5.14588
21
-3.10812
0
LINE
8
BLACK
6
CONTINUOUS
10
5.14588
20
-3.10812
11
5.14123
21
-3.1033
0
LINE
8
BLACK
6
CONTINUOUS
10
5.14123
20
-3.1033
11
5.13777
21
-3.09758
0
LINE
8
BLACK
6
CONTINUOUS
10
5.13777
20
-3.09758
11
5.13566
21
-3.09124
0
LINE
8
BLACK
6
CONTINUOUS
10
5.13566
20
-3.09124
11
5.135
21
-3.08458
0
LINE
8
BLACK
6
CONTINUOUS
10
5.135
20
-3.08458
11
5.13584
21
-3.07795
0
LINE
8
BLACK
6
CONTINUOUS
10
5.13584
20
-3.07795
11
5.13813
21
-3.07166
0
LINE
8
BLACK
6
CONTINUOUS
10
5.13813
20
-3.07166
11
5.14175
21
-3.06604
0
LINE
8
BLACK
6
CONTINUOUS
10
5.14175
20
-3.06604
11
5.14653
21
-3.06136
0
LINE
8
BLACK
6
CONTINUOUS
10
5.14653
20
-3.06136
11
5.15223
21
-3.05786
0
LINE
8
BLACK
6
CONTINUOUS
10
5.15223
20
-3.05786
11
5.15856
21
-3.0557
0
LINE
8
BLACK
6
CONTINUOUS
10
5.15856
20
-3.0557
11
5.16521
21
-3.055
0
LINE
8
BLACK
6
CONTINUOUS
10
5.16521
20
-3.055
11
5.17185
21
-3.05579
0
LINE
8
BLACK
6
CONTINUOUS
10
5.57185
20
-3.05579
11
5.57815
21
-3.05804
0
LINE
8
BLACK
6
CONTINUOUS
10
5.57815
20
-3.05804
11
5.5838
21
-3.06162
0
LINE
8
BLACK
6
CONTINUOUS
10
5.5838
20
-3.06162
11
5.58851
21
-3.06637
0
LINE
8
BLACK
6
CONTINUOUS
10
5.58851
20
-3.06637
11
5.59205
21
-3.07204
0
LINE
8
BLACK
6
CONTINUOUS
10
5.59205
20
-3.07204
11
5.59425
21
-3.07835
0
LINE
8
BLACK
6
CONTINUOUS
10
5.59425
20
-3.07835
11
5.595
21
-3.085
0
LINE
8
BLACK
6
CONTINUOUS
10
5.595
20
-3.085
11
5.59499
21
-3.08584
0
LINE
8
BLACK
6
CONTINUOUS
10
5.59499
20
-3.08584
11
5.59406
21
-3.09246
0
LINE
8
BLACK
6
CONTINUOUS
10
5.59406
20
-3.09246
11
5.59168
21
-3.09871
0
LINE
8
BLACK
6
CONTINUOUS
10
5.59168
20
-3.09871
11
5.58798
21
-3.10428
0
LINE
8
BLACK
6
CONTINUOUS
10
5.58798
20
-3.10428
11
5.58314
21
-3.1089
0
LINE
8
BLACK
6
CONTINUOUS
10
5.58314
20
-3.1089
11
5.57739
21
-3.11232
0
LINE
8
BLACK
6
CONTINUOUS
10
5.57739
20
-3.11232
11
5.57103
21
-3.11439
0
LINE
8
BLACK
6
CONTINUOUS
10
5.57103
20
-3.11439
11
5.56437
21
-3.11499
0
LINE
8
BLACK
6
CONTINUOUS
10
5.56437
20
-3.11499
11
5.55774
21
-3.11411
0
LINE
8
BLACK
6
CONTINUOUS
10
5.55774
20
-3.11411
11
5.55147
21
-3.11178
0
LINE
8
BLACK
6
CONTINUOUS
10
5.55147
20
-3.11178
11
5.54588
21
-3.10812
0
LINE
8
BLACK
6
CONTINUOUS
10
5.54588
20
-3.10812
11
5.54123
21
-3.1033
0
LINE
8
BLACK
6
CONTINUOUS
10
5.54123
20
-3.1033
11
5.53777
21
-3.09758
0
LINE
8
BLACK
6
CONTINUOUS
10
5.53777
20
-3.09758
11
5.53566
21
-3.09124
0
LINE
8
BLACK
6
CONTINUOUS
10
5.53566
20
-3.09124
11
5.535
21
-3.08458
0
LINE
8
BLACK
6
CONTINUOUS
10
5.535
20
-3.08458
11
5.53584
21
-3.07795
0
LINE
8
BLACK
6
CONTINUOUS
10
5.53584
20
-3.07795
11
5.53813
21
-3.07166
0
LINE
8
BLACK
6
CONTINUOUS
10
5.53813
20
-3.07166
11
5.54175
21
-3.06604
0
LINE
8
BLACK
6
CONTINUOUS
10
5.54175
20
-3.06604
11
5.54653
21
-3.06136
0
LINE
8
BLACK
6
CONTINUOUS
10
5.54653
20
-3.06136
11
5.55223
21
-3.05786
0
LINE
8
BLACK
6
CONTINUOUS
10
5.55223
20
-3.05786
11
5.55856
21
-3.0557
0
LINE
8
BLACK
6
CONTINUOUS
10
5.55856
20
-3.0557
11
5.56521
21
-3.055
0
LINE
8
BLACK
6
CONTINUOUS
10
5.56521
20
-3.055
11
5.57185
21
-3.05579
0
LINE
8
BLACK
6
CONTINUOUS
10
5.27185
20
-3.05579
11
5.27815
21
-3.05804
0
LINE
8
BLACK
6
CONTINUOUS
10
5.27815
20
-3.05804
11
5.2838
21
-3.06162
0
LINE
8
BLACK
6
CONTINUOUS
10
5.2838
20
-3.06162
11
5.28851
21
-3.06637
0
LINE
8
BLACK
6
CONTINUOUS
10
5.28851
20
-3.06637
11
5.29205
21
-3.07204
0
LINE
8
BLACK
6
CONTINUOUS
10
5.29205
20
-3.07204
11
5.29425
21
-3.07835
0
LINE
8
BLACK
6
CONTINUOUS
10
5.29425
20
-3.07835
11
5.295
21
-3.085
0
LINE
8
BLACK
6
CONTINUOUS
10
5.295
20
-3.085
11
5.29499
21
-3.08584
0
LINE
8
BLACK
6
CONTINUOUS
10
5.29499
20
-3.08584
11
5.29406
21
-3.09246
0
LINE
8
BLACK
6
CONTINUOUS
10
5.29406
20
-3.09246
11
5.29168
21
-3.09871
0
LINE
8
BLACK
6
CONTINUOUS
10
5.29168
20
-3.09871
11
5.28798
21
-3.10428
0
LINE
8
BLACK
6
CONTINUOUS
10
5.28798
20
-3.10428
11
5.28314
21
-3.1089
0
LINE
8
BLACK
6
CONTINUOUS
10
5.28314
20
-3.1089
11
5.27739
21
-3.11232
0
LINE
8
BLACK
6
CONTINUOUS
10
5.27739
20
-3.11232
11
5.27103
21
-3.11439
0
LINE
8
BLACK
6
CONTINUOUS
10
5.27103
20
-3.11439
11
5.26437
21
-3.11499
0
LINE
8
BLACK
6
CONTINUOUS
10
5.26437
20
-3.11499
11
5.25774
21
-3.11411
0
LINE
8
BLACK
6
CONTINUOUS
10
5.25774
20
-3.11411
11
5.25147
21
-3.11178
0
LINE
8
BLACK
6
CONTINUOUS
10
5.25147
20
-3.11178
11
5.24588
21
-3.10812
0
LINE
8
BLACK
6
CONTINUOUS
10
5.24588
20
-3.10812
11
5.24123
21
-3.1033
0
LINE
8
BLACK
6
CONTINUOUS
10
5.24123
20
-3.1033
11
5.23777
21
-3.09758
0
LINE
8
BLACK
6
CONTINUOUS
10
5.23777
20
-3.09758
11
5.23566
21
-3.09124
0
LINE
8
BLACK
6
CONTINUOUS
10
5.23566
20
-3.09124
11
5.235
21
-3.08458
0
LINE
8
BLACK
6
CONTINUOUS
10
5.235
20
-3.08458
11
5.23584
21
-3.07795
0
LINE
8
BLACK
6
CONTINUOUS
10
5.23584
20
-3.07795
11
5.23813
21
-3.07166
0
LINE
8
BLACK
6
CONTINUOUS
10
5.23813
20
-3.07166
11
5.24175
21
-3.06604
0
LINE
8
BLACK
6
CONTINUOUS
10
5.24175
20
-3.06604
11
5.24653
21
-3.06136
0
LINE
8
BLACK
6
CONTINUOUS
10
5.24653
20
-3.06136
11
5.25223
21
-3.05786
0
LINE
8
BLACK
6
CONTINUOUS
10
5.25223
20
-3.05786
11
5.25856
21
-3.0557
0
LINE
8
BLACK
6
CONTINUOUS
10
5.25856
20
-3.0557
11
5.26521
21
-3.055
0
LINE
8
BLACK
6
CONTINUOUS
10
5.26521
20
-3.055
11
5.27185
21
-3.05579
0
LINE
8
BLACK
6
CONTINUOUS
10
5.37185
20
-3.05579
11
5.37815
21
-3.05804
0
LINE
8
BLACK
6
CONTINUOUS
10
5.37815
20
-3.05804
11
5.3838
21
-3.06162
0
LINE
8
BLACK
6
CONTINUOUS
10
5.3838
20
-3.06162
11
5.38851
21
-3.06637
0
LINE
8
BLACK
6
CONTINUOUS
10
5.38851
20
-3.06637
11
5.39205
21
-3.07204
0
LINE
8
BLACK
6
CONTINUOUS
10
5.39205
20
-3.07204
11
5.39425
21
-3.07835
0
LINE
8
BLACK
6
CONTINUOUS
10
5.39425
20
-3.07835
11
5.395
21
-3.085
0
LINE
8
BLACK
6
CONTINUOUS
10
5.395
20
-3.085
11
5.39499
21
-3.08584
0
LINE
8
BLACK
6
CONTINUOUS
10
5.39499
20
-3.08584
11
5.39406
21
-3.09246
0
LINE
8
BLACK
6
CONTINUOUS
10
5.39406
20
-3.09246
11
5.39168
21
-3.09871
0
LINE
8
BLACK
6
CONTINUOUS
10
5.39168
20
-3.09871
11
5.38798
21
-3.10428
0
LINE
8
BLACK
6
CONTINUOUS
10
5.38798
20
-3.10428
11
5.38314
21
-3.1089
0
LINE
8
BLACK
6
CONTINUOUS
10
5.38314
20
-3.1089
11
5.37739
21
-3.11232
0
LINE
8
BLACK
6
CONTINUOUS
10
5.37739
20
-3.11232
11
5.37103
21
-3.11439
0
LINE
8
BLACK
6
CONTINUOUS
10
5.37103
20
-3.11439
11
5.36437
21
-3.11499
0
LINE
8
BLACK
6
CONTINUOUS
10
5.36437
20
-3.11499
11
5.35774
21
-3.11411
0
LINE
8
BLACK
6
CONTINUOUS
10
5.35774
20
-3.11411
11
5.35147
21
-3.11178
0
LINE
8
BLACK
6
CONTINUOUS
10
5.35147
20
-3.11178
11
5.34588
21
-3.10812
0
LINE
8
BLACK
6
CONTINUOUS
10
5.34588
20
-3.10812
11
5.34123
21
-3.1033
0
LINE
8
BLACK
6
CONTINUOUS
10
5.34123
20
-3.1033
11
5.33777
21
-3.09758
0
LINE
8
BLACK
6
CONTINUOUS
10
5.33777
20
-3.09758
11
5.33566
21
-3.09124
0
LINE
8
BLACK
6
CONTINUOUS
10
5.33566
20
-3.09124
11
5.335
21
-3.08458
0
LINE
8
BLACK
6
CONTINUOUS
10
5.335
20
-3.08458
11
5.33584
21
-3.07795
0
LINE
8
BLACK
6
CONTINUOUS
10
5.33584
20
-3.07795
11
5.33813
21
-3.07166
0
LINE
8
BLACK
6
CONTINUOUS
10
5.33813
20
-3.07166
11
5.34175
21
-3.06604
0
LINE
8
BLACK
6
CONTINUOUS
10
5.34175
20
-3.06604
11
5.34653
21
-3.06136
0
LINE
8
BLACK
6
CONTINUOUS
10
5.34653
20
-3.06136
11
5.35223
21
-3.05786
0
LINE
8
BLACK
6
CONTINUOUS
10
5.35223
20
-3.05786
11
5.35856
21
-3.0557
0
LINE
8
BLACK
6
CONTINUOUS
10
5.35856
20
-3.0557
11
5.36521
21
-3.055
0
LINE
8
BLACK
6
CONTINUOUS
10
5.36521
20
-3.055
11
5.37185
21
-3.05579
0
LINE
8
BLACK
6
CONTINUOUS
10
5.47185
20
-3.05579
11
5.47815
21
-3.05804
0
LINE
8
BLACK
6
CONTINUOUS
10
5.47815
20
-3.05804
11
5.4838
21
-3.06162
0
LINE
8
BLACK
6
CONTINUOUS
10
5.4838
20
-3.06162
11
5.48851
21
-3.06637
0
LINE
8
BLACK
6
CONTINUOUS
10
5.48851
20
-3.06637
11
5.49205
21
-3.07204
0
LINE
8
BLACK
6
CONTINUOUS
10
5.49205
20
-3.07204
11
5.49425
21
-3.07835
0
LINE
8
BLACK
6
CONTINUOUS
10
5.49425
20
-3.07835
11
5.495
21
-3.085
0
LINE
8
BLACK
6
CONTINUOUS
10
5.495
20
-3.085
11
5.49499
21
-3.08584
0
LINE
8
BLACK
6
CONTINUOUS
10
5.49499
20
-3.08584
11
5.49406
21
-3.09246
0
LINE
8
BLACK
6
CONTINUOUS
10
5.49406
20
-3.09246
11
5.49168
21
-3.09871
0
LINE
8
BLACK
6
CONTINUOUS
10
5.49168
20
-3.09871
11
5.48798
21
-3.10428
0
LINE
8
BLACK
6
CONTINUOUS
10
5.48798
20
-3.10428
11
5.48314
21
-3.1089
0
LINE
8
BLACK
6
CONTINUOUS
10
5.48314
20
-3.1089
11
5.47739
21
-3.11232
0
LINE
8
BLACK
6
CONTINUOUS
10
5.47739
20
-3.11232
11
5.47103
21
-3.11439
0
LINE
8
BLACK
6
CONTINUOUS
10
5.47103
20
-3.11439
11
5.46437
21
-3.11499
0
LINE
8
BLACK
6
CONTINUOUS
10
5.46437
20
-3.11499
11
5.45774
21
-3.11411
0
LINE
8
BLACK
6
CONTINUOUS
10
5.45774
20
-3.11411
11
5.45147
21
-3.11178
0
LINE
8
BLACK
6
CONTINUOUS
10
5.45147
20
-3.11178
11
5.44588
21
-3.10812
0
LINE
8
BLACK
6
CONTINUOUS
10
5.44588
20
-3.10812
11
5.44123
21
-3.1033
0
LINE
8
BLACK
6
CONTINUOUS
10
5.44123
20
-3.1033
11
5.43777
21
-3.09758
0
LINE
8
BLACK
6
CONTINUOUS
10
5.43777
20
-3.09758
11
5.43566
21
-3.09124
0
LINE
8
BLACK
6
CONTINUOUS
10
5.43566
20
-3.09124
11
5.435
21
-3.08458
0
LINE
8
BLACK
6
CONTINUOUS
10
5.435
20
-3.08458
11
5.43584
21
-3.07795
0
LINE
8
BLACK
6
CONTINUOUS
10
5.43584
20
-3.07795
11
5.43813
21
-3.07166
0
LINE
8
BLACK
6
CONTINUOUS
10
5.43813
20
-3.07166
11
5.44175
21
-3.06604
0
LINE
8
BLACK
6
CONTINUOUS
10
5.44175
20
-3.06604
11
5.44653
21
-3.06136
0
LINE
8
BLACK
6
CONTINUOUS
10
5.44653
20
-3.06136
11
5.45223
21
-3.05786
0
LINE
8
BLACK
6
CONTINUOUS
10
5.45223
20
-3.05786
11
5.45856
21
-3.0557
0
LINE
8
BLACK
6
CONTINUOUS
10
5.45856
20
-3.0557
11
5.46521
21
-3.055
0
LINE
8
BLACK
6
CONTINUOUS
10
5.46521
20
-3.055
11
5.47185
21
-3.05579
0
LINE
8
BLACK
6
CONTINUOUS
10
4.49388
20
-2.74766
11
4.50282
21
-2.75006
0
LINE
8
BLACK
6
CONTINUOUS
10
4.50282
20
-2.75006
11
4.51122
21
-2.75397
0
LINE
8
BLACK
6
CONTINUOUS
10
4.51122
20
-2.75397
11
4.51881
21
-2.75929
0
LINE
8
BLACK
6
CONTINUOUS
10
4.51881
20
-2.75929
11
4.52536
21
-2.76584
0
LINE
8
BLACK
6
CONTINUOUS
10
4.52536
20
-2.76584
11
4.53067
21
-2.77343
0
LINE
8
BLACK
6
CONTINUOUS
10
4.53067
20
-2.77343
11
4.53459
21
-2.78182
0
LINE
8
BLACK
6
CONTINUOUS
10
4.53459
20
-2.78182
11
4.53699
21
-2.79077
0
LINE
8
BLACK
6
CONTINUOUS
10
4.53699
20
-2.79077
11
4.5378
21
-2.8
0
LINE
8
BLACK
6
CONTINUOUS
10
4.5378
20
-2.8
11
4.53699
21
-2.80923
0
LINE
8
BLACK
6
CONTINUOUS
10
4.53699
20
-2.80923
11
4.53459
21
-2.81818
0
LINE
8
BLACK
6
CONTINUOUS
10
4.53459
20
-2.81818
11
4.53067
21
-2.82657
0
LINE
8
BLACK
6
CONTINUOUS
10
4.53067
20
-2.82657
11
4.52536
21
-2.83416
0
LINE
8
BLACK
6
CONTINUOUS
10
4.52536
20
-2.83416
11
4.51881
21
-2.84071
0
LINE
8
BLACK
6
CONTINUOUS
10
4.51881
20
-2.84071
11
4.51122
21
-2.84603
0
LINE
8
BLACK
6
CONTINUOUS
10
4.51122
20
-2.84603
11
4.50282
21
-2.84994
0
LINE
8
BLACK
6
CONTINUOUS
10
4.50282
20
-2.84994
11
4.49388
21
-2.85234
0
LINE
8
BLACK
6
CONTINUOUS
10
4.49388
20
-2.85234
11
4.48465
21
-2.85315
0
LINE
8
BLACK
6
CONTINUOUS
10
4.48465
20
-2.85315
11
4.47542
21
-2.85234
0
LINE
8
BLACK
6
CONTINUOUS
10
4.47542
20
-2.85234
11
4.46647
21
-2.84994
0
LINE
8
BLACK
6
CONTINUOUS
10
4.46647
20
-2.84994
11
4.45807
21
-2.84603
0
LINE
8
BLACK
6
CONTINUOUS
10
4.45807
20
-2.84603
11
4.45048
21
-2.84071
0
LINE
8
BLACK
6
CONTINUOUS
10
4.45048
20
-2.84071
11
4.44393
21
-2.83416
0
LINE
8
BLACK
6
CONTINUOUS
10
4.44393
20
-2.83416
11
4.43862
21
-2.82657
0
LINE
8
BLACK
6
CONTINUOUS
10
4.43862
20
-2.82657
11
4.4347
21
-2.81818
0
LINE
8
BLACK
6
CONTINUOUS
10
4.4347
20
-2.81818
11
4.4323
21
-2.80923
0
LINE
8
BLACK
6
CONTINUOUS
10
4.4323
20
-2.80923
11
4.4315
21
-2.8
0
LINE
8
BLACK
6
CONTINUOUS
10
4.4315
20
-2.8
11
4.4323
21
-2.79077
0
LINE
8
BLACK
6
CONTINUOUS
10
4.4323
20
-2.79077
11
4.4347
21
-2.78182
0
LINE
8
BLACK
6
CONTINUOUS
10
4.4347
20
-2.78182
11
4.43862
21
-2.77343
0
LINE
8
BLACK
6
CONTINUOUS
10
4.43862
20
-2.77343
11
4.44393
21
-2.76584
0
LINE
8
BLACK
6
CONTINUOUS
10
4.44393
20
-2.76584
11
4.45048
21
-2.75929
0
LINE
8
BLACK
6
CONTINUOUS
10
4.45048
20
-2.75929
11
4.45807
21
-2.75397
0
LINE
8
BLACK
6
CONTINUOUS
10
4.45807
20
-2.75397
11
4.46647
21
-2.75006
0
LINE
8
BLACK
6
CONTINUOUS
10
4.46647
20
-2.75006
11
4.47542
21
-2.74766
0
LINE
8
BLACK
6
CONTINUOUS
10
4.47542
20
-2.74766
11
4.48465
21
-2.74685
0
LINE
8
BLACK
6
CONTINUOUS
10
4.48465
20
-2.74685
11
4.49388
21
-2.74766
0
LINE
8
BLACK
6
CONTINUOUS
10
3.79387
20
-2.74766
11
3.80282
21
-2.75006
0
LINE
8
BLACK
6
CONTINUOUS
10
3.80282
20
-2.75006
11
3.81122
21
-2.75397
0
LINE
8
BLACK
6
CONTINUOUS
10
3.81122
20
-2.75397
11
3.81881
21
-2.75929
0
LINE
8
BLACK
6
CONTINUOUS
10
3.81881
20
-2.75929
11
3.82536
21
-2.76584
0
LINE
8
BLACK
6
CONTINUOUS
10
3.82536
20
-2.76584
11
3.83067
21
-2.77343
0
LINE
8
BLACK
6
CONTINUOUS
10
3.83067
20
-2.77343
11
3.83459
21
-2.78182
0
LINE
8
BLACK
6
CONTINUOUS
10
3.83459
20
-2.78182
11
3.83699
21
-2.79077
0
LINE
8
BLACK
6
CONTINUOUS
10
3.83699
20
-2.79077
11
3.8378
21
-2.8
0
LINE
8
BLACK
6
CONTINUOUS
10
3.8378
20
-2.8
11
3.83699
21
-2.80923
0
LINE
8
BLACK
6
CONTINUOUS
10
3.83699
20
-2.80923
11
3.83459
21
-2.81818
0
LINE
8
BLACK
6
CONTINUOUS
10
3.83459
20
-2.81818
11
3.83067
21
-2.82657
0
LINE
8
BLACK
6
CONTINUOUS
10
3.83067
20
-2.82657
11
3.82536
21
-2.83416
0
LINE
8
BLACK
6
CONTINUOUS
10
3.82536
20
-2.83416
11
3.81881
21
-2.84071
0
LINE
8
BLACK
6
CONTINUOUS
10
3.81881
20
-2.84071
11
3.81122
21
-2.84603
0
LINE
8
BLACK
6
CONTINUOUS
10
3.81122
20
-2.84603
11
3.80282
21
-2.84994
0
LINE
8
BLACK
6
CONTINUOUS
10
3.80282
20
-2.84994
11
3.79387
21
-2.85234
0
LINE
8
BLACK
6
CONTINUOUS
10
3.79387
20
-2.85234
11
3.78465
21
-2.85315
0
LINE
8
BLACK
6
CONTINUOUS
10
3.78465
20
-2.85315
11
3.77542
21
-2.85234
0
LINE
8
BLACK
6
CONTINUOUS
10
3.77542
20
-2.85234
11
3.76647
21
-2.84994
0
LINE
8
BLACK
6
CONTINUOUS
10
3.76647
20
-2.84994
11
3.75807
21
-2.84603
0
LINE
8
BLACK
6
CONTINUOUS
10
3.75807
20
-2.84603
11
3.75048
21
-2.84071
0
LINE
8
BLACK
6
CONTINUOUS
10
3.75048
20
-2.84071
11
3.74393
21
-2.83416
0
LINE
8
BLACK
6
CONTINUOUS
10
3.74393
20
-2.83416
11
3.73862
21
-2.82657
0
LINE
8
BLACK
6
CONTINUOUS
10
3.73862
20
-2.82657
11
3.7347
21
-2.81818
0
LINE
8
BLACK
6
CONTINUOUS
10
3.7347
20
-2.81818
11
3.7323
21
-2.80923
0
LINE
8
BLACK
6
CONTINUOUS
10
3.7323
20
-2.80923
11
3.7315
21
-2.8
0
LINE
8
BLACK
6
CONTINUOUS
10
3.7315
20
-2.8
11
3.7323
21
-2.79077
0
LINE
8
BLACK
6
CONTINUOUS
10
3.7323
20
-2.79077
11
3.7347
21
-2.78182
0
LINE
8
BLACK
6
CONTINUOUS
10
3.7347
20
-2.78182
11
3.73862
21
-2.77343
0
LINE
8
BLACK
6
CONTINUOUS
10
3.73862
20
-2.77343
11
3.74393
21
-2.76584
0
LINE
8
BLACK
6
CONTINUOUS
10
3.74393
20
-2.76584
11
3.75048
21
-2.75929
0
LINE
8
BLACK
6
CONTINUOUS
10
3.75048
20
-2.75929
11
3.75807
21
-2.75397
0
LINE
8
BLACK
6
CONTINUOUS
10
3.75807
20
-2.75397
11
3.76647
21
-2.75006
0
LINE
8
BLACK
6
CONTINUOUS
10
3.76647
20
-2.75006
11
3.77542
21
-2.74766
0
LINE
8
BLACK
6
CONTINUOUS
10
3.77542
20
-2.74766
11
3.78465
21
-2.74685
0
LINE
8
BLACK
6
CONTINUOUS
10
3.78465
20
-2.74685
11
3.79387
21
-2.74766
0
LINE
8
BLACK
6
CONTINUOUS
10
3.09387
20
-2.74766
11
3.10282
21
-2.75006
0
LINE
8
BLACK
6
CONTINUOUS
10
3.10282
20
-2.75006
11
3.11122
21
-2.75397
0
LINE
8
BLACK
6
CONTINUOUS
10
3.11122
20
-2.75397
11
3.11881
21
-2.75929
0
LINE
8
BLACK
6
CONTINUOUS
10
3.11881
20
-2.75929
11
3.12536
21
-2.76584
0
LINE
8
BLACK
6
CONTINUOUS
10
3.12536
20
-2.76584
11
3.13067
21
-2.77343
0
LINE
8
BLACK
6
CONTINUOUS
10
3.13067
20
-2.77343
11
3.13459
21
-2.78182
0
LINE
8
BLACK
6
CONTINUOUS
10
3.13459
20
-2.78182
11
3.13699
21
-2.79077
0
LINE
8
BLACK
6
CONTINUOUS
10
3.13699
20
-2.79077
11
3.1378
21
-2.8
0
LINE
8
BLACK
6
CONTINUOUS
10
3.1378
20
-2.8
11
3.13699
21
-2.80923
0
LINE
8
BLACK
6
CONTINUOUS
10
3.13699
20
-2.80923
11
3.13459
21
-2.81818
0
LINE
8
BLACK
6
CONTINUOUS
10
3.13459
20
-2.81818
11
3.13067
21
-2.82657
0
LINE
8
BLACK
6
CONTINUOUS
10
3.13067
20
-2.82657
11
3.12536
21
-2.83416
0
LINE
8
BLACK
6
CONTINUOUS
10
3.12536
20
-2.83416
11
3.11881
21
-2.84071
0
LINE
8
BLACK
6
CONTINUOUS
10
3.11881
20
-2.84071
11
3.11122
21
-2.84603
0
LINE
8
BLACK
6
CONTINUOUS
10
3.11122
20
-2.84603
11
3.10282
21
-2.84994
0
LINE
8
BLACK
6
CONTINUOUS
10
3.10282
20
-2.84994
11
3.09387
21
-2.85234
0
LINE
8
BLACK
6
CONTINUOUS
10
3.09387
20
-2.85234
11
3.08465
21
-2.85315
0
LINE
8
BLACK
6
CONTINUOUS
10
3.08465
20
-2.85315
11
3.07542
21
-2.85234
0
LINE
8
BLACK
6
CONTINUOUS
10
3.07542
20
-2.85234
11
3.06647
21
-2.84994
0
LINE
8
BLACK
6
CONTINUOUS
10
3.06647
20
-2.84994
11
3.05807
21
-2.84603
0
LINE
8
BLACK
6
CONTINUOUS
10
3.05807
20
-2.84603
11
3.05048
21
-2.84071
0
LINE
8
BLACK
6
CONTINUOUS
10
3.05048
20
-2.84071
11
3.04393
21
-2.83416
0
LINE
8
BLACK
6
CONTINUOUS
10
3.04393
20
-2.83416
11
3.03862
21
-2.82657
0
LINE
8
BLACK
6
CONTINUOUS
10
3.03862
20
-2.82657
11
3.0347
21
-2.81818
0
LINE
8
BLACK
6
CONTINUOUS
10
3.0347
20
-2.81818
11
3.0323
21
-2.80923
0
LINE
8
BLACK
6
CONTINUOUS
10
3.0323
20
-2.80923
11
3.0315
21
-2.8
0
LINE
8
BLACK
6
CONTINUOUS
10
3.0315
20
-2.8
11
3.0323
21
-2.79077
0
LINE
8
BLACK
6
CONTINUOUS
10
3.0323
20
-2.79077
11
3.0347
21
-2.78182
0
LINE
8
BLACK
6
CONTINUOUS
10
3.0347
20
-2.78182
11
3.03862
21
-2.77343
0
LINE
8
BLACK
6
CONTINUOUS
10
3.03862
20
-2.77343
11
3.04393
21
-2.76584
0
LINE
8
BLACK
6
CONTINUOUS
10
3.04393
20
-2.76584
11
3.05048
21
-2.75929
0
LINE
8
BLACK
6
CONTINUOUS
10
3.05048
20
-2.75929
11
3.05807
21
-2.75397
0
LINE
8
BLACK
6
CONTINUOUS
10
3.05807
20
-2.75397
11
3.06647
21
-2.75006
0
LINE
8
BLACK
6
CONTINUOUS
10
3.06647
20
-2.75006
11
3.07542
21
-2.74766
0
LINE
8
BLACK
6
CONTINUOUS
10
3.07542
20
-2.74766
11
3.08465
21
-2.74685
0
LINE
8
BLACK
6
CONTINUOUS
10
3.08465
20
-2.74685
11
3.09387
21
-2.74766
0
LINE
8
BLACK
6
CONTINUOUS
10
4.82458
20
-2.70041
11
4.83353
21
-2.70281
0
LINE
8
BLACK
6
CONTINUOUS
10
4.83353
20
-2.70281
11
4.84193
21
-2.70673
0
LINE
8
BLACK
6
CONTINUOUS
10
4.84193
20
-2.70673
11
4.84952
21
-2.71204
0
LINE
8
BLACK
6
CONTINUOUS
10
4.84952
20
-2.71204
11
4.85607
21
-2.71859
0
LINE
8
BLACK
6
CONTINUOUS
10
4.85607
20
-2.71859
11
4.86138
21
-2.72618
0
LINE
8
BLACK
6
CONTINUOUS
10
4.86138
20
-2.72618
11
4.8653
21
-2.73458
0
LINE
8
BLACK
6
CONTINUOUS
10
4.8653
20
-2.73458
11
4.8677
21
-2.74353
0
LINE
8
BLACK
6
CONTINUOUS
10
4.8677
20
-2.74353
11
4.8685
21
-2.75276
0
LINE
8
BLACK
6
CONTINUOUS
10
4.8685
20
-2.75276
11
4.8677
21
-2.76199
0
LINE
8
BLACK
6
CONTINUOUS
10
4.8677
20
-2.76199
11
4.8653
21
-2.77093
0
LINE
8
BLACK
6
CONTINUOUS
10
4.8653
20
-2.77093
11
4.86138
21
-2.77933
0
LINE
8
BLACK
6
CONTINUOUS
10
4.86138
20
-2.77933
11
4.85607
21
-2.78692
0
LINE
8
BLACK
6
CONTINUOUS
10
4.85607
20
-2.78692
11
4.84952
21
-2.79347
0
LINE
8
BLACK
6
CONTINUOUS
10
4.84952
20
-2.79347
11
4.84193
21
-2.79878
0
LINE
8
BLACK
6
CONTINUOUS
10
4.84193
20
-2.79878
11
4.83353
21
-2.8027
0
LINE
8
BLACK
6
CONTINUOUS
10
4.83353
20
-2.8027
11
4.82458
21
-2.8051
0
LINE
8
BLACK
6
CONTINUOUS
10
4.82458
20
-2.8051
11
4.81535
21
-2.80591
0
LINE
8
BLACK
6
CONTINUOUS
10
4.81535
20
-2.80591
11
4.80612
21
-2.8051
0
LINE
8
BLACK
6
CONTINUOUS
10
4.80612
20
-2.8051
11
4.79718
21
-2.8027
0
LINE
8
BLACK
6
CONTINUOUS
10
4.79718
20
-2.8027
11
4.78878
21
-2.79878
0
LINE
8
BLACK
6
CONTINUOUS
10
4.78878
20
-2.79878
11
4.78119
21
-2.79347
0
LINE
8
BLACK
6
CONTINUOUS
10
4.78119
20
-2.79347
11
4.77464
21
-2.78692
0
LINE
8
BLACK
6
CONTINUOUS
10
4.77464
20
-2.78692
11
4.76933
21
-2.77933
0
LINE
8
BLACK
6
CONTINUOUS
10
4.76933
20
-2.77933
11
4.76541
21
-2.77093
0
LINE
8
BLACK
6
CONTINUOUS
10
4.76541
20
-2.77093
11
4.76301
21
-2.76199
0
LINE
8
BLACK
6
CONTINUOUS
10
4.76301
20
-2.76199
11
4.7622
21
-2.75276
0
LINE
8
BLACK
6
CONTINUOUS
10
4.7622
20
-2.75276
11
4.76301
21
-2.74353
0
LINE
8
BLACK
6
CONTINUOUS
10
4.76301
20
-2.74353
11
4.76541
21
-2.73458
0
LINE
8
BLACK
6
CONTINUOUS
10
4.76541
20
-2.73458
11
4.76933
21
-2.72618
0
LINE
8
BLACK
6
CONTINUOUS
10
4.76933
20
-2.72618
11
4.77464
21
-2.71859
0
LINE
8
BLACK
6
CONTINUOUS
10
4.77464
20
-2.71859
11
4.78119
21
-2.71204
0
LINE
8
BLACK
6
CONTINUOUS
10
4.78119
20
-2.71204
11
4.78878
21
-2.70673
0
LINE
8
BLACK
6
CONTINUOUS
10
4.78878
20
-2.70673
11
4.79718
21
-2.70281
0
LINE
8
BLACK
6
CONTINUOUS
10
4.79718
20
-2.70281
11
4.80612
21
-2.70041
0
LINE
8
BLACK
6
CONTINUOUS
10
4.80612
20
-2.70041
11
4.81535
21
-2.69961
0
LINE
8
BLACK
6
CONTINUOUS
10
4.81535
20
-2.69961
11
4.82458
21
-2.70041
0
LINE
8
BLACK
6
CONTINUOUS
10
3.42458
20
-2.70041
11
3.43353
21
-2.70281
0
LINE
8
BLACK
6
CONTINUOUS
10
3.43353
20
-2.70281
11
3.44193
21
-2.70673
0
LINE
8
BLACK
6
CONTINUOUS
10
3.44193
20
-2.70673
11
3.44952
21
-2.71204
0
LINE
8
BLACK
6
CONTINUOUS
10
3.44952
20
-2.71204
11
3.45607
21
-2.71859
0
LINE
8
BLACK
6
CONTINUOUS
10
3.45607
20
-2.71859
11
3.46138
21
-2.72618
0
LINE
8
BLACK
6
CONTINUOUS
10
3.46138
20
-2.72618
11
3.4653
21
-2.73458
0
LINE
8
BLACK
6
CONTINUOUS
10
3.4653
20
-2.73458
11
3.4677
21
-2.74353
0
LINE
8
BLACK
6
CONTINUOUS
10
3.4677
20
-2.74353
11
3.4685
21
-2.75276
0
LINE
8
BLACK
6
CONTINUOUS
10
3.4685
20
-2.75276
11
3.4677
21
-2.76199
0
LINE
8
BLACK
6
CONTINUOUS
10
3.4677
20
-2.76199
11
3.4653
21
-2.77093
0
LINE
8
BLACK
6
CONTINUOUS
10
3.4653
20
-2.77093
11
3.46138
21
-2.77933
0
LINE
8
BLACK
6
CONTINUOUS
10
3.46138
20
-2.77933
11
3.45607
21
-2.78692
0
LINE
8
BLACK
6
CONTINUOUS
10
3.45607
20
-2.78692
11
3.44952
21
-2.79347
0
LINE
8
BLACK
6
CONTINUOUS
10
3.44952
20
-2.79347
11
3.44193
21
-2.79878
0
LINE
8
BLACK
6
CONTINUOUS
10
3.44193
20
-2.79878
11
3.43353
21
-2.8027
0
LINE
8
BLACK
6
CONTINUOUS
10
3.43353
20
-2.8027
11
3.42458
21
-2.8051
0
LINE
8
BLACK
6
CONTINUOUS
10
3.42458
20
-2.8051
11
3.41535
21
-2.80591
0
LINE
8
BLACK
6
CONTINUOUS
10
3.41535
20
-2.80591
11
3.40612
21
-2.8051
0
LINE
8
BLACK
6
CONTINUOUS
10
3.40612
20
-2.8051
11
3.39718
21
-2.8027
0
LINE
8
BLACK
6
CONTINUOUS
10
3.39718
20
-2.8027
11
3.38878
21
-2.79878
0
LINE
8
BLACK
6
CONTINUOUS
10
3.38878
20
-2.79878
11
3.38119
21
-2.79347
0
LINE
8
BLACK
6
CONTINUOUS
10
3.38119
20
-2.79347
11
3.37464
21
-2.78692
0
LINE
8
BLACK
6
CONTINUOUS
10
3.37464
20
-2.78692
11
3.36933
21
-2.77933
0
LINE
8
BLACK
6
CONTINUOUS
10
3.36933
20
-2.77933
11
3.36541
21
-2.77093
0
LINE
8
BLACK
6
CONTINUOUS
10
3.36541
20
-2.77093
11
3.36301
21
-2.76199
0
LINE
8
BLACK
6
CONTINUOUS
10
3.36301
20
-2.76199
11
3.3622
21
-2.75276
0
LINE
8
BLACK
6
CONTINUOUS
10
3.3622
20
-2.75276
11
3.36301
21
-2.74353
0
LINE
8
BLACK
6
CONTINUOUS
10
3.36301
20
-2.74353
11
3.36541
21
-2.73458
0
LINE
8
BLACK
6
CONTINUOUS
10
3.36541
20
-2.73458
11
3.36933
21
-2.72618
0
LINE
8
BLACK
6
CONTINUOUS
10
3.36933
20
-2.72618
11
3.37464
21
-2.71859
0
LINE
8
BLACK
6
CONTINUOUS
10
3.37464
20
-2.71859
11
3.38119
21
-2.71204
0
LINE
8
BLACK
6
CONTINUOUS
10
3.38119
20
-2.71204
11
3.38878
21
-2.70673
0
LINE
8
BLACK
6
CONTINUOUS
10
3.38878
20
-2.70673
11
3.39718
21
-2.70281
0
LINE
8
BLACK
6
CONTINUOUS
10
3.39718
20
-2.70281
11
3.40612
21
-2.70041
0
LINE
8
BLACK
6
CONTINUOUS
10
3.40612
20
-2.70041
11
3.41535
21
-2.69961
0
LINE
8
BLACK
6
CONTINUOUS
10
3.41535
20
-2.69961
11
3.42458
21
-2.70041
0
LINE
8
BLACK
6
CONTINUOUS
10
4.12458
20
-2.70041
11
4.13353
21
-2.70281
0
LINE
8
BLACK
6
CONTINUOUS
10
4.13353
20
-2.70281
11
4.14193
21
-2.70673
0
LINE
8
BLACK
6
CONTINUOUS
10
4.14193
20
-2.70673
11
4.14952
21
-2.71204
0
LINE
8
BLACK
6
CONTINUOUS
10
4.14952
20
-2.71204
11
4.15607
21
-2.71859
0
LINE
8
BLACK
6
CONTINUOUS
10
4.15607
20
-2.71859
11
4.16138
21
-2.72618
0
LINE
8
BLACK
6
CONTINUOUS
10
4.16138
20
-2.72618
11
4.1653
21
-2.73458
0
LINE
8
BLACK
6
CONTINUOUS
10
4.1653
20
-2.73458
11
4.1677
21
-2.74353
0
LINE
8
BLACK
6
CONTINUOUS
10
4.1677
20
-2.74353
11
4.1685
21
-2.75276
0
LINE
8
BLACK
6
CONTINUOUS
10
4.1685
20
-2.75276
11
4.1677
21
-2.76199
0
LINE
8
BLACK
6
CONTINUOUS
10
4.1677
20
-2.76199
11
4.1653
21
-2.77093
0
LINE
8
BLACK
6
CONTINUOUS
10
4.1653
20
-2.77093
11
4.16138
21
-2.77933
0
LINE
8
BLACK
6
CONTINUOUS
10
4.16138
20
-2.77933
11
4.15607
21
-2.78692
0
LINE
8
BLACK
6
CONTINUOUS
10
4.15607
20
-2.78692
11
4.14952
21
-2.79347
0
LINE
8
BLACK
6
CONTINUOUS
10
4.14952
20
-2.79347
11
4.14193
21
-2.79878
0
LINE
8
BLACK
6
CONTINUOUS
10
4.14193
20
-2.79878
11
4.13353
21
-2.8027
0
LINE
8
BLACK
6
CONTINUOUS
10
4.13353
20
-2.8027
11
4.12458
21
-2.8051
0
LINE
8
BLACK
6
CONTINUOUS
10
4.12458
20
-2.8051
11
4.11535
21
-2.80591
0
LINE
8
BLACK
6
CONTINUOUS
10
4.11535
20
-2.80591
11
4.10612
21
-2.8051
0
LINE
8
BLACK
6
CONTINUOUS
10
4.10612
20
-2.8051
11
4.09718
21
-2.8027
0
LINE
8
BLACK
6
CONTINUOUS
10
4.09718
20
-2.8027
11
4.08878
21
-2.79878
0
LINE
8
BLACK
6
CONTINUOUS
10
4.08878
20
-2.79878
11
4.08119
21
-2.79347
0
LINE
8
BLACK
6
CONTINUOUS
10
4.08119
20
-2.79347
11
4.07464
21
-2.78692
0
LINE
8
BLACK
6
CONTINUOUS
10
4.07464
20
-2.78692
11
4.06933
21
-2.77933
0
LINE
8
BLACK
6
CONTINUOUS
10
4.06933
20
-2.77933
11
4.06541
21
-2.77093
0
LINE
8
BLACK
6
CONTINUOUS
10
4.06541
20
-2.77093
11
4.06301
21
-2.76199
0
LINE
8
BLACK
6
CONTINUOUS
10
4.06301
20
-2.76199
11
4.0622
21
-2.75276
0
LINE
8
BLACK
6
CONTINUOUS
10
4.0622
20
-2.75276
11
4.06301
21
-2.74353
0
LINE
8
BLACK
6
CONTINUOUS
10
4.06301
20
-2.74353
11
4.06541
21
-2.73458
0
LINE
8
BLACK
6
CONTINUOUS
10
4.06541
20
-2.73458
11
4.06933
21
-2.72618
0
LINE
8
BLACK
6
CONTINUOUS
10
4.06933
20
-2.72618
11
4.07464
21
-2.71859
0
LINE
8
BLACK
6
CONTINUOUS
10
4.07464
20
-2.71859
11
4.08119
21
-2.71204
0
LINE
8
BLACK
6
CONTINUOUS
10
4.08119
20
-2.71204
11
4.08878
21
-2.70673
0
LINE
8
BLACK
6
CONTINUOUS
10
4.08878
20
-2.70673
11
4.09718
21
-2.70281
0
LINE
8
BLACK
6
CONTINUOUS
10
4.09718
20
-2.70281
11
4.10612
21
-2.70041
0
LINE
8
BLACK
6
CONTINUOUS
10
4.10612
20
-2.70041
11
4.11535
21
-2.69961
0
LINE
8
BLACK
6
CONTINUOUS
10
4.11535
20
-2.69961
11
4.12458
21
-2.70041
0
LINE
8
BLACK
6
CONTINUOUS
10
2.86492
20
-2.4749
11
2.87877
21
-2.47734
0
LINE
8
BLACK
6
CONTINUOUS
10
2.87877
20
-2.47734
11
2.89226
21
-2.48132
0
LINE
8
BLACK
6
CONTINUOUS
10
2.89226
20
-2.48132
11
2.90523
21
-2.48677
0
LINE
8
BLACK
6
CONTINUOUS
10
2.90523
20
-2.48677
11
2.91751
21
-2.49363
0
LINE
8
BLACK
6
CONTINUOUS
10
2.91751
20
-2.49363
11
2.92894
21
-2.50182
0
LINE
8
BLACK
6
CONTINUOUS
10
2.92894
20
-2.50182
11
2.93939
21
-2.51123
0
LINE
8
BLACK
6
CONTINUOUS
10
2.93939
20
-2.51123
11
2.94873
21
-2.52175
0
LINE
8
BLACK
6
CONTINUOUS
10
2.94873
20
-2.52175
11
2.95684
21
-2.53324
0
LINE
8
BLACK
6
CONTINUOUS
10
2.95684
20
-2.53324
11
2.96362
21
-2.54556
0
LINE
8
BLACK
6
CONTINUOUS
10
2.96362
20
-2.54556
11
2.96898
21
-2.55857
0
LINE
8
BLACK
6
CONTINUOUS
10
2.96898
20
-2.55857
11
2.97285
21
-2.57209
0
LINE
8
BLACK
6
CONTINUOUS
10
2.97285
20
-2.57209
11
2.9752
21
-2.58596
0
LINE
8
BLACK
6
CONTINUOUS
10
2.9752
20
-2.58596
11
2.97598
21
-2.6
0
LINE
8
BLACK
6
CONTINUOUS
10
2.97598
20
-2.6
11
2.97594
21
-2.60352
0
LINE
8
BLACK
6
CONTINUOUS
10
2.97594
20
-2.60352
11
2.97476
21
-2.61753
0
LINE
8
BLACK
6
CONTINUOUS
10
2.97476
20
-2.61753
11
2.97203
21
-2.63133
0
LINE
8
BLACK
6
CONTINUOUS
10
2.97203
20
-2.63133
11
2.96777
21
-2.64474
0
LINE
8
BLACK
6
CONTINUOUS
10
2.96777
20
-2.64474
11
2.96205
21
-2.65759
0
LINE
8
BLACK
6
CONTINUOUS
10
2.96205
20
-2.65759
11
2.95493
21
-2.66972
0
LINE
8
BLACK
6
CONTINUOUS
10
2.95493
20
-2.66972
11
2.94651
21
-2.68098
0
LINE
8
BLACK
6
CONTINUOUS
10
2.94651
20
-2.68098
11
2.93688
21
-2.69123
0
LINE
8
BLACK
6
CONTINUOUS
10
2.93688
20
-2.69123
11
2.92617
21
-2.70035
0
LINE
8
BLACK
6
CONTINUOUS
10
2.92617
20
-2.70035
11
2.91451
21
-2.70822
0
LINE
8
BLACK
6
CONTINUOUS
10
2.91451
20
-2.70822
11
2.90204
21
-2.71473
0
LINE
8
BLACK
6
CONTINUOUS
10
2.90204
20
-2.71473
11
2.88893
21
-2.71982
0
LINE
8
BLACK
6
CONTINUOUS
10
2.88893
20
-2.71982
11
2.87533
21
-2.72341
0
LINE
8
BLACK
6
CONTINUOUS
10
2.87533
20
-2.72341
11
2.86142
21
-2.72547
0
LINE
8
BLACK
6
CONTINUOUS
10
2.86142
20
-2.72547
11
2.84736
21
-2.72596
0
LINE
8
BLACK
6
CONTINUOUS
10
2.84736
20
-2.72596
11
2.83334
21
-2.72488
0
LINE
8
BLACK
6
CONTINUOUS
10
2.83334
20
-2.72488
11
2.81952
21
-2.72224
0
LINE
8
BLACK
6
CONTINUOUS
10
2.81952
20
-2.72224
11
2.80609
21
-2.71808
0
LINE
8
BLACK
6
CONTINUOUS
10
2.80609
20
-2.71808
11
2.7932
21
-2.71245
0
LINE
8
BLACK
6
CONTINUOUS
10
2.7932
20
-2.71245
11
2.78102
21
-2.70542
0
LINE
8
BLACK
6
CONTINUOUS
10
2.78102
20
-2.70542
11
2.76969
21
-2.69707
0
LINE
8
BLACK
6
CONTINUOUS
10
2.76969
20
-2.69707
11
2.75937
21
-2.68752
0
LINE
8
BLACK
6
CONTINUOUS
10
2.75937
20
-2.68752
11
2.75018
21
-2.67687
0
LINE
8
BLACK
6
CONTINUOUS
10
2.75018
20
-2.67687
11
2.74224
21
-2.66526
0
LINE
8
BLACK
6
CONTINUOUS
10
2.74224
20
-2.66526
11
2.73563
21
-2.65284
0
LINE
8
BLACK
6
CONTINUOUS
10
2.73563
20
-2.65284
11
2.73046
21
-2.63977
0
LINE
8
BLACK
6
CONTINUOUS
10
2.73046
20
-2.63977
11
2.72677
21
-2.62619
0
LINE
8
BLACK
6
CONTINUOUS
10
2.72677
20
-2.62619
11
2.72462
21
-2.61229
0
LINE
8
BLACK
6
CONTINUOUS
10
2.72462
20
-2.61229
11
2.72403
21
-2.59824
0
LINE
8
BLACK
6
CONTINUOUS
10
2.72403
20
-2.59824
11
2.72501
21
-2.58421
0
LINE
8
BLACK
6
CONTINUOUS
10
2.72501
20
-2.58421
11
2.72755
21
-2.57038
0
LINE
8
BLACK
6
CONTINUOUS
10
2.72755
20
-2.57038
11
2.73161
21
-2.55691
0
LINE
8
BLACK
6
CONTINUOUS
10
2.73161
20
-2.55691
11
2.73715
21
-2.54398
0
LINE
8
BLACK
6
CONTINUOUS
10
2.73715
20
-2.54398
11
2.7441
21
-2.53175
0
LINE
8
BLACK
6
CONTINUOUS
10
2.7441
20
-2.53175
11
2.75237
21
-2.52037
0
LINE
8
BLACK
6
CONTINUOUS
10
2.75237
20
-2.52037
11
2.76185
21
-2.50999
0
LINE
8
BLACK
6
CONTINUOUS
10
2.76185
20
-2.50999
11
2.77244
21
-2.50072
0
LINE
8
BLACK
6
CONTINUOUS
10
2.77244
20
-2.50072
11
2.78399
21
-2.4927
0
LINE
8
BLACK
6
CONTINUOUS
10
2.78399
20
-2.4927
11
2.79636
21
-2.48601
0
LINE
8
BLACK
6
CONTINUOUS
10
2.79636
20
-2.48601
11
2.8094
21
-2.48074
0
LINE
8
BLACK
6
CONTINUOUS
10
2.8094
20
-2.48074
11
2.82295
21
-2.47695
0
LINE
8
BLACK
6
CONTINUOUS
10
2.82295
20
-2.47695
11
2.83683
21
-2.47471
0
LINE
8
BLACK
6
CONTINUOUS
10
2.83683
20
-2.47471
11
2.85088
21
-2.47402
0
LINE
8
BLACK
6
CONTINUOUS
10
2.85088
20
-2.47402
11
2.86492
21
-2.4749
0
LINE
8
BLACK
6
CONTINUOUS
10
6.11492
20
-2.4749
11
6.12877
21
-2.47734
0
LINE
8
BLACK
6
CONTINUOUS
10
6.12877
20
-2.47734
11
6.14226
21
-2.48132
0
LINE
8
BLACK
6
CONTINUOUS
10
6.14226
20
-2.48132
11
6.15523
21
-2.48677
0
LINE
8
BLACK
6
CONTINUOUS
10
6.15523
20
-2.48677
11
6.16751
21
-2.49363
0
LINE
8
BLACK
6
CONTINUOUS
10
6.16751
20
-2.49363
11
6.17894
21
-2.50182
0
LINE
8
BLACK
6
CONTINUOUS
10
6.17894
20
-2.50182
11
6.18939
21
-2.51123
0
LINE
8
BLACK
6
CONTINUOUS
10
6.18939
20
-2.51123
11
6.19873
21
-2.52175
0
LINE
8
BLACK
6
CONTINUOUS
10
6.19873
20
-2.52175
11
6.20684
21
-2.53324
0
LINE
8
BLACK
6
CONTINUOUS
10
6.20684
20
-2.53324
11
6.21362
21
-2.54556
0
LINE
8
BLACK
6
CONTINUOUS
10
6.21362
20
-2.54556
11
6.21898
21
-2.55857
0
LINE
8
BLACK
6
CONTINUOUS
10
6.21898
20
-2.55857
11
6.22285
21
-2.57209
0
LINE
8
BLACK
6
CONTINUOUS
10
6.22285
20
-2.57209
11
6.2252
21
-2.58596
0
LINE
8
BLACK
6
CONTINUOUS
10
6.2252
20
-2.58596
11
6.22598
21
-2.6
0
LINE
8
BLACK
6
CONTINUOUS
10
6.22598
20
-2.6
11
6.22594
21
-2.60352
0
LINE
8
BLACK
6
CONTINUOUS
10
6.22594
20
-2.60352
11
6.22476
21
-2.61753
0
LINE
8
BLACK
6
CONTINUOUS
10
6.22476
20
-2.61753
11
6.22203
21
-2.63133
0
LINE
8
BLACK
6
CONTINUOUS
10
6.22203
20
-2.63133
11
6.21777
21
-2.64474
0
LINE
8
BLACK
6
CONTINUOUS
10
6.21777
20
-2.64474
11
6.21205
21
-2.65759
0
LINE
8
BLACK
6
CONTINUOUS
10
6.21205
20
-2.65759
11
6.20493
21
-2.66972
0
LINE
8
BLACK
6
CONTINUOUS
10
6.20493
20
-2.66972
11
6.19651
21
-2.68098
0
LINE
8
BLACK
6
CONTINUOUS
10
6.19651
20
-2.68098
11
6.18688
21
-2.69123
0
LINE
8
BLACK
6
CONTINUOUS
10
6.18688
20
-2.69123
11
6.17617
21
-2.70035
0
LINE
8
BLACK
6
CONTINUOUS
10
6.17617
20
-2.70035
11
6.16451
21
-2.70822
0
LINE
8
BLACK
6
CONTINUOUS
10
6.16451
20
-2.70822
11
6.15204
21
-2.71473
0
LINE
8
BLACK
6
CONTINUOUS
10
6.15204
20
-2.71473
11
6.13893
21
-2.71982
0
LINE
8
BLACK
6
CONTINUOUS
10
6.13893
20
-2.71982
11
6.12533
21
-2.72341
0
LINE
8
BLACK
6
CONTINUOUS
10
6.12533
20
-2.72341
11
6.11142
21
-2.72547
0
LINE
8
BLACK
6
CONTINUOUS
10
6.11142
20
-2.72547
11
6.09736
21
-2.72596
0
LINE
8
BLACK
6
CONTINUOUS
10
6.09736
20
-2.72596
11
6.08334
21
-2.72488
0
LINE
8
BLACK
6
CONTINUOUS
10
6.08334
20
-2.72488
11
6.06952
21
-2.72224
0
LINE
8
BLACK
6
CONTINUOUS
10
6.06952
20
-2.72224
11
6.05609
21
-2.71808
0
LINE
8
BLACK
6
CONTINUOUS
10
6.05609
20
-2.71808
11
6.0432
21
-2.71245
0
LINE
8
BLACK
6
CONTINUOUS
10
6.0432
20
-2.71245
11
6.03102
21
-2.70542
0
LINE
8
BLACK
6
CONTINUOUS
10
6.03102
20
-2.70542
11
6.01969
21
-2.69707
0
LINE
8
BLACK
6
CONTINUOUS
10
6.01969
20
-2.69707
11
6.00937
21
-2.68752
0
LINE
8
BLACK
6
CONTINUOUS
10
6.00937
20
-2.68752
11
6.00018
21
-2.67687
0
LINE
8
BLACK
6
CONTINUOUS
10
6.00018
20
-2.67687
11
5.99224
21
-2.66526
0
LINE
8
BLACK
6
CONTINUOUS
10
5.99224
20
-2.66526
11
5.98563
21
-2.65284
0
LINE
8
BLACK
6
CONTINUOUS
10
5.98563
20
-2.65284
11
5.98046
21
-2.63977
0
LINE
8
BLACK
6
CONTINUOUS
10
5.98046
20
-2.63977
11
5.97677
21
-2.62619
0
LINE
8
BLACK
6
CONTINUOUS
10
5.97677
20
-2.62619
11
5.97462
21
-2.61229
0
LINE
8
BLACK
6
CONTINUOUS
10
5.97462
20
-2.61229
11
5.97403
21
-2.59824
0
LINE
8
BLACK
6
CONTINUOUS
10
5.97403
20
-2.59824
11
5.97501
21
-2.58421
0
LINE
8
BLACK
6
CONTINUOUS
10
5.97501
20
-2.58421
11
5.97755
21
-2.57038
0
LINE
8
BLACK
6
CONTINUOUS
10
5.97755
20
-2.57038
11
5.98161
21
-2.55691
0
LINE
8
BLACK
6
CONTINUOUS
10
5.98161
20
-2.55691
11
5.98715
21
-2.54398
0
LINE
8
BLACK
6
CONTINUOUS
10
5.98715
20
-2.54398
11
5.9941
21
-2.53175
0
LINE
8
BLACK
6
CONTINUOUS
10
5.9941
20
-2.53175
11
6.00237
21
-2.52037
0
LINE
8
BLACK
6
CONTINUOUS
10
6.00237
20
-2.52037
11
6.01185
21
-2.50999
0
LINE
8
BLACK
6
CONTINUOUS
10
6.01185
20
-2.50999
11
6.02244
21
-2.50072
0
LINE
8
BLACK
6
CONTINUOUS
10
6.02244
20
-2.50072
11
6.03399
21
-2.4927
0
LINE
8
BLACK
6
CONTINUOUS
10
6.03399
20
-2.4927
11
6.04636
21
-2.48601
0
LINE
8
BLACK
6
CONTINUOUS
10
6.04636
20
-2.48601
11
6.0594
21
-2.48074
0
LINE
8
BLACK
6
CONTINUOUS
10
6.0594
20
-2.48074
11
6.07295
21
-2.47695
0
LINE
8
BLACK
6
CONTINUOUS
10
6.07295
20
-2.47695
11
6.08683
21
-2.47471
0
LINE
8
BLACK
6
CONTINUOUS
10
6.08683
20
-2.47471
11
6.10088
21
-2.47402
0
LINE
8
BLACK
6
CONTINUOUS
10
6.10088
20
-2.47402
11
6.11492
21
-2.4749
0
LINE
8
BLACK
6
CONTINUOUS
10
4.59175
20
-2.55661
11
4.59833
21
-2.55954
0
LINE
8
BLACK
6
CONTINUOUS
10
4.59833
20
-2.55954
11
4.60415
21
-2.56377
0
LINE
8
BLACK
6
CONTINUOUS
10
4.60415
20
-2.56377
11
4.60897
21
-2.56912
0
LINE
8
BLACK
6
CONTINUOUS
10
4.60897
20
-2.56912
11
4.61257
21
-2.57536
0
LINE
8
BLACK
6
CONTINUOUS
10
4.61257
20
-2.57536
11
4.6148
21
-2.58221
0
LINE
8
BLACK
6
CONTINUOUS
10
4.6148
20
-2.58221
11
4.61555
21
-2.58937
0
LINE
8
BLACK
6
CONTINUOUS
10
4.61555
20
-2.58937
11
4.6148
21
-2.59653
0
LINE
8
BLACK
6
CONTINUOUS
10
4.6148
20
-2.59653
11
4.61257
21
-2.60338
0
LINE
8
BLACK
6
CONTINUOUS
10
4.61257
20
-2.60338
11
4.60897
21
-2.60962
0
LINE
8
BLACK
6
CONTINUOUS
10
4.60897
20
-2.60962
11
4.60415
21
-2.61497
0
LINE
8
BLACK
6
CONTINUOUS
10
4.60415
20
-2.61497
11
4.59833
21
-2.6192
0
LINE
8
BLACK
6
CONTINUOUS
10
4.59833
20
-2.6192
11
4.59175
21
-2.62213
0
LINE
8
BLACK
6
CONTINUOUS
10
4.59175
20
-2.62213
11
4.5847
21
-2.62363
0
LINE
8
BLACK
6
CONTINUOUS
10
4.5847
20
-2.62363
11
4.5775
21
-2.62363
0
LINE
8
BLACK
6
CONTINUOUS
10
4.5775
20
-2.62363
11
4.57046
21
-2.62213
0
LINE
8
BLACK
6
CONTINUOUS
10
4.57046
20
-2.62213
11
4.56388
21
-2.6192
0
LINE
8
BLACK
6
CONTINUOUS
10
4.56388
20
-2.6192
11
4.55805
21
-2.61497
0
LINE
8
BLACK
6
CONTINUOUS
10
4.55805
20
-2.61497
11
4.55323
21
-2.60962
0
LINE
8
BLACK
6
CONTINUOUS
10
4.55323
20
-2.60962
11
4.54963
21
-2.60338
0
LINE
8
BLACK
6
CONTINUOUS
10
4.54963
20
-2.60338
11
4.54741
21
-2.59653
0
LINE
8
BLACK
6
CONTINUOUS
10
4.54741
20
-2.59653
11
4.54665
21
-2.58937
0
LINE
8
BLACK
6
CONTINUOUS
10
4.54665
20
-2.58937
11
4.54741
21
-2.58221
0
LINE
8
BLACK
6
CONTINUOUS
10
4.54741
20
-2.58221
11
4.54963
21
-2.57536
0
LINE
8
BLACK
6
CONTINUOUS
10
4.54963
20
-2.57536
11
4.55323
21
-2.56912
0
LINE
8
BLACK
6
CONTINUOUS
10
4.55323
20
-2.56912
11
4.55805
21
-2.56377
0
LINE
8
BLACK
6
CONTINUOUS
10
4.55805
20
-2.56377
11
4.56388
21
-2.55954
0
LINE
8
BLACK
6
CONTINUOUS
10
4.56388
20
-2.55954
11
4.57046
21
-2.55661
0
LINE
8
BLACK
6
CONTINUOUS
10
4.57046
20
-2.55661
11
4.5775
21
-2.55511
0
LINE
8
BLACK
6
CONTINUOUS
10
4.5775
20
-2.55511
11
4.5847
21
-2.55511
0
LINE
8
BLACK
6
CONTINUOUS
10
4.5847
20
-2.55511
11
4.59175
21
-2.55661
0
LINE
8
BLACK
6
CONTINUOUS
10
3.89175
20
-2.55661
11
3.89833
21
-2.55954
0
LINE
8
BLACK
6
CONTINUOUS
10
3.89833
20
-2.55954
11
3.90415
21
-2.56377
0
LINE
8
BLACK
6
CONTINUOUS
10
3.90415
20
-2.56377
11
3.90897
21
-2.56912
0
LINE
8
BLACK
6
CONTINUOUS
10
3.90897
20
-2.56912
11
3.91257
21
-2.57536
0
LINE
8
BLACK
6
CONTINUOUS
10
3.91257
20
-2.57536
11
3.9148
21
-2.58221
0
LINE
8
BLACK
6
CONTINUOUS
10
3.9148
20
-2.58221
11
3.91555
21
-2.58937
0
LINE
8
BLACK
6
CONTINUOUS
10
3.91555
20
-2.58937
11
3.9148
21
-2.59653
0
LINE
8
BLACK
6
CONTINUOUS
10
3.9148
20
-2.59653
11
3.91257
21
-2.60338
0
LINE
8
BLACK
6
CONTINUOUS
10
3.91257
20
-2.60338
11
3.90897
21
-2.60962
0
LINE
8
BLACK
6
CONTINUOUS
10
3.90897
20
-2.60962
11
3.90415
21
-2.61497
0
LINE
8
BLACK
6
CONTINUOUS
10
3.90415
20
-2.61497
11
3.89833
21
-2.6192
0
LINE
8
BLACK
6
CONTINUOUS
10
3.89833
20
-2.6192
11
3.89175
21
-2.62213
0
LINE
8
BLACK
6
CONTINUOUS
10
3.89175
20
-2.62213
11
3.8847
21
-2.62363
0
LINE
8
BLACK
6
CONTINUOUS
10
3.8847
20
-2.62363
11
3.8775
21
-2.62363
0
LINE
8
BLACK
6
CONTINUOUS
10
3.8775
20
-2.62363
11
3.87046
21
-2.62213
0
LINE
8
BLACK
6
CONTINUOUS
10
3.87046
20
-2.62213
11
3.86388
21
-2.6192
0
LINE
8
BLACK
6
CONTINUOUS
10
3.86388
20
-2.6192
11
3.85805
21
-2.61497
0
LINE
8
BLACK
6
CONTINUOUS
10
3.85805
20
-2.61497
11
3.85323
21
-2.60962
0
LINE
8
BLACK
6
CONTINUOUS
10
3.85323
20
-2.60962
11
3.84963
21
-2.60338
0
LINE
8
BLACK
6
CONTINUOUS
10
3.84963
20
-2.60338
11
3.84741
21
-2.59653
0
LINE
8
BLACK
6
CONTINUOUS
10
3.84741
20
-2.59653
11
3.84665
21
-2.58937
0
LINE
8
BLACK
6
CONTINUOUS
10
3.84665
20
-2.58937
11
3.84741
21
-2.58221
0
LINE
8
BLACK
6
CONTINUOUS
10
3.84741
20
-2.58221
11
3.84963
21
-2.57536
0
LINE
8
BLACK
6
CONTINUOUS
10
3.84963
20
-2.57536
11
3.85323
21
-2.56912
0
LINE
8
BLACK
6
CONTINUOUS
10
3.85323
20
-2.56912
11
3.85805
21
-2.56377
0
LINE
8
BLACK
6
CONTINUOUS
10
3.85805
20
-2.56377
11
3.86388
21
-2.55954
0
LINE
8
BLACK
6
CONTINUOUS
10
3.86388
20
-2.55954
11
3.87046
21
-2.55661
0
LINE
8
BLACK
6
CONTINUOUS
10
3.87046
20
-2.55661
11
3.8775
21
-2.55511
0
LINE
8
BLACK
6
CONTINUOUS
10
3.8775
20
-2.55511
11
3.8847
21
-2.55511
0
LINE
8
BLACK
6
CONTINUOUS
10
3.8847
20
-2.55511
11
3.89175
21
-2.55661
0
LINE
8
BLACK
6
CONTINUOUS
10
3.19175
20
-2.55661
11
3.19833
21
-2.55954
0
LINE
8
BLACK
6
CONTINUOUS
10
3.19833
20
-2.55954
11
3.20415
21
-2.56377
0
LINE
8
BLACK
6
CONTINUOUS
10
3.20415
20
-2.56377
11
3.20897
21
-2.56912
0
LINE
8
BLACK
6
CONTINUOUS
10
3.20897
20
-2.56912
11
3.21257
21
-2.57536
0
LINE
8
BLACK
6
CONTINUOUS
10
3.21257
20
-2.57536
11
3.2148
21
-2.58221
0
LINE
8
BLACK
6
CONTINUOUS
10
3.2148
20
-2.58221
11
3.21555
21
-2.58937
0
LINE
8
BLACK
6
CONTINUOUS
10
3.21555
20
-2.58937
11
3.2148
21
-2.59653
0
LINE
8
BLACK
6
CONTINUOUS
10
3.2148
20
-2.59653
11
3.21257
21
-2.60338
0
LINE
8
BLACK
6
CONTINUOUS
10
3.21257
20
-2.60338
11
3.20897
21
-2.60962
0
LINE
8
BLACK
6
CONTINUOUS
10
3.20897
20
-2.60962
11
3.20415
21
-2.61497
0
LINE
8
BLACK
6
CONTINUOUS
10
3.20415
20
-2.61497
11
3.19833
21
-2.6192
0
LINE
8
BLACK
6
CONTINUOUS
10
3.19833
20
-2.6192
11
3.19175
21
-2.62213
0
LINE
8
BLACK
6
CONTINUOUS
10
3.19175
20
-2.62213
11
3.1847
21
-2.62363
0
LINE
8
BLACK
6
CONTINUOUS
10
3.1847
20
-2.62363
11
3.1775
21
-2.62363
0
LINE
8
BLACK
6
CONTINUOUS
10
3.1775
20
-2.62363
11
3.17046
21
-2.62213
0
LINE
8
BLACK
6
CONTINUOUS
10
3.17046
20
-2.62213
11
3.16388
21
-2.6192
0
LINE
8
BLACK
6
CONTINUOUS
10
3.16388
20
-2.6192
11
3.15805
21
-2.61497
0
LINE
8
BLACK
6
CONTINUOUS
10
3.15805
20
-2.61497
11
3.15323
21
-2.60962
0
LINE
8
BLACK
6
CONTINUOUS
10
3.15323
20
-2.60962
11
3.14963
21
-2.60338
0
LINE
8
BLACK
6
CONTINUOUS
10
3.14963
20
-2.60338
11
3.14741
21
-2.59653
0
LINE
8
BLACK
6
CONTINUOUS
10
3.14741
20
-2.59653
11
3.14665
21
-2.58937
0
LINE
8
BLACK
6
CONTINUOUS
10
3.14665
20
-2.58937
11
3.14741
21
-2.58221
0
LINE
8
BLACK
6
CONTINUOUS
10
3.14741
20
-2.58221
11
3.14963
21
-2.57536
0
LINE
8
BLACK
6
CONTINUOUS
10
3.14963
20
-2.57536
11
3.15323
21
-2.56912
0
LINE
8
BLACK
6
CONTINUOUS
10
3.15323
20
-2.56912
11
3.15805
21
-2.56377
0
LINE
8
BLACK
6
CONTINUOUS
10
3.15805
20
-2.56377
11
3.16388
21
-2.55954
0
LINE
8
BLACK
6
CONTINUOUS
10
3.16388
20
-2.55954
11
3.17046
21
-2.55661
0
LINE
8
BLACK
6
CONTINUOUS
10
3.17046
20
-2.55661
11
3.1775
21
-2.55511
0
LINE
8
BLACK
6
CONTINUOUS
10
3.1775
20
-2.55511
11
3.1847
21
-2.55511
0
LINE
8
BLACK
6
CONTINUOUS
10
3.1847
20
-2.55511
11
3.19175
21
-2.55661
0
LINE
8
BLACK
6
CONTINUOUS
10
5.27185
20
-2.55579
11
5.27815
21
-2.55804
0
LINE
8
BLACK
6
CONTINUOUS
10
5.27815
20
-2.55804
11
5.2838
21
-2.56162
0
LINE
8
BLACK
6
CONTINUOUS
10
5.2838
20
-2.56162
11
5.28851
21
-2.56637
0
LINE
8
BLACK
6
CONTINUOUS
10
5.28851
20
-2.56637
11
5.29205
21
-2.57204
0
LINE
8
BLACK
6
CONTINUOUS
10
5.29205
20
-2.57204
11
5.29425
21
-2.57835
0
LINE
8
BLACK
6
CONTINUOUS
10
5.29425
20
-2.57835
11
5.295
21
-2.585
0
LINE
8
BLACK
6
CONTINUOUS
10
5.295
20
-2.585
11
5.29499
21
-2.58584
0
LINE
8
BLACK
6
CONTINUOUS
10
5.29499
20
-2.58584
11
5.29406
21
-2.59246
0
LINE
8
BLACK
6
CONTINUOUS
10
5.29406
20
-2.59246
11
5.29168
21
-2.59871
0
LINE
8
BLACK
6
CONTINUOUS
10
5.29168
20
-2.59871
11
5.28798
21
-2.60428
0
LINE
8
BLACK
6
CONTINUOUS
10
5.28798
20
-2.60428
11
5.28314
21
-2.6089
0
LINE
8
BLACK
6
CONTINUOUS
10
5.28314
20
-2.6089
11
5.27739
21
-2.61232
0
LINE
8
BLACK
6
CONTINUOUS
10
5.27739
20
-2.61232
11
5.27103
21
-2.61439
0
LINE
8
BLACK
6
CONTINUOUS
10
5.27103
20
-2.61439
11
5.26437
21
-2.61499
0
LINE
8
BLACK
6
CONTINUOUS
10
5.26437
20
-2.61499
11
5.25774
21
-2.61411
0
LINE
8
BLACK
6
CONTINUOUS
10
5.25774
20
-2.61411
11
5.25147
21
-2.61178
0
LINE
8
BLACK
6
CONTINUOUS
10
5.25147
20
-2.61178
11
5.24588
21
-2.60812
0
LINE
8
BLACK
6
CONTINUOUS
10
5.24588
20
-2.60812
11
5.24123
21
-2.6033
0
LINE
8
BLACK
6
CONTINUOUS
10
5.24123
20
-2.6033
11
5.23777
21
-2.59758
0
LINE
8
BLACK
6
CONTINUOUS
10
5.23777
20
-2.59758
11
5.23566
21
-2.59124
0
LINE
8
BLACK
6
CONTINUOUS
10
5.23566
20
-2.59124
11
5.235
21
-2.58458
0
LINE
8
BLACK
6
CONTINUOUS
10
5.235
20
-2.58458
11
5.23584
21
-2.57795
0
LINE
8
BLACK
6
CONTINUOUS
10
5.23584
20
-2.57795
11
5.23813
21
-2.57166
0
LINE
8
BLACK
6
CONTINUOUS
10
5.23813
20
-2.57166
11
5.24175
21
-2.56604
0
LINE
8
BLACK
6
CONTINUOUS
10
5.24175
20
-2.56604
11
5.24653
21
-2.56136
0
LINE
8
BLACK
6
CONTINUOUS
10
5.24653
20
-2.56136
11
5.25223
21
-2.55786
0
LINE
8
BLACK
6
CONTINUOUS
10
5.25223
20
-2.55786
11
5.25856
21
-2.5557
0
LINE
8
BLACK
6
CONTINUOUS
10
5.25856
20
-2.5557
11
5.26521
21
-2.555
0
LINE
8
BLACK
6
CONTINUOUS
10
5.26521
20
-2.555
11
5.27185
21
-2.55579
0
LINE
8
BLACK
6
CONTINUOUS
10
5.47185
20
-2.55579
11
5.47815
21
-2.55804
0
LINE
8
BLACK
6
CONTINUOUS
10
5.47815
20
-2.55804
11
5.4838
21
-2.56162
0
LINE
8
BLACK
6
CONTINUOUS
10
5.4838
20
-2.56162
11
5.48851
21
-2.56637
0
LINE
8
BLACK
6
CONTINUOUS
10
5.48851
20
-2.56637
11
5.49205
21
-2.57204
0
LINE
8
BLACK
6
CONTINUOUS
10
5.49205
20
-2.57204
11
5.49425
21
-2.57835
0
LINE
8
BLACK
6
CONTINUOUS
10
5.49425
20
-2.57835
11
5.495
21
-2.585
0
LINE
8
BLACK
6
CONTINUOUS
10
5.495
20
-2.585
11
5.49499
21
-2.58584
0
LINE
8
BLACK
6
CONTINUOUS
10
5.49499
20
-2.58584
11
5.49406
21
-2.59246
0
LINE
8
BLACK
6
CONTINUOUS
10
5.49406
20
-2.59246
11
5.49168
21
-2.59871
0
LINE
8
BLACK
6
CONTINUOUS
10
5.49168
20
-2.59871
11
5.48798
21
-2.60428
0
LINE
8
BLACK
6
CONTINUOUS
10
5.48798
20
-2.60428
11
5.48314
21
-2.6089
0
LINE
8
BLACK
6
CONTINUOUS
10
5.48314
20
-2.6089
11
5.47739
21
-2.61232
0
LINE
8
BLACK
6
CONTINUOUS
10
5.47739
20
-2.61232
11
5.47103
21
-2.61439
0
LINE
8
BLACK
6
CONTINUOUS
10
5.47103
20
-2.61439
11
5.46437
21
-2.61499
0
LINE
8
BLACK
6
CONTINUOUS
10
5.46437
20
-2.61499
11
5.45774
21
-2.61411
0
LINE
8
BLACK
6
CONTINUOUS
10
5.45774
20
-2.61411
11
5.45147
21
-2.61178
0
LINE
8
BLACK
6
CONTINUOUS
10
5.45147
20
-2.61178
11
5.44588
21
-2.60812
0
LINE
8
BLACK
6
CONTINUOUS
10
5.44588
20
-2.60812
11
5.44123
21
-2.6033
0
LINE
8
BLACK
6
CONTINUOUS
10
5.44123
20
-2.6033
11
5.43777
21
-2.59758
0
LINE
8
BLACK
6
CONTINUOUS
10
5.43777
20
-2.59758
11
5.43566
21
-2.59124
0
LINE
8
BLACK
6
CONTINUOUS
10
5.43566
20
-2.59124
11
5.435
21
-2.58458
0
LINE
8
BLACK
6
CONTINUOUS
10
5.435
20
-2.58458
11
5.43584
21
-2.57795
0
LINE
8
BLACK
6
CONTINUOUS
10
5.43584
20
-2.57795
11
5.43813
21
-2.57166
0
LINE
8
BLACK
6
CONTINUOUS
10
5.43813
20
-2.57166
11
5.44175
21
-2.56604
0
LINE
8
BLACK
6
CONTINUOUS
10
5.44175
20
-2.56604
11
5.44653
21
-2.56136
0
LINE
8
BLACK
6
CONTINUOUS
10
5.44653
20
-2.56136
11
5.45223
21
-2.55786
0
LINE
8
BLACK
6
CONTINUOUS
10
5.45223
20
-2.55786
11
5.45856
21
-2.5557
0
LINE
8
BLACK
6
CONTINUOUS
10
5.45856
20
-2.5557
11
5.46521
21
-2.555
0
LINE
8
BLACK
6
CONTINUOUS
10
5.46521
20
-2.555
11
5.47185
21
-2.55579
0
LINE
8
BLACK
6
CONTINUOUS
10
5.37185
20
-2.55579
11
5.37815
21
-2.55804
0
LINE
8
BLACK
6
CONTINUOUS
10
5.37815
20
-2.55804
11
5.3838
21
-2.56162
0
LINE
8
BLACK
6
CONTINUOUS
10
5.3838
20
-2.56162
11
5.38851
21
-2.56637
0
LINE
8
BLACK
6
CONTINUOUS
10
5.38851
20
-2.56637
11
5.39205
21
-2.57204
0
LINE
8
BLACK
6
CONTINUOUS
10
5.39205
20
-2.57204
11
5.39425
21
-2.57835
0
LINE
8
BLACK
6
CONTINUOUS
10
5.39425
20
-2.57835
11
5.395
21
-2.585
0
LINE
8
BLACK
6
CONTINUOUS
10
5.395
20
-2.585
11
5.39499
21
-2.58584
0
LINE
8
BLACK
6
CONTINUOUS
10
5.39499
20
-2.58584
11
5.39406
21
-2.59246
0
LINE
8
BLACK
6
CONTINUOUS
10
5.39406
20
-2.59246
11
5.39168
21
-2.59871
0
LINE
8
BLACK
6
CONTINUOUS
10
5.39168
20
-2.59871
11
5.38798
21
-2.60428
0
LINE
8
BLACK
6
CONTINUOUS
10
5.38798
20
-2.60428
11
5.38314
21
-2.6089
0
LINE
8
BLACK
6
CONTINUOUS
10
5.38314
20
-2.6089
11
5.37739
21
-2.61232
0
LINE
8
BLACK
6
CONTINUOUS
10
5.37739
20
-2.61232
11
5.37103
21
-2.61439
0
LINE
8
BLACK
6
CONTINUOUS
10
5.37103
20
-2.61439
11
5.36437
21
-2.61499
0
LINE
8
BLACK
6
CONTINUOUS
10
5.36437
20
-2.61499
11
5.35774
21
-2.61411
0
LINE
8
BLACK
6
CONTINUOUS
10
5.35774
20
-2.61411
11
5.35147
21
-2.61178
0
LINE
8
BLACK
6
CONTINUOUS
10
5.35147
20
-2.61178
11
5.34588
21
-2.60812
0
LINE
8
BLACK
6
CONTINUOUS
10
5.34588
20
-2.60812
11
5.34123
21
-2.6033
0
LINE
8
BLACK
6
CONTINUOUS
10
5.34123
20
-2.6033
11
5.33777
21
-2.59758
0
LINE
8
BLACK
6
CONTINUOUS
10
5.33777
20
-2.59758
11
5.33566
21
-2.59124
0
LINE
8
BLACK
6
CONTINUOUS
10
5.33566
20
-2.59124
11
5.335
21
-2.58458
0
LINE
8
BLACK
6
CONTINUOUS
10
5.335
20
-2.58458
11
5.33584
21
-2.57795
0
LINE
8
BLACK
6
CONTINUOUS
10
5.33584
20
-2.57795
11
5.33813
21
-2.57166
0
LINE
8
BLACK
6
CONTINUOUS
10
5.33813
20
-2.57166
11
5.34175
21
-2.56604
0
LINE
8
BLACK
6
CONTINUOUS
10
5.34175
20
-2.56604
11
5.34653
21
-2.56136
0
LINE
8
BLACK
6
CONTINUOUS
10
5.34653
20
-2.56136
11
5.35223
21
-2.55786
0
LINE
8
BLACK
6
CONTINUOUS
10
5.35223
20
-2.55786
11
5.35856
21
-2.5557
0
LINE
8
BLACK
6
CONTINUOUS
10
5.35856
20
-2.5557
11
5.36521
21
-2.555
0
LINE
8
BLACK
6
CONTINUOUS
10
5.36521
20
-2.555
11
5.37185
21
-2.55579
0
LINE
8
BLACK
6
CONTINUOUS
10
5.17185
20
-2.55579
11
5.17815
21
-2.55804
0
LINE
8
BLACK
6
CONTINUOUS
10
5.17815
20
-2.55804
11
5.1838
21
-2.56162
0
LINE
8
BLACK
6
CONTINUOUS
10
5.1838
20
-2.56162
11
5.18851
21
-2.56637
0
LINE
8
BLACK
6
CONTINUOUS
10
5.18851
20
-2.56637
11
5.19205
21
-2.57204
0
LINE
8
BLACK
6
CONTINUOUS
10
5.19205
20
-2.57204
11
5.19425
21
-2.57835
0
LINE
8
BLACK
6
CONTINUOUS
10
5.19425
20
-2.57835
11
5.195
21
-2.585
0
LINE
8
BLACK
6
CONTINUOUS
10
5.195
20
-2.585
11
5.19499
21
-2.58584
0
LINE
8
BLACK
6
CONTINUOUS
10
5.19499
20
-2.58584
11
5.19406
21
-2.59246
0
LINE
8
BLACK
6
CONTINUOUS
10
5.19406
20
-2.59246
11
5.19168
21
-2.59871
0
LINE
8
BLACK
6
CONTINUOUS
10
5.19168
20
-2.59871
11
5.18798
21
-2.60428
0
LINE
8
BLACK
6
CONTINUOUS
10
5.18798
20
-2.60428
11
5.18314
21
-2.6089
0
LINE
8
BLACK
6
CONTINUOUS
10
5.18314
20
-2.6089
11
5.17739
21
-2.61232
0
LINE
8
BLACK
6
CONTINUOUS
10
5.17739
20
-2.61232
11
5.17103
21
-2.61439
0
LINE
8
BLACK
6
CONTINUOUS
10
5.17103
20
-2.61439
11
5.16437
21
-2.61499
0
LINE
8
BLACK
6
CONTINUOUS
10
5.16437
20
-2.61499
11
5.15774
21
-2.61411
0
LINE
8
BLACK
6
CONTINUOUS
10
5.15774
20
-2.61411
11
5.15147
21
-2.61178
0
LINE
8
BLACK
6
CONTINUOUS
10
5.15147
20
-2.61178
11
5.14588
21
-2.60812
0
LINE
8
BLACK
6
CONTINUOUS
10
5.14588
20
-2.60812
11
5.14123
21
-2.6033
0
LINE
8
BLACK
6
CONTINUOUS
10
5.14123
20
-2.6033
11
5.13777
21
-2.59758
0
LINE
8
BLACK
6
CONTINUOUS
10
5.13777
20
-2.59758
11
5.13566
21
-2.59124
0
LINE
8
BLACK
6
CONTINUOUS
10
5.13566
20
-2.59124
11
5.135
21
-2.58458
0
LINE
8
BLACK
6
CONTINUOUS
10
5.135
20
-2.58458
11
5.13584
21
-2.57795
0
LINE
8
BLACK
6
CONTINUOUS
10
5.13584
20
-2.57795
11
5.13813
21
-2.57166
0
LINE
8
BLACK
6
CONTINUOUS
10
5.13813
20
-2.57166
11
5.14175
21
-2.56604
0
LINE
8
BLACK
6
CONTINUOUS
10
5.14175
20
-2.56604
11
5.14653
21
-2.56136
0
LINE
8
BLACK
6
CONTINUOUS
10
5.14653
20
-2.56136
11
5.15223
21
-2.55786
0
LINE
8
BLACK
6
CONTINUOUS
10
5.15223
20
-2.55786
11
5.15856
21
-2.5557
0
LINE
8
BLACK
6
CONTINUOUS
10
5.15856
20
-2.5557
11
5.16521
21
-2.555
0
LINE
8
BLACK
6
CONTINUOUS
10
5.16521
20
-2.555
11
5.17185
21
-2.55579
0
LINE
8
BLACK
6
CONTINUOUS
10
5.67185
20
-2.55579
11
5.67815
21
-2.55804
0
LINE
8
BLACK
6
CONTINUOUS
10
5.67815
20
-2.55804
11
5.6838
21
-2.56162
0
LINE
8
BLACK
6
CONTINUOUS
10
5.6838
20
-2.56162
11
5.68851
21
-2.56637
0
LINE
8
BLACK
6
CONTINUOUS
10
5.68851
20
-2.56637
11
5.69205
21
-2.57204
0
LINE
8
BLACK
6
CONTINUOUS
10
5.69205
20
-2.57204
11
5.69425
21
-2.57835
0
LINE
8
BLACK
6
CONTINUOUS
10
5.69425
20
-2.57835
11
5.695
21
-2.585
0
LINE
8
BLACK
6
CONTINUOUS
10
5.695
20
-2.585
11
5.69499
21
-2.58584
0
LINE
8
BLACK
6
CONTINUOUS
10
5.69499
20
-2.58584
11
5.69406
21
-2.59246
0
LINE
8
BLACK
6
CONTINUOUS
10
5.69406
20
-2.59246
11
5.69168
21
-2.59871
0
LINE
8
BLACK
6
CONTINUOUS
10
5.69168
20
-2.59871
11
5.68798
21
-2.60428
0
LINE
8
BLACK
6
CONTINUOUS
10
5.68798
20
-2.60428
11
5.68314
21
-2.6089
0
LINE
8
BLACK
6
CONTINUOUS
10
5.68314
20
-2.6089
11
5.67739
21
-2.61232
0
LINE
8
BLACK
6
CONTINUOUS
10
5.67739
20
-2.61232
11
5.67103
21
-2.61439
0
LINE
8
BLACK
6
CONTINUOUS
10
5.67103
20
-2.61439
11
5.66437
21
-2.61499
0
LINE
8
BLACK
6
CONTINUOUS
10
5.66437
20
-2.61499
11
5.65774
21
-2.61411
0
LINE
8
BLACK
6
CONTINUOUS
10
5.65774
20
-2.61411
11
5.65147
21
-2.61178
0
LINE
8
BLACK
6
CONTINUOUS
10
5.65147
20
-2.61178
11
5.64588
21
-2.60812
0
LINE
8
BLACK
6
CONTINUOUS
10
5.64588
20
-2.60812
11
5.64123
21
-2.6033
0
LINE
8
BLACK
6
CONTINUOUS
10
5.64123
20
-2.6033
11
5.63777
21
-2.59758
0
LINE
8
BLACK
6
CONTINUOUS
10
5.63777
20
-2.59758
11
5.63566
21
-2.59124
0
LINE
8
BLACK
6
CONTINUOUS
10
5.63566
20
-2.59124
11
5.635
21
-2.58458
0
LINE
8
BLACK
6
CONTINUOUS
10
5.635
20
-2.58458
11
5.63584
21
-2.57795
0
LINE
8
BLACK
6
CONTINUOUS
10
5.63584
20
-2.57795
11
5.63813
21
-2.57166
0
LINE
8
BLACK
6
CONTINUOUS
10
5.63813
20
-2.57166
11
5.64175
21
-2.56604
0
LINE
8
BLACK
6
CONTINUOUS
10
5.64175
20
-2.56604
11
5.64653
21
-2.56136
0
LINE
8
BLACK
6
CONTINUOUS
10
5.64653
20
-2.56136
11
5.65223
21
-2.55786
0
LINE
8
BLACK
6
CONTINUOUS
10
5.65223
20
-2.55786
11
5.65856
21
-2.5557
0
LINE
8
BLACK
6
CONTINUOUS
10
5.65856
20
-2.5557
11
5.66521
21
-2.555
0
LINE
8
BLACK
6
CONTINUOUS
10
5.66521
20
-2.555
11
5.67185
21
-2.55579
0
LINE
8
BLACK
6
CONTINUOUS
10
5.57185
20
-2.55579
11
5.57815
21
-2.55804
0
LINE
8
BLACK
6
CONTINUOUS
10
5.57815
20
-2.55804
11
5.5838
21
-2.56162
0
LINE
8
BLACK
6
CONTINUOUS
10
5.5838
20
-2.56162
11
5.58851
21
-2.56637
0
LINE
8
BLACK
6
CONTINUOUS
10
5.58851
20
-2.56637
11
5.59205
21
-2.57204
0
LINE
8
BLACK
6
CONTINUOUS
10
5.59205
20
-2.57204
11
5.59425
21
-2.57835
0
LINE
8
BLACK
6
CONTINUOUS
10
5.59425
20
-2.57835
11
5.595
21
-2.585
0
LINE
8
BLACK
6
CONTINUOUS
10
5.595
20
-2.585
11
5.59499
21
-2.58584
0
LINE
8
BLACK
6
CONTINUOUS
10
5.59499
20
-2.58584
11
5.59406
21
-2.59246
0
LINE
8
BLACK
6
CONTINUOUS
10
5.59406
20
-2.59246
11
5.59168
21
-2.59871
0
LINE
8
BLACK
6
CONTINUOUS
10
5.59168
20
-2.59871
11
5.58798
21
-2.60428
0
LINE
8
BLACK
6
CONTINUOUS
10
5.58798
20
-2.60428
11
5.58314
21
-2.6089
0
LINE
8
BLACK
6
CONTINUOUS
10
5.58314
20
-2.6089
11
5.57739
21
-2.61232
0
LINE
8
BLACK
6
CONTINUOUS
10
5.57739
20
-2.61232
11
5.57103
21
-2.61439
0
LINE
8
BLACK
6
CONTINUOUS
10
5.57103
20
-2.61439
11
5.56437
21
-2.61499
0
LINE
8
BLACK
6
CONTINUOUS
10
5.56437
20
-2.61499
11
5.55774
21
-2.61411
0
LINE
8
BLACK
6
CONTINUOUS
10
5.55774
20
-2.61411
11
5.55147
21
-2.61178
0
LINE
8
BLACK
6
CONTINUOUS
10
5.55147
20
-2.61178
11
5.54588
21
-2.60812
0
LINE
8
BLACK
6
CONTINUOUS
10
5.54588
20
-2.60812
11
5.54123
21
-2.6033
0
LINE
8
BLACK
6
CONTINUOUS
10
5.54123
20
-2.6033
11
5.53777
21
-2.59758
0
LINE
8
BLACK
6
CONTINUOUS
10
5.53777
20
-2.59758
11
5.53566
21
-2.59124
0
LINE
8
BLACK
6
CONTINUOUS
10
5.53566
20
-2.59124
11
5.535
21
-2.58458
0
LINE
8
BLACK
6
CONTINUOUS
10
5.535
20
-2.58458
11
5.53584
21
-2.57795
0
LINE
8
BLACK
6
CONTINUOUS
10
5.53584
20
-2.57795
11
5.53813
21
-2.57166
0
LINE
8
BLACK
6
CONTINUOUS
10
5.53813
20
-2.57166
11
5.54175
21
-2.56604
0
LINE
8
BLACK
6
CONTINUOUS
10
5.54175
20
-2.56604
11
5.54653
21
-2.56136
0
LINE
8
BLACK
6
CONTINUOUS
10
5.54653
20
-2.56136
11
5.55223
21
-2.55786
0
LINE
8
BLACK
6
CONTINUOUS
10
5.55223
20
-2.55786
11
5.55856
21
-2.5557
0
LINE
8
BLACK
6
CONTINUOUS
10
5.55856
20
-2.5557
11
5.56521
21
-2.555
0
LINE
8
BLACK
6
CONTINUOUS
10
5.56521
20
-2.555
11
5.57185
21
-2.55579
  0
ENDSEC
  0
EOF
