  0
SECTION
  2
HEADER
  9
$ANGBASE
  50
0.0
  9
$ANGDIR
  70
1
  9
$MEASUREMENT
  70
0
  0
ENDSEC
  0
SECTION
  2
TABLES
  0
TABLE
  2
LTYPE
  70
4
  0
LTYPE
  5
40F
  2
CONTINUOUS
  70
0
  3
Solid line
  72
65
  73
0
  40
0.0
  0
LTYPE
  5
410
  2
DASHDOT
 70
0
  3
Dash Dot ____ _ ____ _
 72
65
 73
4
 40
2.0
 49
1.25
 49
-0.25
 49
0.25
 49
-0.25
  0
LTYPE
  5
411
  2
DASHED
 70
0
  3
Dashed __ __ __ __ __
 72
65
 73
2
 40
0.75
 49
0.5
 49
-0.25
  0
LTYPE
  5
43B
  2
DOTTED
 70
0
  3
Dotted .  .  .  .
 72
65
 73
2
 40
0.2
 49
0.0
 49
-0.2
  0
ENDTAB
  0
TABLE
  2
STYLE
  70
4
  0
STYLE
  2
KICAD
  70
0
  40
0
  41
1
  42
1
  50
0
  71
0
  3
isocp.shx
  0
STYLE
  2
KICADB
  70
0
  40
0
  41
1
  42
1
  50
0
  71
0
  3
isocp.shx
  0
STYLE
  2
KICADI
  70
0
  40
0
  41
1
  42
1
  50
15
  71
0
  3
isocp.shx
  0
STYLE
  2
KICADBI
  70
0
  40
0
  41
1
  42
1
  50
15
  71
0
  3
isocp.shx
  0
ENDTAB
  0
TABLE
  2
LAYER
  70
1
  0
LAYER
  2
BLACK
  70
0
  62
7
  6
CONTINUOUS
  0
ENDTAB
  0
ENDSEC
  0
SECTION
  2
ENTITIES
0
LINE
8
BLACK
6
CONTINUOUS
10
2.8351
20
-5.25124
11
2.82035
21
-5.24905
0
LINE
8
BLACK
6
CONTINUOUS
10
2.82035
20
-5.24905
11
2.80589
21
-5.24542
0
LINE
8
BLACK
6
CONTINUOUS
10
2.80589
20
-5.24542
11
2.79184
21
-5.2404
0
LINE
8
BLACK
6
CONTINUOUS
10
2.79184
20
-5.2404
11
2.77836
21
-5.23402
0
LINE
8
BLACK
6
CONTINUOUS
10
2.77836
20
-5.23402
11
2.76557
21
-5.22636
0
LINE
8
BLACK
6
CONTINUOUS
10
2.76557
20
-5.22636
11
2.75359
21
-5.21747
0
LINE
8
BLACK
6
CONTINUOUS
10
2.75359
20
-5.21747
11
2.74254
21
-5.20746
0
LINE
8
BLACK
6
CONTINUOUS
10
2.74254
20
-5.20746
11
2.73253
21
-5.19641
0
LINE
8
BLACK
6
CONTINUOUS
10
2.73253
20
-5.19641
11
2.72364
21
-5.18443
0
LINE
8
BLACK
6
CONTINUOUS
10
2.72364
20
-5.18443
11
2.71598
21
-5.17164
0
LINE
8
BLACK
6
CONTINUOUS
10
2.71598
20
-5.17164
11
2.7096
21
-5.15816
0
LINE
8
BLACK
6
CONTINUOUS
10
2.7096
20
-5.15816
11
2.70458
21
-5.14411
0
LINE
8
BLACK
6
CONTINUOUS
10
2.70458
20
-5.14411
11
2.70095
21
-5.12965
0
LINE
8
BLACK
6
CONTINUOUS
10
2.70095
20
-5.12965
11
2.69876
21
-5.1149
0
LINE
8
BLACK
6
CONTINUOUS
10
2.69876
20
-5.1149
11
2.69803
21
-5.1
0
LINE
8
BLACK
6
CONTINUOUS
10
2.69803
20
-5.1
11
2.69803
21
-2.6
0
LINE
8
BLACK
6
CONTINUOUS
10
2.69803
20
-2.6
11
2.69876
21
-2.5851
0
LINE
8
BLACK
6
CONTINUOUS
10
2.69876
20
-2.5851
11
2.70095
21
-2.57035
0
LINE
8
BLACK
6
CONTINUOUS
10
2.70095
20
-2.57035
11
2.70458
21
-2.55589
0
LINE
8
BLACK
6
CONTINUOUS
10
2.70458
20
-2.55589
11
2.7096
21
-2.54184
0
LINE
8
BLACK
6
CONTINUOUS
10
2.7096
20
-2.54184
11
2.71598
21
-2.52836
0
LINE
8
BLACK
6
CONTINUOUS
10
2.71598
20
-2.52836
11
2.72364
21
-2.51557
0
LINE
8
BLACK
6
CONTINUOUS
10
2.72364
20
-2.51557
11
2.73253
21
-2.50359
0
LINE
8
BLACK
6
CONTINUOUS
10
2.73253
20
-2.50359
11
2.74254
21
-2.49254
0
LINE
8
BLACK
6
CONTINUOUS
10
2.74254
20
-2.49254
11
2.75359
21
-2.48253
0
LINE
8
BLACK
6
CONTINUOUS
10
2.75359
20
-2.48253
11
2.76557
21
-2.47364
0
LINE
8
BLACK
6
CONTINUOUS
10
2.76557
20
-2.47364
11
2.77836
21
-2.46598
0
LINE
8
BLACK
6
CONTINUOUS
10
2.77836
20
-2.46598
11
2.79184
21
-2.4596
0
LINE
8
BLACK
6
CONTINUOUS
10
2.79184
20
-2.4596
11
2.80589
21
-2.45458
0
LINE
8
BLACK
6
CONTINUOUS
10
2.80589
20
-2.45458
11
2.82035
21
-2.45095
0
LINE
8
BLACK
6
CONTINUOUS
10
2.82035
20
-2.45095
11
2.8351
21
-2.44876
0
LINE
8
BLACK
6
CONTINUOUS
10
2.8351
20
-2.44876
11
2.85
21
-2.44803
0
LINE
8
BLACK
6
CONTINUOUS
10
2.85
20
-2.44803
11
6.1
21
-2.44803
0
LINE
8
BLACK
6
CONTINUOUS
10
6.1
20
-2.44803
11
6.1149
21
-2.44876
0
LINE
8
BLACK
6
CONTINUOUS
10
6.1149
20
-2.44876
11
6.12965
21
-2.45095
0
LINE
8
BLACK
6
CONTINUOUS
10
6.12965
20
-2.45095
11
6.14411
21
-2.45458
0
LINE
8
BLACK
6
CONTINUOUS
10
6.14411
20
-2.45458
11
6.15816
21
-2.4596
0
LINE
8
BLACK
6
CONTINUOUS
10
6.15816
20
-2.4596
11
6.17164
21
-2.46598
0
LINE
8
BLACK
6
CONTINUOUS
10
6.17164
20
-2.46598
11
6.18443
21
-2.47364
0
LINE
8
BLACK
6
CONTINUOUS
10
6.18443
20
-2.47364
11
6.19641
21
-2.48253
0
LINE
8
BLACK
6
CONTINUOUS
10
6.19641
20
-2.48253
11
6.20746
21
-2.49254
0
LINE
8
BLACK
6
CONTINUOUS
10
6.20746
20
-2.49254
11
6.21747
21
-2.50359
0
LINE
8
BLACK
6
CONTINUOUS
10
6.21747
20
-2.50359
11
6.22636
21
-2.51557
0
LINE
8
BLACK
6
CONTINUOUS
10
6.22636
20
-2.51557
11
6.23402
21
-2.52836
0
LINE
8
BLACK
6
CONTINUOUS
10
6.23402
20
-2.52836
11
6.2404
21
-2.54184
0
LINE
8
BLACK
6
CONTINUOUS
10
6.2404
20
-2.54184
11
6.24542
21
-2.55589
0
LINE
8
BLACK
6
CONTINUOUS
10
6.24542
20
-2.55589
11
6.24905
21
-2.57035
0
LINE
8
BLACK
6
CONTINUOUS
10
6.24905
20
-2.57035
11
6.25124
21
-2.5851
0
LINE
8
BLACK
6
CONTINUOUS
10
6.25124
20
-2.5851
11
6.25197
21
-2.6
0
LINE
8
BLACK
6
CONTINUOUS
10
6.25197
20
-2.6
11
6.25197
21
-5.1
0
LINE
8
BLACK
6
CONTINUOUS
10
6.25197
20
-5.1
11
6.25124
21
-5.1149
0
LINE
8
BLACK
6
CONTINUOUS
10
6.25124
20
-5.1149
11
6.24905
21
-5.12965
0
LINE
8
BLACK
6
CONTINUOUS
10
6.24905
20
-5.12965
11
6.24542
21
-5.14411
0
LINE
8
BLACK
6
CONTINUOUS
10
6.24542
20
-5.14411
11
6.2404
21
-5.15816
0
LINE
8
BLACK
6
CONTINUOUS
10
6.2404
20
-5.15816
11
6.23402
21
-5.17164
0
LINE
8
BLACK
6
CONTINUOUS
10
6.23402
20
-5.17164
11
6.22636
21
-5.18443
0
LINE
8
BLACK
6
CONTINUOUS
10
6.22636
20
-5.18443
11
6.21747
21
-5.19641
0
LINE
8
BLACK
6
CONTINUOUS
10
6.21747
20
-5.19641
11
6.20746
21
-5.20746
0
LINE
8
BLACK
6
CONTINUOUS
10
6.20746
20
-5.20746
11
6.19641
21
-5.21747
0
LINE
8
BLACK
6
CONTINUOUS
10
6.19641
20
-5.21747
11
6.18443
21
-5.22636
0
LINE
8
BLACK
6
CONTINUOUS
10
6.18443
20
-5.22636
11
6.17164
21
-5.23402
0
LINE
8
BLACK
6
CONTINUOUS
10
6.17164
20
-5.23402
11
6.15816
21
-5.2404
0
LINE
8
BLACK
6
CONTINUOUS
10
6.15816
20
-5.2404
11
6.14411
21
-5.24542
0
LINE
8
BLACK
6
CONTINUOUS
10
6.14411
20
-5.24542
11
6.12965
21
-5.24905
0
LINE
8
BLACK
6
CONTINUOUS
10
6.12965
20
-5.24905
11
6.1149
21
-5.25124
0
LINE
8
BLACK
6
CONTINUOUS
10
6.1149
20
-5.25124
11
6.1
21
-5.25197
0
LINE
8
BLACK
6
CONTINUOUS
10
6.1
20
-5.25197
11
2.85
21
-5.25197
0
LINE
8
BLACK
6
CONTINUOUS
10
2.85
20
-5.25197
11
2.8351
21
-5.25124
0
LINE
8
BLACK
6
CONTINUOUS
10
2.84961
20
-2.45181
11
2.83547
21
-2.4525
0
LINE
8
BLACK
6
CONTINUOUS
10
2.83547
20
-2.4525
11
2.82109
21
-2.45464
0
LINE
8
BLACK
6
CONTINUOUS
10
2.82109
20
-2.45464
11
2.80698
21
-2.45817
0
LINE
8
BLACK
6
CONTINUOUS
10
2.80698
20
-2.45817
11
2.79328
21
-2.46307
0
LINE
8
BLACK
6
CONTINUOUS
10
2.79328
20
-2.46307
11
2.78013
21
-2.46929
0
LINE
8
BLACK
6
CONTINUOUS
10
2.78013
20
-2.46929
11
2.76766
21
-2.47677
0
LINE
8
BLACK
6
CONTINUOUS
10
2.76766
20
-2.47677
11
2.75598
21
-2.48543
0
LINE
8
BLACK
6
CONTINUOUS
10
2.75598
20
-2.48543
11
2.7452
21
-2.4952
0
LINE
8
BLACK
6
CONTINUOUS
10
2.7452
20
-2.4952
11
2.73543
21
-2.50598
0
LINE
8
BLACK
6
CONTINUOUS
10
2.73543
20
-2.50598
11
2.72677
21
-2.51766
0
LINE
8
BLACK
6
CONTINUOUS
10
2.72677
20
-2.51766
11
2.71929
21
-2.53013
0
LINE
8
BLACK
6
CONTINUOUS
10
2.71929
20
-2.53013
11
2.71307
21
-2.54328
0
LINE
8
BLACK
6
CONTINUOUS
10
2.71307
20
-2.54328
11
2.70817
21
-2.55698
0
LINE
8
BLACK
6
CONTINUOUS
10
2.70817
20
-2.55698
11
2.70464
21
-2.57109
0
LINE
8
BLACK
6
CONTINUOUS
10
2.70464
20
-2.57109
11
2.7025
21
-2.58547
0
LINE
8
BLACK
6
CONTINUOUS
10
2.7025
20
-2.58547
11
2.70181
21
-2.59961
0
LINE
8
BLACK
6
CONTINUOUS
10
2.70181
20
-2.59961
11
2.70197
21
-2.6
0
LINE
8
BLACK
6
CONTINUOUS
10
2.70197
20
-2.6
11
2.70197
21
-5.1
0
LINE
8
BLACK
6
CONTINUOUS
10
2.70197
20
-5.1
11
2.70181
21
-5.10039
0
LINE
8
BLACK
6
CONTINUOUS
10
2.70181
20
-5.10039
11
2.7025
21
-5.11453
0
LINE
8
BLACK
6
CONTINUOUS
10
2.7025
20
-5.11453
11
2.70464
21
-5.12891
0
LINE
8
BLACK
6
CONTINUOUS
10
2.70464
20
-5.12891
11
2.70817
21
-5.14302
0
LINE
8
BLACK
6
CONTINUOUS
10
2.70817
20
-5.14302
11
2.71307
21
-5.15672
0
LINE
8
BLACK
6
CONTINUOUS
10
2.71307
20
-5.15672
11
2.71929
21
-5.16987
0
LINE
8
BLACK
6
CONTINUOUS
10
2.71929
20
-5.16987
11
2.72677
21
-5.18234
0
LINE
8
BLACK
6
CONTINUOUS
10
2.72677
20
-5.18234
11
2.73543
21
-5.19402
0
LINE
8
BLACK
6
CONTINUOUS
10
2.73543
20
-5.19402
11
2.7452
21
-5.2048
0
LINE
8
BLACK
6
CONTINUOUS
10
2.7452
20
-5.2048
11
2.75598
21
-5.21457
0
LINE
8
BLACK
6
CONTINUOUS
10
2.75598
20
-5.21457
11
2.76766
21
-5.22323
0
LINE
8
BLACK
6
CONTINUOUS
10
2.76766
20
-5.22323
11
2.78013
21
-5.23071
0
LINE
8
BLACK
6
CONTINUOUS
10
2.78013
20
-5.23071
11
2.79328
21
-5.23693
0
LINE
8
BLACK
6
CONTINUOUS
10
2.79328
20
-5.23693
11
2.80698
21
-5.24183
0
LINE
8
BLACK
6
CONTINUOUS
10
2.80698
20
-5.24183
11
2.82109
21
-5.24536
0
LINE
8
BLACK
6
CONTINUOUS
10
2.82109
20
-5.24536
11
2.83547
21
-5.2475
0
LINE
8
BLACK
6
CONTINUOUS
10
2.83547
20
-5.2475
11
2.84961
21
-5.24819
0
LINE
8
BLACK
6
CONTINUOUS
10
2.84961
20
-5.24819
11
2.85
21
-5.24803
0
LINE
8
BLACK
6
CONTINUOUS
10
2.85
20
-5.24803
11
6.1
21
-5.24803
0
LINE
8
BLACK
6
CONTINUOUS
10
6.1
20
-5.24803
11
6.10039
21
-5.24819
0
LINE
8
BLACK
6
CONTINUOUS
10
6.10039
20
-5.24819
11
6.11453
21
-5.2475
0
LINE
8
BLACK
6
CONTINUOUS
10
6.11453
20
-5.2475
11
6.12891
21
-5.24536
0
LINE
8
BLACK
6
CONTINUOUS
10
6.12891
20
-5.24536
11
6.14302
21
-5.24183
0
LINE
8
BLACK
6
CONTINUOUS
10
6.14302
20
-5.24183
11
6.15672
21
-5.23693
0
LINE
8
BLACK
6
CONTINUOUS
10
6.15672
20
-5.23693
11
6.16987
21
-5.23071
0
LINE
8
BLACK
6
CONTINUOUS
10
6.16987
20
-5.23071
11
6.18234
21
-5.22323
0
LINE
8
BLACK
6
CONTINUOUS
10
6.18234
20
-5.22323
11
6.19402
21
-5.21457
0
LINE
8
BLACK
6
CONTINUOUS
10
6.19402
20
-5.21457
11
6.2048
21
-5.2048
0
LINE
8
BLACK
6
CONTINUOUS
10
6.2048
20
-5.2048
11
6.21457
21
-5.19402
0
LINE
8
BLACK
6
CONTINUOUS
10
6.21457
20
-5.19402
11
6.22323
21
-5.18234
0
LINE
8
BLACK
6
CONTINUOUS
10
6.22323
20
-5.18234
11
6.23071
21
-5.16987
0
LINE
8
BLACK
6
CONTINUOUS
10
6.23071
20
-5.16987
11
6.23693
21
-5.15672
0
LINE
8
BLACK
6
CONTINUOUS
10
6.23693
20
-5.15672
11
6.24183
21
-5.14302
0
LINE
8
BLACK
6
CONTINUOUS
10
6.24183
20
-5.14302
11
6.24536
21
-5.12891
0
LINE
8
BLACK
6
CONTINUOUS
10
6.24536
20
-5.12891
11
6.2475
21
-5.11453
0
LINE
8
BLACK
6
CONTINUOUS
10
6.2475
20
-5.11453
11
6.24819
21
-5.10039
0
LINE
8
BLACK
6
CONTINUOUS
10
6.24819
20
-5.10039
11
6.24803
21
-5.1
0
LINE
8
BLACK
6
CONTINUOUS
10
6.24803
20
-5.1
11
6.24803
21
-2.6
0
LINE
8
BLACK
6
CONTINUOUS
10
6.24803
20
-2.6
11
6.24819
21
-2.59961
0
LINE
8
BLACK
6
CONTINUOUS
10
6.24819
20
-2.59961
11
6.2475
21
-2.58547
0
LINE
8
BLACK
6
CONTINUOUS
10
6.2475
20
-2.58547
11
6.24536
21
-2.57109
0
LINE
8
BLACK
6
CONTINUOUS
10
6.24536
20
-2.57109
11
6.24183
21
-2.55698
0
LINE
8
BLACK
6
CONTINUOUS
10
6.24183
20
-2.55698
11
6.23693
21
-2.54328
0
LINE
8
BLACK
6
CONTINUOUS
10
6.23693
20
-2.54328
11
6.23071
21
-2.53013
0
LINE
8
BLACK
6
CONTINUOUS
10
6.23071
20
-2.53013
11
6.22323
21
-2.51766
0
LINE
8
BLACK
6
CONTINUOUS
10
6.22323
20
-2.51766
11
6.21457
21
-2.50598
0
LINE
8
BLACK
6
CONTINUOUS
10
6.21457
20
-2.50598
11
6.2048
21
-2.4952
0
LINE
8
BLACK
6
CONTINUOUS
10
6.2048
20
-2.4952
11
6.19402
21
-2.48543
0
LINE
8
BLACK
6
CONTINUOUS
10
6.19402
20
-2.48543
11
6.18234
21
-2.47677
0
LINE
8
BLACK
6
CONTINUOUS
10
6.18234
20
-2.47677
11
6.16987
21
-2.46929
0
LINE
8
BLACK
6
CONTINUOUS
10
6.16987
20
-2.46929
11
6.15672
21
-2.46307
0
LINE
8
BLACK
6
CONTINUOUS
10
6.15672
20
-2.46307
11
6.14302
21
-2.45817
0
LINE
8
BLACK
6
CONTINUOUS
10
6.14302
20
-2.45817
11
6.12891
21
-2.45464
0
LINE
8
BLACK
6
CONTINUOUS
10
6.12891
20
-2.45464
11
6.11453
21
-2.4525
0
LINE
8
BLACK
6
CONTINUOUS
10
6.11453
20
-2.4525
11
6.10039
21
-2.45181
0
LINE
8
BLACK
6
CONTINUOUS
10
6.10039
20
-2.45181
11
6.1
21
-2.45197
0
LINE
8
BLACK
6
CONTINUOUS
10
6.1
20
-2.45197
11
2.85
21
-2.45197
0
LINE
8
BLACK
6
CONTINUOUS
10
2.85
20
-2.45197
11
2.84961
21
-2.45181
0
LINE
8
BLACK
6
CONTINUOUS
10
6.40139
20
-3.84861
11
6.40197
21
-3.85
0
LINE
8
BLACK
6
CONTINUOUS
10
6.40197
20
-3.85
11
6.40139
21
-3.85139
0
LINE
8
BLACK
6
CONTINUOUS
10
6.40139
20
-3.85139
11
6.4
21
-3.85197
0
LINE
8
BLACK
6
CONTINUOUS
10
6.4
20
-3.85197
11
6.39861
21
-3.85139
0
LINE
8
BLACK
6
CONTINUOUS
10
6.39861
20
-3.85139
11
6.39803
21
-3.85
0
LINE
8
BLACK
6
CONTINUOUS
10
6.39803
20
-3.85
11
6.39861
21
-3.84861
0
LINE
8
BLACK
6
CONTINUOUS
10
6.39861
20
-3.84861
11
6.4
21
-3.84803
0
LINE
8
BLACK
6
CONTINUOUS
10
6.4
20
-3.84803
11
6.40139
21
-3.84861
  0
ENDSEC
  0
EOF
