  0
SECTION
  2
HEADER
  9
$ANGBASE
  50
0.0
  9
$ANGDIR
  70
1
  9
$MEASUREMENT
  70
0
  0
ENDSEC
  0
SECTION
  2
TABLES
  0
TABLE
  2
LTYPE
  70
4
  0
LTYPE
  5
40F
  2
CONTINUOUS
  70
0
  3
Solid line
  72
65
  73
0
  40
0.0
  0
LTYPE
  5
410
  2
DASHDOT
 70
0
  3
Dash Dot ____ _ ____ _
 72
65
 73
4
 40
2.0
 49
1.25
 49
-0.25
 49
0.25
 49
-0.25
  0
LTYPE
  5
411
  2
DASHED
 70
0
  3
Dashed __ __ __ __ __
 72
65
 73
2
 40
0.75
 49
0.5
 49
-0.25
  0
LTYPE
  5
43B
  2
DOTTED
 70
0
  3
Dotted .  .  .  .
 72
65
 73
2
 40
0.2
 49
0.0
 49
-0.2
  0
ENDTAB
  0
TABLE
  2
STYLE
  70
4
  0
STYLE
  2
KICAD
  70
0
  40
0
  41
1
  42
1
  50
0
  71
0
  3
isocp.shx
  0
STYLE
  2
KICADB
  70
0
  40
0
  41
1
  42
1
  50
0
  71
0
  3
isocp.shx
  0
STYLE
  2
KICADI
  70
0
  40
0
  41
1
  42
1
  50
15
  71
0
  3
isocp.shx
  0
STYLE
  2
KICADBI
  70
0
  40
0
  41
1
  42
1
  50
15
  71
0
  3
isocp.shx
  0
ENDTAB
  0
TABLE
  2
LAYER
  70
1
  0
LAYER
  2
BLACK
  70
0
  62
7
  6
CONTINUOUS
  0
ENDTAB
  0
ENDSEC
  0
SECTION
  2
ENTITIES
0
LINE
8
BLACK
6
CONTINUOUS
10
5.87747
20
-4.84347
11
5.88066
21
-4.8456
0
LINE
8
BLACK
6
CONTINUOUS
10
5.88066
20
-4.8456
11
5.88279
21
-4.84879
0
LINE
8
BLACK
6
CONTINUOUS
10
5.88279
20
-4.84879
11
5.88354
21
-4.85256
0
LINE
8
BLACK
6
CONTINUOUS
10
5.88354
20
-4.85256
11
5.88354
21
-4.87913
0
LINE
8
BLACK
6
CONTINUOUS
10
5.88354
20
-4.87913
11
5.88279
21
-4.8829
0
LINE
8
BLACK
6
CONTINUOUS
10
5.88279
20
-4.8829
11
5.88066
21
-4.88609
0
LINE
8
BLACK
6
CONTINUOUS
10
5.88066
20
-4.88609
11
5.87747
21
-4.88823
0
LINE
8
BLACK
6
CONTINUOUS
10
5.87747
20
-4.88823
11
5.8737
21
-4.88898
0
LINE
8
BLACK
6
CONTINUOUS
10
5.8737
20
-4.88898
11
5.8363
21
-4.88898
0
LINE
8
BLACK
6
CONTINUOUS
10
5.8363
20
-4.88898
11
5.83253
21
-4.88823
0
LINE
8
BLACK
6
CONTINUOUS
10
5.83253
20
-4.88823
11
5.82934
21
-4.88609
0
LINE
8
BLACK
6
CONTINUOUS
10
5.82934
20
-4.88609
11
5.82721
21
-4.8829
0
LINE
8
BLACK
6
CONTINUOUS
10
5.82721
20
-4.8829
11
5.82646
21
-4.87913
0
LINE
8
BLACK
6
CONTINUOUS
10
5.82646
20
-4.87913
11
5.82646
21
-4.85256
0
LINE
8
BLACK
6
CONTINUOUS
10
5.82646
20
-4.85256
11
5.82721
21
-4.84879
0
LINE
8
BLACK
6
CONTINUOUS
10
5.82721
20
-4.84879
11
5.82934
21
-4.8456
0
LINE
8
BLACK
6
CONTINUOUS
10
5.82934
20
-4.8456
11
5.83253
21
-4.84347
0
LINE
8
BLACK
6
CONTINUOUS
10
5.83253
20
-4.84347
11
5.8363
21
-4.84272
0
LINE
8
BLACK
6
CONTINUOUS
10
5.8363
20
-4.84272
11
5.8737
21
-4.84272
0
LINE
8
BLACK
6
CONTINUOUS
10
5.8737
20
-4.84272
11
5.87747
21
-4.84347
0
LINE
8
BLACK
6
CONTINUOUS
10
5.23692
20
-4.76819
11
5.24011
21
-4.77032
0
LINE
8
BLACK
6
CONTINUOUS
10
5.24011
20
-4.77032
11
5.24224
21
-4.77352
0
LINE
8
BLACK
6
CONTINUOUS
10
5.24224
20
-4.77352
11
5.24299
21
-4.77728
0
LINE
8
BLACK
6
CONTINUOUS
10
5.24299
20
-4.77728
11
5.24299
21
-4.81272
0
LINE
8
BLACK
6
CONTINUOUS
10
5.24299
20
-4.81272
11
5.24224
21
-4.81648
0
LINE
8
BLACK
6
CONTINUOUS
10
5.24224
20
-4.81648
11
5.24011
21
-4.81968
0
LINE
8
BLACK
6
CONTINUOUS
10
5.24011
20
-4.81968
11
5.23692
21
-4.82181
0
LINE
8
BLACK
6
CONTINUOUS
10
5.23692
20
-4.82181
11
5.23315
21
-4.82256
0
LINE
8
BLACK
6
CONTINUOUS
10
5.23315
20
-4.82256
11
5.20559
21
-4.82256
0
LINE
8
BLACK
6
CONTINUOUS
10
5.20559
20
-4.82256
11
5.20182
21
-4.82181
0
LINE
8
BLACK
6
CONTINUOUS
10
5.20182
20
-4.82181
11
5.19863
21
-4.81968
0
LINE
8
BLACK
6
CONTINUOUS
10
5.19863
20
-4.81968
11
5.1965
21
-4.81648
0
LINE
8
BLACK
6
CONTINUOUS
10
5.1965
20
-4.81648
11
5.19575
21
-4.81272
0
LINE
8
BLACK
6
CONTINUOUS
10
5.19575
20
-4.81272
11
5.19575
21
-4.77728
0
LINE
8
BLACK
6
CONTINUOUS
10
5.19575
20
-4.77728
11
5.1965
21
-4.77352
0
LINE
8
BLACK
6
CONTINUOUS
10
5.1965
20
-4.77352
11
5.19863
21
-4.77032
0
LINE
8
BLACK
6
CONTINUOUS
10
5.19863
20
-4.77032
11
5.20182
21
-4.76819
0
LINE
8
BLACK
6
CONTINUOUS
10
5.20182
20
-4.76819
11
5.20559
21
-4.76744
0
LINE
8
BLACK
6
CONTINUOUS
10
5.20559
20
-4.76744
11
5.23315
21
-4.76744
0
LINE
8
BLACK
6
CONTINUOUS
10
5.23315
20
-4.76744
11
5.23692
21
-4.76819
0
LINE
8
BLACK
6
CONTINUOUS
10
5.15818
20
-4.76819
11
5.16137
21
-4.77032
0
LINE
8
BLACK
6
CONTINUOUS
10
5.16137
20
-4.77032
11
5.1635
21
-4.77352
0
LINE
8
BLACK
6
CONTINUOUS
10
5.1635
20
-4.77352
11
5.16425
21
-4.77728
0
LINE
8
BLACK
6
CONTINUOUS
10
5.16425
20
-4.77728
11
5.16425
21
-4.81272
0
LINE
8
BLACK
6
CONTINUOUS
10
5.16425
20
-4.81272
11
5.1635
21
-4.81648
0
LINE
8
BLACK
6
CONTINUOUS
10
5.1635
20
-4.81648
11
5.16137
21
-4.81968
0
LINE
8
BLACK
6
CONTINUOUS
10
5.16137
20
-4.81968
11
5.15818
21
-4.82181
0
LINE
8
BLACK
6
CONTINUOUS
10
5.15818
20
-4.82181
11
5.15441
21
-4.82256
0
LINE
8
BLACK
6
CONTINUOUS
10
5.15441
20
-4.82256
11
5.12685
21
-4.82256
0
LINE
8
BLACK
6
CONTINUOUS
10
5.12685
20
-4.82256
11
5.12308
21
-4.82181
0
LINE
8
BLACK
6
CONTINUOUS
10
5.12308
20
-4.82181
11
5.11989
21
-4.81968
0
LINE
8
BLACK
6
CONTINUOUS
10
5.11989
20
-4.81968
11
5.11776
21
-4.81648
0
LINE
8
BLACK
6
CONTINUOUS
10
5.11776
20
-4.81648
11
5.11701
21
-4.81272
0
LINE
8
BLACK
6
CONTINUOUS
10
5.11701
20
-4.81272
11
5.11701
21
-4.77728
0
LINE
8
BLACK
6
CONTINUOUS
10
5.11701
20
-4.77728
11
5.11776
21
-4.77352
0
LINE
8
BLACK
6
CONTINUOUS
10
5.11776
20
-4.77352
11
5.11989
21
-4.77032
0
LINE
8
BLACK
6
CONTINUOUS
10
5.11989
20
-4.77032
11
5.12308
21
-4.76819
0
LINE
8
BLACK
6
CONTINUOUS
10
5.12308
20
-4.76819
11
5.12685
21
-4.76744
0
LINE
8
BLACK
6
CONTINUOUS
10
5.12685
20
-4.76744
11
5.15441
21
-4.76744
0
LINE
8
BLACK
6
CONTINUOUS
10
5.15441
20
-4.76744
11
5.15818
21
-4.76819
0
LINE
8
BLACK
6
CONTINUOUS
10
5.87747
20
-4.76177
11
5.88066
21
-4.76391
0
LINE
8
BLACK
6
CONTINUOUS
10
5.88066
20
-4.76391
11
5.88279
21
-4.7671
0
LINE
8
BLACK
6
CONTINUOUS
10
5.88279
20
-4.7671
11
5.88354
21
-4.77087
0
LINE
8
BLACK
6
CONTINUOUS
10
5.88354
20
-4.77087
11
5.88354
21
-4.79744
0
LINE
8
BLACK
6
CONTINUOUS
10
5.88354
20
-4.79744
11
5.88279
21
-4.80121
0
LINE
8
BLACK
6
CONTINUOUS
10
5.88279
20
-4.80121
11
5.88066
21
-4.8044
0
LINE
8
BLACK
6
CONTINUOUS
10
5.88066
20
-4.8044
11
5.87747
21
-4.80653
0
LINE
8
BLACK
6
CONTINUOUS
10
5.87747
20
-4.80653
11
5.8737
21
-4.80728
0
LINE
8
BLACK
6
CONTINUOUS
10
5.8737
20
-4.80728
11
5.8363
21
-4.80728
0
LINE
8
BLACK
6
CONTINUOUS
10
5.8363
20
-4.80728
11
5.83253
21
-4.80653
0
LINE
8
BLACK
6
CONTINUOUS
10
5.83253
20
-4.80653
11
5.82934
21
-4.8044
0
LINE
8
BLACK
6
CONTINUOUS
10
5.82934
20
-4.8044
11
5.82721
21
-4.80121
0
LINE
8
BLACK
6
CONTINUOUS
10
5.82721
20
-4.80121
11
5.82646
21
-4.79744
0
LINE
8
BLACK
6
CONTINUOUS
10
5.82646
20
-4.79744
11
5.82646
21
-4.77087
0
LINE
8
BLACK
6
CONTINUOUS
10
5.82646
20
-4.77087
11
5.82721
21
-4.7671
0
LINE
8
BLACK
6
CONTINUOUS
10
5.82721
20
-4.7671
11
5.82934
21
-4.76391
0
LINE
8
BLACK
6
CONTINUOUS
10
5.82934
20
-4.76391
11
5.83253
21
-4.76177
0
LINE
8
BLACK
6
CONTINUOUS
10
5.83253
20
-4.76177
11
5.8363
21
-4.76102
0
LINE
8
BLACK
6
CONTINUOUS
10
5.8363
20
-4.76102
11
5.8737
21
-4.76102
0
LINE
8
BLACK
6
CONTINUOUS
10
5.8737
20
-4.76102
11
5.87747
21
-4.76177
0
LINE
8
BLACK
6
CONTINUOUS
10
5.78148
20
-4.74087
11
5.78468
21
-4.743
0
LINE
8
BLACK
6
CONTINUOUS
10
5.78468
20
-4.743
11
5.78681
21
-4.74619
0
LINE
8
BLACK
6
CONTINUOUS
10
5.78681
20
-4.74619
11
5.78756
21
-4.74996
0
LINE
8
BLACK
6
CONTINUOUS
10
5.78756
20
-4.74996
11
5.78756
21
-4.77752
0
LINE
8
BLACK
6
CONTINUOUS
10
5.78756
20
-4.77752
11
5.78681
21
-4.78129
0
LINE
8
BLACK
6
CONTINUOUS
10
5.78681
20
-4.78129
11
5.78468
21
-4.78448
0
LINE
8
BLACK
6
CONTINUOUS
10
5.78468
20
-4.78448
11
5.78148
21
-4.78661
0
LINE
8
BLACK
6
CONTINUOUS
10
5.78148
20
-4.78661
11
5.77772
21
-4.78736
0
LINE
8
BLACK
6
CONTINUOUS
10
5.77772
20
-4.78736
11
5.74228
21
-4.78736
0
LINE
8
BLACK
6
CONTINUOUS
10
5.74228
20
-4.78736
11
5.73852
21
-4.78661
0
LINE
8
BLACK
6
CONTINUOUS
10
5.73852
20
-4.78661
11
5.73532
21
-4.78448
0
LINE
8
BLACK
6
CONTINUOUS
10
5.73532
20
-4.78448
11
5.73319
21
-4.78129
0
LINE
8
BLACK
6
CONTINUOUS
10
5.73319
20
-4.78129
11
5.73244
21
-4.77752
0
LINE
8
BLACK
6
CONTINUOUS
10
5.73244
20
-4.77752
11
5.73244
21
-4.74996
0
LINE
8
BLACK
6
CONTINUOUS
10
5.73244
20
-4.74996
11
5.73319
21
-4.74619
0
LINE
8
BLACK
6
CONTINUOUS
10
5.73319
20
-4.74619
11
5.73532
21
-4.743
0
LINE
8
BLACK
6
CONTINUOUS
10
5.73532
20
-4.743
11
5.73852
21
-4.74087
0
LINE
8
BLACK
6
CONTINUOUS
10
5.73852
20
-4.74087
11
5.74228
21
-4.74012
0
LINE
8
BLACK
6
CONTINUOUS
10
5.74228
20
-4.74012
11
5.77772
21
-4.74012
0
LINE
8
BLACK
6
CONTINUOUS
10
5.77772
20
-4.74012
11
5.78148
21
-4.74087
0
LINE
8
BLACK
6
CONTINUOUS
10
5.78148
20
-4.66213
11
5.78468
21
-4.66426
0
LINE
8
BLACK
6
CONTINUOUS
10
5.78468
20
-4.66426
11
5.78681
21
-4.66745
0
LINE
8
BLACK
6
CONTINUOUS
10
5.78681
20
-4.66745
11
5.78756
21
-4.67122
0
LINE
8
BLACK
6
CONTINUOUS
10
5.78756
20
-4.67122
11
5.78756
21
-4.69878
0
LINE
8
BLACK
6
CONTINUOUS
10
5.78756
20
-4.69878
11
5.78681
21
-4.70255
0
LINE
8
BLACK
6
CONTINUOUS
10
5.78681
20
-4.70255
11
5.78468
21
-4.70574
0
LINE
8
BLACK
6
CONTINUOUS
10
5.78468
20
-4.70574
11
5.78148
21
-4.70787
0
LINE
8
BLACK
6
CONTINUOUS
10
5.78148
20
-4.70787
11
5.77772
21
-4.70862
0
LINE
8
BLACK
6
CONTINUOUS
10
5.77772
20
-4.70862
11
5.74228
21
-4.70862
0
LINE
8
BLACK
6
CONTINUOUS
10
5.74228
20
-4.70862
11
5.73852
21
-4.70787
0
LINE
8
BLACK
6
CONTINUOUS
10
5.73852
20
-4.70787
11
5.73532
21
-4.70574
0
LINE
8
BLACK
6
CONTINUOUS
10
5.73532
20
-4.70574
11
5.73319
21
-4.70255
0
LINE
8
BLACK
6
CONTINUOUS
10
5.73319
20
-4.70255
11
5.73244
21
-4.69878
0
LINE
8
BLACK
6
CONTINUOUS
10
5.73244
20
-4.69878
11
5.73244
21
-4.67122
0
LINE
8
BLACK
6
CONTINUOUS
10
5.73244
20
-4.67122
11
5.73319
21
-4.66745
0
LINE
8
BLACK
6
CONTINUOUS
10
5.73319
20
-4.66745
11
5.73532
21
-4.66426
0
LINE
8
BLACK
6
CONTINUOUS
10
5.73532
20
-4.66426
11
5.73852
21
-4.66213
0
LINE
8
BLACK
6
CONTINUOUS
10
5.73852
20
-4.66213
11
5.74228
21
-4.66138
0
LINE
8
BLACK
6
CONTINUOUS
10
5.74228
20
-4.66138
11
5.77772
21
-4.66138
0
LINE
8
BLACK
6
CONTINUOUS
10
5.77772
20
-4.66138
11
5.78148
21
-4.66213
0
LINE
8
BLACK
6
CONTINUOUS
10
5.2429
20
-4.65221
11
5.24609
21
-4.65434
0
LINE
8
BLACK
6
CONTINUOUS
10
5.24609
20
-4.65434
11
5.24823
21
-4.65753
0
LINE
8
BLACK
6
CONTINUOUS
10
5.24823
20
-4.65753
11
5.24898
21
-4.6613
0
LINE
8
BLACK
6
CONTINUOUS
10
5.24898
20
-4.6613
11
5.24898
21
-4.6987
0
LINE
8
BLACK
6
CONTINUOUS
10
5.24898
20
-4.6987
11
5.24823
21
-4.70247
0
LINE
8
BLACK
6
CONTINUOUS
10
5.24823
20
-4.70247
11
5.24609
21
-4.70566
0
LINE
8
BLACK
6
CONTINUOUS
10
5.24609
20
-4.70566
11
5.2429
21
-4.70779
0
LINE
8
BLACK
6
CONTINUOUS
10
5.2429
20
-4.70779
11
5.23913
21
-4.70854
0
LINE
8
BLACK
6
CONTINUOUS
10
5.23913
20
-4.70854
11
5.21256
21
-4.70854
0
LINE
8
BLACK
6
CONTINUOUS
10
5.21256
20
-4.70854
11
5.20879
21
-4.70779
0
LINE
8
BLACK
6
CONTINUOUS
10
5.20879
20
-4.70779
11
5.2056
21
-4.70566
0
LINE
8
BLACK
6
CONTINUOUS
10
5.2056
20
-4.70566
11
5.20347
21
-4.70247
0
LINE
8
BLACK
6
CONTINUOUS
10
5.20347
20
-4.70247
11
5.20272
21
-4.6987
0
LINE
8
BLACK
6
CONTINUOUS
10
5.20272
20
-4.6987
11
5.20272
21
-4.6613
0
LINE
8
BLACK
6
CONTINUOUS
10
5.20272
20
-4.6613
11
5.20347
21
-4.65753
0
LINE
8
BLACK
6
CONTINUOUS
10
5.20347
20
-4.65753
11
5.2056
21
-4.65434
0
LINE
8
BLACK
6
CONTINUOUS
10
5.2056
20
-4.65434
11
5.20879
21
-4.65221
0
LINE
8
BLACK
6
CONTINUOUS
10
5.20879
20
-4.65221
11
5.21256
21
-4.65146
0
LINE
8
BLACK
6
CONTINUOUS
10
5.21256
20
-4.65146
11
5.23913
21
-4.65146
0
LINE
8
BLACK
6
CONTINUOUS
10
5.23913
20
-4.65146
11
5.2429
21
-4.65221
0
LINE
8
BLACK
6
CONTINUOUS
10
5.16121
20
-4.65221
11
5.1644
21
-4.65434
0
LINE
8
BLACK
6
CONTINUOUS
10
5.1644
20
-4.65434
11
5.16653
21
-4.65753
0
LINE
8
BLACK
6
CONTINUOUS
10
5.16653
20
-4.65753
11
5.16728
21
-4.6613
0
LINE
8
BLACK
6
CONTINUOUS
10
5.16728
20
-4.6613
11
5.16728
21
-4.6987
0
LINE
8
BLACK
6
CONTINUOUS
10
5.16728
20
-4.6987
11
5.16653
21
-4.70247
0
LINE
8
BLACK
6
CONTINUOUS
10
5.16653
20
-4.70247
11
5.1644
21
-4.70566
0
LINE
8
BLACK
6
CONTINUOUS
10
5.1644
20
-4.70566
11
5.16121
21
-4.70779
0
LINE
8
BLACK
6
CONTINUOUS
10
5.16121
20
-4.70779
11
5.15744
21
-4.70854
0
LINE
8
BLACK
6
CONTINUOUS
10
5.15744
20
-4.70854
11
5.13087
21
-4.70854
0
LINE
8
BLACK
6
CONTINUOUS
10
5.13087
20
-4.70854
11
5.1271
21
-4.70779
0
LINE
8
BLACK
6
CONTINUOUS
10
5.1271
20
-4.70779
11
5.12391
21
-4.70566
0
LINE
8
BLACK
6
CONTINUOUS
10
5.12391
20
-4.70566
11
5.12177
21
-4.70247
0
LINE
8
BLACK
6
CONTINUOUS
10
5.12177
20
-4.70247
11
5.12102
21
-4.6987
0
LINE
8
BLACK
6
CONTINUOUS
10
5.12102
20
-4.6987
11
5.12102
21
-4.6613
0
LINE
8
BLACK
6
CONTINUOUS
10
5.12102
20
-4.6613
11
5.12177
21
-4.65753
0
LINE
8
BLACK
6
CONTINUOUS
10
5.12177
20
-4.65753
11
5.12391
21
-4.65434
0
LINE
8
BLACK
6
CONTINUOUS
10
5.12391
20
-4.65434
11
5.1271
21
-4.65221
0
LINE
8
BLACK
6
CONTINUOUS
10
5.1271
20
-4.65221
11
5.13087
21
-4.65146
0
LINE
8
BLACK
6
CONTINUOUS
10
5.13087
20
-4.65146
11
5.15744
21
-4.65146
0
LINE
8
BLACK
6
CONTINUOUS
10
5.15744
20
-4.65146
11
5.16121
21
-4.65221
0
LINE
8
BLACK
6
CONTINUOUS
10
5.88247
20
-4.64347
11
5.88566
21
-4.6456
0
LINE
8
BLACK
6
CONTINUOUS
10
5.88566
20
-4.6456
11
5.88779
21
-4.64879
0
LINE
8
BLACK
6
CONTINUOUS
10
5.88779
20
-4.64879
11
5.88854
21
-4.65256
0
LINE
8
BLACK
6
CONTINUOUS
10
5.88854
20
-4.65256
11
5.88854
21
-4.67913
0
LINE
8
BLACK
6
CONTINUOUS
10
5.88854
20
-4.67913
11
5.88779
21
-4.6829
0
LINE
8
BLACK
6
CONTINUOUS
10
5.88779
20
-4.6829
11
5.88566
21
-4.68609
0
LINE
8
BLACK
6
CONTINUOUS
10
5.88566
20
-4.68609
11
5.88247
21
-4.68823
0
LINE
8
BLACK
6
CONTINUOUS
10
5.88247
20
-4.68823
11
5.8787
21
-4.68898
0
LINE
8
BLACK
6
CONTINUOUS
10
5.8787
20
-4.68898
11
5.8413
21
-4.68898
0
LINE
8
BLACK
6
CONTINUOUS
10
5.8413
20
-4.68898
11
5.83753
21
-4.68823
0
LINE
8
BLACK
6
CONTINUOUS
10
5.83753
20
-4.68823
11
5.83434
21
-4.68609
0
LINE
8
BLACK
6
CONTINUOUS
10
5.83434
20
-4.68609
11
5.83221
21
-4.6829
0
LINE
8
BLACK
6
CONTINUOUS
10
5.83221
20
-4.6829
11
5.83146
21
-4.67913
0
LINE
8
BLACK
6
CONTINUOUS
10
5.83146
20
-4.67913
11
5.83146
21
-4.65256
0
LINE
8
BLACK
6
CONTINUOUS
10
5.83146
20
-4.65256
11
5.83221
21
-4.64879
0
LINE
8
BLACK
6
CONTINUOUS
10
5.83221
20
-4.64879
11
5.83434
21
-4.6456
0
LINE
8
BLACK
6
CONTINUOUS
10
5.83434
20
-4.6456
11
5.83753
21
-4.64347
0
LINE
8
BLACK
6
CONTINUOUS
10
5.83753
20
-4.64347
11
5.8413
21
-4.64272
0
LINE
8
BLACK
6
CONTINUOUS
10
5.8413
20
-4.64272
11
5.8787
21
-4.64272
0
LINE
8
BLACK
6
CONTINUOUS
10
5.8787
20
-4.64272
11
5.88247
21
-4.64347
0
LINE
8
BLACK
6
CONTINUOUS
10
5.88247
20
-4.56177
11
5.88566
21
-4.56391
0
LINE
8
BLACK
6
CONTINUOUS
10
5.88566
20
-4.56391
11
5.88779
21
-4.5671
0
LINE
8
BLACK
6
CONTINUOUS
10
5.88779
20
-4.5671
11
5.88854
21
-4.57087
0
LINE
8
BLACK
6
CONTINUOUS
10
5.88854
20
-4.57087
11
5.88854
21
-4.59744
0
LINE
8
BLACK
6
CONTINUOUS
10
5.88854
20
-4.59744
11
5.88779
21
-4.60121
0
LINE
8
BLACK
6
CONTINUOUS
10
5.88779
20
-4.60121
11
5.88566
21
-4.6044
0
LINE
8
BLACK
6
CONTINUOUS
10
5.88566
20
-4.6044
11
5.88247
21
-4.60653
0
LINE
8
BLACK
6
CONTINUOUS
10
5.88247
20
-4.60653
11
5.8787
21
-4.60728
0
LINE
8
BLACK
6
CONTINUOUS
10
5.8787
20
-4.60728
11
5.8413
21
-4.60728
0
LINE
8
BLACK
6
CONTINUOUS
10
5.8413
20
-4.60728
11
5.83753
21
-4.60653
0
LINE
8
BLACK
6
CONTINUOUS
10
5.83753
20
-4.60653
11
5.83434
21
-4.6044
0
LINE
8
BLACK
6
CONTINUOUS
10
5.83434
20
-4.6044
11
5.83221
21
-4.60121
0
LINE
8
BLACK
6
CONTINUOUS
10
5.83221
20
-4.60121
11
5.83146
21
-4.59744
0
LINE
8
BLACK
6
CONTINUOUS
10
5.83146
20
-4.59744
11
5.83146
21
-4.57087
0
LINE
8
BLACK
6
CONTINUOUS
10
5.83146
20
-4.57087
11
5.83221
21
-4.5671
0
LINE
8
BLACK
6
CONTINUOUS
10
5.83221
20
-4.5671
11
5.83434
21
-4.56391
0
LINE
8
BLACK
6
CONTINUOUS
10
5.83434
20
-4.56391
11
5.83753
21
-4.56177
0
LINE
8
BLACK
6
CONTINUOUS
10
5.83753
20
-4.56177
11
5.8413
21
-4.56102
0
LINE
8
BLACK
6
CONTINUOUS
10
5.8413
20
-4.56102
11
5.8787
21
-4.56102
0
LINE
8
BLACK
6
CONTINUOUS
10
5.8787
20
-4.56102
11
5.88247
21
-4.56177
0
LINE
8
BLACK
6
CONTINUOUS
10
5.62755
20
-4.51036
11
5.63074
21
-4.51249
0
LINE
8
BLACK
6
CONTINUOUS
10
5.63074
20
-4.51249
11
5.63287
21
-4.51568
0
LINE
8
BLACK
6
CONTINUOUS
10
5.63287
20
-4.51568
11
5.63362
21
-4.51945
0
LINE
8
BLACK
6
CONTINUOUS
10
5.63362
20
-4.51945
11
5.63362
21
-4.5411
0
LINE
8
BLACK
6
CONTINUOUS
10
5.63362
20
-4.5411
11
5.63287
21
-4.54487
0
LINE
8
BLACK
6
CONTINUOUS
10
5.63287
20
-4.54487
11
5.63074
21
-4.54806
0
LINE
8
BLACK
6
CONTINUOUS
10
5.63074
20
-4.54806
11
5.62755
21
-4.5502
0
LINE
8
BLACK
6
CONTINUOUS
10
5.62755
20
-4.5502
11
5.62378
21
-4.55094
0
LINE
8
BLACK
6
CONTINUOUS
10
5.62378
20
-4.55094
11
5.59622
21
-4.55094
0
LINE
8
BLACK
6
CONTINUOUS
10
5.59622
20
-4.55094
11
5.59245
21
-4.5502
0
LINE
8
BLACK
6
CONTINUOUS
10
5.59245
20
-4.5502
11
5.58926
21
-4.54806
0
LINE
8
BLACK
6
CONTINUOUS
10
5.58926
20
-4.54806
11
5.58713
21
-4.54487
0
LINE
8
BLACK
6
CONTINUOUS
10
5.58713
20
-4.54487
11
5.58638
21
-4.5411
0
LINE
8
BLACK
6
CONTINUOUS
10
5.58638
20
-4.5411
11
5.58638
21
-4.51945
0
LINE
8
BLACK
6
CONTINUOUS
10
5.58638
20
-4.51945
11
5.58713
21
-4.51568
0
LINE
8
BLACK
6
CONTINUOUS
10
5.58713
20
-4.51568
11
5.58926
21
-4.51249
0
LINE
8
BLACK
6
CONTINUOUS
10
5.58926
20
-4.51249
11
5.59245
21
-4.51036
0
LINE
8
BLACK
6
CONTINUOUS
10
5.59245
20
-4.51036
11
5.59622
21
-4.50961
0
LINE
8
BLACK
6
CONTINUOUS
10
5.59622
20
-4.50961
11
5.62378
21
-4.50961
0
LINE
8
BLACK
6
CONTINUOUS
10
5.62378
20
-4.50961
11
5.62755
21
-4.51036
0
LINE
8
BLACK
6
CONTINUOUS
10
5.06063
20
-4.51177
11
5.00945
21
-4.51177
0
LINE
8
BLACK
6
CONTINUOUS
10
5.00945
20
-4.51177
11
5.00945
21
-4.47634
0
LINE
8
BLACK
6
CONTINUOUS
10
5.00945
20
-4.47634
11
5.06063
21
-4.47634
0
LINE
8
BLACK
6
CONTINUOUS
10
5.06063
20
-4.47634
11
5.06063
21
-4.51177
0
LINE
8
BLACK
6
CONTINUOUS
10
5.19055
20
-4.46911
11
5.06752
21
-4.46911
0
LINE
8
BLACK
6
CONTINUOUS
10
5.06752
20
-4.46911
11
5.06752
21
-4.45272
0
LINE
8
BLACK
6
CONTINUOUS
10
5.06752
20
-4.45272
11
5.00945
21
-4.45272
0
LINE
8
BLACK
6
CONTINUOUS
10
5.00945
20
-4.45272
11
5.00945
21
-4.41728
0
LINE
8
BLACK
6
CONTINUOUS
10
5.00945
20
-4.41728
11
5.06752
21
-4.41728
0
LINE
8
BLACK
6
CONTINUOUS
10
5.06752
20
-4.41728
11
5.06752
21
-4.40089
0
LINE
8
BLACK
6
CONTINUOUS
10
5.06752
20
-4.40089
11
5.19055
21
-4.40089
0
LINE
8
BLACK
6
CONTINUOUS
10
5.19055
20
-4.40089
11
5.19055
21
-4.46911
0
LINE
8
BLACK
6
CONTINUOUS
10
5.33247
20
-4.41847
11
5.33566
21
-4.4206
0
LINE
8
BLACK
6
CONTINUOUS
10
5.33566
20
-4.4206
11
5.33779
21
-4.42379
0
LINE
8
BLACK
6
CONTINUOUS
10
5.33779
20
-4.42379
11
5.33854
21
-4.42756
0
LINE
8
BLACK
6
CONTINUOUS
10
5.33854
20
-4.42756
11
5.33854
21
-4.45413
0
LINE
8
BLACK
6
CONTINUOUS
10
5.33854
20
-4.45413
11
5.33779
21
-4.4579
0
LINE
8
BLACK
6
CONTINUOUS
10
5.33779
20
-4.4579
11
5.33566
21
-4.46109
0
LINE
8
BLACK
6
CONTINUOUS
10
5.33566
20
-4.46109
11
5.33247
21
-4.46323
0
LINE
8
BLACK
6
CONTINUOUS
10
5.33247
20
-4.46323
11
5.3287
21
-4.46398
0
LINE
8
BLACK
6
CONTINUOUS
10
5.3287
20
-4.46398
11
5.2913
21
-4.46398
0
LINE
8
BLACK
6
CONTINUOUS
10
5.2913
20
-4.46398
11
5.28753
21
-4.46323
0
LINE
8
BLACK
6
CONTINUOUS
10
5.28753
20
-4.46323
11
5.28434
21
-4.46109
0
LINE
8
BLACK
6
CONTINUOUS
10
5.28434
20
-4.46109
11
5.28221
21
-4.4579
0
LINE
8
BLACK
6
CONTINUOUS
10
5.28221
20
-4.4579
11
5.28146
21
-4.45413
0
LINE
8
BLACK
6
CONTINUOUS
10
5.28146
20
-4.45413
11
5.28146
21
-4.42756
0
LINE
8
BLACK
6
CONTINUOUS
10
5.28146
20
-4.42756
11
5.28221
21
-4.42379
0
LINE
8
BLACK
6
CONTINUOUS
10
5.28221
20
-4.42379
11
5.28434
21
-4.4206
0
LINE
8
BLACK
6
CONTINUOUS
10
5.28434
20
-4.4206
11
5.28753
21
-4.41847
0
LINE
8
BLACK
6
CONTINUOUS
10
5.28753
20
-4.41847
11
5.2913
21
-4.41772
0
LINE
8
BLACK
6
CONTINUOUS
10
5.2913
20
-4.41772
11
5.3287
21
-4.41772
0
LINE
8
BLACK
6
CONTINUOUS
10
5.3287
20
-4.41772
11
5.33247
21
-4.41847
0
LINE
8
BLACK
6
CONTINUOUS
10
5.80121
20
-4.40721
11
5.8044
21
-4.40934
0
LINE
8
BLACK
6
CONTINUOUS
10
5.8044
20
-4.40934
11
5.80653
21
-4.41253
0
LINE
8
BLACK
6
CONTINUOUS
10
5.80653
20
-4.41253
11
5.80728
21
-4.4163
0
LINE
8
BLACK
6
CONTINUOUS
10
5.80728
20
-4.4163
11
5.80728
21
-4.4537
0
LINE
8
BLACK
6
CONTINUOUS
10
5.80728
20
-4.4537
11
5.80653
21
-4.45747
0
LINE
8
BLACK
6
CONTINUOUS
10
5.80653
20
-4.45747
11
5.8044
21
-4.46066
0
LINE
8
BLACK
6
CONTINUOUS
10
5.8044
20
-4.46066
11
5.80121
21
-4.46279
0
LINE
8
BLACK
6
CONTINUOUS
10
5.80121
20
-4.46279
11
5.79744
21
-4.46354
0
LINE
8
BLACK
6
CONTINUOUS
10
5.79744
20
-4.46354
11
5.77087
21
-4.46354
0
LINE
8
BLACK
6
CONTINUOUS
10
5.77087
20
-4.46354
11
5.7671
21
-4.46279
0
LINE
8
BLACK
6
CONTINUOUS
10
5.7671
20
-4.46279
11
5.76391
21
-4.46066
0
LINE
8
BLACK
6
CONTINUOUS
10
5.76391
20
-4.46066
11
5.76177
21
-4.45747
0
LINE
8
BLACK
6
CONTINUOUS
10
5.76177
20
-4.45747
11
5.76102
21
-4.4537
0
LINE
8
BLACK
6
CONTINUOUS
10
5.76102
20
-4.4537
11
5.76102
21
-4.4163
0
LINE
8
BLACK
6
CONTINUOUS
10
5.76102
20
-4.4163
11
5.76177
21
-4.41253
0
LINE
8
BLACK
6
CONTINUOUS
10
5.76177
20
-4.41253
11
5.76391
21
-4.40934
0
LINE
8
BLACK
6
CONTINUOUS
10
5.76391
20
-4.40934
11
5.7671
21
-4.40721
0
LINE
8
BLACK
6
CONTINUOUS
10
5.7671
20
-4.40721
11
5.77087
21
-4.40646
0
LINE
8
BLACK
6
CONTINUOUS
10
5.77087
20
-4.40646
11
5.79744
21
-4.40646
0
LINE
8
BLACK
6
CONTINUOUS
10
5.79744
20
-4.40646
11
5.80121
21
-4.40721
0
LINE
8
BLACK
6
CONTINUOUS
10
5.8829
20
-4.40721
11
5.88609
21
-4.40934
0
LINE
8
BLACK
6
CONTINUOUS
10
5.88609
20
-4.40934
11
5.88823
21
-4.41253
0
LINE
8
BLACK
6
CONTINUOUS
10
5.88823
20
-4.41253
11
5.88898
21
-4.4163
0
LINE
8
BLACK
6
CONTINUOUS
10
5.88898
20
-4.4163
11
5.88898
21
-4.4537
0
LINE
8
BLACK
6
CONTINUOUS
10
5.88898
20
-4.4537
11
5.88823
21
-4.45747
0
LINE
8
BLACK
6
CONTINUOUS
10
5.88823
20
-4.45747
11
5.88609
21
-4.46066
0
LINE
8
BLACK
6
CONTINUOUS
10
5.88609
20
-4.46066
11
5.8829
21
-4.46279
0
LINE
8
BLACK
6
CONTINUOUS
10
5.8829
20
-4.46279
11
5.87913
21
-4.46354
0
LINE
8
BLACK
6
CONTINUOUS
10
5.87913
20
-4.46354
11
5.85256
21
-4.46354
0
LINE
8
BLACK
6
CONTINUOUS
10
5.85256
20
-4.46354
11
5.84879
21
-4.46279
0
LINE
8
BLACK
6
CONTINUOUS
10
5.84879
20
-4.46279
11
5.8456
21
-4.46066
0
LINE
8
BLACK
6
CONTINUOUS
10
5.8456
20
-4.46066
11
5.84347
21
-4.45747
0
LINE
8
BLACK
6
CONTINUOUS
10
5.84347
20
-4.45747
11
5.84272
21
-4.4537
0
LINE
8
BLACK
6
CONTINUOUS
10
5.84272
20
-4.4537
11
5.84272
21
-4.4163
0
LINE
8
BLACK
6
CONTINUOUS
10
5.84272
20
-4.4163
11
5.84347
21
-4.41253
0
LINE
8
BLACK
6
CONTINUOUS
10
5.84347
20
-4.41253
11
5.8456
21
-4.40934
0
LINE
8
BLACK
6
CONTINUOUS
10
5.8456
20
-4.40934
11
5.84879
21
-4.40721
0
LINE
8
BLACK
6
CONTINUOUS
10
5.84879
20
-4.40721
11
5.85256
21
-4.40646
0
LINE
8
BLACK
6
CONTINUOUS
10
5.85256
20
-4.40646
11
5.87913
21
-4.40646
0
LINE
8
BLACK
6
CONTINUOUS
10
5.87913
20
-4.40646
11
5.8829
21
-4.40721
0
LINE
8
BLACK
6
CONTINUOUS
10
5.62755
20
-4.4198
11
5.63074
21
-4.42194
0
LINE
8
BLACK
6
CONTINUOUS
10
5.63074
20
-4.42194
11
5.63287
21
-4.42513
0
LINE
8
BLACK
6
CONTINUOUS
10
5.63287
20
-4.42513
11
5.63362
21
-4.4289
0
LINE
8
BLACK
6
CONTINUOUS
10
5.63362
20
-4.4289
11
5.63362
21
-4.45055
0
LINE
8
BLACK
6
CONTINUOUS
10
5.63362
20
-4.45055
11
5.63287
21
-4.45432
0
LINE
8
BLACK
6
CONTINUOUS
10
5.63287
20
-4.45432
11
5.63074
21
-4.45751
0
LINE
8
BLACK
6
CONTINUOUS
10
5.63074
20
-4.45751
11
5.62755
21
-4.45964
0
LINE
8
BLACK
6
CONTINUOUS
10
5.62755
20
-4.45964
11
5.62378
21
-4.46039
0
LINE
8
BLACK
6
CONTINUOUS
10
5.62378
20
-4.46039
11
5.59622
21
-4.46039
0
LINE
8
BLACK
6
CONTINUOUS
10
5.59622
20
-4.46039
11
5.59245
21
-4.45964
0
LINE
8
BLACK
6
CONTINUOUS
10
5.59245
20
-4.45964
11
5.58926
21
-4.45751
0
LINE
8
BLACK
6
CONTINUOUS
10
5.58926
20
-4.45751
11
5.58713
21
-4.45432
0
LINE
8
BLACK
6
CONTINUOUS
10
5.58713
20
-4.45432
11
5.58638
21
-4.45055
0
LINE
8
BLACK
6
CONTINUOUS
10
5.58638
20
-4.45055
11
5.58638
21
-4.4289
0
LINE
8
BLACK
6
CONTINUOUS
10
5.58638
20
-4.4289
11
5.58713
21
-4.42513
0
LINE
8
BLACK
6
CONTINUOUS
10
5.58713
20
-4.42513
11
5.58926
21
-4.42194
0
LINE
8
BLACK
6
CONTINUOUS
10
5.58926
20
-4.42194
11
5.59245
21
-4.4198
0
LINE
8
BLACK
6
CONTINUOUS
10
5.59245
20
-4.4198
11
5.59622
21
-4.41906
0
LINE
8
BLACK
6
CONTINUOUS
10
5.59622
20
-4.41906
11
5.62378
21
-4.41906
0
LINE
8
BLACK
6
CONTINUOUS
10
5.62378
20
-4.41906
11
5.62755
21
-4.4198
0
LINE
8
BLACK
6
CONTINUOUS
10
5.97648
20
-4.38713
11
5.97968
21
-4.38926
0
LINE
8
BLACK
6
CONTINUOUS
10
5.97968
20
-4.38926
11
5.98181
21
-4.39245
0
LINE
8
BLACK
6
CONTINUOUS
10
5.98181
20
-4.39245
11
5.98256
21
-4.39622
0
LINE
8
BLACK
6
CONTINUOUS
10
5.98256
20
-4.39622
11
5.98256
21
-4.42378
0
LINE
8
BLACK
6
CONTINUOUS
10
5.98256
20
-4.42378
11
5.98181
21
-4.42755
0
LINE
8
BLACK
6
CONTINUOUS
10
5.98181
20
-4.42755
11
5.97968
21
-4.43074
0
LINE
8
BLACK
6
CONTINUOUS
10
5.97968
20
-4.43074
11
5.97648
21
-4.43287
0
LINE
8
BLACK
6
CONTINUOUS
10
5.97648
20
-4.43287
11
5.97272
21
-4.43362
0
LINE
8
BLACK
6
CONTINUOUS
10
5.97272
20
-4.43362
11
5.93728
21
-4.43362
0
LINE
8
BLACK
6
CONTINUOUS
10
5.93728
20
-4.43362
11
5.93352
21
-4.43287
0
LINE
8
BLACK
6
CONTINUOUS
10
5.93352
20
-4.43287
11
5.93032
21
-4.43074
0
LINE
8
BLACK
6
CONTINUOUS
10
5.93032
20
-4.43074
11
5.92819
21
-4.42755
0
LINE
8
BLACK
6
CONTINUOUS
10
5.92819
20
-4.42755
11
5.92744
21
-4.42378
0
LINE
8
BLACK
6
CONTINUOUS
10
5.92744
20
-4.42378
11
5.92744
21
-4.39622
0
LINE
8
BLACK
6
CONTINUOUS
10
5.92744
20
-4.39622
11
5.92819
21
-4.39245
0
LINE
8
BLACK
6
CONTINUOUS
10
5.92819
20
-4.39245
11
5.93032
21
-4.38926
0
LINE
8
BLACK
6
CONTINUOUS
10
5.93032
20
-4.38926
11
5.93352
21
-4.38713
0
LINE
8
BLACK
6
CONTINUOUS
10
5.93352
20
-4.38713
11
5.93728
21
-4.38638
0
LINE
8
BLACK
6
CONTINUOUS
10
5.93728
20
-4.38638
11
5.97272
21
-4.38638
0
LINE
8
BLACK
6
CONTINUOUS
10
5.97272
20
-4.38638
11
5.97648
21
-4.38713
0
LINE
8
BLACK
6
CONTINUOUS
10
5.06063
20
-4.39366
11
5.00945
21
-4.39366
0
LINE
8
BLACK
6
CONTINUOUS
10
5.00945
20
-4.39366
11
5.00945
21
-4.35823
0
LINE
8
BLACK
6
CONTINUOUS
10
5.00945
20
-4.35823
11
5.06063
21
-4.35823
0
LINE
8
BLACK
6
CONTINUOUS
10
5.06063
20
-4.35823
11
5.06063
21
-4.39366
0
LINE
8
BLACK
6
CONTINUOUS
10
5.33247
20
-4.33677
11
5.33566
21
-4.33891
0
LINE
8
BLACK
6
CONTINUOUS
10
5.33566
20
-4.33891
11
5.33779
21
-4.3421
0
LINE
8
BLACK
6
CONTINUOUS
10
5.33779
20
-4.3421
11
5.33854
21
-4.34587
0
LINE
8
BLACK
6
CONTINUOUS
10
5.33854
20
-4.34587
11
5.33854
21
-4.37244
0
LINE
8
BLACK
6
CONTINUOUS
10
5.33854
20
-4.37244
11
5.33779
21
-4.37621
0
LINE
8
BLACK
6
CONTINUOUS
10
5.33779
20
-4.37621
11
5.33566
21
-4.3794
0
LINE
8
BLACK
6
CONTINUOUS
10
5.33566
20
-4.3794
11
5.33247
21
-4.38153
0
LINE
8
BLACK
6
CONTINUOUS
10
5.33247
20
-4.38153
11
5.3287
21
-4.38228
0
LINE
8
BLACK
6
CONTINUOUS
10
5.3287
20
-4.38228
11
5.2913
21
-4.38228
0
LINE
8
BLACK
6
CONTINUOUS
10
5.2913
20
-4.38228
11
5.28753
21
-4.38153
0
LINE
8
BLACK
6
CONTINUOUS
10
5.28753
20
-4.38153
11
5.28434
21
-4.3794
0
LINE
8
BLACK
6
CONTINUOUS
10
5.28434
20
-4.3794
11
5.28221
21
-4.37621
0
LINE
8
BLACK
6
CONTINUOUS
10
5.28221
20
-4.37621
11
5.28146
21
-4.37244
0
LINE
8
BLACK
6
CONTINUOUS
10
5.28146
20
-4.37244
11
5.28146
21
-4.34587
0
LINE
8
BLACK
6
CONTINUOUS
10
5.28146
20
-4.34587
11
5.28221
21
-4.3421
0
LINE
8
BLACK
6
CONTINUOUS
10
5.28221
20
-4.3421
11
5.28434
21
-4.33891
0
LINE
8
BLACK
6
CONTINUOUS
10
5.28434
20
-4.33891
11
5.28753
21
-4.33677
0
LINE
8
BLACK
6
CONTINUOUS
10
5.28753
20
-4.33677
11
5.2913
21
-4.33602
0
LINE
8
BLACK
6
CONTINUOUS
10
5.2913
20
-4.33602
11
5.3287
21
-4.33602
0
LINE
8
BLACK
6
CONTINUOUS
10
5.3287
20
-4.33602
11
5.33247
21
-4.33677
0
LINE
8
BLACK
6
CONTINUOUS
10
5.97648
20
-4.30839
11
5.97968
21
-4.31052
0
LINE
8
BLACK
6
CONTINUOUS
10
5.97968
20
-4.31052
11
5.98181
21
-4.31371
0
LINE
8
BLACK
6
CONTINUOUS
10
5.98181
20
-4.31371
11
5.98256
21
-4.31748
0
LINE
8
BLACK
6
CONTINUOUS
10
5.98256
20
-4.31748
11
5.98256
21
-4.34504
0
LINE
8
BLACK
6
CONTINUOUS
10
5.98256
20
-4.34504
11
5.98181
21
-4.34881
0
LINE
8
BLACK
6
CONTINUOUS
10
5.98181
20
-4.34881
11
5.97968
21
-4.352
0
LINE
8
BLACK
6
CONTINUOUS
10
5.97968
20
-4.352
11
5.97648
21
-4.35413
0
LINE
8
BLACK
6
CONTINUOUS
10
5.97648
20
-4.35413
11
5.97272
21
-4.35488
0
LINE
8
BLACK
6
CONTINUOUS
10
5.97272
20
-4.35488
11
5.93728
21
-4.35488
0
LINE
8
BLACK
6
CONTINUOUS
10
5.93728
20
-4.35488
11
5.93352
21
-4.35413
0
LINE
8
BLACK
6
CONTINUOUS
10
5.93352
20
-4.35413
11
5.93032
21
-4.352
0
LINE
8
BLACK
6
CONTINUOUS
10
5.93032
20
-4.352
11
5.92819
21
-4.34881
0
LINE
8
BLACK
6
CONTINUOUS
10
5.92819
20
-4.34881
11
5.92744
21
-4.34504
0
LINE
8
BLACK
6
CONTINUOUS
10
5.92744
20
-4.34504
11
5.92744
21
-4.31748
0
LINE
8
BLACK
6
CONTINUOUS
10
5.92744
20
-4.31748
11
5.92819
21
-4.31371
0
LINE
8
BLACK
6
CONTINUOUS
10
5.92819
20
-4.31371
11
5.93032
21
-4.31052
0
LINE
8
BLACK
6
CONTINUOUS
10
5.93032
20
-4.31052
11
5.93352
21
-4.30839
0
LINE
8
BLACK
6
CONTINUOUS
10
5.93352
20
-4.30839
11
5.93728
21
-4.30764
0
LINE
8
BLACK
6
CONTINUOUS
10
5.93728
20
-4.30764
11
5.97272
21
-4.30764
0
LINE
8
BLACK
6
CONTINUOUS
10
5.97272
20
-4.30764
11
5.97648
21
-4.30839
0
LINE
8
BLACK
6
CONTINUOUS
10
5.04648
20
-4.0615
11
5.04968
21
-4.06363
0
LINE
8
BLACK
6
CONTINUOUS
10
5.04968
20
-4.06363
11
5.05181
21
-4.06682
0
LINE
8
BLACK
6
CONTINUOUS
10
5.05181
20
-4.06682
11
5.05256
21
-4.07059
0
LINE
8
BLACK
6
CONTINUOUS
10
5.05256
20
-4.07059
11
5.05256
21
-4.09815
0
LINE
8
BLACK
6
CONTINUOUS
10
5.05256
20
-4.09815
11
5.05181
21
-4.10192
0
LINE
8
BLACK
6
CONTINUOUS
10
5.05181
20
-4.10192
11
5.04968
21
-4.10511
0
LINE
8
BLACK
6
CONTINUOUS
10
5.04968
20
-4.10511
11
5.04648
21
-4.10724
0
LINE
8
BLACK
6
CONTINUOUS
10
5.04648
20
-4.10724
11
5.04272
21
-4.10799
0
LINE
8
BLACK
6
CONTINUOUS
10
5.04272
20
-4.10799
11
5.00728
21
-4.10799
0
LINE
8
BLACK
6
CONTINUOUS
10
5.00728
20
-4.10799
11
5.00352
21
-4.10724
0
LINE
8
BLACK
6
CONTINUOUS
10
5.00352
20
-4.10724
11
5.00032
21
-4.10511
0
LINE
8
BLACK
6
CONTINUOUS
10
5.00032
20
-4.10511
11
4.99819
21
-4.10192
0
LINE
8
BLACK
6
CONTINUOUS
10
4.99819
20
-4.10192
11
4.99744
21
-4.09815
0
LINE
8
BLACK
6
CONTINUOUS
10
4.99744
20
-4.09815
11
4.99744
21
-4.07059
0
LINE
8
BLACK
6
CONTINUOUS
10
4.99744
20
-4.07059
11
4.99819
21
-4.06682
0
LINE
8
BLACK
6
CONTINUOUS
10
4.99819
20
-4.06682
11
5.00032
21
-4.06363
0
LINE
8
BLACK
6
CONTINUOUS
10
5.00032
20
-4.06363
11
5.00352
21
-4.0615
0
LINE
8
BLACK
6
CONTINUOUS
10
5.00352
20
-4.0615
11
5.00728
21
-4.06075
0
LINE
8
BLACK
6
CONTINUOUS
10
5.00728
20
-4.06075
11
5.04272
21
-4.06075
0
LINE
8
BLACK
6
CONTINUOUS
10
5.04272
20
-4.06075
11
5.04648
21
-4.0615
0
LINE
8
BLACK
6
CONTINUOUS
10
5.5493
20
-4.06258
11
5.55058
21
-4.06344
0
LINE
8
BLACK
6
CONTINUOUS
10
5.55058
20
-4.06344
11
5.55143
21
-4.06471
0
LINE
8
BLACK
6
CONTINUOUS
10
5.55143
20
-4.06471
11
5.55173
21
-4.06622
0
LINE
8
BLACK
6
CONTINUOUS
10
5.55173
20
-4.06622
11
5.55173
21
-4.07409
0
LINE
8
BLACK
6
CONTINUOUS
10
5.55173
20
-4.07409
11
5.55143
21
-4.0756
0
LINE
8
BLACK
6
CONTINUOUS
10
5.55143
20
-4.0756
11
5.55058
21
-4.07688
0
LINE
8
BLACK
6
CONTINUOUS
10
5.55058
20
-4.07688
11
5.5493
21
-4.07773
0
LINE
8
BLACK
6
CONTINUOUS
10
5.5493
20
-4.07773
11
5.5478
21
-4.07803
0
LINE
8
BLACK
6
CONTINUOUS
10
5.5478
20
-4.07803
11
5.4976
21
-4.07803
0
LINE
8
BLACK
6
CONTINUOUS
10
5.4976
20
-4.07803
11
5.49609
21
-4.07773
0
LINE
8
BLACK
6
CONTINUOUS
10
5.49609
20
-4.07773
11
5.49481
21
-4.07688
0
LINE
8
BLACK
6
CONTINUOUS
10
5.49481
20
-4.07688
11
5.49396
21
-4.0756
0
LINE
8
BLACK
6
CONTINUOUS
10
5.49396
20
-4.0756
11
5.49366
21
-4.07409
0
LINE
8
BLACK
6
CONTINUOUS
10
5.49366
20
-4.07409
11
5.49366
21
-4.06622
0
LINE
8
BLACK
6
CONTINUOUS
10
5.49366
20
-4.06622
11
5.49396
21
-4.06471
0
LINE
8
BLACK
6
CONTINUOUS
10
5.49396
20
-4.06471
11
5.49481
21
-4.06344
0
LINE
8
BLACK
6
CONTINUOUS
10
5.49481
20
-4.06344
11
5.49609
21
-4.06258
0
LINE
8
BLACK
6
CONTINUOUS
10
5.49609
20
-4.06258
11
5.4976
21
-4.06228
0
LINE
8
BLACK
6
CONTINUOUS
10
5.4976
20
-4.06228
11
5.5478
21
-4.06228
0
LINE
8
BLACK
6
CONTINUOUS
10
5.5478
20
-4.06228
11
5.5493
21
-4.06258
0
LINE
8
BLACK
6
CONTINUOUS
10
5.32391
20
-4.06258
11
5.32519
21
-4.06344
0
LINE
8
BLACK
6
CONTINUOUS
10
5.32519
20
-4.06344
11
5.32604
21
-4.06471
0
LINE
8
BLACK
6
CONTINUOUS
10
5.32604
20
-4.06471
11
5.32634
21
-4.06622
0
LINE
8
BLACK
6
CONTINUOUS
10
5.32634
20
-4.06622
11
5.32634
21
-4.07409
0
LINE
8
BLACK
6
CONTINUOUS
10
5.32634
20
-4.07409
11
5.32604
21
-4.0756
0
LINE
8
BLACK
6
CONTINUOUS
10
5.32604
20
-4.0756
11
5.32519
21
-4.07688
0
LINE
8
BLACK
6
CONTINUOUS
10
5.32519
20
-4.07688
11
5.32391
21
-4.07773
0
LINE
8
BLACK
6
CONTINUOUS
10
5.32391
20
-4.07773
11
5.3224
21
-4.07803
0
LINE
8
BLACK
6
CONTINUOUS
10
5.3224
20
-4.07803
11
5.2722
21
-4.07803
0
LINE
8
BLACK
6
CONTINUOUS
10
5.2722
20
-4.07803
11
5.2707
21
-4.07773
0
LINE
8
BLACK
6
CONTINUOUS
10
5.2707
20
-4.07773
11
5.26942
21
-4.07688
0
LINE
8
BLACK
6
CONTINUOUS
10
5.26942
20
-4.07688
11
5.26857
21
-4.0756
0
LINE
8
BLACK
6
CONTINUOUS
10
5.26857
20
-4.0756
11
5.26827
21
-4.07409
0
LINE
8
BLACK
6
CONTINUOUS
10
5.26827
20
-4.07409
11
5.26827
21
-4.06622
0
LINE
8
BLACK
6
CONTINUOUS
10
5.26827
20
-4.06622
11
5.26857
21
-4.06471
0
LINE
8
BLACK
6
CONTINUOUS
10
5.26857
20
-4.06471
11
5.26942
21
-4.06344
0
LINE
8
BLACK
6
CONTINUOUS
10
5.26942
20
-4.06344
11
5.2707
21
-4.06258
0
LINE
8
BLACK
6
CONTINUOUS
10
5.2707
20
-4.06258
11
5.2722
21
-4.06228
0
LINE
8
BLACK
6
CONTINUOUS
10
5.2722
20
-4.06228
11
5.3224
21
-4.06228
0
LINE
8
BLACK
6
CONTINUOUS
10
5.3224
20
-4.06228
11
5.32391
21
-4.06258
0
LINE
8
BLACK
6
CONTINUOUS
10
5.5493
20
-4.03699
11
5.55058
21
-4.03785
0
LINE
8
BLACK
6
CONTINUOUS
10
5.55058
20
-4.03785
11
5.55143
21
-4.03912
0
LINE
8
BLACK
6
CONTINUOUS
10
5.55143
20
-4.03912
11
5.55173
21
-4.04063
0
LINE
8
BLACK
6
CONTINUOUS
10
5.55173
20
-4.04063
11
5.55173
21
-4.0485
0
LINE
8
BLACK
6
CONTINUOUS
10
5.55173
20
-4.0485
11
5.55143
21
-4.05001
0
LINE
8
BLACK
6
CONTINUOUS
10
5.55143
20
-4.05001
11
5.55058
21
-4.05129
0
LINE
8
BLACK
6
CONTINUOUS
10
5.55058
20
-4.05129
11
5.5493
21
-4.05214
0
LINE
8
BLACK
6
CONTINUOUS
10
5.5493
20
-4.05214
11
5.5478
21
-4.05244
0
LINE
8
BLACK
6
CONTINUOUS
10
5.5478
20
-4.05244
11
5.4976
21
-4.05244
0
LINE
8
BLACK
6
CONTINUOUS
10
5.4976
20
-4.05244
11
5.49609
21
-4.05214
0
LINE
8
BLACK
6
CONTINUOUS
10
5.49609
20
-4.05214
11
5.49481
21
-4.05129
0
LINE
8
BLACK
6
CONTINUOUS
10
5.49481
20
-4.05129
11
5.49396
21
-4.05001
0
LINE
8
BLACK
6
CONTINUOUS
10
5.49396
20
-4.05001
11
5.49366
21
-4.0485
0
LINE
8
BLACK
6
CONTINUOUS
10
5.49366
20
-4.0485
11
5.49366
21
-4.04063
0
LINE
8
BLACK
6
CONTINUOUS
10
5.49366
20
-4.04063
11
5.49396
21
-4.03912
0
LINE
8
BLACK
6
CONTINUOUS
10
5.49396
20
-4.03912
11
5.49481
21
-4.03785
0
LINE
8
BLACK
6
CONTINUOUS
10
5.49481
20
-4.03785
11
5.49609
21
-4.03699
0
LINE
8
BLACK
6
CONTINUOUS
10
5.49609
20
-4.03699
11
5.4976
21
-4.03669
0
LINE
8
BLACK
6
CONTINUOUS
10
5.4976
20
-4.03669
11
5.5478
21
-4.03669
0
LINE
8
BLACK
6
CONTINUOUS
10
5.5478
20
-4.03669
11
5.5493
21
-4.03699
0
LINE
8
BLACK
6
CONTINUOUS
10
5.32391
20
-4.03699
11
5.32519
21
-4.03785
0
LINE
8
BLACK
6
CONTINUOUS
10
5.32519
20
-4.03785
11
5.32604
21
-4.03912
0
LINE
8
BLACK
6
CONTINUOUS
10
5.32604
20
-4.03912
11
5.32634
21
-4.04063
0
LINE
8
BLACK
6
CONTINUOUS
10
5.32634
20
-4.04063
11
5.32634
21
-4.0485
0
LINE
8
BLACK
6
CONTINUOUS
10
5.32634
20
-4.0485
11
5.32604
21
-4.05001
0
LINE
8
BLACK
6
CONTINUOUS
10
5.32604
20
-4.05001
11
5.32519
21
-4.05129
0
LINE
8
BLACK
6
CONTINUOUS
10
5.32519
20
-4.05129
11
5.32391
21
-4.05214
0
LINE
8
BLACK
6
CONTINUOUS
10
5.32391
20
-4.05214
11
5.3224
21
-4.05244
0
LINE
8
BLACK
6
CONTINUOUS
10
5.3224
20
-4.05244
11
5.2722
21
-4.05244
0
LINE
8
BLACK
6
CONTINUOUS
10
5.2722
20
-4.05244
11
5.2707
21
-4.05214
0
LINE
8
BLACK
6
CONTINUOUS
10
5.2707
20
-4.05214
11
5.26942
21
-4.05129
0
LINE
8
BLACK
6
CONTINUOUS
10
5.26942
20
-4.05129
11
5.26857
21
-4.05001
0
LINE
8
BLACK
6
CONTINUOUS
10
5.26857
20
-4.05001
11
5.26827
21
-4.0485
0
LINE
8
BLACK
6
CONTINUOUS
10
5.26827
20
-4.0485
11
5.26827
21
-4.04063
0
LINE
8
BLACK
6
CONTINUOUS
10
5.26827
20
-4.04063
11
5.26857
21
-4.03912
0
LINE
8
BLACK
6
CONTINUOUS
10
5.26857
20
-4.03912
11
5.26942
21
-4.03785
0
LINE
8
BLACK
6
CONTINUOUS
10
5.26942
20
-4.03785
11
5.2707
21
-4.03699
0
LINE
8
BLACK
6
CONTINUOUS
10
5.2707
20
-4.03699
11
5.2722
21
-4.03669
0
LINE
8
BLACK
6
CONTINUOUS
10
5.2722
20
-4.03669
11
5.3224
21
-4.03669
0
LINE
8
BLACK
6
CONTINUOUS
10
5.3224
20
-4.03669
11
5.32391
21
-4.03699
0
LINE
8
BLACK
6
CONTINUOUS
10
5.04648
20
-3.98276
11
5.04968
21
-3.98489
0
LINE
8
BLACK
6
CONTINUOUS
10
5.04968
20
-3.98489
11
5.05181
21
-3.98808
0
LINE
8
BLACK
6
CONTINUOUS
10
5.05181
20
-3.98808
11
5.05256
21
-3.99185
0
LINE
8
BLACK
6
CONTINUOUS
10
5.05256
20
-3.99185
11
5.05256
21
-4.01941
0
LINE
8
BLACK
6
CONTINUOUS
10
5.05256
20
-4.01941
11
5.05181
21
-4.02318
0
LINE
8
BLACK
6
CONTINUOUS
10
5.05181
20
-4.02318
11
5.04968
21
-4.02637
0
LINE
8
BLACK
6
CONTINUOUS
10
5.04968
20
-4.02637
11
5.04648
21
-4.0285
0
LINE
8
BLACK
6
CONTINUOUS
10
5.04648
20
-4.0285
11
5.04272
21
-4.02925
0
LINE
8
BLACK
6
CONTINUOUS
10
5.04272
20
-4.02925
11
5.00728
21
-4.02925
0
LINE
8
BLACK
6
CONTINUOUS
10
5.00728
20
-4.02925
11
5.00352
21
-4.0285
0
LINE
8
BLACK
6
CONTINUOUS
10
5.00352
20
-4.0285
11
5.00032
21
-4.02637
0
LINE
8
BLACK
6
CONTINUOUS
10
5.00032
20
-4.02637
11
4.99819
21
-4.02318
0
LINE
8
BLACK
6
CONTINUOUS
10
4.99819
20
-4.02318
11
4.99744
21
-4.01941
0
LINE
8
BLACK
6
CONTINUOUS
10
4.99744
20
-4.01941
11
4.99744
21
-3.99185
0
LINE
8
BLACK
6
CONTINUOUS
10
4.99744
20
-3.99185
11
4.99819
21
-3.98808
0
LINE
8
BLACK
6
CONTINUOUS
10
4.99819
20
-3.98808
11
5.00032
21
-3.98489
0
LINE
8
BLACK
6
CONTINUOUS
10
5.00032
20
-3.98489
11
5.00352
21
-3.98276
0
LINE
8
BLACK
6
CONTINUOUS
10
5.00352
20
-3.98276
11
5.00728
21
-3.98201
0
LINE
8
BLACK
6
CONTINUOUS
10
5.00728
20
-3.98201
11
5.04272
21
-3.98201
0
LINE
8
BLACK
6
CONTINUOUS
10
5.04272
20
-3.98201
11
5.04648
21
-3.98276
0
LINE
8
BLACK
6
CONTINUOUS
10
5.5493
20
-4.0114
11
5.55058
21
-4.01226
0
LINE
8
BLACK
6
CONTINUOUS
10
5.55058
20
-4.01226
11
5.55143
21
-4.01353
0
LINE
8
BLACK
6
CONTINUOUS
10
5.55143
20
-4.01353
11
5.55173
21
-4.01504
0
LINE
8
BLACK
6
CONTINUOUS
10
5.55173
20
-4.01504
11
5.55173
21
-4.02291
0
LINE
8
BLACK
6
CONTINUOUS
10
5.55173
20
-4.02291
11
5.55143
21
-4.02442
0
LINE
8
BLACK
6
CONTINUOUS
10
5.55143
20
-4.02442
11
5.55058
21
-4.0257
0
LINE
8
BLACK
6
CONTINUOUS
10
5.55058
20
-4.0257
11
5.5493
21
-4.02655
0
LINE
8
BLACK
6
CONTINUOUS
10
5.5493
20
-4.02655
11
5.5478
21
-4.02685
0
LINE
8
BLACK
6
CONTINUOUS
10
5.5478
20
-4.02685
11
5.4976
21
-4.02685
0
LINE
8
BLACK
6
CONTINUOUS
10
5.4976
20
-4.02685
11
5.49609
21
-4.02655
0
LINE
8
BLACK
6
CONTINUOUS
10
5.49609
20
-4.02655
11
5.49481
21
-4.0257
0
LINE
8
BLACK
6
CONTINUOUS
10
5.49481
20
-4.0257
11
5.49396
21
-4.02442
0
LINE
8
BLACK
6
CONTINUOUS
10
5.49396
20
-4.02442
11
5.49366
21
-4.02291
0
LINE
8
BLACK
6
CONTINUOUS
10
5.49366
20
-4.02291
11
5.49366
21
-4.01504
0
LINE
8
BLACK
6
CONTINUOUS
10
5.49366
20
-4.01504
11
5.49396
21
-4.01353
0
LINE
8
BLACK
6
CONTINUOUS
10
5.49396
20
-4.01353
11
5.49481
21
-4.01226
0
LINE
8
BLACK
6
CONTINUOUS
10
5.49481
20
-4.01226
11
5.49609
21
-4.0114
0
LINE
8
BLACK
6
CONTINUOUS
10
5.49609
20
-4.0114
11
5.4976
21
-4.0111
0
LINE
8
BLACK
6
CONTINUOUS
10
5.4976
20
-4.0111
11
5.5478
21
-4.0111
0
LINE
8
BLACK
6
CONTINUOUS
10
5.5478
20
-4.0111
11
5.5493
21
-4.0114
0
LINE
8
BLACK
6
CONTINUOUS
10
5.32391
20
-4.0114
11
5.32519
21
-4.01226
0
LINE
8
BLACK
6
CONTINUOUS
10
5.32519
20
-4.01226
11
5.32604
21
-4.01353
0
LINE
8
BLACK
6
CONTINUOUS
10
5.32604
20
-4.01353
11
5.32634
21
-4.01504
0
LINE
8
BLACK
6
CONTINUOUS
10
5.32634
20
-4.01504
11
5.32634
21
-4.02291
0
LINE
8
BLACK
6
CONTINUOUS
10
5.32634
20
-4.02291
11
5.32604
21
-4.02442
0
LINE
8
BLACK
6
CONTINUOUS
10
5.32604
20
-4.02442
11
5.32519
21
-4.0257
0
LINE
8
BLACK
6
CONTINUOUS
10
5.32519
20
-4.0257
11
5.32391
21
-4.02655
0
LINE
8
BLACK
6
CONTINUOUS
10
5.32391
20
-4.02655
11
5.3224
21
-4.02685
0
LINE
8
BLACK
6
CONTINUOUS
10
5.3224
20
-4.02685
11
5.2722
21
-4.02685
0
LINE
8
BLACK
6
CONTINUOUS
10
5.2722
20
-4.02685
11
5.2707
21
-4.02655
0
LINE
8
BLACK
6
CONTINUOUS
10
5.2707
20
-4.02655
11
5.26942
21
-4.0257
0
LINE
8
BLACK
6
CONTINUOUS
10
5.26942
20
-4.0257
11
5.26857
21
-4.02442
0
LINE
8
BLACK
6
CONTINUOUS
10
5.26857
20
-4.02442
11
5.26827
21
-4.02291
0
LINE
8
BLACK
6
CONTINUOUS
10
5.26827
20
-4.02291
11
5.26827
21
-4.01504
0
LINE
8
BLACK
6
CONTINUOUS
10
5.26827
20
-4.01504
11
5.26857
21
-4.01353
0
LINE
8
BLACK
6
CONTINUOUS
10
5.26857
20
-4.01353
11
5.26942
21
-4.01226
0
LINE
8
BLACK
6
CONTINUOUS
10
5.26942
20
-4.01226
11
5.2707
21
-4.0114
0
LINE
8
BLACK
6
CONTINUOUS
10
5.2707
20
-4.0114
11
5.2722
21
-4.0111
0
LINE
8
BLACK
6
CONTINUOUS
10
5.2722
20
-4.0111
11
5.3224
21
-4.0111
0
LINE
8
BLACK
6
CONTINUOUS
10
5.3224
20
-4.0111
11
5.32391
21
-4.0114
0
LINE
8
BLACK
6
CONTINUOUS
10
5.5493
20
-3.98581
11
5.55058
21
-3.98666
0
LINE
8
BLACK
6
CONTINUOUS
10
5.55058
20
-3.98666
11
5.55143
21
-3.98794
0
LINE
8
BLACK
6
CONTINUOUS
10
5.55143
20
-3.98794
11
5.55173
21
-3.98945
0
LINE
8
BLACK
6
CONTINUOUS
10
5.55173
20
-3.98945
11
5.55173
21
-3.99732
0
LINE
8
BLACK
6
CONTINUOUS
10
5.55173
20
-3.99732
11
5.55143
21
-3.99883
0
LINE
8
BLACK
6
CONTINUOUS
10
5.55143
20
-3.99883
11
5.55058
21
-4.00011
0
LINE
8
BLACK
6
CONTINUOUS
10
5.55058
20
-4.00011
11
5.5493
21
-4.00096
0
LINE
8
BLACK
6
CONTINUOUS
10
5.5493
20
-4.00096
11
5.5478
21
-4.00126
0
LINE
8
BLACK
6
CONTINUOUS
10
5.5478
20
-4.00126
11
5.4976
21
-4.00126
0
LINE
8
BLACK
6
CONTINUOUS
10
5.4976
20
-4.00126
11
5.49609
21
-4.00096
0
LINE
8
BLACK
6
CONTINUOUS
10
5.49609
20
-4.00096
11
5.49481
21
-4.00011
0
LINE
8
BLACK
6
CONTINUOUS
10
5.49481
20
-4.00011
11
5.49396
21
-3.99883
0
LINE
8
BLACK
6
CONTINUOUS
10
5.49396
20
-3.99883
11
5.49366
21
-3.99732
0
LINE
8
BLACK
6
CONTINUOUS
10
5.49366
20
-3.99732
11
5.49366
21
-3.98945
0
LINE
8
BLACK
6
CONTINUOUS
10
5.49366
20
-3.98945
11
5.49396
21
-3.98794
0
LINE
8
BLACK
6
CONTINUOUS
10
5.49396
20
-3.98794
11
5.49481
21
-3.98666
0
LINE
8
BLACK
6
CONTINUOUS
10
5.49481
20
-3.98666
11
5.49609
21
-3.98581
0
LINE
8
BLACK
6
CONTINUOUS
10
5.49609
20
-3.98581
11
5.4976
21
-3.98551
0
LINE
8
BLACK
6
CONTINUOUS
10
5.4976
20
-3.98551
11
5.5478
21
-3.98551
0
LINE
8
BLACK
6
CONTINUOUS
10
5.5478
20
-3.98551
11
5.5493
21
-3.98581
0
LINE
8
BLACK
6
CONTINUOUS
10
5.32391
20
-3.98581
11
5.32519
21
-3.98666
0
LINE
8
BLACK
6
CONTINUOUS
10
5.32519
20
-3.98666
11
5.32604
21
-3.98794
0
LINE
8
BLACK
6
CONTINUOUS
10
5.32604
20
-3.98794
11
5.32634
21
-3.98945
0
LINE
8
BLACK
6
CONTINUOUS
10
5.32634
20
-3.98945
11
5.32634
21
-3.99732
0
LINE
8
BLACK
6
CONTINUOUS
10
5.32634
20
-3.99732
11
5.32604
21
-3.99883
0
LINE
8
BLACK
6
CONTINUOUS
10
5.32604
20
-3.99883
11
5.32519
21
-4.00011
0
LINE
8
BLACK
6
CONTINUOUS
10
5.32519
20
-4.00011
11
5.32391
21
-4.00096
0
LINE
8
BLACK
6
CONTINUOUS
10
5.32391
20
-4.00096
11
5.3224
21
-4.00126
0
LINE
8
BLACK
6
CONTINUOUS
10
5.3224
20
-4.00126
11
5.2722
21
-4.00126
0
LINE
8
BLACK
6
CONTINUOUS
10
5.2722
20
-4.00126
11
5.2707
21
-4.00096
0
LINE
8
BLACK
6
CONTINUOUS
10
5.2707
20
-4.00096
11
5.26942
21
-4.00011
0
LINE
8
BLACK
6
CONTINUOUS
10
5.26942
20
-4.00011
11
5.26857
21
-3.99883
0
LINE
8
BLACK
6
CONTINUOUS
10
5.26857
20
-3.99883
11
5.26827
21
-3.99732
0
LINE
8
BLACK
6
CONTINUOUS
10
5.26827
20
-3.99732
11
5.26827
21
-3.98945
0
LINE
8
BLACK
6
CONTINUOUS
10
5.26827
20
-3.98945
11
5.26857
21
-3.98794
0
LINE
8
BLACK
6
CONTINUOUS
10
5.26857
20
-3.98794
11
5.26942
21
-3.98666
0
LINE
8
BLACK
6
CONTINUOUS
10
5.26942
20
-3.98666
11
5.2707
21
-3.98581
0
LINE
8
BLACK
6
CONTINUOUS
10
5.2707
20
-3.98581
11
5.2722
21
-3.98551
0
LINE
8
BLACK
6
CONTINUOUS
10
5.2722
20
-3.98551
11
5.3224
21
-3.98551
0
LINE
8
BLACK
6
CONTINUOUS
10
5.3224
20
-3.98551
11
5.32391
21
-3.98581
0
LINE
8
BLACK
6
CONTINUOUS
10
5.5493
20
-3.96022
11
5.55058
21
-3.96107
0
LINE
8
BLACK
6
CONTINUOUS
10
5.55058
20
-3.96107
11
5.55143
21
-3.96235
0
LINE
8
BLACK
6
CONTINUOUS
10
5.55143
20
-3.96235
11
5.55173
21
-3.96386
0
LINE
8
BLACK
6
CONTINUOUS
10
5.55173
20
-3.96386
11
5.55173
21
-3.97173
0
LINE
8
BLACK
6
CONTINUOUS
10
5.55173
20
-3.97173
11
5.55143
21
-3.97324
0
LINE
8
BLACK
6
CONTINUOUS
10
5.55143
20
-3.97324
11
5.55058
21
-3.97452
0
LINE
8
BLACK
6
CONTINUOUS
10
5.55058
20
-3.97452
11
5.5493
21
-3.97537
0
LINE
8
BLACK
6
CONTINUOUS
10
5.5493
20
-3.97537
11
5.5478
21
-3.97567
0
LINE
8
BLACK
6
CONTINUOUS
10
5.5478
20
-3.97567
11
5.4976
21
-3.97567
0
LINE
8
BLACK
6
CONTINUOUS
10
5.4976
20
-3.97567
11
5.49609
21
-3.97537
0
LINE
8
BLACK
6
CONTINUOUS
10
5.49609
20
-3.97537
11
5.49481
21
-3.97452
0
LINE
8
BLACK
6
CONTINUOUS
10
5.49481
20
-3.97452
11
5.49396
21
-3.97324
0
LINE
8
BLACK
6
CONTINUOUS
10
5.49396
20
-3.97324
11
5.49366
21
-3.97173
0
LINE
8
BLACK
6
CONTINUOUS
10
5.49366
20
-3.97173
11
5.49366
21
-3.96386
0
LINE
8
BLACK
6
CONTINUOUS
10
5.49366
20
-3.96386
11
5.49396
21
-3.96235
0
LINE
8
BLACK
6
CONTINUOUS
10
5.49396
20
-3.96235
11
5.49481
21
-3.96107
0
LINE
8
BLACK
6
CONTINUOUS
10
5.49481
20
-3.96107
11
5.49609
21
-3.96022
0
LINE
8
BLACK
6
CONTINUOUS
10
5.49609
20
-3.96022
11
5.4976
21
-3.95992
0
LINE
8
BLACK
6
CONTINUOUS
10
5.4976
20
-3.95992
11
5.5478
21
-3.95992
0
LINE
8
BLACK
6
CONTINUOUS
10
5.5478
20
-3.95992
11
5.5493
21
-3.96022
0
LINE
8
BLACK
6
CONTINUOUS
10
5.32391
20
-3.96022
11
5.32519
21
-3.96107
0
LINE
8
BLACK
6
CONTINUOUS
10
5.32519
20
-3.96107
11
5.32604
21
-3.96235
0
LINE
8
BLACK
6
CONTINUOUS
10
5.32604
20
-3.96235
11
5.32634
21
-3.96386
0
LINE
8
BLACK
6
CONTINUOUS
10
5.32634
20
-3.96386
11
5.32634
21
-3.97173
0
LINE
8
BLACK
6
CONTINUOUS
10
5.32634
20
-3.97173
11
5.32604
21
-3.97324
0
LINE
8
BLACK
6
CONTINUOUS
10
5.32604
20
-3.97324
11
5.32519
21
-3.97452
0
LINE
8
BLACK
6
CONTINUOUS
10
5.32519
20
-3.97452
11
5.32391
21
-3.97537
0
LINE
8
BLACK
6
CONTINUOUS
10
5.32391
20
-3.97537
11
5.3224
21
-3.97567
0
LINE
8
BLACK
6
CONTINUOUS
10
5.3224
20
-3.97567
11
5.2722
21
-3.97567
0
LINE
8
BLACK
6
CONTINUOUS
10
5.2722
20
-3.97567
11
5.2707
21
-3.97537
0
LINE
8
BLACK
6
CONTINUOUS
10
5.2707
20
-3.97537
11
5.26942
21
-3.97452
0
LINE
8
BLACK
6
CONTINUOUS
10
5.26942
20
-3.97452
11
5.26857
21
-3.97324
0
LINE
8
BLACK
6
CONTINUOUS
10
5.26857
20
-3.97324
11
5.26827
21
-3.97173
0
LINE
8
BLACK
6
CONTINUOUS
10
5.26827
20
-3.97173
11
5.26827
21
-3.96386
0
LINE
8
BLACK
6
CONTINUOUS
10
5.26827
20
-3.96386
11
5.26857
21
-3.96235
0
LINE
8
BLACK
6
CONTINUOUS
10
5.26857
20
-3.96235
11
5.26942
21
-3.96107
0
LINE
8
BLACK
6
CONTINUOUS
10
5.26942
20
-3.96107
11
5.2707
21
-3.96022
0
LINE
8
BLACK
6
CONTINUOUS
10
5.2707
20
-3.96022
11
5.2722
21
-3.95992
0
LINE
8
BLACK
6
CONTINUOUS
10
5.2722
20
-3.95992
11
5.3224
21
-3.95992
0
LINE
8
BLACK
6
CONTINUOUS
10
5.3224
20
-3.95992
11
5.32391
21
-3.96022
0
LINE
8
BLACK
6
CONTINUOUS
10
5.88882
20
-3.96417
11
5.8278
21
-3.96417
0
LINE
8
BLACK
6
CONTINUOUS
10
5.8278
20
-3.96417
11
5.8278
21
-3.91299
0
LINE
8
BLACK
6
CONTINUOUS
10
5.8278
20
-3.91299
11
5.88882
21
-3.91299
0
LINE
8
BLACK
6
CONTINUOUS
10
5.88882
20
-3.91299
11
5.88882
21
-3.96417
0
LINE
8
BLACK
6
CONTINUOUS
10
6.2022
20
-3.96417
11
6.14118
21
-3.96417
0
LINE
8
BLACK
6
CONTINUOUS
10
6.14118
20
-3.96417
11
6.14118
21
-3.91299
0
LINE
8
BLACK
6
CONTINUOUS
10
6.14118
20
-3.91299
11
6.2022
21
-3.91299
0
LINE
8
BLACK
6
CONTINUOUS
10
6.2022
20
-3.91299
11
6.2022
21
-3.96417
0
LINE
8
BLACK
6
CONTINUOUS
10
5.5493
20
-3.93463
11
5.55058
21
-3.93548
0
LINE
8
BLACK
6
CONTINUOUS
10
5.55058
20
-3.93548
11
5.55143
21
-3.93676
0
LINE
8
BLACK
6
CONTINUOUS
10
5.55143
20
-3.93676
11
5.55173
21
-3.93827
0
LINE
8
BLACK
6
CONTINUOUS
10
5.55173
20
-3.93827
11
5.55173
21
-3.94614
0
LINE
8
BLACK
6
CONTINUOUS
10
5.55173
20
-3.94614
11
5.55143
21
-3.94765
0
LINE
8
BLACK
6
CONTINUOUS
10
5.55143
20
-3.94765
11
5.55058
21
-3.94893
0
LINE
8
BLACK
6
CONTINUOUS
10
5.55058
20
-3.94893
11
5.5493
21
-3.94978
0
LINE
8
BLACK
6
CONTINUOUS
10
5.5493
20
-3.94978
11
5.5478
21
-3.95008
0
LINE
8
BLACK
6
CONTINUOUS
10
5.5478
20
-3.95008
11
5.4976
21
-3.95008
0
LINE
8
BLACK
6
CONTINUOUS
10
5.4976
20
-3.95008
11
5.49609
21
-3.94978
0
LINE
8
BLACK
6
CONTINUOUS
10
5.49609
20
-3.94978
11
5.49481
21
-3.94893
0
LINE
8
BLACK
6
CONTINUOUS
10
5.49481
20
-3.94893
11
5.49396
21
-3.94765
0
LINE
8
BLACK
6
CONTINUOUS
10
5.49396
20
-3.94765
11
5.49366
21
-3.94614
0
LINE
8
BLACK
6
CONTINUOUS
10
5.49366
20
-3.94614
11
5.49366
21
-3.93827
0
LINE
8
BLACK
6
CONTINUOUS
10
5.49366
20
-3.93827
11
5.49396
21
-3.93676
0
LINE
8
BLACK
6
CONTINUOUS
10
5.49396
20
-3.93676
11
5.49481
21
-3.93548
0
LINE
8
BLACK
6
CONTINUOUS
10
5.49481
20
-3.93548
11
5.49609
21
-3.93463
0
LINE
8
BLACK
6
CONTINUOUS
10
5.49609
20
-3.93463
11
5.4976
21
-3.93433
0
LINE
8
BLACK
6
CONTINUOUS
10
5.4976
20
-3.93433
11
5.5478
21
-3.93433
0
LINE
8
BLACK
6
CONTINUOUS
10
5.5478
20
-3.93433
11
5.5493
21
-3.93463
0
LINE
8
BLACK
6
CONTINUOUS
10
5.32391
20
-3.93463
11
5.32519
21
-3.93548
0
LINE
8
BLACK
6
CONTINUOUS
10
5.32519
20
-3.93548
11
5.32604
21
-3.93676
0
LINE
8
BLACK
6
CONTINUOUS
10
5.32604
20
-3.93676
11
5.32634
21
-3.93827
0
LINE
8
BLACK
6
CONTINUOUS
10
5.32634
20
-3.93827
11
5.32634
21
-3.94614
0
LINE
8
BLACK
6
CONTINUOUS
10
5.32634
20
-3.94614
11
5.32604
21
-3.94765
0
LINE
8
BLACK
6
CONTINUOUS
10
5.32604
20
-3.94765
11
5.32519
21
-3.94893
0
LINE
8
BLACK
6
CONTINUOUS
10
5.32519
20
-3.94893
11
5.32391
21
-3.94978
0
LINE
8
BLACK
6
CONTINUOUS
10
5.32391
20
-3.94978
11
5.3224
21
-3.95008
0
LINE
8
BLACK
6
CONTINUOUS
10
5.3224
20
-3.95008
11
5.2722
21
-3.95008
0
LINE
8
BLACK
6
CONTINUOUS
10
5.2722
20
-3.95008
11
5.2707
21
-3.94978
0
LINE
8
BLACK
6
CONTINUOUS
10
5.2707
20
-3.94978
11
5.26942
21
-3.94893
0
LINE
8
BLACK
6
CONTINUOUS
10
5.26942
20
-3.94893
11
5.26857
21
-3.94765
0
LINE
8
BLACK
6
CONTINUOUS
10
5.26857
20
-3.94765
11
5.26827
21
-3.94614
0
LINE
8
BLACK
6
CONTINUOUS
10
5.26827
20
-3.94614
11
5.26827
21
-3.93827
0
LINE
8
BLACK
6
CONTINUOUS
10
5.26827
20
-3.93827
11
5.26857
21
-3.93676
0
LINE
8
BLACK
6
CONTINUOUS
10
5.26857
20
-3.93676
11
5.26942
21
-3.93548
0
LINE
8
BLACK
6
CONTINUOUS
10
5.26942
20
-3.93548
11
5.2707
21
-3.93463
0
LINE
8
BLACK
6
CONTINUOUS
10
5.2707
20
-3.93463
11
5.2722
21
-3.93433
0
LINE
8
BLACK
6
CONTINUOUS
10
5.2722
20
-3.93433
11
5.3224
21
-3.93433
0
LINE
8
BLACK
6
CONTINUOUS
10
5.3224
20
-3.93433
11
5.32391
21
-3.93463
0
LINE
8
BLACK
6
CONTINUOUS
10
5.19315
20
-3.93945
11
5.16559
21
-3.93945
0
LINE
8
BLACK
6
CONTINUOUS
10
5.16559
20
-3.93945
11
5.16559
21
-3.92173
0
LINE
8
BLACK
6
CONTINUOUS
10
5.16559
20
-3.92173
11
5.19315
21
-3.92173
0
LINE
8
BLACK
6
CONTINUOUS
10
5.19315
20
-3.92173
11
5.19315
21
-3.93945
0
LINE
8
BLACK
6
CONTINUOUS
10
5.73247
20
-3.88262
11
5.73566
21
-3.88475
0
LINE
8
BLACK
6
CONTINUOUS
10
5.73566
20
-3.88475
11
5.73779
21
-3.88795
0
LINE
8
BLACK
6
CONTINUOUS
10
5.73779
20
-3.88795
11
5.73854
21
-3.89171
0
LINE
8
BLACK
6
CONTINUOUS
10
5.73854
20
-3.89171
11
5.73854
21
-3.91829
0
LINE
8
BLACK
6
CONTINUOUS
10
5.73854
20
-3.91829
11
5.73779
21
-3.92205
0
LINE
8
BLACK
6
CONTINUOUS
10
5.73779
20
-3.92205
11
5.73566
21
-3.92525
0
LINE
8
BLACK
6
CONTINUOUS
10
5.73566
20
-3.92525
11
5.73247
21
-3.92738
0
LINE
8
BLACK
6
CONTINUOUS
10
5.73247
20
-3.92738
11
5.7287
21
-3.92813
0
LINE
8
BLACK
6
CONTINUOUS
10
5.7287
20
-3.92813
11
5.6913
21
-3.92813
0
LINE
8
BLACK
6
CONTINUOUS
10
5.6913
20
-3.92813
11
5.68753
21
-3.92738
0
LINE
8
BLACK
6
CONTINUOUS
10
5.68753
20
-3.92738
11
5.68434
21
-3.92525
0
LINE
8
BLACK
6
CONTINUOUS
10
5.68434
20
-3.92525
11
5.68221
21
-3.92205
0
LINE
8
BLACK
6
CONTINUOUS
10
5.68221
20
-3.92205
11
5.68146
21
-3.91829
0
LINE
8
BLACK
6
CONTINUOUS
10
5.68146
20
-3.91829
11
5.68146
21
-3.89171
0
LINE
8
BLACK
6
CONTINUOUS
10
5.68146
20
-3.89171
11
5.68221
21
-3.88795
0
LINE
8
BLACK
6
CONTINUOUS
10
5.68221
20
-3.88795
11
5.68434
21
-3.88475
0
LINE
8
BLACK
6
CONTINUOUS
10
5.68434
20
-3.88475
11
5.68753
21
-3.88262
0
LINE
8
BLACK
6
CONTINUOUS
10
5.68753
20
-3.88262
11
5.6913
21
-3.88187
0
LINE
8
BLACK
6
CONTINUOUS
10
5.6913
20
-3.88187
11
5.7287
21
-3.88187
0
LINE
8
BLACK
6
CONTINUOUS
10
5.7287
20
-3.88187
11
5.73247
21
-3.88262
0
LINE
8
BLACK
6
CONTINUOUS
10
5.5493
20
-3.90904
11
5.55058
21
-3.90989
0
LINE
8
BLACK
6
CONTINUOUS
10
5.55058
20
-3.90989
11
5.55143
21
-3.91117
0
LINE
8
BLACK
6
CONTINUOUS
10
5.55143
20
-3.91117
11
5.55173
21
-3.91268
0
LINE
8
BLACK
6
CONTINUOUS
10
5.55173
20
-3.91268
11
5.55173
21
-3.92055
0
LINE
8
BLACK
6
CONTINUOUS
10
5.55173
20
-3.92055
11
5.55143
21
-3.92206
0
LINE
8
BLACK
6
CONTINUOUS
10
5.55143
20
-3.92206
11
5.55058
21
-3.92334
0
LINE
8
BLACK
6
CONTINUOUS
10
5.55058
20
-3.92334
11
5.5493
21
-3.92419
0
LINE
8
BLACK
6
CONTINUOUS
10
5.5493
20
-3.92419
11
5.5478
21
-3.92449
0
LINE
8
BLACK
6
CONTINUOUS
10
5.5478
20
-3.92449
11
5.4976
21
-3.92449
0
LINE
8
BLACK
6
CONTINUOUS
10
5.4976
20
-3.92449
11
5.49609
21
-3.92419
0
LINE
8
BLACK
6
CONTINUOUS
10
5.49609
20
-3.92419
11
5.49481
21
-3.92334
0
LINE
8
BLACK
6
CONTINUOUS
10
5.49481
20
-3.92334
11
5.49396
21
-3.92206
0
LINE
8
BLACK
6
CONTINUOUS
10
5.49396
20
-3.92206
11
5.49366
21
-3.92055
0
LINE
8
BLACK
6
CONTINUOUS
10
5.49366
20
-3.92055
11
5.49366
21
-3.91268
0
LINE
8
BLACK
6
CONTINUOUS
10
5.49366
20
-3.91268
11
5.49396
21
-3.91117
0
LINE
8
BLACK
6
CONTINUOUS
10
5.49396
20
-3.91117
11
5.49481
21
-3.90989
0
LINE
8
BLACK
6
CONTINUOUS
10
5.49481
20
-3.90989
11
5.49609
21
-3.90904
0
LINE
8
BLACK
6
CONTINUOUS
10
5.49609
20
-3.90904
11
5.4976
21
-3.90874
0
LINE
8
BLACK
6
CONTINUOUS
10
5.4976
20
-3.90874
11
5.5478
21
-3.90874
0
LINE
8
BLACK
6
CONTINUOUS
10
5.5478
20
-3.90874
11
5.5493
21
-3.90904
0
LINE
8
BLACK
6
CONTINUOUS
10
5.32391
20
-3.90904
11
5.32519
21
-3.90989
0
LINE
8
BLACK
6
CONTINUOUS
10
5.32519
20
-3.90989
11
5.32604
21
-3.91117
0
LINE
8
BLACK
6
CONTINUOUS
10
5.32604
20
-3.91117
11
5.32634
21
-3.91268
0
LINE
8
BLACK
6
CONTINUOUS
10
5.32634
20
-3.91268
11
5.32634
21
-3.92055
0
LINE
8
BLACK
6
CONTINUOUS
10
5.32634
20
-3.92055
11
5.32604
21
-3.92206
0
LINE
8
BLACK
6
CONTINUOUS
10
5.32604
20
-3.92206
11
5.32519
21
-3.92334
0
LINE
8
BLACK
6
CONTINUOUS
10
5.32519
20
-3.92334
11
5.32391
21
-3.92419
0
LINE
8
BLACK
6
CONTINUOUS
10
5.32391
20
-3.92419
11
5.3224
21
-3.92449
0
LINE
8
BLACK
6
CONTINUOUS
10
5.3224
20
-3.92449
11
5.2722
21
-3.92449
0
LINE
8
BLACK
6
CONTINUOUS
10
5.2722
20
-3.92449
11
5.2707
21
-3.92419
0
LINE
8
BLACK
6
CONTINUOUS
10
5.2707
20
-3.92419
11
5.26942
21
-3.92334
0
LINE
8
BLACK
6
CONTINUOUS
10
5.26942
20
-3.92334
11
5.26857
21
-3.92206
0
LINE
8
BLACK
6
CONTINUOUS
10
5.26857
20
-3.92206
11
5.26827
21
-3.92055
0
LINE
8
BLACK
6
CONTINUOUS
10
5.26827
20
-3.92055
11
5.26827
21
-3.91268
0
LINE
8
BLACK
6
CONTINUOUS
10
5.26827
20
-3.91268
11
5.26857
21
-3.91117
0
LINE
8
BLACK
6
CONTINUOUS
10
5.26857
20
-3.91117
11
5.26942
21
-3.90989
0
LINE
8
BLACK
6
CONTINUOUS
10
5.26942
20
-3.90989
11
5.2707
21
-3.90904
0
LINE
8
BLACK
6
CONTINUOUS
10
5.2707
20
-3.90904
11
5.2722
21
-3.90874
0
LINE
8
BLACK
6
CONTINUOUS
10
5.2722
20
-3.90874
11
5.3224
21
-3.90874
0
LINE
8
BLACK
6
CONTINUOUS
10
5.3224
20
-3.90874
11
5.32391
21
-3.90904
0
LINE
8
BLACK
6
CONTINUOUS
10
5.11441
20
-3.91386
11
5.08685
21
-3.91386
0
LINE
8
BLACK
6
CONTINUOUS
10
5.08685
20
-3.91386
11
5.08685
21
-3.89614
0
LINE
8
BLACK
6
CONTINUOUS
10
5.08685
20
-3.89614
11
5.11441
21
-3.89614
0
LINE
8
BLACK
6
CONTINUOUS
10
5.11441
20
-3.89614
11
5.11441
21
-3.91386
0
LINE
8
BLACK
6
CONTINUOUS
10
5.5493
20
-3.88345
11
5.55058
21
-3.8843
0
LINE
8
BLACK
6
CONTINUOUS
10
5.55058
20
-3.8843
11
5.55143
21
-3.88558
0
LINE
8
BLACK
6
CONTINUOUS
10
5.55143
20
-3.88558
11
5.55173
21
-3.88709
0
LINE
8
BLACK
6
CONTINUOUS
10
5.55173
20
-3.88709
11
5.55173
21
-3.89496
0
LINE
8
BLACK
6
CONTINUOUS
10
5.55173
20
-3.89496
11
5.55143
21
-3.89647
0
LINE
8
BLACK
6
CONTINUOUS
10
5.55143
20
-3.89647
11
5.55058
21
-3.89774
0
LINE
8
BLACK
6
CONTINUOUS
10
5.55058
20
-3.89774
11
5.5493
21
-3.8986
0
LINE
8
BLACK
6
CONTINUOUS
10
5.5493
20
-3.8986
11
5.5478
21
-3.8989
0
LINE
8
BLACK
6
CONTINUOUS
10
5.5478
20
-3.8989
11
5.4976
21
-3.8989
0
LINE
8
BLACK
6
CONTINUOUS
10
5.4976
20
-3.8989
11
5.49609
21
-3.8986
0
LINE
8
BLACK
6
CONTINUOUS
10
5.49609
20
-3.8986
11
5.49481
21
-3.89774
0
LINE
8
BLACK
6
CONTINUOUS
10
5.49481
20
-3.89774
11
5.49396
21
-3.89647
0
LINE
8
BLACK
6
CONTINUOUS
10
5.49396
20
-3.89647
11
5.49366
21
-3.89496
0
LINE
8
BLACK
6
CONTINUOUS
10
5.49366
20
-3.89496
11
5.49366
21
-3.88709
0
LINE
8
BLACK
6
CONTINUOUS
10
5.49366
20
-3.88709
11
5.49396
21
-3.88558
0
LINE
8
BLACK
6
CONTINUOUS
10
5.49396
20
-3.88558
11
5.49481
21
-3.8843
0
LINE
8
BLACK
6
CONTINUOUS
10
5.49481
20
-3.8843
11
5.49609
21
-3.88345
0
LINE
8
BLACK
6
CONTINUOUS
10
5.49609
20
-3.88345
11
5.4976
21
-3.88315
0
LINE
8
BLACK
6
CONTINUOUS
10
5.4976
20
-3.88315
11
5.5478
21
-3.88315
0
LINE
8
BLACK
6
CONTINUOUS
10
5.5478
20
-3.88315
11
5.5493
21
-3.88345
0
LINE
8
BLACK
6
CONTINUOUS
10
5.32391
20
-3.88345
11
5.32519
21
-3.8843
0
LINE
8
BLACK
6
CONTINUOUS
10
5.32519
20
-3.8843
11
5.32604
21
-3.88558
0
LINE
8
BLACK
6
CONTINUOUS
10
5.32604
20
-3.88558
11
5.32634
21
-3.88709
0
LINE
8
BLACK
6
CONTINUOUS
10
5.32634
20
-3.88709
11
5.32634
21
-3.89496
0
LINE
8
BLACK
6
CONTINUOUS
10
5.32634
20
-3.89496
11
5.32604
21
-3.89647
0
LINE
8
BLACK
6
CONTINUOUS
10
5.32604
20
-3.89647
11
5.32519
21
-3.89774
0
LINE
8
BLACK
6
CONTINUOUS
10
5.32519
20
-3.89774
11
5.32391
21
-3.8986
0
LINE
8
BLACK
6
CONTINUOUS
10
5.32391
20
-3.8986
11
5.3224
21
-3.8989
0
LINE
8
BLACK
6
CONTINUOUS
10
5.3224
20
-3.8989
11
5.2722
21
-3.8989
0
LINE
8
BLACK
6
CONTINUOUS
10
5.2722
20
-3.8989
11
5.2707
21
-3.8986
0
LINE
8
BLACK
6
CONTINUOUS
10
5.2707
20
-3.8986
11
5.26942
21
-3.89774
0
LINE
8
BLACK
6
CONTINUOUS
10
5.26942
20
-3.89774
11
5.26857
21
-3.89647
0
LINE
8
BLACK
6
CONTINUOUS
10
5.26857
20
-3.89647
11
5.26827
21
-3.89496
0
LINE
8
BLACK
6
CONTINUOUS
10
5.26827
20
-3.89496
11
5.26827
21
-3.88709
0
LINE
8
BLACK
6
CONTINUOUS
10
5.26827
20
-3.88709
11
5.26857
21
-3.88558
0
LINE
8
BLACK
6
CONTINUOUS
10
5.26857
20
-3.88558
11
5.26942
21
-3.8843
0
LINE
8
BLACK
6
CONTINUOUS
10
5.26942
20
-3.8843
11
5.2707
21
-3.88345
0
LINE
8
BLACK
6
CONTINUOUS
10
5.2707
20
-3.88345
11
5.2722
21
-3.88315
0
LINE
8
BLACK
6
CONTINUOUS
10
5.2722
20
-3.88315
11
5.3224
21
-3.88315
0
LINE
8
BLACK
6
CONTINUOUS
10
5.3224
20
-3.88315
11
5.32391
21
-3.88345
0
LINE
8
BLACK
6
CONTINUOUS
10
5.19315
20
-3.88827
11
5.16559
21
-3.88827
0
LINE
8
BLACK
6
CONTINUOUS
10
5.16559
20
-3.88827
11
5.16559
21
-3.87055
0
LINE
8
BLACK
6
CONTINUOUS
10
5.16559
20
-3.87055
11
5.19315
21
-3.87055
0
LINE
8
BLACK
6
CONTINUOUS
10
5.19315
20
-3.87055
11
5.19315
21
-3.88827
0
LINE
8
BLACK
6
CONTINUOUS
10
5.5493
20
-3.85786
11
5.55058
21
-3.85871
0
LINE
8
BLACK
6
CONTINUOUS
10
5.55058
20
-3.85871
11
5.55143
21
-3.85999
0
LINE
8
BLACK
6
CONTINUOUS
10
5.55143
20
-3.85999
11
5.55173
21
-3.8615
0
LINE
8
BLACK
6
CONTINUOUS
10
5.55173
20
-3.8615
11
5.55173
21
-3.86937
0
LINE
8
BLACK
6
CONTINUOUS
10
5.55173
20
-3.86937
11
5.55143
21
-3.87088
0
LINE
8
BLACK
6
CONTINUOUS
10
5.55143
20
-3.87088
11
5.55058
21
-3.87215
0
LINE
8
BLACK
6
CONTINUOUS
10
5.55058
20
-3.87215
11
5.5493
21
-3.87301
0
LINE
8
BLACK
6
CONTINUOUS
10
5.5493
20
-3.87301
11
5.5478
21
-3.87331
0
LINE
8
BLACK
6
CONTINUOUS
10
5.5478
20
-3.87331
11
5.4976
21
-3.87331
0
LINE
8
BLACK
6
CONTINUOUS
10
5.4976
20
-3.87331
11
5.49609
21
-3.87301
0
LINE
8
BLACK
6
CONTINUOUS
10
5.49609
20
-3.87301
11
5.49481
21
-3.87215
0
LINE
8
BLACK
6
CONTINUOUS
10
5.49481
20
-3.87215
11
5.49396
21
-3.87088
0
LINE
8
BLACK
6
CONTINUOUS
10
5.49396
20
-3.87088
11
5.49366
21
-3.86937
0
LINE
8
BLACK
6
CONTINUOUS
10
5.49366
20
-3.86937
11
5.49366
21
-3.8615
0
LINE
8
BLACK
6
CONTINUOUS
10
5.49366
20
-3.8615
11
5.49396
21
-3.85999
0
LINE
8
BLACK
6
CONTINUOUS
10
5.49396
20
-3.85999
11
5.49481
21
-3.85871
0
LINE
8
BLACK
6
CONTINUOUS
10
5.49481
20
-3.85871
11
5.49609
21
-3.85786
0
LINE
8
BLACK
6
CONTINUOUS
10
5.49609
20
-3.85786
11
5.4976
21
-3.85756
0
LINE
8
BLACK
6
CONTINUOUS
10
5.4976
20
-3.85756
11
5.5478
21
-3.85756
0
LINE
8
BLACK
6
CONTINUOUS
10
5.5478
20
-3.85756
11
5.5493
21
-3.85786
0
LINE
8
BLACK
6
CONTINUOUS
10
5.32391
20
-3.85786
11
5.32519
21
-3.85871
0
LINE
8
BLACK
6
CONTINUOUS
10
5.32519
20
-3.85871
11
5.32604
21
-3.85999
0
LINE
8
BLACK
6
CONTINUOUS
10
5.32604
20
-3.85999
11
5.32634
21
-3.8615
0
LINE
8
BLACK
6
CONTINUOUS
10
5.32634
20
-3.8615
11
5.32634
21
-3.86937
0
LINE
8
BLACK
6
CONTINUOUS
10
5.32634
20
-3.86937
11
5.32604
21
-3.87088
0
LINE
8
BLACK
6
CONTINUOUS
10
5.32604
20
-3.87088
11
5.32519
21
-3.87215
0
LINE
8
BLACK
6
CONTINUOUS
10
5.32519
20
-3.87215
11
5.32391
21
-3.87301
0
LINE
8
BLACK
6
CONTINUOUS
10
5.32391
20
-3.87301
11
5.3224
21
-3.87331
0
LINE
8
BLACK
6
CONTINUOUS
10
5.3224
20
-3.87331
11
5.2722
21
-3.87331
0
LINE
8
BLACK
6
CONTINUOUS
10
5.2722
20
-3.87331
11
5.2707
21
-3.87301
0
LINE
8
BLACK
6
CONTINUOUS
10
5.2707
20
-3.87301
11
5.26942
21
-3.87215
0
LINE
8
BLACK
6
CONTINUOUS
10
5.26942
20
-3.87215
11
5.26857
21
-3.87088
0
LINE
8
BLACK
6
CONTINUOUS
10
5.26857
20
-3.87088
11
5.26827
21
-3.86937
0
LINE
8
BLACK
6
CONTINUOUS
10
5.26827
20
-3.86937
11
5.26827
21
-3.8615
0
LINE
8
BLACK
6
CONTINUOUS
10
5.26827
20
-3.8615
11
5.26857
21
-3.85999
0
LINE
8
BLACK
6
CONTINUOUS
10
5.26857
20
-3.85999
11
5.26942
21
-3.85871
0
LINE
8
BLACK
6
CONTINUOUS
10
5.26942
20
-3.85871
11
5.2707
21
-3.85786
0
LINE
8
BLACK
6
CONTINUOUS
10
5.2707
20
-3.85786
11
5.2722
21
-3.85756
0
LINE
8
BLACK
6
CONTINUOUS
10
5.2722
20
-3.85756
11
5.3224
21
-3.85756
0
LINE
8
BLACK
6
CONTINUOUS
10
5.3224
20
-3.85756
11
5.32391
21
-3.85786
0
LINE
8
BLACK
6
CONTINUOUS
10
5.5493
20
-3.83227
11
5.55058
21
-3.83312
0
LINE
8
BLACK
6
CONTINUOUS
10
5.55058
20
-3.83312
11
5.55143
21
-3.8344
0
LINE
8
BLACK
6
CONTINUOUS
10
5.55143
20
-3.8344
11
5.55173
21
-3.83591
0
LINE
8
BLACK
6
CONTINUOUS
10
5.55173
20
-3.83591
11
5.55173
21
-3.84378
0
LINE
8
BLACK
6
CONTINUOUS
10
5.55173
20
-3.84378
11
5.55143
21
-3.84529
0
LINE
8
BLACK
6
CONTINUOUS
10
5.55143
20
-3.84529
11
5.55058
21
-3.84656
0
LINE
8
BLACK
6
CONTINUOUS
10
5.55058
20
-3.84656
11
5.5493
21
-3.84742
0
LINE
8
BLACK
6
CONTINUOUS
10
5.5493
20
-3.84742
11
5.5478
21
-3.84772
0
LINE
8
BLACK
6
CONTINUOUS
10
5.5478
20
-3.84772
11
5.4976
21
-3.84772
0
LINE
8
BLACK
6
CONTINUOUS
10
5.4976
20
-3.84772
11
5.49609
21
-3.84742
0
LINE
8
BLACK
6
CONTINUOUS
10
5.49609
20
-3.84742
11
5.49481
21
-3.84656
0
LINE
8
BLACK
6
CONTINUOUS
10
5.49481
20
-3.84656
11
5.49396
21
-3.84529
0
LINE
8
BLACK
6
CONTINUOUS
10
5.49396
20
-3.84529
11
5.49366
21
-3.84378
0
LINE
8
BLACK
6
CONTINUOUS
10
5.49366
20
-3.84378
11
5.49366
21
-3.83591
0
LINE
8
BLACK
6
CONTINUOUS
10
5.49366
20
-3.83591
11
5.49396
21
-3.8344
0
LINE
8
BLACK
6
CONTINUOUS
10
5.49396
20
-3.8344
11
5.49481
21
-3.83312
0
LINE
8
BLACK
6
CONTINUOUS
10
5.49481
20
-3.83312
11
5.49609
21
-3.83227
0
LINE
8
BLACK
6
CONTINUOUS
10
5.49609
20
-3.83227
11
5.4976
21
-3.83197
0
LINE
8
BLACK
6
CONTINUOUS
10
5.4976
20
-3.83197
11
5.5478
21
-3.83197
0
LINE
8
BLACK
6
CONTINUOUS
10
5.5478
20
-3.83197
11
5.5493
21
-3.83227
0
LINE
8
BLACK
6
CONTINUOUS
10
5.32391
20
-3.83227
11
5.32519
21
-3.83312
0
LINE
8
BLACK
6
CONTINUOUS
10
5.32519
20
-3.83312
11
5.32604
21
-3.8344
0
LINE
8
BLACK
6
CONTINUOUS
10
5.32604
20
-3.8344
11
5.32634
21
-3.83591
0
LINE
8
BLACK
6
CONTINUOUS
10
5.32634
20
-3.83591
11
5.32634
21
-3.84378
0
LINE
8
BLACK
6
CONTINUOUS
10
5.32634
20
-3.84378
11
5.32604
21
-3.84529
0
LINE
8
BLACK
6
CONTINUOUS
10
5.32604
20
-3.84529
11
5.32519
21
-3.84656
0
LINE
8
BLACK
6
CONTINUOUS
10
5.32519
20
-3.84656
11
5.32391
21
-3.84742
0
LINE
8
BLACK
6
CONTINUOUS
10
5.32391
20
-3.84742
11
5.3224
21
-3.84772
0
LINE
8
BLACK
6
CONTINUOUS
10
5.3224
20
-3.84772
11
5.2722
21
-3.84772
0
LINE
8
BLACK
6
CONTINUOUS
10
5.2722
20
-3.84772
11
5.2707
21
-3.84742
0
LINE
8
BLACK
6
CONTINUOUS
10
5.2707
20
-3.84742
11
5.26942
21
-3.84656
0
LINE
8
BLACK
6
CONTINUOUS
10
5.26942
20
-3.84656
11
5.26857
21
-3.84529
0
LINE
8
BLACK
6
CONTINUOUS
10
5.26857
20
-3.84529
11
5.26827
21
-3.84378
0
LINE
8
BLACK
6
CONTINUOUS
10
5.26827
20
-3.84378
11
5.26827
21
-3.83591
0
LINE
8
BLACK
6
CONTINUOUS
10
5.26827
20
-3.83591
11
5.26857
21
-3.8344
0
LINE
8
BLACK
6
CONTINUOUS
10
5.26857
20
-3.8344
11
5.26942
21
-3.83312
0
LINE
8
BLACK
6
CONTINUOUS
10
5.26942
20
-3.83312
11
5.2707
21
-3.83227
0
LINE
8
BLACK
6
CONTINUOUS
10
5.2707
20
-3.83227
11
5.2722
21
-3.83197
0
LINE
8
BLACK
6
CONTINUOUS
10
5.2722
20
-3.83197
11
5.3224
21
-3.83197
0
LINE
8
BLACK
6
CONTINUOUS
10
5.3224
20
-3.83197
11
5.32391
21
-3.83227
0
LINE
8
BLACK
6
CONTINUOUS
10
5.73247
20
-3.80093
11
5.73566
21
-3.80306
0
LINE
8
BLACK
6
CONTINUOUS
10
5.73566
20
-3.80306
11
5.73779
21
-3.80625
0
LINE
8
BLACK
6
CONTINUOUS
10
5.73779
20
-3.80625
11
5.73854
21
-3.81002
0
LINE
8
BLACK
6
CONTINUOUS
10
5.73854
20
-3.81002
11
5.73854
21
-3.83659
0
LINE
8
BLACK
6
CONTINUOUS
10
5.73854
20
-3.83659
11
5.73779
21
-3.84036
0
LINE
8
BLACK
6
CONTINUOUS
10
5.73779
20
-3.84036
11
5.73566
21
-3.84355
0
LINE
8
BLACK
6
CONTINUOUS
10
5.73566
20
-3.84355
11
5.73247
21
-3.84569
0
LINE
8
BLACK
6
CONTINUOUS
10
5.73247
20
-3.84569
11
5.7287
21
-3.84644
0
LINE
8
BLACK
6
CONTINUOUS
10
5.7287
20
-3.84644
11
5.6913
21
-3.84644
0
LINE
8
BLACK
6
CONTINUOUS
10
5.6913
20
-3.84644
11
5.68753
21
-3.84569
0
LINE
8
BLACK
6
CONTINUOUS
10
5.68753
20
-3.84569
11
5.68434
21
-3.84355
0
LINE
8
BLACK
6
CONTINUOUS
10
5.68434
20
-3.84355
11
5.68221
21
-3.84036
0
LINE
8
BLACK
6
CONTINUOUS
10
5.68221
20
-3.84036
11
5.68146
21
-3.83659
0
LINE
8
BLACK
6
CONTINUOUS
10
5.68146
20
-3.83659
11
5.68146
21
-3.81002
0
LINE
8
BLACK
6
CONTINUOUS
10
5.68146
20
-3.81002
11
5.68221
21
-3.80625
0
LINE
8
BLACK
6
CONTINUOUS
10
5.68221
20
-3.80625
11
5.68434
21
-3.80306
0
LINE
8
BLACK
6
CONTINUOUS
10
5.68434
20
-3.80306
11
5.68753
21
-3.80093
0
LINE
8
BLACK
6
CONTINUOUS
10
5.68753
20
-3.80093
11
5.6913
21
-3.80018
0
LINE
8
BLACK
6
CONTINUOUS
10
5.6913
20
-3.80018
11
5.7287
21
-3.80018
0
LINE
8
BLACK
6
CONTINUOUS
10
5.7287
20
-3.80018
11
5.73247
21
-3.80093
0
LINE
8
BLACK
6
CONTINUOUS
10
5.12747
20
-3.75847
11
5.13066
21
-3.7606
0
LINE
8
BLACK
6
CONTINUOUS
10
5.13066
20
-3.7606
11
5.13279
21
-3.76379
0
LINE
8
BLACK
6
CONTINUOUS
10
5.13279
20
-3.76379
11
5.13354
21
-3.76756
0
LINE
8
BLACK
6
CONTINUOUS
10
5.13354
20
-3.76756
11
5.13354
21
-3.79413
0
LINE
8
BLACK
6
CONTINUOUS
10
5.13354
20
-3.79413
11
5.13279
21
-3.7979
0
LINE
8
BLACK
6
CONTINUOUS
10
5.13279
20
-3.7979
11
5.13066
21
-3.80109
0
LINE
8
BLACK
6
CONTINUOUS
10
5.13066
20
-3.80109
11
5.12747
21
-3.80323
0
LINE
8
BLACK
6
CONTINUOUS
10
5.12747
20
-3.80323
11
5.1237
21
-3.80398
0
LINE
8
BLACK
6
CONTINUOUS
10
5.1237
20
-3.80398
11
5.0863
21
-3.80398
0
LINE
8
BLACK
6
CONTINUOUS
10
5.0863
20
-3.80398
11
5.08253
21
-3.80323
0
LINE
8
BLACK
6
CONTINUOUS
10
5.08253
20
-3.80323
11
5.07934
21
-3.80109
0
LINE
8
BLACK
6
CONTINUOUS
10
5.07934
20
-3.80109
11
5.07721
21
-3.7979
0
LINE
8
BLACK
6
CONTINUOUS
10
5.07721
20
-3.7979
11
5.07646
21
-3.79413
0
LINE
8
BLACK
6
CONTINUOUS
10
5.07646
20
-3.79413
11
5.07646
21
-3.76756
0
LINE
8
BLACK
6
CONTINUOUS
10
5.07646
20
-3.76756
11
5.07721
21
-3.76379
0
LINE
8
BLACK
6
CONTINUOUS
10
5.07721
20
-3.76379
11
5.07934
21
-3.7606
0
LINE
8
BLACK
6
CONTINUOUS
10
5.07934
20
-3.7606
11
5.08253
21
-3.75847
0
LINE
8
BLACK
6
CONTINUOUS
10
5.08253
20
-3.75847
11
5.0863
21
-3.75772
0
LINE
8
BLACK
6
CONTINUOUS
10
5.0863
20
-3.75772
11
5.1237
21
-3.75772
0
LINE
8
BLACK
6
CONTINUOUS
10
5.1237
20
-3.75772
11
5.12747
21
-3.75847
0
LINE
8
BLACK
6
CONTINUOUS
10
6.2022
20
-3.78701
11
6.14118
21
-3.78701
0
LINE
8
BLACK
6
CONTINUOUS
10
6.14118
20
-3.78701
11
6.14118
21
-3.73583
0
LINE
8
BLACK
6
CONTINUOUS
10
6.14118
20
-3.73583
11
6.2022
21
-3.73583
0
LINE
8
BLACK
6
CONTINUOUS
10
6.2022
20
-3.73583
11
6.2022
21
-3.78701
0
LINE
8
BLACK
6
CONTINUOUS
10
5.88882
20
-3.78701
11
5.8278
21
-3.78701
0
LINE
8
BLACK
6
CONTINUOUS
10
5.8278
20
-3.78701
11
5.8278
21
-3.73583
0
LINE
8
BLACK
6
CONTINUOUS
10
5.8278
20
-3.73583
11
5.88882
21
-3.73583
0
LINE
8
BLACK
6
CONTINUOUS
10
5.88882
20
-3.73583
11
5.88882
21
-3.78701
0
LINE
8
BLACK
6
CONTINUOUS
10
5.12747
20
-3.67677
11
5.13066
21
-3.67891
0
LINE
8
BLACK
6
CONTINUOUS
10
5.13066
20
-3.67891
11
5.13279
21
-3.6821
0
LINE
8
BLACK
6
CONTINUOUS
10
5.13279
20
-3.6821
11
5.13354
21
-3.68587
0
LINE
8
BLACK
6
CONTINUOUS
10
5.13354
20
-3.68587
11
5.13354
21
-3.71244
0
LINE
8
BLACK
6
CONTINUOUS
10
5.13354
20
-3.71244
11
5.13279
21
-3.71621
0
LINE
8
BLACK
6
CONTINUOUS
10
5.13279
20
-3.71621
11
5.13066
21
-3.7194
0
LINE
8
BLACK
6
CONTINUOUS
10
5.13066
20
-3.7194
11
5.12747
21
-3.72153
0
LINE
8
BLACK
6
CONTINUOUS
10
5.12747
20
-3.72153
11
5.1237
21
-3.72228
0
LINE
8
BLACK
6
CONTINUOUS
10
5.1237
20
-3.72228
11
5.0863
21
-3.72228
0
LINE
8
BLACK
6
CONTINUOUS
10
5.0863
20
-3.72228
11
5.08253
21
-3.72153
0
LINE
8
BLACK
6
CONTINUOUS
10
5.08253
20
-3.72153
11
5.07934
21
-3.7194
0
LINE
8
BLACK
6
CONTINUOUS
10
5.07934
20
-3.7194
11
5.07721
21
-3.71621
0
LINE
8
BLACK
6
CONTINUOUS
10
5.07721
20
-3.71621
11
5.07646
21
-3.71244
0
LINE
8
BLACK
6
CONTINUOUS
10
5.07646
20
-3.71244
11
5.07646
21
-3.68587
0
LINE
8
BLACK
6
CONTINUOUS
10
5.07646
20
-3.68587
11
5.07721
21
-3.6821
0
LINE
8
BLACK
6
CONTINUOUS
10
5.07721
20
-3.6821
11
5.07934
21
-3.67891
0
LINE
8
BLACK
6
CONTINUOUS
10
5.07934
20
-3.67891
11
5.08253
21
-3.67677
0
LINE
8
BLACK
6
CONTINUOUS
10
5.08253
20
-3.67677
11
5.0863
21
-3.67602
0
LINE
8
BLACK
6
CONTINUOUS
10
5.0863
20
-3.67602
11
5.1237
21
-3.67602
0
LINE
8
BLACK
6
CONTINUOUS
10
5.1237
20
-3.67602
11
5.12747
21
-3.67677
0
LINE
8
BLACK
6
CONTINUOUS
10
5.72192
20
-3.66319
11
5.72511
21
-3.66532
0
LINE
8
BLACK
6
CONTINUOUS
10
5.72511
20
-3.66532
11
5.72724
21
-3.66852
0
LINE
8
BLACK
6
CONTINUOUS
10
5.72724
20
-3.66852
11
5.72799
21
-3.67228
0
LINE
8
BLACK
6
CONTINUOUS
10
5.72799
20
-3.67228
11
5.72799
21
-3.70772
0
LINE
8
BLACK
6
CONTINUOUS
10
5.72799
20
-3.70772
11
5.72724
21
-3.71148
0
LINE
8
BLACK
6
CONTINUOUS
10
5.72724
20
-3.71148
11
5.72511
21
-3.71468
0
LINE
8
BLACK
6
CONTINUOUS
10
5.72511
20
-3.71468
11
5.72192
21
-3.71681
0
LINE
8
BLACK
6
CONTINUOUS
10
5.72192
20
-3.71681
11
5.71815
21
-3.71756
0
LINE
8
BLACK
6
CONTINUOUS
10
5.71815
20
-3.71756
11
5.69059
21
-3.71756
0
LINE
8
BLACK
6
CONTINUOUS
10
5.69059
20
-3.71756
11
5.68682
21
-3.71681
0
LINE
8
BLACK
6
CONTINUOUS
10
5.68682
20
-3.71681
11
5.68363
21
-3.71468
0
LINE
8
BLACK
6
CONTINUOUS
10
5.68363
20
-3.71468
11
5.6815
21
-3.71148
0
LINE
8
BLACK
6
CONTINUOUS
10
5.6815
20
-3.71148
11
5.68075
21
-3.70772
0
LINE
8
BLACK
6
CONTINUOUS
10
5.68075
20
-3.70772
11
5.68075
21
-3.67228
0
LINE
8
BLACK
6
CONTINUOUS
10
5.68075
20
-3.67228
11
5.6815
21
-3.66852
0
LINE
8
BLACK
6
CONTINUOUS
10
5.6815
20
-3.66852
11
5.68363
21
-3.66532
0
LINE
8
BLACK
6
CONTINUOUS
10
5.68363
20
-3.66532
11
5.68682
21
-3.66319
0
LINE
8
BLACK
6
CONTINUOUS
10
5.68682
20
-3.66319
11
5.69059
21
-3.66244
0
LINE
8
BLACK
6
CONTINUOUS
10
5.69059
20
-3.66244
11
5.71815
21
-3.66244
0
LINE
8
BLACK
6
CONTINUOUS
10
5.71815
20
-3.66244
11
5.72192
21
-3.66319
0
LINE
8
BLACK
6
CONTINUOUS
10
5.64318
20
-3.66319
11
5.64637
21
-3.66532
0
LINE
8
BLACK
6
CONTINUOUS
10
5.64637
20
-3.66532
11
5.6485
21
-3.66852
0
LINE
8
BLACK
6
CONTINUOUS
10
5.6485
20
-3.66852
11
5.64925
21
-3.67228
0
LINE
8
BLACK
6
CONTINUOUS
10
5.64925
20
-3.67228
11
5.64925
21
-3.70772
0
LINE
8
BLACK
6
CONTINUOUS
10
5.64925
20
-3.70772
11
5.6485
21
-3.71148
0
LINE
8
BLACK
6
CONTINUOUS
10
5.6485
20
-3.71148
11
5.64637
21
-3.71468
0
LINE
8
BLACK
6
CONTINUOUS
10
5.64637
20
-3.71468
11
5.64318
21
-3.71681
0
LINE
8
BLACK
6
CONTINUOUS
10
5.64318
20
-3.71681
11
5.63941
21
-3.71756
0
LINE
8
BLACK
6
CONTINUOUS
10
5.63941
20
-3.71756
11
5.61185
21
-3.71756
0
LINE
8
BLACK
6
CONTINUOUS
10
5.61185
20
-3.71756
11
5.60808
21
-3.71681
0
LINE
8
BLACK
6
CONTINUOUS
10
5.60808
20
-3.71681
11
5.60489
21
-3.71468
0
LINE
8
BLACK
6
CONTINUOUS
10
5.60489
20
-3.71468
11
5.60276
21
-3.71148
0
LINE
8
BLACK
6
CONTINUOUS
10
5.60276
20
-3.71148
11
5.60201
21
-3.70772
0
LINE
8
BLACK
6
CONTINUOUS
10
5.60201
20
-3.70772
11
5.60201
21
-3.67228
0
LINE
8
BLACK
6
CONTINUOUS
10
5.60201
20
-3.67228
11
5.60276
21
-3.66852
0
LINE
8
BLACK
6
CONTINUOUS
10
5.60276
20
-3.66852
11
5.60489
21
-3.66532
0
LINE
8
BLACK
6
CONTINUOUS
10
5.60489
20
-3.66532
11
5.60808
21
-3.66319
0
LINE
8
BLACK
6
CONTINUOUS
10
5.60808
20
-3.66319
11
5.61185
21
-3.66244
0
LINE
8
BLACK
6
CONTINUOUS
10
5.61185
20
-3.66244
11
5.63941
21
-3.66244
0
LINE
8
BLACK
6
CONTINUOUS
10
5.63941
20
-3.66244
11
5.64318
21
-3.66319
0
LINE
8
BLACK
6
CONTINUOUS
10
5.41037
20
-3.71598
11
5.39463
21
-3.71598
0
LINE
8
BLACK
6
CONTINUOUS
10
5.39463
20
-3.71598
11
5.39463
21
-3.66874
0
LINE
8
BLACK
6
CONTINUOUS
10
5.39463
20
-3.66874
11
5.41037
21
-3.66874
0
LINE
8
BLACK
6
CONTINUOUS
10
5.41037
20
-3.66874
11
5.41037
21
-3.71598
0
LINE
8
BLACK
6
CONTINUOUS
10
5.43537
20
-3.71598
11
5.41963
21
-3.71598
0
LINE
8
BLACK
6
CONTINUOUS
10
5.41963
20
-3.71598
11
5.41963
21
-3.66874
0
LINE
8
BLACK
6
CONTINUOUS
10
5.41963
20
-3.66874
11
5.43537
21
-3.66874
0
LINE
8
BLACK
6
CONTINUOUS
10
5.43537
20
-3.66874
11
5.43537
21
-3.71598
0
LINE
8
BLACK
6
CONTINUOUS
10
5.46037
20
-3.71598
11
5.44463
21
-3.71598
0
LINE
8
BLACK
6
CONTINUOUS
10
5.44463
20
-3.71598
11
5.44463
21
-3.66874
0
LINE
8
BLACK
6
CONTINUOUS
10
5.44463
20
-3.66874
11
5.46037
21
-3.66874
0
LINE
8
BLACK
6
CONTINUOUS
10
5.46037
20
-3.66874
11
5.46037
21
-3.71598
0
LINE
8
BLACK
6
CONTINUOUS
10
5.48537
20
-3.71598
11
5.46963
21
-3.71598
0
LINE
8
BLACK
6
CONTINUOUS
10
5.46963
20
-3.71598
11
5.46963
21
-3.66874
0
LINE
8
BLACK
6
CONTINUOUS
10
5.46963
20
-3.66874
11
5.48537
21
-3.66874
0
LINE
8
BLACK
6
CONTINUOUS
10
5.48537
20
-3.66874
11
5.48537
21
-3.71598
0
LINE
8
BLACK
6
CONTINUOUS
10
5.31037
20
-3.71598
11
5.29463
21
-3.71598
0
LINE
8
BLACK
6
CONTINUOUS
10
5.29463
20
-3.71598
11
5.29463
21
-3.66874
0
LINE
8
BLACK
6
CONTINUOUS
10
5.29463
20
-3.66874
11
5.31037
21
-3.66874
0
LINE
8
BLACK
6
CONTINUOUS
10
5.31037
20
-3.66874
11
5.31037
21
-3.71598
0
LINE
8
BLACK
6
CONTINUOUS
10
5.33537
20
-3.71598
11
5.31963
21
-3.71598
0
LINE
8
BLACK
6
CONTINUOUS
10
5.31963
20
-3.71598
11
5.31963
21
-3.66874
0
LINE
8
BLACK
6
CONTINUOUS
10
5.31963
20
-3.66874
11
5.33537
21
-3.66874
0
LINE
8
BLACK
6
CONTINUOUS
10
5.33537
20
-3.66874
11
5.33537
21
-3.71598
0
LINE
8
BLACK
6
CONTINUOUS
10
5.36037
20
-3.71598
11
5.34463
21
-3.71598
0
LINE
8
BLACK
6
CONTINUOUS
10
5.34463
20
-3.71598
11
5.34463
21
-3.66874
0
LINE
8
BLACK
6
CONTINUOUS
10
5.34463
20
-3.66874
11
5.36037
21
-3.66874
0
LINE
8
BLACK
6
CONTINUOUS
10
5.36037
20
-3.66874
11
5.36037
21
-3.71598
0
LINE
8
BLACK
6
CONTINUOUS
10
5.38537
20
-3.71598
11
5.36963
21
-3.71598
0
LINE
8
BLACK
6
CONTINUOUS
10
5.36963
20
-3.71598
11
5.36963
21
-3.66874
0
LINE
8
BLACK
6
CONTINUOUS
10
5.36963
20
-3.66874
11
5.38537
21
-3.66874
0
LINE
8
BLACK
6
CONTINUOUS
10
5.38537
20
-3.66874
11
5.38537
21
-3.71598
0
LINE
8
BLACK
6
CONTINUOUS
10
5.12648
20
-3.55713
11
5.12968
21
-3.55926
0
LINE
8
BLACK
6
CONTINUOUS
10
5.12968
20
-3.55926
11
5.13181
21
-3.56245
0
LINE
8
BLACK
6
CONTINUOUS
10
5.13181
20
-3.56245
11
5.13256
21
-3.56622
0
LINE
8
BLACK
6
CONTINUOUS
10
5.13256
20
-3.56622
11
5.13256
21
-3.59378
0
LINE
8
BLACK
6
CONTINUOUS
10
5.13256
20
-3.59378
11
5.13181
21
-3.59755
0
LINE
8
BLACK
6
CONTINUOUS
10
5.13181
20
-3.59755
11
5.12968
21
-3.60074
0
LINE
8
BLACK
6
CONTINUOUS
10
5.12968
20
-3.60074
11
5.12648
21
-3.60287
0
LINE
8
BLACK
6
CONTINUOUS
10
5.12648
20
-3.60287
11
5.12272
21
-3.60362
0
LINE
8
BLACK
6
CONTINUOUS
10
5.12272
20
-3.60362
11
5.08728
21
-3.60362
0
LINE
8
BLACK
6
CONTINUOUS
10
5.08728
20
-3.60362
11
5.08352
21
-3.60287
0
LINE
8
BLACK
6
CONTINUOUS
10
5.08352
20
-3.60287
11
5.08032
21
-3.60074
0
LINE
8
BLACK
6
CONTINUOUS
10
5.08032
20
-3.60074
11
5.07819
21
-3.59755
0
LINE
8
BLACK
6
CONTINUOUS
10
5.07819
20
-3.59755
11
5.07744
21
-3.59378
0
LINE
8
BLACK
6
CONTINUOUS
10
5.07744
20
-3.59378
11
5.07744
21
-3.56622
0
LINE
8
BLACK
6
CONTINUOUS
10
5.07744
20
-3.56622
11
5.07819
21
-3.56245
0
LINE
8
BLACK
6
CONTINUOUS
10
5.07819
20
-3.56245
11
5.08032
21
-3.55926
0
LINE
8
BLACK
6
CONTINUOUS
10
5.08032
20
-3.55926
11
5.08352
21
-3.55713
0
LINE
8
BLACK
6
CONTINUOUS
10
5.08352
20
-3.55713
11
5.08728
21
-3.55638
0
LINE
8
BLACK
6
CONTINUOUS
10
5.08728
20
-3.55638
11
5.12272
21
-3.55638
0
LINE
8
BLACK
6
CONTINUOUS
10
5.12272
20
-3.55638
11
5.12648
21
-3.55713
0
LINE
8
BLACK
6
CONTINUOUS
10
5.90036
20
-3.52221
11
5.90355
21
-3.52434
0
LINE
8
BLACK
6
CONTINUOUS
10
5.90355
20
-3.52434
11
5.90569
21
-3.52753
0
LINE
8
BLACK
6
CONTINUOUS
10
5.90569
20
-3.52753
11
5.90644
21
-3.5313
0
LINE
8
BLACK
6
CONTINUOUS
10
5.90644
20
-3.5313
11
5.90644
21
-3.5687
0
LINE
8
BLACK
6
CONTINUOUS
10
5.90644
20
-3.5687
11
5.90569
21
-3.57247
0
LINE
8
BLACK
6
CONTINUOUS
10
5.90569
20
-3.57247
11
5.90355
21
-3.57566
0
LINE
8
BLACK
6
CONTINUOUS
10
5.90355
20
-3.57566
11
5.90036
21
-3.57779
0
LINE
8
BLACK
6
CONTINUOUS
10
5.90036
20
-3.57779
11
5.89659
21
-3.57854
0
LINE
8
BLACK
6
CONTINUOUS
10
5.89659
20
-3.57854
11
5.87002
21
-3.57854
0
LINE
8
BLACK
6
CONTINUOUS
10
5.87002
20
-3.57854
11
5.86625
21
-3.57779
0
LINE
8
BLACK
6
CONTINUOUS
10
5.86625
20
-3.57779
11
5.86306
21
-3.57566
0
LINE
8
BLACK
6
CONTINUOUS
10
5.86306
20
-3.57566
11
5.86093
21
-3.57247
0
LINE
8
BLACK
6
CONTINUOUS
10
5.86093
20
-3.57247
11
5.86018
21
-3.5687
0
LINE
8
BLACK
6
CONTINUOUS
10
5.86018
20
-3.5687
11
5.86018
21
-3.5313
0
LINE
8
BLACK
6
CONTINUOUS
10
5.86018
20
-3.5313
11
5.86093
21
-3.52753
0
LINE
8
BLACK
6
CONTINUOUS
10
5.86093
20
-3.52753
11
5.86306
21
-3.52434
0
LINE
8
BLACK
6
CONTINUOUS
10
5.86306
20
-3.52434
11
5.86625
21
-3.52221
0
LINE
8
BLACK
6
CONTINUOUS
10
5.86625
20
-3.52221
11
5.87002
21
-3.52146
0
LINE
8
BLACK
6
CONTINUOUS
10
5.87002
20
-3.52146
11
5.89659
21
-3.52146
0
LINE
8
BLACK
6
CONTINUOUS
10
5.89659
20
-3.52146
11
5.90036
21
-3.52221
0
LINE
8
BLACK
6
CONTINUOUS
10
5.98205
20
-3.52221
11
5.98525
21
-3.52434
0
LINE
8
BLACK
6
CONTINUOUS
10
5.98525
20
-3.52434
11
5.98738
21
-3.52753
0
LINE
8
BLACK
6
CONTINUOUS
10
5.98738
20
-3.52753
11
5.98813
21
-3.5313
0
LINE
8
BLACK
6
CONTINUOUS
10
5.98813
20
-3.5313
11
5.98813
21
-3.5687
0
LINE
8
BLACK
6
CONTINUOUS
10
5.98813
20
-3.5687
11
5.98738
21
-3.57247
0
LINE
8
BLACK
6
CONTINUOUS
10
5.98738
20
-3.57247
11
5.98525
21
-3.57566
0
LINE
8
BLACK
6
CONTINUOUS
10
5.98525
20
-3.57566
11
5.98205
21
-3.57779
0
LINE
8
BLACK
6
CONTINUOUS
10
5.98205
20
-3.57779
11
5.97829
21
-3.57854
0
LINE
8
BLACK
6
CONTINUOUS
10
5.97829
20
-3.57854
11
5.95171
21
-3.57854
0
LINE
8
BLACK
6
CONTINUOUS
10
5.95171
20
-3.57854
11
5.94795
21
-3.57779
0
LINE
8
BLACK
6
CONTINUOUS
10
5.94795
20
-3.57779
11
5.94475
21
-3.57566
0
LINE
8
BLACK
6
CONTINUOUS
10
5.94475
20
-3.57566
11
5.94262
21
-3.57247
0
LINE
8
BLACK
6
CONTINUOUS
10
5.94262
20
-3.57247
11
5.94187
21
-3.5687
0
LINE
8
BLACK
6
CONTINUOUS
10
5.94187
20
-3.5687
11
5.94187
21
-3.5313
0
LINE
8
BLACK
6
CONTINUOUS
10
5.94187
20
-3.5313
11
5.94262
21
-3.52753
0
LINE
8
BLACK
6
CONTINUOUS
10
5.94262
20
-3.52753
11
5.94475
21
-3.52434
0
LINE
8
BLACK
6
CONTINUOUS
10
5.94475
20
-3.52434
11
5.94795
21
-3.52221
0
LINE
8
BLACK
6
CONTINUOUS
10
5.94795
20
-3.52221
11
5.95171
21
-3.52146
0
LINE
8
BLACK
6
CONTINUOUS
10
5.95171
20
-3.52146
11
5.97829
21
-3.52146
0
LINE
8
BLACK
6
CONTINUOUS
10
5.97829
20
-3.52146
11
5.98205
21
-3.52221
0
LINE
8
BLACK
6
CONTINUOUS
10
6.10036
20
-3.52221
11
6.10355
21
-3.52434
0
LINE
8
BLACK
6
CONTINUOUS
10
6.10355
20
-3.52434
11
6.10569
21
-3.52753
0
LINE
8
BLACK
6
CONTINUOUS
10
6.10569
20
-3.52753
11
6.10644
21
-3.5313
0
LINE
8
BLACK
6
CONTINUOUS
10
6.10644
20
-3.5313
11
6.10644
21
-3.5687
0
LINE
8
BLACK
6
CONTINUOUS
10
6.10644
20
-3.5687
11
6.10569
21
-3.57247
0
LINE
8
BLACK
6
CONTINUOUS
10
6.10569
20
-3.57247
11
6.10355
21
-3.57566
0
LINE
8
BLACK
6
CONTINUOUS
10
6.10355
20
-3.57566
11
6.10036
21
-3.57779
0
LINE
8
BLACK
6
CONTINUOUS
10
6.10036
20
-3.57779
11
6.09659
21
-3.57854
0
LINE
8
BLACK
6
CONTINUOUS
10
6.09659
20
-3.57854
11
6.07002
21
-3.57854
0
LINE
8
BLACK
6
CONTINUOUS
10
6.07002
20
-3.57854
11
6.06625
21
-3.57779
0
LINE
8
BLACK
6
CONTINUOUS
10
6.06625
20
-3.57779
11
6.06306
21
-3.57566
0
LINE
8
BLACK
6
CONTINUOUS
10
6.06306
20
-3.57566
11
6.06093
21
-3.57247
0
LINE
8
BLACK
6
CONTINUOUS
10
6.06093
20
-3.57247
11
6.06018
21
-3.5687
0
LINE
8
BLACK
6
CONTINUOUS
10
6.06018
20
-3.5687
11
6.06018
21
-3.5313
0
LINE
8
BLACK
6
CONTINUOUS
10
6.06018
20
-3.5313
11
6.06093
21
-3.52753
0
LINE
8
BLACK
6
CONTINUOUS
10
6.06093
20
-3.52753
11
6.06306
21
-3.52434
0
LINE
8
BLACK
6
CONTINUOUS
10
6.06306
20
-3.52434
11
6.06625
21
-3.52221
0
LINE
8
BLACK
6
CONTINUOUS
10
6.06625
20
-3.52221
11
6.07002
21
-3.52146
0
LINE
8
BLACK
6
CONTINUOUS
10
6.07002
20
-3.52146
11
6.09659
21
-3.52146
0
LINE
8
BLACK
6
CONTINUOUS
10
6.09659
20
-3.52146
11
6.10036
21
-3.52221
0
LINE
8
BLACK
6
CONTINUOUS
10
6.18205
20
-3.52221
11
6.18525
21
-3.52434
0
LINE
8
BLACK
6
CONTINUOUS
10
6.18525
20
-3.52434
11
6.18738
21
-3.52753
0
LINE
8
BLACK
6
CONTINUOUS
10
6.18738
20
-3.52753
11
6.18813
21
-3.5313
0
LINE
8
BLACK
6
CONTINUOUS
10
6.18813
20
-3.5313
11
6.18813
21
-3.5687
0
LINE
8
BLACK
6
CONTINUOUS
10
6.18813
20
-3.5687
11
6.18738
21
-3.57247
0
LINE
8
BLACK
6
CONTINUOUS
10
6.18738
20
-3.57247
11
6.18525
21
-3.57566
0
LINE
8
BLACK
6
CONTINUOUS
10
6.18525
20
-3.57566
11
6.18205
21
-3.57779
0
LINE
8
BLACK
6
CONTINUOUS
10
6.18205
20
-3.57779
11
6.17829
21
-3.57854
0
LINE
8
BLACK
6
CONTINUOUS
10
6.17829
20
-3.57854
11
6.15171
21
-3.57854
0
LINE
8
BLACK
6
CONTINUOUS
10
6.15171
20
-3.57854
11
6.14795
21
-3.57779
0
LINE
8
BLACK
6
CONTINUOUS
10
6.14795
20
-3.57779
11
6.14475
21
-3.57566
0
LINE
8
BLACK
6
CONTINUOUS
10
6.14475
20
-3.57566
11
6.14262
21
-3.57247
0
LINE
8
BLACK
6
CONTINUOUS
10
6.14262
20
-3.57247
11
6.14187
21
-3.5687
0
LINE
8
BLACK
6
CONTINUOUS
10
6.14187
20
-3.5687
11
6.14187
21
-3.5313
0
LINE
8
BLACK
6
CONTINUOUS
10
6.14187
20
-3.5313
11
6.14262
21
-3.52753
0
LINE
8
BLACK
6
CONTINUOUS
10
6.14262
20
-3.52753
11
6.14475
21
-3.52434
0
LINE
8
BLACK
6
CONTINUOUS
10
6.14475
20
-3.52434
11
6.14795
21
-3.52221
0
LINE
8
BLACK
6
CONTINUOUS
10
6.14795
20
-3.52221
11
6.15171
21
-3.52146
0
LINE
8
BLACK
6
CONTINUOUS
10
6.15171
20
-3.52146
11
6.17829
21
-3.52146
0
LINE
8
BLACK
6
CONTINUOUS
10
6.17829
20
-3.52146
11
6.18205
21
-3.52221
0
LINE
8
BLACK
6
CONTINUOUS
10
5.73205
20
-3.48721
11
5.73525
21
-3.48934
0
LINE
8
BLACK
6
CONTINUOUS
10
5.73525
20
-3.48934
11
5.73738
21
-3.49253
0
LINE
8
BLACK
6
CONTINUOUS
10
5.73738
20
-3.49253
11
5.73813
21
-3.4963
0
LINE
8
BLACK
6
CONTINUOUS
10
5.73813
20
-3.4963
11
5.73813
21
-3.5337
0
LINE
8
BLACK
6
CONTINUOUS
10
5.73813
20
-3.5337
11
5.73738
21
-3.53747
0
LINE
8
BLACK
6
CONTINUOUS
10
5.73738
20
-3.53747
11
5.73525
21
-3.54066
0
LINE
8
BLACK
6
CONTINUOUS
10
5.73525
20
-3.54066
11
5.73205
21
-3.54279
0
LINE
8
BLACK
6
CONTINUOUS
10
5.73205
20
-3.54279
11
5.72829
21
-3.54354
0
LINE
8
BLACK
6
CONTINUOUS
10
5.72829
20
-3.54354
11
5.70171
21
-3.54354
0
LINE
8
BLACK
6
CONTINUOUS
10
5.70171
20
-3.54354
11
5.69795
21
-3.54279
0
LINE
8
BLACK
6
CONTINUOUS
10
5.69795
20
-3.54279
11
5.69475
21
-3.54066
0
LINE
8
BLACK
6
CONTINUOUS
10
5.69475
20
-3.54066
11
5.69262
21
-3.53747
0
LINE
8
BLACK
6
CONTINUOUS
10
5.69262
20
-3.53747
11
5.69187
21
-3.5337
0
LINE
8
BLACK
6
CONTINUOUS
10
5.69187
20
-3.5337
11
5.69187
21
-3.4963
0
LINE
8
BLACK
6
CONTINUOUS
10
5.69187
20
-3.4963
11
5.69262
21
-3.49253
0
LINE
8
BLACK
6
CONTINUOUS
10
5.69262
20
-3.49253
11
5.69475
21
-3.48934
0
LINE
8
BLACK
6
CONTINUOUS
10
5.69475
20
-3.48934
11
5.69795
21
-3.48721
0
LINE
8
BLACK
6
CONTINUOUS
10
5.69795
20
-3.48721
11
5.70171
21
-3.48646
0
LINE
8
BLACK
6
CONTINUOUS
10
5.70171
20
-3.48646
11
5.72829
21
-3.48646
0
LINE
8
BLACK
6
CONTINUOUS
10
5.72829
20
-3.48646
11
5.73205
21
-3.48721
0
LINE
8
BLACK
6
CONTINUOUS
10
5.65036
20
-3.48721
11
5.65355
21
-3.48934
0
LINE
8
BLACK
6
CONTINUOUS
10
5.65355
20
-3.48934
11
5.65569
21
-3.49253
0
LINE
8
BLACK
6
CONTINUOUS
10
5.65569
20
-3.49253
11
5.65644
21
-3.4963
0
LINE
8
BLACK
6
CONTINUOUS
10
5.65644
20
-3.4963
11
5.65644
21
-3.5337
0
LINE
8
BLACK
6
CONTINUOUS
10
5.65644
20
-3.5337
11
5.65569
21
-3.53747
0
LINE
8
BLACK
6
CONTINUOUS
10
5.65569
20
-3.53747
11
5.65355
21
-3.54066
0
LINE
8
BLACK
6
CONTINUOUS
10
5.65355
20
-3.54066
11
5.65036
21
-3.54279
0
LINE
8
BLACK
6
CONTINUOUS
10
5.65036
20
-3.54279
11
5.64659
21
-3.54354
0
LINE
8
BLACK
6
CONTINUOUS
10
5.64659
20
-3.54354
11
5.62002
21
-3.54354
0
LINE
8
BLACK
6
CONTINUOUS
10
5.62002
20
-3.54354
11
5.61625
21
-3.54279
0
LINE
8
BLACK
6
CONTINUOUS
10
5.61625
20
-3.54279
11
5.61306
21
-3.54066
0
LINE
8
BLACK
6
CONTINUOUS
10
5.61306
20
-3.54066
11
5.61093
21
-3.53747
0
LINE
8
BLACK
6
CONTINUOUS
10
5.61093
20
-3.53747
11
5.61018
21
-3.5337
0
LINE
8
BLACK
6
CONTINUOUS
10
5.61018
20
-3.5337
11
5.61018
21
-3.4963
0
LINE
8
BLACK
6
CONTINUOUS
10
5.61018
20
-3.4963
11
5.61093
21
-3.49253
0
LINE
8
BLACK
6
CONTINUOUS
10
5.61093
20
-3.49253
11
5.61306
21
-3.48934
0
LINE
8
BLACK
6
CONTINUOUS
10
5.61306
20
-3.48934
11
5.61625
21
-3.48721
0
LINE
8
BLACK
6
CONTINUOUS
10
5.61625
20
-3.48721
11
5.62002
21
-3.48646
0
LINE
8
BLACK
6
CONTINUOUS
10
5.62002
20
-3.48646
11
5.64659
21
-3.48646
0
LINE
8
BLACK
6
CONTINUOUS
10
5.64659
20
-3.48646
11
5.65036
21
-3.48721
0
LINE
8
BLACK
6
CONTINUOUS
10
5.12648
20
-3.47839
11
5.12968
21
-3.48052
0
LINE
8
BLACK
6
CONTINUOUS
10
5.12968
20
-3.48052
11
5.13181
21
-3.48371
0
LINE
8
BLACK
6
CONTINUOUS
10
5.13181
20
-3.48371
11
5.13256
21
-3.48748
0
LINE
8
BLACK
6
CONTINUOUS
10
5.13256
20
-3.48748
11
5.13256
21
-3.51504
0
LINE
8
BLACK
6
CONTINUOUS
10
5.13256
20
-3.51504
11
5.13181
21
-3.51881
0
LINE
8
BLACK
6
CONTINUOUS
10
5.13181
20
-3.51881
11
5.12968
21
-3.522
0
LINE
8
BLACK
6
CONTINUOUS
10
5.12968
20
-3.522
11
5.12648
21
-3.52413
0
LINE
8
BLACK
6
CONTINUOUS
10
5.12648
20
-3.52413
11
5.12272
21
-3.52488
0
LINE
8
BLACK
6
CONTINUOUS
10
5.12272
20
-3.52488
11
5.08728
21
-3.52488
0
LINE
8
BLACK
6
CONTINUOUS
10
5.08728
20
-3.52488
11
5.08352
21
-3.52413
0
LINE
8
BLACK
6
CONTINUOUS
10
5.08352
20
-3.52413
11
5.08032
21
-3.522
0
LINE
8
BLACK
6
CONTINUOUS
10
5.08032
20
-3.522
11
5.07819
21
-3.51881
0
LINE
8
BLACK
6
CONTINUOUS
10
5.07819
20
-3.51881
11
5.07744
21
-3.51504
0
LINE
8
BLACK
6
CONTINUOUS
10
5.07744
20
-3.51504
11
5.07744
21
-3.48748
0
LINE
8
BLACK
6
CONTINUOUS
10
5.07744
20
-3.48748
11
5.07819
21
-3.48371
0
LINE
8
BLACK
6
CONTINUOUS
10
5.07819
20
-3.48371
11
5.08032
21
-3.48052
0
LINE
8
BLACK
6
CONTINUOUS
10
5.08032
20
-3.48052
11
5.08352
21
-3.47839
0
LINE
8
BLACK
6
CONTINUOUS
10
5.08352
20
-3.47839
11
5.08728
21
-3.47764
0
LINE
8
BLACK
6
CONTINUOUS
10
5.08728
20
-3.47764
11
5.12272
21
-3.47764
0
LINE
8
BLACK
6
CONTINUOUS
10
5.12272
20
-3.47764
11
5.12648
21
-3.47839
0
LINE
8
BLACK
6
CONTINUOUS
10
5.46037
20
-3.51126
11
5.44463
21
-3.51126
0
LINE
8
BLACK
6
CONTINUOUS
10
5.44463
20
-3.51126
11
5.44463
21
-3.46402
0
LINE
8
BLACK
6
CONTINUOUS
10
5.44463
20
-3.46402
11
5.46037
21
-3.46402
0
LINE
8
BLACK
6
CONTINUOUS
10
5.46037
20
-3.46402
11
5.46037
21
-3.51126
0
LINE
8
BLACK
6
CONTINUOUS
10
5.48537
20
-3.51126
11
5.46963
21
-3.51126
0
LINE
8
BLACK
6
CONTINUOUS
10
5.46963
20
-3.51126
11
5.46963
21
-3.46402
0
LINE
8
BLACK
6
CONTINUOUS
10
5.46963
20
-3.46402
11
5.48537
21
-3.46402
0
LINE
8
BLACK
6
CONTINUOUS
10
5.48537
20
-3.46402
11
5.48537
21
-3.51126
0
LINE
8
BLACK
6
CONTINUOUS
10
5.31037
20
-3.51126
11
5.29463
21
-3.51126
0
LINE
8
BLACK
6
CONTINUOUS
10
5.29463
20
-3.51126
11
5.29463
21
-3.46402
0
LINE
8
BLACK
6
CONTINUOUS
10
5.29463
20
-3.46402
11
5.31037
21
-3.46402
0
LINE
8
BLACK
6
CONTINUOUS
10
5.31037
20
-3.46402
11
5.31037
21
-3.51126
0
LINE
8
BLACK
6
CONTINUOUS
10
5.33537
20
-3.51126
11
5.31963
21
-3.51126
0
LINE
8
BLACK
6
CONTINUOUS
10
5.31963
20
-3.51126
11
5.31963
21
-3.46402
0
LINE
8
BLACK
6
CONTINUOUS
10
5.31963
20
-3.46402
11
5.33537
21
-3.46402
0
LINE
8
BLACK
6
CONTINUOUS
10
5.33537
20
-3.46402
11
5.33537
21
-3.51126
0
LINE
8
BLACK
6
CONTINUOUS
10
5.36037
20
-3.51126
11
5.34463
21
-3.51126
0
LINE
8
BLACK
6
CONTINUOUS
10
5.34463
20
-3.51126
11
5.34463
21
-3.46402
0
LINE
8
BLACK
6
CONTINUOUS
10
5.34463
20
-3.46402
11
5.36037
21
-3.46402
0
LINE
8
BLACK
6
CONTINUOUS
10
5.36037
20
-3.46402
11
5.36037
21
-3.51126
0
LINE
8
BLACK
6
CONTINUOUS
10
5.38537
20
-3.51126
11
5.36963
21
-3.51126
0
LINE
8
BLACK
6
CONTINUOUS
10
5.36963
20
-3.51126
11
5.36963
21
-3.46402
0
LINE
8
BLACK
6
CONTINUOUS
10
5.36963
20
-3.46402
11
5.38537
21
-3.46402
0
LINE
8
BLACK
6
CONTINUOUS
10
5.38537
20
-3.46402
11
5.38537
21
-3.51126
0
LINE
8
BLACK
6
CONTINUOUS
10
5.41037
20
-3.51126
11
5.39463
21
-3.51126
0
LINE
8
BLACK
6
CONTINUOUS
10
5.39463
20
-3.51126
11
5.39463
21
-3.46402
0
LINE
8
BLACK
6
CONTINUOUS
10
5.39463
20
-3.46402
11
5.41037
21
-3.46402
0
LINE
8
BLACK
6
CONTINUOUS
10
5.41037
20
-3.46402
11
5.41037
21
-3.51126
0
LINE
8
BLACK
6
CONTINUOUS
10
5.43537
20
-3.51126
11
5.41963
21
-3.51126
0
LINE
8
BLACK
6
CONTINUOUS
10
5.41963
20
-3.51126
11
5.41963
21
-3.46402
0
LINE
8
BLACK
6
CONTINUOUS
10
5.41963
20
-3.46402
11
5.43537
21
-3.46402
0
LINE
8
BLACK
6
CONTINUOUS
10
5.43537
20
-3.46402
11
5.43537
21
-3.51126
0
LINE
8
BLACK
6
CONTINUOUS
10
5.13148
20
-3.3665
11
5.13468
21
-3.36863
0
LINE
8
BLACK
6
CONTINUOUS
10
5.13468
20
-3.36863
11
5.13681
21
-3.37182
0
LINE
8
BLACK
6
CONTINUOUS
10
5.13681
20
-3.37182
11
5.13756
21
-3.37559
0
LINE
8
BLACK
6
CONTINUOUS
10
5.13756
20
-3.37559
11
5.13756
21
-3.40315
0
LINE
8
BLACK
6
CONTINUOUS
10
5.13756
20
-3.40315
11
5.13681
21
-3.40692
0
LINE
8
BLACK
6
CONTINUOUS
10
5.13681
20
-3.40692
11
5.13468
21
-3.41011
0
LINE
8
BLACK
6
CONTINUOUS
10
5.13468
20
-3.41011
11
5.13148
21
-3.41224
0
LINE
8
BLACK
6
CONTINUOUS
10
5.13148
20
-3.41224
11
5.12772
21
-3.41299
0
LINE
8
BLACK
6
CONTINUOUS
10
5.12772
20
-3.41299
11
5.09228
21
-3.41299
0
LINE
8
BLACK
6
CONTINUOUS
10
5.09228
20
-3.41299
11
5.08852
21
-3.41224
0
LINE
8
BLACK
6
CONTINUOUS
10
5.08852
20
-3.41224
11
5.08532
21
-3.41011
0
LINE
8
BLACK
6
CONTINUOUS
10
5.08532
20
-3.41011
11
5.08319
21
-3.40692
0
LINE
8
BLACK
6
CONTINUOUS
10
5.08319
20
-3.40692
11
5.08244
21
-3.40315
0
LINE
8
BLACK
6
CONTINUOUS
10
5.08244
20
-3.40315
11
5.08244
21
-3.37559
0
LINE
8
BLACK
6
CONTINUOUS
10
5.08244
20
-3.37559
11
5.08319
21
-3.37182
0
LINE
8
BLACK
6
CONTINUOUS
10
5.08319
20
-3.37182
11
5.08532
21
-3.36863
0
LINE
8
BLACK
6
CONTINUOUS
10
5.08532
20
-3.36863
11
5.08852
21
-3.3665
0
LINE
8
BLACK
6
CONTINUOUS
10
5.08852
20
-3.3665
11
5.09228
21
-3.36575
0
LINE
8
BLACK
6
CONTINUOUS
10
5.09228
20
-3.36575
11
5.12772
21
-3.36575
0
LINE
8
BLACK
6
CONTINUOUS
10
5.12772
20
-3.36575
11
5.13148
21
-3.3665
0
LINE
8
BLACK
6
CONTINUOUS
10
5.53747
20
-3.35347
11
5.54066
21
-3.3556
0
LINE
8
BLACK
6
CONTINUOUS
10
5.54066
20
-3.3556
11
5.54279
21
-3.35879
0
LINE
8
BLACK
6
CONTINUOUS
10
5.54279
20
-3.35879
11
5.54354
21
-3.36256
0
LINE
8
BLACK
6
CONTINUOUS
10
5.54354
20
-3.36256
11
5.54354
21
-3.38913
0
LINE
8
BLACK
6
CONTINUOUS
10
5.54354
20
-3.38913
11
5.54279
21
-3.3929
0
LINE
8
BLACK
6
CONTINUOUS
10
5.54279
20
-3.3929
11
5.54066
21
-3.39609
0
LINE
8
BLACK
6
CONTINUOUS
10
5.54066
20
-3.39609
11
5.53747
21
-3.39823
0
LINE
8
BLACK
6
CONTINUOUS
10
5.53747
20
-3.39823
11
5.5337
21
-3.39898
0
LINE
8
BLACK
6
CONTINUOUS
10
5.5337
20
-3.39898
11
5.4963
21
-3.39898
0
LINE
8
BLACK
6
CONTINUOUS
10
5.4963
20
-3.39898
11
5.49253
21
-3.39823
0
LINE
8
BLACK
6
CONTINUOUS
10
5.49253
20
-3.39823
11
5.48934
21
-3.39609
0
LINE
8
BLACK
6
CONTINUOUS
10
5.48934
20
-3.39609
11
5.48721
21
-3.3929
0
LINE
8
BLACK
6
CONTINUOUS
10
5.48721
20
-3.3929
11
5.48646
21
-3.38913
0
LINE
8
BLACK
6
CONTINUOUS
10
5.48646
20
-3.38913
11
5.48646
21
-3.36256
0
LINE
8
BLACK
6
CONTINUOUS
10
5.48646
20
-3.36256
11
5.48721
21
-3.35879
0
LINE
8
BLACK
6
CONTINUOUS
10
5.48721
20
-3.35879
11
5.48934
21
-3.3556
0
LINE
8
BLACK
6
CONTINUOUS
10
5.48934
20
-3.3556
11
5.49253
21
-3.35347
0
LINE
8
BLACK
6
CONTINUOUS
10
5.49253
20
-3.35347
11
5.4963
21
-3.35272
0
LINE
8
BLACK
6
CONTINUOUS
10
5.4963
20
-3.35272
11
5.5337
21
-3.35272
0
LINE
8
BLACK
6
CONTINUOUS
10
5.5337
20
-3.35272
11
5.53747
21
-3.35347
0
LINE
8
BLACK
6
CONTINUOUS
10
6.1729
20
-3.32221
11
6.17609
21
-3.32434
0
LINE
8
BLACK
6
CONTINUOUS
10
6.17609
20
-3.32434
11
6.17823
21
-3.32753
0
LINE
8
BLACK
6
CONTINUOUS
10
6.17823
20
-3.32753
11
6.17898
21
-3.3313
0
LINE
8
BLACK
6
CONTINUOUS
10
6.17898
20
-3.3313
11
6.17898
21
-3.3687
0
LINE
8
BLACK
6
CONTINUOUS
10
6.17898
20
-3.3687
11
6.17823
21
-3.37247
0
LINE
8
BLACK
6
CONTINUOUS
10
6.17823
20
-3.37247
11
6.17609
21
-3.37566
0
LINE
8
BLACK
6
CONTINUOUS
10
6.17609
20
-3.37566
11
6.1729
21
-3.37779
0
LINE
8
BLACK
6
CONTINUOUS
10
6.1729
20
-3.37779
11
6.16913
21
-3.37854
0
LINE
8
BLACK
6
CONTINUOUS
10
6.16913
20
-3.37854
11
6.14256
21
-3.37854
0
LINE
8
BLACK
6
CONTINUOUS
10
6.14256
20
-3.37854
11
6.13879
21
-3.37779
0
LINE
8
BLACK
6
CONTINUOUS
10
6.13879
20
-3.37779
11
6.1356
21
-3.37566
0
LINE
8
BLACK
6
CONTINUOUS
10
6.1356
20
-3.37566
11
6.13347
21
-3.37247
0
LINE
8
BLACK
6
CONTINUOUS
10
6.13347
20
-3.37247
11
6.13272
21
-3.3687
0
LINE
8
BLACK
6
CONTINUOUS
10
6.13272
20
-3.3687
11
6.13272
21
-3.3313
0
LINE
8
BLACK
6
CONTINUOUS
10
6.13272
20
-3.3313
11
6.13347
21
-3.32753
0
LINE
8
BLACK
6
CONTINUOUS
10
6.13347
20
-3.32753
11
6.1356
21
-3.32434
0
LINE
8
BLACK
6
CONTINUOUS
10
6.1356
20
-3.32434
11
6.13879
21
-3.32221
0
LINE
8
BLACK
6
CONTINUOUS
10
6.13879
20
-3.32221
11
6.14256
21
-3.32146
0
LINE
8
BLACK
6
CONTINUOUS
10
6.14256
20
-3.32146
11
6.16913
21
-3.32146
0
LINE
8
BLACK
6
CONTINUOUS
10
6.16913
20
-3.32146
11
6.1729
21
-3.32221
0
LINE
8
BLACK
6
CONTINUOUS
10
5.90036
20
-3.32221
11
5.90355
21
-3.32434
0
LINE
8
BLACK
6
CONTINUOUS
10
5.90355
20
-3.32434
11
5.90569
21
-3.32753
0
LINE
8
BLACK
6
CONTINUOUS
10
5.90569
20
-3.32753
11
5.90644
21
-3.3313
0
LINE
8
BLACK
6
CONTINUOUS
10
5.90644
20
-3.3313
11
5.90644
21
-3.3687
0
LINE
8
BLACK
6
CONTINUOUS
10
5.90644
20
-3.3687
11
5.90569
21
-3.37247
0
LINE
8
BLACK
6
CONTINUOUS
10
5.90569
20
-3.37247
11
5.90355
21
-3.37566
0
LINE
8
BLACK
6
CONTINUOUS
10
5.90355
20
-3.37566
11
5.90036
21
-3.37779
0
LINE
8
BLACK
6
CONTINUOUS
10
5.90036
20
-3.37779
11
5.89659
21
-3.37854
0
LINE
8
BLACK
6
CONTINUOUS
10
5.89659
20
-3.37854
11
5.87002
21
-3.37854
0
LINE
8
BLACK
6
CONTINUOUS
10
5.87002
20
-3.37854
11
5.86625
21
-3.37779
0
LINE
8
BLACK
6
CONTINUOUS
10
5.86625
20
-3.37779
11
5.86306
21
-3.37566
0
LINE
8
BLACK
6
CONTINUOUS
10
5.86306
20
-3.37566
11
5.86093
21
-3.37247
0
LINE
8
BLACK
6
CONTINUOUS
10
5.86093
20
-3.37247
11
5.86018
21
-3.3687
0
LINE
8
BLACK
6
CONTINUOUS
10
5.86018
20
-3.3687
11
5.86018
21
-3.3313
0
LINE
8
BLACK
6
CONTINUOUS
10
5.86018
20
-3.3313
11
5.86093
21
-3.32753
0
LINE
8
BLACK
6
CONTINUOUS
10
5.86093
20
-3.32753
11
5.86306
21
-3.32434
0
LINE
8
BLACK
6
CONTINUOUS
10
5.86306
20
-3.32434
11
5.86625
21
-3.32221
0
LINE
8
BLACK
6
CONTINUOUS
10
5.86625
20
-3.32221
11
5.87002
21
-3.32146
0
LINE
8
BLACK
6
CONTINUOUS
10
5.87002
20
-3.32146
11
5.89659
21
-3.32146
0
LINE
8
BLACK
6
CONTINUOUS
10
5.89659
20
-3.32146
11
5.90036
21
-3.32221
0
LINE
8
BLACK
6
CONTINUOUS
10
5.98205
20
-3.32221
11
5.98525
21
-3.32434
0
LINE
8
BLACK
6
CONTINUOUS
10
5.98525
20
-3.32434
11
5.98738
21
-3.32753
0
LINE
8
BLACK
6
CONTINUOUS
10
5.98738
20
-3.32753
11
5.98813
21
-3.3313
0
LINE
8
BLACK
6
CONTINUOUS
10
5.98813
20
-3.3313
11
5.98813
21
-3.3687
0
LINE
8
BLACK
6
CONTINUOUS
10
5.98813
20
-3.3687
11
5.98738
21
-3.37247
0
LINE
8
BLACK
6
CONTINUOUS
10
5.98738
20
-3.37247
11
5.98525
21
-3.37566
0
LINE
8
BLACK
6
CONTINUOUS
10
5.98525
20
-3.37566
11
5.98205
21
-3.37779
0
LINE
8
BLACK
6
CONTINUOUS
10
5.98205
20
-3.37779
11
5.97829
21
-3.37854
0
LINE
8
BLACK
6
CONTINUOUS
10
5.97829
20
-3.37854
11
5.95171
21
-3.37854
0
LINE
8
BLACK
6
CONTINUOUS
10
5.95171
20
-3.37854
11
5.94795
21
-3.37779
0
LINE
8
BLACK
6
CONTINUOUS
10
5.94795
20
-3.37779
11
5.94475
21
-3.37566
0
LINE
8
BLACK
6
CONTINUOUS
10
5.94475
20
-3.37566
11
5.94262
21
-3.37247
0
LINE
8
BLACK
6
CONTINUOUS
10
5.94262
20
-3.37247
11
5.94187
21
-3.3687
0
LINE
8
BLACK
6
CONTINUOUS
10
5.94187
20
-3.3687
11
5.94187
21
-3.3313
0
LINE
8
BLACK
6
CONTINUOUS
10
5.94187
20
-3.3313
11
5.94262
21
-3.32753
0
LINE
8
BLACK
6
CONTINUOUS
10
5.94262
20
-3.32753
11
5.94475
21
-3.32434
0
LINE
8
BLACK
6
CONTINUOUS
10
5.94475
20
-3.32434
11
5.94795
21
-3.32221
0
LINE
8
BLACK
6
CONTINUOUS
10
5.94795
20
-3.32221
11
5.95171
21
-3.32146
0
LINE
8
BLACK
6
CONTINUOUS
10
5.95171
20
-3.32146
11
5.97829
21
-3.32146
0
LINE
8
BLACK
6
CONTINUOUS
10
5.97829
20
-3.32146
11
5.98205
21
-3.32221
0
LINE
8
BLACK
6
CONTINUOUS
10
6.09121
20
-3.32221
11
6.0944
21
-3.32434
0
LINE
8
BLACK
6
CONTINUOUS
10
6.0944
20
-3.32434
11
6.09653
21
-3.32753
0
LINE
8
BLACK
6
CONTINUOUS
10
6.09653
20
-3.32753
11
6.09728
21
-3.3313
0
LINE
8
BLACK
6
CONTINUOUS
10
6.09728
20
-3.3313
11
6.09728
21
-3.3687
0
LINE
8
BLACK
6
CONTINUOUS
10
6.09728
20
-3.3687
11
6.09653
21
-3.37247
0
LINE
8
BLACK
6
CONTINUOUS
10
6.09653
20
-3.37247
11
6.0944
21
-3.37566
0
LINE
8
BLACK
6
CONTINUOUS
10
6.0944
20
-3.37566
11
6.09121
21
-3.37779
0
LINE
8
BLACK
6
CONTINUOUS
10
6.09121
20
-3.37779
11
6.08744
21
-3.37854
0
LINE
8
BLACK
6
CONTINUOUS
10
6.08744
20
-3.37854
11
6.06087
21
-3.37854
0
LINE
8
BLACK
6
CONTINUOUS
10
6.06087
20
-3.37854
11
6.0571
21
-3.37779
0
LINE
8
BLACK
6
CONTINUOUS
10
6.0571
20
-3.37779
11
6.05391
21
-3.37566
0
LINE
8
BLACK
6
CONTINUOUS
10
6.05391
20
-3.37566
11
6.05177
21
-3.37247
0
LINE
8
BLACK
6
CONTINUOUS
10
6.05177
20
-3.37247
11
6.05102
21
-3.3687
0
LINE
8
BLACK
6
CONTINUOUS
10
6.05102
20
-3.3687
11
6.05102
21
-3.3313
0
LINE
8
BLACK
6
CONTINUOUS
10
6.05102
20
-3.3313
11
6.05177
21
-3.32753
0
LINE
8
BLACK
6
CONTINUOUS
10
6.05177
20
-3.32753
11
6.05391
21
-3.32434
0
LINE
8
BLACK
6
CONTINUOUS
10
6.05391
20
-3.32434
11
6.0571
21
-3.32221
0
LINE
8
BLACK
6
CONTINUOUS
10
6.0571
20
-3.32221
11
6.06087
21
-3.32146
0
LINE
8
BLACK
6
CONTINUOUS
10
6.06087
20
-3.32146
11
6.08744
21
-3.32146
0
LINE
8
BLACK
6
CONTINUOUS
10
6.08744
20
-3.32146
11
6.09121
21
-3.32221
0
LINE
8
BLACK
6
CONTINUOUS
10
5.38648
20
-3.32213
11
5.38968
21
-3.32426
0
LINE
8
BLACK
6
CONTINUOUS
10
5.38968
20
-3.32426
11
5.39181
21
-3.32745
0
LINE
8
BLACK
6
CONTINUOUS
10
5.39181
20
-3.32745
11
5.39256
21
-3.33122
0
LINE
8
BLACK
6
CONTINUOUS
10
5.39256
20
-3.33122
11
5.39256
21
-3.35878
0
LINE
8
BLACK
6
CONTINUOUS
10
5.39256
20
-3.35878
11
5.39181
21
-3.36255
0
LINE
8
BLACK
6
CONTINUOUS
10
5.39181
20
-3.36255
11
5.38968
21
-3.36574
0
LINE
8
BLACK
6
CONTINUOUS
10
5.38968
20
-3.36574
11
5.38648
21
-3.36787
0
LINE
8
BLACK
6
CONTINUOUS
10
5.38648
20
-3.36787
11
5.38272
21
-3.36862
0
LINE
8
BLACK
6
CONTINUOUS
10
5.38272
20
-3.36862
11
5.34728
21
-3.36862
0
LINE
8
BLACK
6
CONTINUOUS
10
5.34728
20
-3.36862
11
5.34352
21
-3.36787
0
LINE
8
BLACK
6
CONTINUOUS
10
5.34352
20
-3.36787
11
5.34032
21
-3.36574
0
LINE
8
BLACK
6
CONTINUOUS
10
5.34032
20
-3.36574
11
5.33819
21
-3.36255
0
LINE
8
BLACK
6
CONTINUOUS
10
5.33819
20
-3.36255
11
5.33744
21
-3.35878
0
LINE
8
BLACK
6
CONTINUOUS
10
5.33744
20
-3.35878
11
5.33744
21
-3.33122
0
LINE
8
BLACK
6
CONTINUOUS
10
5.33744
20
-3.33122
11
5.33819
21
-3.32745
0
LINE
8
BLACK
6
CONTINUOUS
10
5.33819
20
-3.32745
11
5.34032
21
-3.32426
0
LINE
8
BLACK
6
CONTINUOUS
10
5.34032
20
-3.32426
11
5.34352
21
-3.32213
0
LINE
8
BLACK
6
CONTINUOUS
10
5.34352
20
-3.32213
11
5.34728
21
-3.32138
0
LINE
8
BLACK
6
CONTINUOUS
10
5.34728
20
-3.32138
11
5.38272
21
-3.32138
0
LINE
8
BLACK
6
CONTINUOUS
10
5.38272
20
-3.32138
11
5.38648
21
-3.32213
0
LINE
8
BLACK
6
CONTINUOUS
10
5.13148
20
-3.28776
11
5.13468
21
-3.28989
0
LINE
8
BLACK
6
CONTINUOUS
10
5.13468
20
-3.28989
11
5.13681
21
-3.29308
0
LINE
8
BLACK
6
CONTINUOUS
10
5.13681
20
-3.29308
11
5.13756
21
-3.29685
0
LINE
8
BLACK
6
CONTINUOUS
10
5.13756
20
-3.29685
11
5.13756
21
-3.32441
0
LINE
8
BLACK
6
CONTINUOUS
10
5.13756
20
-3.32441
11
5.13681
21
-3.32818
0
LINE
8
BLACK
6
CONTINUOUS
10
5.13681
20
-3.32818
11
5.13468
21
-3.33137
0
LINE
8
BLACK
6
CONTINUOUS
10
5.13468
20
-3.33137
11
5.13148
21
-3.3335
0
LINE
8
BLACK
6
CONTINUOUS
10
5.13148
20
-3.3335
11
5.12772
21
-3.33425
0
LINE
8
BLACK
6
CONTINUOUS
10
5.12772
20
-3.33425
11
5.09228
21
-3.33425
0
LINE
8
BLACK
6
CONTINUOUS
10
5.09228
20
-3.33425
11
5.08852
21
-3.3335
0
LINE
8
BLACK
6
CONTINUOUS
10
5.08852
20
-3.3335
11
5.08532
21
-3.33137
0
LINE
8
BLACK
6
CONTINUOUS
10
5.08532
20
-3.33137
11
5.08319
21
-3.32818
0
LINE
8
BLACK
6
CONTINUOUS
10
5.08319
20
-3.32818
11
5.08244
21
-3.32441
0
LINE
8
BLACK
6
CONTINUOUS
10
5.08244
20
-3.32441
11
5.08244
21
-3.29685
0
LINE
8
BLACK
6
CONTINUOUS
10
5.08244
20
-3.29685
11
5.08319
21
-3.29308
0
LINE
8
BLACK
6
CONTINUOUS
10
5.08319
20
-3.29308
11
5.08532
21
-3.28989
0
LINE
8
BLACK
6
CONTINUOUS
10
5.08532
20
-3.28989
11
5.08852
21
-3.28776
0
LINE
8
BLACK
6
CONTINUOUS
10
5.08852
20
-3.28776
11
5.09228
21
-3.28701
0
LINE
8
BLACK
6
CONTINUOUS
10
5.09228
20
-3.28701
11
5.12772
21
-3.28701
0
LINE
8
BLACK
6
CONTINUOUS
10
5.12772
20
-3.28701
11
5.13148
21
-3.28776
0
LINE
8
BLACK
6
CONTINUOUS
10
5.53747
20
-3.27177
11
5.54066
21
-3.27391
0
LINE
8
BLACK
6
CONTINUOUS
10
5.54066
20
-3.27391
11
5.54279
21
-3.2771
0
LINE
8
BLACK
6
CONTINUOUS
10
5.54279
20
-3.2771
11
5.54354
21
-3.28087
0
LINE
8
BLACK
6
CONTINUOUS
10
5.54354
20
-3.28087
11
5.54354
21
-3.30744
0
LINE
8
BLACK
6
CONTINUOUS
10
5.54354
20
-3.30744
11
5.54279
21
-3.31121
0
LINE
8
BLACK
6
CONTINUOUS
10
5.54279
20
-3.31121
11
5.54066
21
-3.3144
0
LINE
8
BLACK
6
CONTINUOUS
10
5.54066
20
-3.3144
11
5.53747
21
-3.31653
0
LINE
8
BLACK
6
CONTINUOUS
10
5.53747
20
-3.31653
11
5.5337
21
-3.31728
0
LINE
8
BLACK
6
CONTINUOUS
10
5.5337
20
-3.31728
11
5.4963
21
-3.31728
0
LINE
8
BLACK
6
CONTINUOUS
10
5.4963
20
-3.31728
11
5.49253
21
-3.31653
0
LINE
8
BLACK
6
CONTINUOUS
10
5.49253
20
-3.31653
11
5.48934
21
-3.3144
0
LINE
8
BLACK
6
CONTINUOUS
10
5.48934
20
-3.3144
11
5.48721
21
-3.31121
0
LINE
8
BLACK
6
CONTINUOUS
10
5.48721
20
-3.31121
11
5.48646
21
-3.30744
0
LINE
8
BLACK
6
CONTINUOUS
10
5.48646
20
-3.30744
11
5.48646
21
-3.28087
0
LINE
8
BLACK
6
CONTINUOUS
10
5.48646
20
-3.28087
11
5.48721
21
-3.2771
0
LINE
8
BLACK
6
CONTINUOUS
10
5.48721
20
-3.2771
11
5.48934
21
-3.27391
0
LINE
8
BLACK
6
CONTINUOUS
10
5.48934
20
-3.27391
11
5.49253
21
-3.27177
0
LINE
8
BLACK
6
CONTINUOUS
10
5.49253
20
-3.27177
11
5.4963
21
-3.27102
0
LINE
8
BLACK
6
CONTINUOUS
10
5.4963
20
-3.27102
11
5.5337
21
-3.27102
0
LINE
8
BLACK
6
CONTINUOUS
10
5.5337
20
-3.27102
11
5.53747
21
-3.27177
0
LINE
8
BLACK
6
CONTINUOUS
10
5.38648
20
-3.24339
11
5.38968
21
-3.24552
0
LINE
8
BLACK
6
CONTINUOUS
10
5.38968
20
-3.24552
11
5.39181
21
-3.24871
0
LINE
8
BLACK
6
CONTINUOUS
10
5.39181
20
-3.24871
11
5.39256
21
-3.25248
0
LINE
8
BLACK
6
CONTINUOUS
10
5.39256
20
-3.25248
11
5.39256
21
-3.28004
0
LINE
8
BLACK
6
CONTINUOUS
10
5.39256
20
-3.28004
11
5.39181
21
-3.28381
0
LINE
8
BLACK
6
CONTINUOUS
10
5.39181
20
-3.28381
11
5.38968
21
-3.287
0
LINE
8
BLACK
6
CONTINUOUS
10
5.38968
20
-3.287
11
5.38648
21
-3.28913
0
LINE
8
BLACK
6
CONTINUOUS
10
5.38648
20
-3.28913
11
5.38272
21
-3.28988
0
LINE
8
BLACK
6
CONTINUOUS
10
5.38272
20
-3.28988
11
5.34728
21
-3.28988
0
LINE
8
BLACK
6
CONTINUOUS
10
5.34728
20
-3.28988
11
5.34352
21
-3.28913
0
LINE
8
BLACK
6
CONTINUOUS
10
5.34352
20
-3.28913
11
5.34032
21
-3.287
0
LINE
8
BLACK
6
CONTINUOUS
10
5.34032
20
-3.287
11
5.33819
21
-3.28381
0
LINE
8
BLACK
6
CONTINUOUS
10
5.33819
20
-3.28381
11
5.33744
21
-3.28004
0
LINE
8
BLACK
6
CONTINUOUS
10
5.33744
20
-3.28004
11
5.33744
21
-3.25248
0
LINE
8
BLACK
6
CONTINUOUS
10
5.33744
20
-3.25248
11
5.33819
21
-3.24871
0
LINE
8
BLACK
6
CONTINUOUS
10
5.33819
20
-3.24871
11
5.34032
21
-3.24552
0
LINE
8
BLACK
6
CONTINUOUS
10
5.34032
20
-3.24552
11
5.34352
21
-3.24339
0
LINE
8
BLACK
6
CONTINUOUS
10
5.34352
20
-3.24339
11
5.34728
21
-3.24264
0
LINE
8
BLACK
6
CONTINUOUS
10
5.34728
20
-3.24264
11
5.38272
21
-3.24264
0
LINE
8
BLACK
6
CONTINUOUS
10
5.38272
20
-3.24264
11
5.38648
21
-3.24339
  0
ENDSEC
  0
EOF
